G04 #@! TF.GenerationSoftware,KiCad,Pcbnew,5.0.2-bee76a0~70~ubuntu18.04.1*
G04 #@! TF.CreationDate,2019-10-21T17:09:24+02:00*
G04 #@! TF.ProjectId,easyhive_1_3,65617379-6869-4766-955f-315f332e6b69,rev?*
G04 #@! TF.SameCoordinates,Original*
G04 #@! TF.FileFunction,Legend,Top*
G04 #@! TF.FilePolarity,Positive*
%FSLAX46Y46*%
G04 Gerber Fmt 4.6, Leading zero omitted, Abs format (unit mm)*
G04 Created by KiCad (PCBNEW 5.0.2-bee76a0~70~ubuntu18.04.1) date Mo 21 Okt 2019 17:09:24 CEST*
%MOMM*%
%LPD*%
G01*
G04 APERTURE LIST*
%ADD10C,0.101600*%
%ADD11C,0.150000*%
%ADD12C,0.254000*%
%ADD13C,0.127000*%
%ADD14C,0.203200*%
%ADD15C,0.100000*%
%ADD16C,0.200000*%
%ADD17C,0.152400*%
%ADD18C,0.050800*%
%ADD19C,0.096520*%
%ADD20C,0.032512*%
G04 APERTURE END LIST*
D10*
X135933487Y-77894276D02*
X136071373Y-77940238D01*
X136301182Y-77940238D01*
X136393106Y-77894276D01*
X136439068Y-77848314D01*
X136485030Y-77756390D01*
X136485030Y-77664466D01*
X136439068Y-77572542D01*
X136393106Y-77526580D01*
X136301182Y-77480619D01*
X136117335Y-77434657D01*
X136025411Y-77388695D01*
X135979449Y-77342733D01*
X135933487Y-77250809D01*
X135933487Y-77158885D01*
X135979449Y-77066961D01*
X136025411Y-77021000D01*
X136117335Y-76975038D01*
X136347144Y-76975038D01*
X136485030Y-77021000D01*
X136898687Y-77572542D02*
X137634078Y-77572542D01*
X137266382Y-77940238D02*
X137266382Y-77204847D01*
X135933487Y-79894276D02*
X136071373Y-79940238D01*
X136301182Y-79940238D01*
X136393106Y-79894276D01*
X136439068Y-79848314D01*
X136485030Y-79756390D01*
X136485030Y-79664466D01*
X136439068Y-79572542D01*
X136393106Y-79526580D01*
X136301182Y-79480619D01*
X136117335Y-79434657D01*
X136025411Y-79388695D01*
X135979449Y-79342733D01*
X135933487Y-79250809D01*
X135933487Y-79158885D01*
X135979449Y-79066961D01*
X136025411Y-79021000D01*
X136117335Y-78975038D01*
X136347144Y-78975038D01*
X136485030Y-79021000D01*
X136898687Y-79572542D02*
X137634078Y-79572542D01*
X135570025Y-85110038D02*
X135799835Y-86075238D01*
X135983682Y-85385809D01*
X136167530Y-86075238D01*
X136397340Y-85110038D01*
X136719073Y-86029276D02*
X136856959Y-86075238D01*
X137086768Y-86075238D01*
X137178692Y-86029276D01*
X137224654Y-85983314D01*
X137270616Y-85891390D01*
X137270616Y-85799466D01*
X137224654Y-85707542D01*
X137178692Y-85661580D01*
X137086768Y-85615619D01*
X136902920Y-85569657D01*
X136810997Y-85523695D01*
X136765035Y-85477733D01*
X136719073Y-85385809D01*
X136719073Y-85293885D01*
X136765035Y-85201961D01*
X136810997Y-85156000D01*
X136902920Y-85110038D01*
X137132730Y-85110038D01*
X137270616Y-85156000D01*
X135615987Y-88076776D02*
X135753873Y-88122738D01*
X135983682Y-88122738D01*
X136075606Y-88076776D01*
X136121568Y-88030814D01*
X136167530Y-87938890D01*
X136167530Y-87846966D01*
X136121568Y-87755042D01*
X136075606Y-87709080D01*
X135983682Y-87663119D01*
X135799835Y-87617157D01*
X135707911Y-87571195D01*
X135661949Y-87525233D01*
X135615987Y-87433309D01*
X135615987Y-87341385D01*
X135661949Y-87249461D01*
X135707911Y-87203500D01*
X135799835Y-87157538D01*
X136029644Y-87157538D01*
X136167530Y-87203500D01*
X136581187Y-88122738D02*
X136581187Y-87157538D01*
X136810997Y-87157538D01*
X136948882Y-87203500D01*
X137040806Y-87295423D01*
X137086768Y-87387347D01*
X137132730Y-87571195D01*
X137132730Y-87709080D01*
X137086768Y-87892928D01*
X137040806Y-87984852D01*
X136948882Y-88076776D01*
X136810997Y-88122738D01*
X136581187Y-88122738D01*
X135615987Y-89894276D02*
X135753873Y-89940238D01*
X135983682Y-89940238D01*
X136075606Y-89894276D01*
X136121568Y-89848314D01*
X136167530Y-89756390D01*
X136167530Y-89664466D01*
X136121568Y-89572542D01*
X136075606Y-89526580D01*
X135983682Y-89480619D01*
X135799835Y-89434657D01*
X135707911Y-89388695D01*
X135661949Y-89342733D01*
X135615987Y-89250809D01*
X135615987Y-89158885D01*
X135661949Y-89066961D01*
X135707911Y-89021000D01*
X135799835Y-88975038D01*
X136029644Y-88975038D01*
X136167530Y-89021000D01*
X137132730Y-89848314D02*
X137086768Y-89894276D01*
X136948882Y-89940238D01*
X136856959Y-89940238D01*
X136719073Y-89894276D01*
X136627149Y-89802352D01*
X136581187Y-89710428D01*
X136535225Y-89526580D01*
X136535225Y-89388695D01*
X136581187Y-89204847D01*
X136627149Y-89112923D01*
X136719073Y-89021000D01*
X136856959Y-88975038D01*
X136948882Y-88975038D01*
X137086768Y-89021000D01*
X137132730Y-89066961D01*
X137546387Y-89940238D02*
X137546387Y-88975038D01*
X138097930Y-89940238D02*
X137684273Y-89388695D01*
X138097930Y-88975038D02*
X137546387Y-89526580D01*
X135841563Y-94975038D02*
X136393106Y-94975038D01*
X136117335Y-95940238D02*
X136117335Y-94975038D01*
X136668878Y-95894276D02*
X136806763Y-95940238D01*
X137036573Y-95940238D01*
X137128497Y-95894276D01*
X137174459Y-95848314D01*
X137220420Y-95756390D01*
X137220420Y-95664466D01*
X137174459Y-95572542D01*
X137128497Y-95526580D01*
X137036573Y-95480619D01*
X136852725Y-95434657D01*
X136760801Y-95388695D01*
X136714840Y-95342733D01*
X136668878Y-95250809D01*
X136668878Y-95158885D01*
X136714840Y-95066961D01*
X136760801Y-95021000D01*
X136852725Y-94975038D01*
X137082535Y-94975038D01*
X137220420Y-95021000D01*
X136301182Y-97434657D02*
X136439068Y-97480619D01*
X136485030Y-97526580D01*
X136530992Y-97618504D01*
X136530992Y-97756390D01*
X136485030Y-97848314D01*
X136439068Y-97894276D01*
X136347144Y-97940238D01*
X135979449Y-97940238D01*
X135979449Y-96975038D01*
X136301182Y-96975038D01*
X136393106Y-97021000D01*
X136439068Y-97066961D01*
X136485030Y-97158885D01*
X136485030Y-97250809D01*
X136439068Y-97342733D01*
X136393106Y-97388695D01*
X136301182Y-97434657D01*
X135979449Y-97434657D01*
X136944649Y-97572542D02*
X137680040Y-97572542D01*
X136301182Y-99434657D02*
X136439068Y-99480619D01*
X136485030Y-99526580D01*
X136530992Y-99618504D01*
X136530992Y-99756390D01*
X136485030Y-99848314D01*
X136439068Y-99894276D01*
X136347144Y-99940238D01*
X135979449Y-99940238D01*
X135979449Y-98975038D01*
X136301182Y-98975038D01*
X136393106Y-99021000D01*
X136439068Y-99066961D01*
X136485030Y-99158885D01*
X136485030Y-99250809D01*
X136439068Y-99342733D01*
X136393106Y-99388695D01*
X136301182Y-99434657D01*
X135979449Y-99434657D01*
X136944649Y-99572542D02*
X137680040Y-99572542D01*
X137312344Y-99940238D02*
X137312344Y-99204847D01*
X138750987Y-104894276D02*
X138888873Y-104940238D01*
X139118682Y-104940238D01*
X139210606Y-104894276D01*
X139256568Y-104848314D01*
X139302530Y-104756390D01*
X139302530Y-104664466D01*
X139256568Y-104572542D01*
X139210606Y-104526580D01*
X139118682Y-104480619D01*
X138934835Y-104434657D01*
X138842911Y-104388695D01*
X138796949Y-104342733D01*
X138750987Y-104250809D01*
X138750987Y-104158885D01*
X138796949Y-104066961D01*
X138842911Y-104021000D01*
X138934835Y-103975038D01*
X139164644Y-103975038D01*
X139302530Y-104021000D01*
X140267730Y-104848314D02*
X140221768Y-104894276D01*
X140083882Y-104940238D01*
X139991959Y-104940238D01*
X139854073Y-104894276D01*
X139762149Y-104802352D01*
X139716187Y-104710428D01*
X139670225Y-104526580D01*
X139670225Y-104388695D01*
X139716187Y-104204847D01*
X139762149Y-104112923D01*
X139854073Y-104021000D01*
X139991959Y-103975038D01*
X140083882Y-103975038D01*
X140221768Y-104021000D01*
X140267730Y-104066961D01*
X141141006Y-104940238D02*
X140681387Y-104940238D01*
X140681387Y-103975038D01*
X138750987Y-106394276D02*
X138888873Y-106440238D01*
X139118682Y-106440238D01*
X139210606Y-106394276D01*
X139256568Y-106348314D01*
X139302530Y-106256390D01*
X139302530Y-106164466D01*
X139256568Y-106072542D01*
X139210606Y-106026580D01*
X139118682Y-105980619D01*
X138934835Y-105934657D01*
X138842911Y-105888695D01*
X138796949Y-105842733D01*
X138750987Y-105750809D01*
X138750987Y-105658885D01*
X138796949Y-105566961D01*
X138842911Y-105521000D01*
X138934835Y-105475038D01*
X139164644Y-105475038D01*
X139302530Y-105521000D01*
X139716187Y-106440238D02*
X139716187Y-105475038D01*
X139945997Y-105475038D01*
X140083882Y-105521000D01*
X140175806Y-105612923D01*
X140221768Y-105704847D01*
X140267730Y-105888695D01*
X140267730Y-106026580D01*
X140221768Y-106210428D01*
X140175806Y-106302352D01*
X140083882Y-106394276D01*
X139945997Y-106440238D01*
X139716187Y-106440238D01*
X140635425Y-106164466D02*
X141095044Y-106164466D01*
X140543501Y-106440238D02*
X140865235Y-105475038D01*
X141186968Y-106440238D01*
X135979449Y-119940238D02*
X135979449Y-118975038D01*
X136347144Y-118975038D01*
X136439068Y-119021000D01*
X136485030Y-119066961D01*
X136530992Y-119158885D01*
X136530992Y-119296771D01*
X136485030Y-119388695D01*
X136439068Y-119434657D01*
X136347144Y-119480619D01*
X135979449Y-119480619D01*
X136898687Y-119066961D02*
X136944649Y-119021000D01*
X137036573Y-118975038D01*
X137266382Y-118975038D01*
X137358306Y-119021000D01*
X137404268Y-119066961D01*
X137450230Y-119158885D01*
X137450230Y-119250809D01*
X137404268Y-119388695D01*
X136852725Y-119940238D01*
X137450230Y-119940238D01*
X135979449Y-117940238D02*
X135979449Y-116975038D01*
X136530992Y-117940238D01*
X136530992Y-116975038D01*
X136944649Y-117066961D02*
X136990611Y-117021000D01*
X137082535Y-116975038D01*
X137312344Y-116975038D01*
X137404268Y-117021000D01*
X137450230Y-117066961D01*
X137496192Y-117158885D01*
X137496192Y-117250809D01*
X137450230Y-117388695D01*
X136898687Y-117940238D01*
X137496192Y-117940238D01*
X135979449Y-129622738D02*
X135979449Y-128657538D01*
X136530992Y-129622738D01*
X136530992Y-128657538D01*
X137496192Y-129622738D02*
X136944649Y-129622738D01*
X137220420Y-129622738D02*
X137220420Y-128657538D01*
X137128497Y-128795423D01*
X137036573Y-128887347D01*
X136944649Y-128933309D01*
X137249449Y-130987738D02*
X137249449Y-130022538D01*
X137617144Y-130022538D01*
X137709068Y-130068500D01*
X137755030Y-130114461D01*
X137800992Y-130206385D01*
X137800992Y-130344271D01*
X137755030Y-130436195D01*
X137709068Y-130482157D01*
X137617144Y-130528119D01*
X137249449Y-130528119D01*
X138720230Y-130987738D02*
X138168687Y-130987738D01*
X138444459Y-130987738D02*
X138444459Y-130022538D01*
X138352535Y-130160423D01*
X138260611Y-130252347D01*
X138168687Y-130298309D01*
X158728888Y-77503600D02*
X158636964Y-77457638D01*
X158499079Y-77457638D01*
X158361193Y-77503600D01*
X158269269Y-77595523D01*
X158223307Y-77687447D01*
X158177345Y-77871295D01*
X158177345Y-78009180D01*
X158223307Y-78193028D01*
X158269269Y-78284952D01*
X158361193Y-78376876D01*
X158499079Y-78422838D01*
X158591002Y-78422838D01*
X158728888Y-78376876D01*
X158774850Y-78330914D01*
X158774850Y-78009180D01*
X158591002Y-78009180D01*
X159188507Y-78422838D02*
X159188507Y-77457638D01*
X159740050Y-78422838D01*
X159740050Y-77457638D01*
X160199669Y-78422838D02*
X160199669Y-77457638D01*
X160429479Y-77457638D01*
X160567364Y-77503600D01*
X160659288Y-77595523D01*
X160705250Y-77687447D01*
X160751212Y-77871295D01*
X160751212Y-78009180D01*
X160705250Y-78193028D01*
X160659288Y-78284952D01*
X160567364Y-78376876D01*
X160429479Y-78422838D01*
X160199669Y-78422838D01*
X157533879Y-80422838D02*
X157533879Y-79457638D01*
X158085421Y-80422838D01*
X158085421Y-79457638D01*
X159096583Y-80422838D02*
X158774850Y-79963219D01*
X158545040Y-80422838D02*
X158545040Y-79457638D01*
X158912736Y-79457638D01*
X159004660Y-79503600D01*
X159050621Y-79549561D01*
X159096583Y-79641485D01*
X159096583Y-79779371D01*
X159050621Y-79871295D01*
X159004660Y-79917257D01*
X158912736Y-79963219D01*
X158545040Y-79963219D01*
X159464279Y-80376876D02*
X159602164Y-80422838D01*
X159831974Y-80422838D01*
X159923898Y-80376876D01*
X159969860Y-80330914D01*
X160015821Y-80238990D01*
X160015821Y-80147066D01*
X159969860Y-80055142D01*
X159923898Y-80009180D01*
X159831974Y-79963219D01*
X159648126Y-79917257D01*
X159556202Y-79871295D01*
X159510240Y-79825333D01*
X159464279Y-79733409D01*
X159464279Y-79641485D01*
X159510240Y-79549561D01*
X159556202Y-79503600D01*
X159648126Y-79457638D01*
X159877936Y-79457638D01*
X160015821Y-79503600D01*
X160291593Y-79457638D02*
X160843136Y-79457638D01*
X160567364Y-80422838D02*
X160567364Y-79457638D01*
X156384831Y-82376876D02*
X156522717Y-82422838D01*
X156752526Y-82422838D01*
X156844450Y-82376876D01*
X156890412Y-82330914D01*
X156936374Y-82238990D01*
X156936374Y-82147066D01*
X156890412Y-82055142D01*
X156844450Y-82009180D01*
X156752526Y-81963219D01*
X156568679Y-81917257D01*
X156476755Y-81871295D01*
X156430793Y-81825333D01*
X156384831Y-81733409D01*
X156384831Y-81641485D01*
X156430793Y-81549561D01*
X156476755Y-81503600D01*
X156568679Y-81457638D01*
X156798488Y-81457638D01*
X156936374Y-81503600D01*
X157258107Y-81457638D02*
X157487917Y-82422838D01*
X157671764Y-81733409D01*
X157855612Y-82422838D01*
X158085421Y-81457638D01*
X159004660Y-82330914D02*
X158958698Y-82376876D01*
X158820812Y-82422838D01*
X158728888Y-82422838D01*
X158591002Y-82376876D01*
X158499079Y-82284952D01*
X158453117Y-82193028D01*
X158407155Y-82009180D01*
X158407155Y-81871295D01*
X158453117Y-81687447D01*
X158499079Y-81595523D01*
X158591002Y-81503600D01*
X158728888Y-81457638D01*
X158820812Y-81457638D01*
X158958698Y-81503600D01*
X159004660Y-81549561D01*
X159877936Y-82422838D02*
X159418317Y-82422838D01*
X159418317Y-81457638D01*
X160199669Y-82422838D02*
X160199669Y-81457638D01*
X160751212Y-82422838D02*
X160337555Y-81871295D01*
X160751212Y-81457638D02*
X160199669Y-82009180D01*
X155343102Y-85694376D02*
X155480988Y-85740338D01*
X155710798Y-85740338D01*
X155802721Y-85694376D01*
X155848683Y-85648414D01*
X155894645Y-85556490D01*
X155894645Y-85464566D01*
X155848683Y-85372642D01*
X155802721Y-85326680D01*
X155710798Y-85280719D01*
X155526950Y-85234757D01*
X155435026Y-85188795D01*
X155389064Y-85142833D01*
X155343102Y-85050909D01*
X155343102Y-84958985D01*
X155389064Y-84867061D01*
X155435026Y-84821100D01*
X155526950Y-84775138D01*
X155756760Y-84775138D01*
X155894645Y-84821100D01*
X156216379Y-84775138D02*
X156446188Y-85740338D01*
X156630036Y-85050909D01*
X156813883Y-85740338D01*
X157043693Y-84775138D01*
X157411388Y-85740338D02*
X157411388Y-84775138D01*
X157641198Y-84775138D01*
X157779083Y-84821100D01*
X157871007Y-84913023D01*
X157916969Y-85004947D01*
X157962931Y-85188795D01*
X157962931Y-85326680D01*
X157916969Y-85510528D01*
X157871007Y-85602452D01*
X157779083Y-85694376D01*
X157641198Y-85740338D01*
X157411388Y-85740338D01*
X158376588Y-85740338D02*
X158376588Y-84775138D01*
X159020055Y-84775138D02*
X159203902Y-84775138D01*
X159295826Y-84821100D01*
X159387750Y-84913023D01*
X159433712Y-85096871D01*
X159433712Y-85418604D01*
X159387750Y-85602452D01*
X159295826Y-85694376D01*
X159203902Y-85740338D01*
X159020055Y-85740338D01*
X158928131Y-85694376D01*
X158836207Y-85602452D01*
X158790245Y-85418604D01*
X158790245Y-85096871D01*
X158836207Y-84913023D01*
X158928131Y-84821100D01*
X159020055Y-84775138D01*
X156034069Y-87007642D02*
X156769460Y-87007642D01*
X156401764Y-87375338D02*
X156401764Y-86639947D01*
X157137155Y-86410138D02*
X157734660Y-86410138D01*
X157412926Y-86777833D01*
X157550812Y-86777833D01*
X157642736Y-86823795D01*
X157688698Y-86869757D01*
X157734660Y-86961680D01*
X157734660Y-87191490D01*
X157688698Y-87283414D01*
X157642736Y-87329376D01*
X157550812Y-87375338D01*
X157275040Y-87375338D01*
X157183117Y-87329376D01*
X157137155Y-87283414D01*
X158010431Y-86410138D02*
X158332164Y-87375338D01*
X158653898Y-86410138D01*
X158883707Y-86410138D02*
X159481212Y-86410138D01*
X159159479Y-86777833D01*
X159297364Y-86777833D01*
X159389288Y-86823795D01*
X159435250Y-86869757D01*
X159481212Y-86961680D01*
X159481212Y-87191490D01*
X159435250Y-87283414D01*
X159389288Y-87329376D01*
X159297364Y-87375338D01*
X159021593Y-87375338D01*
X158929669Y-87329376D01*
X158883707Y-87283414D01*
D11*
X138001100Y-106503600D02*
X136183600Y-106503600D01*
X136183600Y-106503600D02*
X135183600Y-107503600D01*
X138001100Y-105003600D02*
X135683600Y-105003600D01*
X135683600Y-105003600D02*
X135183600Y-105503600D01*
X160683600Y-84821100D02*
X162001100Y-83503600D01*
X160183600Y-84821100D02*
X160683600Y-84821100D01*
D10*
X136485030Y-82703500D02*
X136393106Y-82657538D01*
X136255220Y-82657538D01*
X136117335Y-82703500D01*
X136025411Y-82795423D01*
X135979449Y-82887347D01*
X135933487Y-83071195D01*
X135933487Y-83209080D01*
X135979449Y-83392928D01*
X136025411Y-83484852D01*
X136117335Y-83576776D01*
X136255220Y-83622738D01*
X136347144Y-83622738D01*
X136485030Y-83576776D01*
X136530992Y-83530814D01*
X136530992Y-83209080D01*
X136347144Y-83209080D01*
X136944649Y-83622738D02*
X136944649Y-82657538D01*
X137496192Y-83622738D01*
X137496192Y-82657538D01*
X137955811Y-83622738D02*
X137955811Y-82657538D01*
X138185620Y-82657538D01*
X138323506Y-82703500D01*
X138415430Y-82795423D01*
X138461392Y-82887347D01*
X138507354Y-83071195D01*
X138507354Y-83209080D01*
X138461392Y-83392928D01*
X138415430Y-83484852D01*
X138323506Y-83576776D01*
X138185620Y-83622738D01*
X137955811Y-83622738D01*
X136485030Y-103021000D02*
X136393106Y-102975038D01*
X136255220Y-102975038D01*
X136117335Y-103021000D01*
X136025411Y-103112923D01*
X135979449Y-103204847D01*
X135933487Y-103388695D01*
X135933487Y-103526580D01*
X135979449Y-103710428D01*
X136025411Y-103802352D01*
X136117335Y-103894276D01*
X136255220Y-103940238D01*
X136347144Y-103940238D01*
X136485030Y-103894276D01*
X136530992Y-103848314D01*
X136530992Y-103526580D01*
X136347144Y-103526580D01*
X136944649Y-103940238D02*
X136944649Y-102975038D01*
X137496192Y-103940238D01*
X137496192Y-102975038D01*
X137955811Y-103940238D02*
X137955811Y-102975038D01*
X138185620Y-102975038D01*
X138323506Y-103021000D01*
X138415430Y-103112923D01*
X138461392Y-103204847D01*
X138507354Y-103388695D01*
X138507354Y-103526580D01*
X138461392Y-103710428D01*
X138415430Y-103802352D01*
X138323506Y-103894276D01*
X138185620Y-103940238D01*
X137955811Y-103940238D01*
X136485030Y-115021000D02*
X136393106Y-114975038D01*
X136255220Y-114975038D01*
X136117335Y-115021000D01*
X136025411Y-115112923D01*
X135979449Y-115204847D01*
X135933487Y-115388695D01*
X135933487Y-115526580D01*
X135979449Y-115710428D01*
X136025411Y-115802352D01*
X136117335Y-115894276D01*
X136255220Y-115940238D01*
X136347144Y-115940238D01*
X136485030Y-115894276D01*
X136530992Y-115848314D01*
X136530992Y-115526580D01*
X136347144Y-115526580D01*
X136944649Y-115940238D02*
X136944649Y-114975038D01*
X137496192Y-115940238D01*
X137496192Y-114975038D01*
X137955811Y-115940238D02*
X137955811Y-114975038D01*
X138185620Y-114975038D01*
X138323506Y-115021000D01*
X138415430Y-115112923D01*
X138461392Y-115204847D01*
X138507354Y-115388695D01*
X138507354Y-115526580D01*
X138461392Y-115710428D01*
X138415430Y-115802352D01*
X138323506Y-115894276D01*
X138185620Y-115940238D01*
X137955811Y-115940238D01*
X136485030Y-113021000D02*
X136393106Y-112975038D01*
X136255220Y-112975038D01*
X136117335Y-113021000D01*
X136025411Y-113112923D01*
X135979449Y-113204847D01*
X135933487Y-113388695D01*
X135933487Y-113526580D01*
X135979449Y-113710428D01*
X136025411Y-113802352D01*
X136117335Y-113894276D01*
X136255220Y-113940238D01*
X136347144Y-113940238D01*
X136485030Y-113894276D01*
X136530992Y-113848314D01*
X136530992Y-113526580D01*
X136347144Y-113526580D01*
X136944649Y-113940238D02*
X136944649Y-112975038D01*
X137496192Y-113940238D01*
X137496192Y-112975038D01*
X137955811Y-113940238D02*
X137955811Y-112975038D01*
X138185620Y-112975038D01*
X138323506Y-113021000D01*
X138415430Y-113112923D01*
X138461392Y-113204847D01*
X138507354Y-113388695D01*
X138507354Y-113526580D01*
X138461392Y-113710428D01*
X138415430Y-113802352D01*
X138323506Y-113894276D01*
X138185620Y-113940238D01*
X137955811Y-113940238D01*
X136485030Y-127021000D02*
X136393106Y-126975038D01*
X136255220Y-126975038D01*
X136117335Y-127021000D01*
X136025411Y-127112923D01*
X135979449Y-127204847D01*
X135933487Y-127388695D01*
X135933487Y-127526580D01*
X135979449Y-127710428D01*
X136025411Y-127802352D01*
X136117335Y-127894276D01*
X136255220Y-127940238D01*
X136347144Y-127940238D01*
X136485030Y-127894276D01*
X136530992Y-127848314D01*
X136530992Y-127526580D01*
X136347144Y-127526580D01*
X136944649Y-127940238D02*
X136944649Y-126975038D01*
X137496192Y-127940238D01*
X137496192Y-126975038D01*
X137955811Y-127940238D02*
X137955811Y-126975038D01*
X138185620Y-126975038D01*
X138323506Y-127021000D01*
X138415430Y-127112923D01*
X138461392Y-127204847D01*
X138507354Y-127388695D01*
X138507354Y-127526580D01*
X138461392Y-127710428D01*
X138415430Y-127802352D01*
X138323506Y-127894276D01*
X138185620Y-127940238D01*
X137955811Y-127940238D01*
X136485030Y-125021000D02*
X136393106Y-124975038D01*
X136255220Y-124975038D01*
X136117335Y-125021000D01*
X136025411Y-125112923D01*
X135979449Y-125204847D01*
X135933487Y-125388695D01*
X135933487Y-125526580D01*
X135979449Y-125710428D01*
X136025411Y-125802352D01*
X136117335Y-125894276D01*
X136255220Y-125940238D01*
X136347144Y-125940238D01*
X136485030Y-125894276D01*
X136530992Y-125848314D01*
X136530992Y-125526580D01*
X136347144Y-125526580D01*
X136944649Y-125940238D02*
X136944649Y-124975038D01*
X137496192Y-125940238D01*
X137496192Y-124975038D01*
X137955811Y-125940238D02*
X137955811Y-124975038D01*
X138185620Y-124975038D01*
X138323506Y-125021000D01*
X138415430Y-125112923D01*
X138461392Y-125204847D01*
X138507354Y-125388695D01*
X138507354Y-125526580D01*
X138461392Y-125710428D01*
X138415430Y-125802352D01*
X138323506Y-125894276D01*
X138185620Y-125940238D01*
X137955811Y-125940238D01*
X135841563Y-120657538D02*
X136163297Y-121622738D01*
X136485030Y-120657538D01*
X136806763Y-121622738D02*
X136806763Y-120657538D01*
X137036573Y-120657538D01*
X137174459Y-120703500D01*
X137266382Y-120795423D01*
X137312344Y-120887347D01*
X137358306Y-121071195D01*
X137358306Y-121209080D01*
X137312344Y-121392928D01*
X137266382Y-121484852D01*
X137174459Y-121576776D01*
X137036573Y-121622738D01*
X136806763Y-121622738D01*
X137771963Y-121622738D02*
X137771963Y-120657538D01*
X138001773Y-120657538D01*
X138139659Y-120703500D01*
X138231582Y-120795423D01*
X138277544Y-120887347D01*
X138323506Y-121071195D01*
X138323506Y-121209080D01*
X138277544Y-121392928D01*
X138231582Y-121484852D01*
X138139659Y-121576776D01*
X138001773Y-121622738D01*
X137771963Y-121622738D01*
X135841563Y-132975038D02*
X136163297Y-133940238D01*
X136485030Y-132975038D01*
X136806763Y-133940238D02*
X136806763Y-132975038D01*
X137036573Y-132975038D01*
X137174459Y-133021000D01*
X137266382Y-133112923D01*
X137312344Y-133204847D01*
X137358306Y-133388695D01*
X137358306Y-133526580D01*
X137312344Y-133710428D01*
X137266382Y-133802352D01*
X137174459Y-133894276D01*
X137036573Y-133940238D01*
X136806763Y-133940238D01*
X137771963Y-133940238D02*
X137771963Y-132975038D01*
X138001773Y-132975038D01*
X138139659Y-133021000D01*
X138231582Y-133112923D01*
X138277544Y-133204847D01*
X138323506Y-133388695D01*
X138323506Y-133526580D01*
X138277544Y-133710428D01*
X138231582Y-133802352D01*
X138139659Y-133894276D01*
X138001773Y-133940238D01*
X137771963Y-133940238D01*
X136129449Y-93575042D02*
X136864840Y-93575042D01*
X136497144Y-93942738D02*
X136497144Y-93207347D01*
X137232535Y-92977538D02*
X137830040Y-92977538D01*
X137508306Y-93345233D01*
X137646192Y-93345233D01*
X137738116Y-93391195D01*
X137784078Y-93437157D01*
X137830040Y-93529080D01*
X137830040Y-93758890D01*
X137784078Y-93850814D01*
X137738116Y-93896776D01*
X137646192Y-93942738D01*
X137370420Y-93942738D01*
X137278497Y-93896776D01*
X137232535Y-93850814D01*
X138105811Y-92977538D02*
X138427544Y-93942738D01*
X138749278Y-92977538D01*
X138979087Y-92977538D02*
X139576592Y-92977538D01*
X139254859Y-93345233D01*
X139392744Y-93345233D01*
X139484668Y-93391195D01*
X139530630Y-93437157D01*
X139576592Y-93529080D01*
X139576592Y-93758890D01*
X139530630Y-93850814D01*
X139484668Y-93896776D01*
X139392744Y-93942738D01*
X139116973Y-93942738D01*
X139025049Y-93896776D01*
X138979087Y-93850814D01*
X135796949Y-110072542D02*
X136532340Y-110072542D01*
X136164644Y-110440238D02*
X136164644Y-109704847D01*
X136900035Y-109475038D02*
X137497540Y-109475038D01*
X137175806Y-109842733D01*
X137313692Y-109842733D01*
X137405616Y-109888695D01*
X137451578Y-109934657D01*
X137497540Y-110026580D01*
X137497540Y-110256390D01*
X137451578Y-110348314D01*
X137405616Y-110394276D01*
X137313692Y-110440238D01*
X137037920Y-110440238D01*
X136945997Y-110394276D01*
X136900035Y-110348314D01*
X137773311Y-109475038D02*
X138095044Y-110440238D01*
X138416778Y-109475038D01*
X138646587Y-109475038D02*
X139244092Y-109475038D01*
X138922359Y-109842733D01*
X139060244Y-109842733D01*
X139152168Y-109888695D01*
X139198130Y-109934657D01*
X139244092Y-110026580D01*
X139244092Y-110256390D01*
X139198130Y-110348314D01*
X139152168Y-110394276D01*
X139060244Y-110440238D01*
X138784473Y-110440238D01*
X138692549Y-110394276D01*
X138646587Y-110348314D01*
D11*
X135446100Y-131391100D02*
X136081100Y-130756100D01*
X136081100Y-130756100D02*
X136398600Y-130756100D01*
X160211100Y-86306100D02*
X161163600Y-86306100D01*
X161163600Y-86306100D02*
X162116100Y-85353600D01*
X135128600Y-91703600D02*
X136398600Y-92973600D01*
D12*
X162578742Y-132873976D02*
X162578742Y-132069642D01*
X163842695Y-131724928D02*
X163842695Y-132873976D01*
X161429695Y-132873976D01*
X161429695Y-131724928D01*
X163842695Y-129656642D02*
X162578742Y-129656642D01*
X162348933Y-129771547D01*
X162234028Y-130001357D01*
X162234028Y-130460976D01*
X162348933Y-130690785D01*
X163727790Y-129656642D02*
X163842695Y-129886452D01*
X163842695Y-130460976D01*
X163727790Y-130690785D01*
X163497980Y-130805690D01*
X163268171Y-130805690D01*
X163038361Y-130690785D01*
X162923457Y-130460976D01*
X162923457Y-129886452D01*
X162808552Y-129656642D01*
X163727790Y-128622500D02*
X163842695Y-128392690D01*
X163842695Y-127933071D01*
X163727790Y-127703261D01*
X163497980Y-127588357D01*
X163383076Y-127588357D01*
X163153266Y-127703261D01*
X163038361Y-127933071D01*
X163038361Y-128277785D01*
X162923457Y-128507595D01*
X162693647Y-128622500D01*
X162578742Y-128622500D01*
X162348933Y-128507595D01*
X162234028Y-128277785D01*
X162234028Y-127933071D01*
X162348933Y-127703261D01*
X162234028Y-126784023D02*
X163842695Y-126209500D01*
X162234028Y-125634976D02*
X163842695Y-126209500D01*
X164417219Y-126439309D01*
X164532123Y-126554214D01*
X164647028Y-126784023D01*
X162923457Y-124715738D02*
X162923457Y-122877261D01*
X163842695Y-121728214D02*
X161429695Y-121728214D01*
X162578742Y-121728214D02*
X162578742Y-120349357D01*
X163842695Y-120349357D02*
X161429695Y-120349357D01*
X163842695Y-119200309D02*
X162234028Y-119200309D01*
X161429695Y-119200309D02*
X161544600Y-119315214D01*
X161659504Y-119200309D01*
X161544600Y-119085404D01*
X161429695Y-119200309D01*
X161659504Y-119200309D01*
X162234028Y-118281071D02*
X163842695Y-117706547D01*
X162234028Y-117132023D01*
X163727790Y-115293547D02*
X163842695Y-115523357D01*
X163842695Y-115982976D01*
X163727790Y-116212785D01*
X163497980Y-116327690D01*
X162578742Y-116327690D01*
X162348933Y-116212785D01*
X162234028Y-115982976D01*
X162234028Y-115523357D01*
X162348933Y-115293547D01*
X162578742Y-115178642D01*
X162808552Y-115178642D01*
X163038361Y-116327690D01*
D13*
G04 #@! TO.C,IC1*
X145596100Y-88868600D02*
G75*
G03X145596100Y-88868600I-300000J0D01*
G01*
X144596100Y-88168600D02*
X150896100Y-88168600D01*
X144596100Y-94468600D02*
X144596100Y-88168600D01*
X150896100Y-94468600D02*
X144596100Y-94468600D01*
X150896100Y-88168600D02*
X150896100Y-94468600D01*
G04 #@! TO.C,C2*
X149716100Y-84383600D02*
X149716100Y-83783600D01*
X149116100Y-84383600D02*
X149116100Y-83783600D01*
X149716100Y-84383600D02*
X149966100Y-84383600D01*
X149116100Y-84383600D02*
X149716100Y-84383600D01*
X148866100Y-84383600D02*
X149116100Y-84383600D01*
X149716100Y-83783600D02*
X149966100Y-83783600D01*
X149116100Y-83783600D02*
X149716100Y-83783600D01*
X148866100Y-83783600D02*
X149116100Y-83783600D01*
X149966100Y-84383600D02*
X149966100Y-83783600D01*
X148866100Y-84383600D02*
X148866100Y-83783600D01*
G04 #@! TO.C,C3*
X138321100Y-85688600D02*
X138321100Y-86288600D01*
X138921100Y-85688600D02*
X138921100Y-86288600D01*
X138321100Y-85688600D02*
X138071100Y-85688600D01*
X138921100Y-85688600D02*
X138321100Y-85688600D01*
X139171100Y-85688600D02*
X138921100Y-85688600D01*
X138321100Y-86288600D02*
X138071100Y-86288600D01*
X138921100Y-86288600D02*
X138321100Y-86288600D01*
X139171100Y-86288600D02*
X138921100Y-86288600D01*
X138071100Y-85688600D02*
X138071100Y-86288600D01*
X139171100Y-85688600D02*
X139171100Y-86288600D01*
G04 #@! TO.C,C4*
X138321100Y-88228600D02*
X138321100Y-88828600D01*
X138921100Y-88228600D02*
X138921100Y-88828600D01*
X138321100Y-88228600D02*
X138071100Y-88228600D01*
X138921100Y-88228600D02*
X138321100Y-88228600D01*
X139171100Y-88228600D02*
X138921100Y-88228600D01*
X138321100Y-88828600D02*
X138071100Y-88828600D01*
X138921100Y-88828600D02*
X138321100Y-88828600D01*
X139171100Y-88828600D02*
X138921100Y-88828600D01*
X138071100Y-88228600D02*
X138071100Y-88828600D01*
X139171100Y-88228600D02*
X139171100Y-88828600D01*
G04 #@! TO.C,C5*
X146000000Y-97900000D02*
X146000000Y-98500000D01*
X146600000Y-97900000D02*
X146600000Y-98500000D01*
X146000000Y-97900000D02*
X145750000Y-97900000D01*
X146600000Y-97900000D02*
X146000000Y-97900000D01*
X146850000Y-97900000D02*
X146600000Y-97900000D01*
X146000000Y-98500000D02*
X145750000Y-98500000D01*
X146600000Y-98500000D02*
X146000000Y-98500000D01*
X146850000Y-98500000D02*
X146600000Y-98500000D01*
X145750000Y-97900000D02*
X145750000Y-98500000D01*
X146850000Y-97900000D02*
X146850000Y-98500000D01*
G04 #@! TO.C,C6*
X152891100Y-86006100D02*
X152291100Y-86006100D01*
X152891100Y-86606100D02*
X152291100Y-86606100D01*
X152891100Y-86006100D02*
X152891100Y-85756100D01*
X152891100Y-86606100D02*
X152891100Y-86006100D01*
X152891100Y-86856100D02*
X152891100Y-86606100D01*
X152291100Y-86006100D02*
X152291100Y-85756100D01*
X152291100Y-86606100D02*
X152291100Y-86006100D01*
X152291100Y-86856100D02*
X152291100Y-86606100D01*
X152891100Y-85756100D02*
X152291100Y-85756100D01*
X152891100Y-86856100D02*
X152291100Y-86856100D01*
G04 #@! TO.C,C7*
X140226100Y-92003600D02*
X140826100Y-92003600D01*
X140226100Y-91403600D02*
X140826100Y-91403600D01*
X140226100Y-92003600D02*
X140226100Y-92253600D01*
X140226100Y-91403600D02*
X140226100Y-92003600D01*
X140226100Y-91153600D02*
X140226100Y-91403600D01*
X140826100Y-92003600D02*
X140826100Y-92253600D01*
X140826100Y-91403600D02*
X140826100Y-92003600D01*
X140826100Y-91153600D02*
X140826100Y-91403600D01*
X140226100Y-92253600D02*
X140826100Y-92253600D01*
X140226100Y-91153600D02*
X140826100Y-91153600D01*
G04 #@! TO.C,C1*
X145941100Y-83783600D02*
X145941100Y-84383600D01*
X146541100Y-83783600D02*
X146541100Y-84383600D01*
X145941100Y-83783600D02*
X145691100Y-83783600D01*
X146541100Y-83783600D02*
X145941100Y-83783600D01*
X146791100Y-83783600D02*
X146541100Y-83783600D01*
X145941100Y-84383600D02*
X145691100Y-84383600D01*
X146541100Y-84383600D02*
X145941100Y-84383600D01*
X146791100Y-84383600D02*
X146541100Y-84383600D01*
X145691100Y-83783600D02*
X145691100Y-84383600D01*
X146791100Y-83783600D02*
X146791100Y-84383600D01*
G04 #@! TO.C,C8*
X145941100Y-81878600D02*
X145941100Y-82478600D01*
X146541100Y-81878600D02*
X146541100Y-82478600D01*
X145941100Y-81878600D02*
X145691100Y-81878600D01*
X146541100Y-81878600D02*
X145941100Y-81878600D01*
X146791100Y-81878600D02*
X146541100Y-81878600D01*
X145941100Y-82478600D02*
X145691100Y-82478600D01*
X146541100Y-82478600D02*
X145941100Y-82478600D01*
X146791100Y-82478600D02*
X146541100Y-82478600D01*
X145691100Y-81878600D02*
X145691100Y-82478600D01*
X146791100Y-81878600D02*
X146791100Y-82478600D01*
D14*
G04 #@! TO.C,L1*
X141450000Y-97000000D02*
X139650000Y-97000000D01*
X139650000Y-98200000D02*
X141450000Y-98200000D01*
D13*
G04 #@! TO.C,C9*
X138321100Y-92003600D02*
X138921100Y-92003600D01*
X138321100Y-91403600D02*
X138921100Y-91403600D01*
X138321100Y-92003600D02*
X138321100Y-92253600D01*
X138321100Y-91403600D02*
X138321100Y-92003600D01*
X138321100Y-91153600D02*
X138321100Y-91403600D01*
X138921100Y-92003600D02*
X138921100Y-92253600D01*
X138921100Y-91403600D02*
X138921100Y-92003600D01*
X138921100Y-91153600D02*
X138921100Y-91403600D01*
X138321100Y-92253600D02*
X138921100Y-92253600D01*
X138321100Y-91153600D02*
X138921100Y-91153600D01*
G04 #@! TO.C,C10*
X157371100Y-92038600D02*
X157371100Y-92638600D01*
X157971100Y-92038600D02*
X157971100Y-92638600D01*
X157371100Y-92038600D02*
X157121100Y-92038600D01*
X157971100Y-92038600D02*
X157371100Y-92038600D01*
X158221100Y-92038600D02*
X157971100Y-92038600D01*
X157371100Y-92638600D02*
X157121100Y-92638600D01*
X157971100Y-92638600D02*
X157371100Y-92638600D01*
X158221100Y-92638600D02*
X157971100Y-92638600D01*
X157121100Y-92038600D02*
X157121100Y-92638600D01*
X158221100Y-92038600D02*
X158221100Y-92638600D01*
G04 #@! TO.C,R1*
X157371100Y-88228600D02*
X157371100Y-88828600D01*
X157971100Y-88228600D02*
X157971100Y-88828600D01*
X157371100Y-88228600D02*
X157121100Y-88228600D01*
X157971100Y-88228600D02*
X157371100Y-88228600D01*
X158221100Y-88228600D02*
X157971100Y-88228600D01*
X157371100Y-88828600D02*
X157121100Y-88828600D01*
X157971100Y-88828600D02*
X157371100Y-88828600D01*
X158221100Y-88828600D02*
X157971100Y-88828600D01*
X157121100Y-88228600D02*
X157121100Y-88828600D01*
X158221100Y-88228600D02*
X158221100Y-88828600D01*
G04 #@! TO.C,R2*
X157971100Y-90733600D02*
X157971100Y-90133600D01*
X157371100Y-90733600D02*
X157371100Y-90133600D01*
X157971100Y-90733600D02*
X158221100Y-90733600D01*
X157371100Y-90733600D02*
X157971100Y-90733600D01*
X157121100Y-90733600D02*
X157371100Y-90733600D01*
X157971100Y-90133600D02*
X158221100Y-90133600D01*
X157371100Y-90133600D02*
X157971100Y-90133600D01*
X157121100Y-90133600D02*
X157371100Y-90133600D01*
X158221100Y-90733600D02*
X158221100Y-90133600D01*
X157121100Y-90733600D02*
X157121100Y-90133600D01*
G04 #@! TO.C,S1*
X163616100Y-92338600D02*
G75*
G03X163616100Y-92338600I-1500000J0D01*
G01*
X165216100Y-95438600D02*
X165216100Y-89238600D01*
X159016100Y-95438600D02*
X165216100Y-95438600D01*
X159016100Y-89238600D02*
X159016100Y-95438600D01*
X165216100Y-89238600D02*
X159016100Y-89238600D01*
G04 #@! TO.C,X1*
X140971100Y-67637600D02*
X148971100Y-67637600D01*
X140971100Y-72637600D02*
X140971100Y-67637600D01*
X148971100Y-72637600D02*
X140971100Y-72637600D01*
X148971100Y-67637600D02*
X148971100Y-72637600D01*
G04 #@! TO.C,JP1*
X135251100Y-80753600D02*
X132751100Y-80753600D01*
X135251100Y-76253600D02*
X135251100Y-80753600D01*
X132751100Y-76253600D02*
X135251100Y-76253600D01*
X132751100Y-80753600D02*
X132751100Y-76253600D01*
D14*
G04 #@! TO.C,JP2*
X132731100Y-96138600D02*
X132731100Y-94868600D01*
X133366100Y-94233600D02*
X132731100Y-94868600D01*
X135271100Y-94868600D02*
X134636100Y-94233600D01*
X134636100Y-94233600D02*
X133366100Y-94233600D01*
X135271100Y-94868600D02*
X135271100Y-96138600D01*
D15*
G04 #@! TO.C,LED1*
G36*
X140016100Y-79638600D02*
X139766100Y-79638600D01*
X139766100Y-79888600D01*
X140016100Y-79888600D01*
X140016100Y-79638600D01*
G37*
G04 #@! TO.C,LED2*
G36*
X141603600Y-79638600D02*
X141353600Y-79638600D01*
X141353600Y-79888600D01*
X141603600Y-79888600D01*
X141603600Y-79638600D01*
G37*
D13*
G04 #@! TO.C,R6*
X140191100Y-76163600D02*
X139591100Y-76163600D01*
X140191100Y-76763600D02*
X139591100Y-76763600D01*
X140191100Y-76163600D02*
X140191100Y-75913600D01*
X140191100Y-76763600D02*
X140191100Y-76163600D01*
X140191100Y-77013600D02*
X140191100Y-76763600D01*
X139591100Y-76163600D02*
X139591100Y-75913600D01*
X139591100Y-76763600D02*
X139591100Y-76163600D01*
X139591100Y-77013600D02*
X139591100Y-76763600D01*
X140191100Y-75913600D02*
X139591100Y-75913600D01*
X140191100Y-77013600D02*
X139591100Y-77013600D01*
G04 #@! TO.C,R7*
X141778600Y-76163600D02*
X141178600Y-76163600D01*
X141778600Y-76763600D02*
X141178600Y-76763600D01*
X141778600Y-76163600D02*
X141778600Y-75913600D01*
X141778600Y-76763600D02*
X141778600Y-76163600D01*
X141778600Y-77013600D02*
X141778600Y-76763600D01*
X141178600Y-76163600D02*
X141178600Y-75913600D01*
X141178600Y-76763600D02*
X141178600Y-76163600D01*
X141178600Y-77013600D02*
X141178600Y-76763600D01*
X141778600Y-75913600D02*
X141178600Y-75913600D01*
X141778600Y-77013600D02*
X141178600Y-77013600D01*
G04 #@! TO.C,LED3*
X153496100Y-71013600D02*
X153496100Y-71413600D01*
X155096100Y-71013600D02*
X155096100Y-71413600D01*
G04 #@! TO.C,R8*
X155631100Y-74688600D02*
X156231100Y-74688600D01*
X155631100Y-74088600D02*
X156231100Y-74088600D01*
X155631100Y-74688600D02*
X155631100Y-74938600D01*
X155631100Y-74088600D02*
X155631100Y-74688600D01*
X155631100Y-73838600D02*
X155631100Y-74088600D01*
X156231100Y-74688600D02*
X156231100Y-74938600D01*
X156231100Y-74088600D02*
X156231100Y-74688600D01*
X156231100Y-73838600D02*
X156231100Y-74088600D01*
X155631100Y-74938600D02*
X156231100Y-74938600D01*
X155631100Y-73838600D02*
X156231100Y-73838600D01*
G04 #@! TO.C,R9*
X154361100Y-74688600D02*
X154961100Y-74688600D01*
X154361100Y-74088600D02*
X154961100Y-74088600D01*
X154361100Y-74688600D02*
X154361100Y-74938600D01*
X154361100Y-74088600D02*
X154361100Y-74688600D01*
X154361100Y-73838600D02*
X154361100Y-74088600D01*
X154961100Y-74688600D02*
X154961100Y-74938600D01*
X154961100Y-74088600D02*
X154961100Y-74688600D01*
X154961100Y-73838600D02*
X154961100Y-74088600D01*
X154361100Y-74938600D02*
X154961100Y-74938600D01*
X154361100Y-73838600D02*
X154961100Y-73838600D01*
G04 #@! TO.C,R10*
X153091100Y-74688600D02*
X153691100Y-74688600D01*
X153091100Y-74088600D02*
X153691100Y-74088600D01*
X153091100Y-74688600D02*
X153091100Y-74938600D01*
X153091100Y-74088600D02*
X153091100Y-74688600D01*
X153091100Y-73838600D02*
X153091100Y-74088600D01*
X153691100Y-74688600D02*
X153691100Y-74938600D01*
X153691100Y-74088600D02*
X153691100Y-74688600D01*
X153691100Y-73838600D02*
X153691100Y-74088600D01*
X153091100Y-74938600D02*
X153691100Y-74938600D01*
X153091100Y-73838600D02*
X153691100Y-73838600D01*
G04 #@! TO.C,Q1*
X140411100Y-86658600D02*
X140411100Y-87858600D01*
X141911100Y-86658600D02*
X141911100Y-87858600D01*
G04 #@! TO.C,K1*
X144766100Y-141668600D02*
X144766100Y-128958600D01*
X154066100Y-141668600D02*
X144766100Y-141668600D01*
X154066100Y-128958600D02*
X154066100Y-141668600D01*
X144766100Y-128958600D02*
X154066100Y-128958600D01*
D16*
G04 #@! TO.C,IC6*
X144821100Y-101248600D02*
G75*
G03X144821100Y-101248600I-500000J0D01*
G01*
D13*
X143321100Y-126498600D02*
X143321100Y-100498600D01*
X159321100Y-126498600D02*
X143321100Y-126498600D01*
X159321100Y-100498600D02*
X159321100Y-126498600D01*
X143321100Y-100498600D02*
X159321100Y-100498600D01*
G04 #@! TO.C,C18*
X142448600Y-129186100D02*
X142448600Y-129786100D01*
X143048600Y-129186100D02*
X143048600Y-129786100D01*
X142448600Y-129186100D02*
X142198600Y-129186100D01*
X143048600Y-129186100D02*
X142448600Y-129186100D01*
X143298600Y-129186100D02*
X143048600Y-129186100D01*
X142448600Y-129786100D02*
X142198600Y-129786100D01*
X143048600Y-129786100D02*
X142448600Y-129786100D01*
X143298600Y-129786100D02*
X143048600Y-129786100D01*
X142198600Y-129186100D02*
X142198600Y-129786100D01*
X143298600Y-129186100D02*
X143298600Y-129786100D01*
G04 #@! TO.C,C19*
X142448600Y-132996100D02*
X142448600Y-133596100D01*
X143048600Y-132996100D02*
X143048600Y-133596100D01*
X142448600Y-132996100D02*
X142198600Y-132996100D01*
X143048600Y-132996100D02*
X142448600Y-132996100D01*
X143298600Y-132996100D02*
X143048600Y-132996100D01*
X142448600Y-133596100D02*
X142198600Y-133596100D01*
X143048600Y-133596100D02*
X142448600Y-133596100D01*
X143298600Y-133596100D02*
X143048600Y-133596100D01*
X142198600Y-132996100D02*
X142198600Y-133596100D01*
X143298600Y-132996100D02*
X143298600Y-133596100D01*
G04 #@! TO.C,C20*
X142448600Y-136806100D02*
X142448600Y-137406100D01*
X143048600Y-136806100D02*
X143048600Y-137406100D01*
X142448600Y-136806100D02*
X142198600Y-136806100D01*
X143048600Y-136806100D02*
X142448600Y-136806100D01*
X143298600Y-136806100D02*
X143048600Y-136806100D01*
X142448600Y-137406100D02*
X142198600Y-137406100D01*
X143048600Y-137406100D02*
X142448600Y-137406100D01*
X143298600Y-137406100D02*
X143048600Y-137406100D01*
X142198600Y-136806100D02*
X142198600Y-137406100D01*
X143298600Y-136806100D02*
X143298600Y-137406100D01*
G04 #@! TO.C,C21*
X156383600Y-134231100D02*
X156383600Y-133631100D01*
X155783600Y-134231100D02*
X155783600Y-133631100D01*
X156383600Y-134231100D02*
X156633600Y-134231100D01*
X155783600Y-134231100D02*
X156383600Y-134231100D01*
X155533600Y-134231100D02*
X155783600Y-134231100D01*
X156383600Y-133631100D02*
X156633600Y-133631100D01*
X155783600Y-133631100D02*
X156383600Y-133631100D01*
X155533600Y-133631100D02*
X155783600Y-133631100D01*
X156633600Y-134231100D02*
X156633600Y-133631100D01*
X155533600Y-134231100D02*
X155533600Y-133631100D01*
G04 #@! TO.C,C22*
X156383600Y-135818600D02*
X156383600Y-135218600D01*
X155783600Y-135818600D02*
X155783600Y-135218600D01*
X156383600Y-135818600D02*
X156633600Y-135818600D01*
X155783600Y-135818600D02*
X156383600Y-135818600D01*
X155533600Y-135818600D02*
X155783600Y-135818600D01*
X156383600Y-135218600D02*
X156633600Y-135218600D01*
X155783600Y-135218600D02*
X156383600Y-135218600D01*
X155533600Y-135218600D02*
X155783600Y-135218600D01*
X156633600Y-135818600D02*
X156633600Y-135218600D01*
X155533600Y-135818600D02*
X155533600Y-135218600D01*
G04 #@! TO.C,D5*
X155983600Y-132643600D02*
X156183600Y-132643600D01*
X155983600Y-132043600D02*
X156183600Y-132043600D01*
G04 #@! TO.C,D4*
X142848600Y-135218600D02*
X142648600Y-135218600D01*
X142848600Y-135818600D02*
X142648600Y-135818600D01*
G04 #@! TO.C,D6*
X142848600Y-131408600D02*
X142648600Y-131408600D01*
X142848600Y-132008600D02*
X142648600Y-132008600D01*
G04 #@! TO.C,D7*
X142848600Y-127598600D02*
X142648600Y-127598600D01*
X142848600Y-128198600D02*
X142648600Y-128198600D01*
G04 #@! TO.C,C24*
X161781100Y-108513600D02*
X161781100Y-107913600D01*
X161181100Y-108513600D02*
X161181100Y-107913600D01*
X161781100Y-108513600D02*
X162031100Y-108513600D01*
X161181100Y-108513600D02*
X161781100Y-108513600D01*
X160931100Y-108513600D02*
X161181100Y-108513600D01*
X161781100Y-107913600D02*
X162031100Y-107913600D01*
X161181100Y-107913600D02*
X161781100Y-107913600D01*
X160931100Y-107913600D02*
X161181100Y-107913600D01*
X162031100Y-108513600D02*
X162031100Y-107913600D01*
X160931100Y-108513600D02*
X160931100Y-107913600D01*
G04 #@! TO.C,C25*
X161781100Y-104703600D02*
X161781100Y-104103600D01*
X161181100Y-104703600D02*
X161181100Y-104103600D01*
X161781100Y-104703600D02*
X162031100Y-104703600D01*
X161181100Y-104703600D02*
X161781100Y-104703600D01*
X160931100Y-104703600D02*
X161181100Y-104703600D01*
X161781100Y-104103600D02*
X162031100Y-104103600D01*
X161181100Y-104103600D02*
X161781100Y-104103600D01*
X160931100Y-104103600D02*
X161181100Y-104103600D01*
X162031100Y-104703600D02*
X162031100Y-104103600D01*
X160931100Y-104703600D02*
X160931100Y-104103600D01*
G04 #@! TO.C,C26*
X161781100Y-102798600D02*
X161781100Y-102198600D01*
X161181100Y-102798600D02*
X161181100Y-102198600D01*
X161781100Y-102798600D02*
X162031100Y-102798600D01*
X161181100Y-102798600D02*
X161781100Y-102798600D01*
X160931100Y-102798600D02*
X161181100Y-102798600D01*
X161781100Y-102198600D02*
X162031100Y-102198600D01*
X161181100Y-102198600D02*
X161781100Y-102198600D01*
X160931100Y-102198600D02*
X161181100Y-102198600D01*
X162031100Y-102798600D02*
X162031100Y-102198600D01*
X160931100Y-102798600D02*
X160931100Y-102198600D01*
G04 #@! TO.C,R11*
X141496100Y-111723600D02*
X141496100Y-112323600D01*
X142096100Y-111723600D02*
X142096100Y-112323600D01*
X141496100Y-111723600D02*
X141246100Y-111723600D01*
X142096100Y-111723600D02*
X141496100Y-111723600D01*
X142346100Y-111723600D02*
X142096100Y-111723600D01*
X141496100Y-112323600D02*
X141246100Y-112323600D01*
X142096100Y-112323600D02*
X141496100Y-112323600D01*
X142346100Y-112323600D02*
X142096100Y-112323600D01*
X141246100Y-111723600D02*
X141246100Y-112323600D01*
X142346100Y-111723600D02*
X142346100Y-112323600D01*
G04 #@! TO.C,R12*
X141496100Y-113311100D02*
X141496100Y-113911100D01*
X142096100Y-113311100D02*
X142096100Y-113911100D01*
X141496100Y-113311100D02*
X141246100Y-113311100D01*
X142096100Y-113311100D02*
X141496100Y-113311100D01*
X142346100Y-113311100D02*
X142096100Y-113311100D01*
X141496100Y-113911100D02*
X141246100Y-113911100D01*
X142096100Y-113911100D02*
X141496100Y-113911100D01*
X142346100Y-113911100D02*
X142096100Y-113911100D01*
X141246100Y-113311100D02*
X141246100Y-113911100D01*
X142346100Y-113311100D02*
X142346100Y-113911100D01*
G04 #@! TO.C,R13*
X136416100Y-108513600D02*
X137016100Y-108513600D01*
X136416100Y-107913600D02*
X137016100Y-107913600D01*
X136416100Y-108513600D02*
X136416100Y-108763600D01*
X136416100Y-107913600D02*
X136416100Y-108513600D01*
X136416100Y-107663600D02*
X136416100Y-107913600D01*
X137016100Y-108513600D02*
X137016100Y-108763600D01*
X137016100Y-107913600D02*
X137016100Y-108513600D01*
X137016100Y-107663600D02*
X137016100Y-107913600D01*
X136416100Y-108763600D02*
X137016100Y-108763600D01*
X136416100Y-107663600D02*
X137016100Y-107663600D01*
G04 #@! TO.C,R14*
X138321100Y-108513600D02*
X138921100Y-108513600D01*
X138321100Y-107913600D02*
X138921100Y-107913600D01*
X138321100Y-108513600D02*
X138321100Y-108763600D01*
X138321100Y-107913600D02*
X138321100Y-108513600D01*
X138321100Y-107663600D02*
X138321100Y-107913600D01*
X138921100Y-108513600D02*
X138921100Y-108763600D01*
X138921100Y-107913600D02*
X138921100Y-108513600D01*
X138921100Y-107663600D02*
X138921100Y-107913600D01*
X138321100Y-108763600D02*
X138921100Y-108763600D01*
X138321100Y-107663600D02*
X138921100Y-107663600D01*
D14*
G04 #@! TO.C,H1*
X137501100Y-138503600D02*
G75*
G03X137501100Y-138503600I-1500000J0D01*
G01*
D17*
X138922100Y-138503600D02*
G75*
G03X138922100Y-138503600I-2921000J0D01*
G01*
D18*
X136001100Y-141170600D02*
X136001100Y-141424600D01*
X136001100Y-135582600D02*
X136001100Y-135836600D01*
D14*
G04 #@! TO.C,H2*
X137501100Y-71503600D02*
G75*
G03X137501100Y-71503600I-1500000J0D01*
G01*
D17*
X138922100Y-71503600D02*
G75*
G03X138922100Y-71503600I-2921000J0D01*
G01*
D18*
X136001100Y-74170600D02*
X136001100Y-74424600D01*
X136001100Y-68582600D02*
X136001100Y-68836600D01*
D14*
G04 #@! TO.C,H3*
X162501100Y-71503600D02*
G75*
G03X162501100Y-71503600I-1500000J0D01*
G01*
D17*
X163922100Y-71503600D02*
G75*
G03X163922100Y-71503600I-2921000J0D01*
G01*
D18*
X161001100Y-74170600D02*
X161001100Y-74424600D01*
X161001100Y-68582600D02*
X161001100Y-68836600D01*
D14*
G04 #@! TO.C,H4*
X162501100Y-138503600D02*
G75*
G03X162501100Y-138503600I-1500000J0D01*
G01*
D17*
X163922100Y-138503600D02*
G75*
G03X163922100Y-138503600I-2921000J0D01*
G01*
D18*
X161001100Y-141170600D02*
X161001100Y-141424600D01*
X161001100Y-135582600D02*
X161001100Y-135836600D01*
D14*
G04 #@! TO.C,JP3*
X132731100Y-126138600D02*
X132731100Y-124868600D01*
X133366100Y-124233600D02*
X132731100Y-124868600D01*
X135271100Y-124868600D02*
X134636100Y-124233600D01*
X134636100Y-124233600D02*
X133366100Y-124233600D01*
X135271100Y-124868600D02*
X135271100Y-126138600D01*
G04 #@! TO.C,JP4*
X132731100Y-114138600D02*
X132731100Y-112868600D01*
X133366100Y-112233600D02*
X132731100Y-112868600D01*
X135271100Y-112868600D02*
X134636100Y-112233600D01*
X134636100Y-112233600D02*
X133366100Y-112233600D01*
X135271100Y-112868600D02*
X135271100Y-114138600D01*
G04 #@! TO.C,JP6*
X132731100Y-104138600D02*
X132731100Y-102868600D01*
X133366100Y-102233600D02*
X132731100Y-102868600D01*
X135271100Y-102868600D02*
X134636100Y-102233600D01*
X134636100Y-102233600D02*
X133366100Y-102233600D01*
X135271100Y-102868600D02*
X135271100Y-104138600D01*
G04 #@! TO.C,JP5*
X161731100Y-78138600D02*
X161731100Y-76868600D01*
X162366100Y-76233600D02*
X161731100Y-76868600D01*
X164271100Y-76868600D02*
X163636100Y-76233600D01*
X163636100Y-76233600D02*
X162366100Y-76233600D01*
X164271100Y-76868600D02*
X164271100Y-78138600D01*
D13*
G04 #@! TO.C,J1*
X152813600Y-99553600D02*
X152813600Y-99353600D01*
X154113600Y-99553600D02*
X154113600Y-99353600D01*
X155513600Y-99553600D02*
X155513600Y-99353600D01*
X156813600Y-99553600D02*
X156813600Y-99353600D01*
X152813600Y-99553600D02*
X154113600Y-99553600D01*
X155513600Y-99553600D02*
X156813600Y-99553600D01*
X152813600Y-99453600D02*
X154113600Y-99453600D01*
X155513600Y-99453600D02*
X156813600Y-99453600D01*
X152813600Y-96753600D02*
X154113600Y-96753600D01*
X155513600Y-96753600D02*
X156813600Y-96753600D01*
X152813600Y-99353600D02*
X154113600Y-99353600D01*
X152813600Y-96753600D02*
X152813600Y-99353600D01*
X156813600Y-99353600D02*
X156813600Y-96753600D01*
X155513600Y-99353600D02*
X156813600Y-99353600D01*
D14*
G04 #@! TO.C,JP7*
X132731100Y-84138600D02*
X132731100Y-82868600D01*
X133366100Y-82233600D02*
X132731100Y-82868600D01*
X135271100Y-82868600D02*
X134636100Y-82233600D01*
X134636100Y-82233600D02*
X133366100Y-82233600D01*
X135271100Y-82868600D02*
X135271100Y-84138600D01*
D13*
G04 #@! TO.C,C27*
X161781100Y-106608600D02*
X161781100Y-106008600D01*
X161181100Y-106608600D02*
X161181100Y-106008600D01*
X161781100Y-106608600D02*
X162031100Y-106608600D01*
X161181100Y-106608600D02*
X161781100Y-106608600D01*
X160931100Y-106608600D02*
X161181100Y-106608600D01*
X161781100Y-106008600D02*
X162031100Y-106008600D01*
X161181100Y-106008600D02*
X161781100Y-106008600D01*
X160931100Y-106008600D02*
X161181100Y-106008600D01*
X162031100Y-106608600D02*
X162031100Y-106008600D01*
X160931100Y-106608600D02*
X160931100Y-106008600D01*
D14*
G04 #@! TO.C,JP8*
X163068600Y-97418600D02*
X164338600Y-97418600D01*
X164973600Y-98053600D02*
X164338600Y-97418600D01*
X164338600Y-99958600D02*
X164973600Y-99323600D01*
X164973600Y-99323600D02*
X164973600Y-98053600D01*
X164338600Y-99958600D02*
X163068600Y-99958600D01*
G04 #@! TO.C,IC1*
D19*
X142399114Y-87452838D02*
X142399114Y-86487638D01*
X143410276Y-87360914D02*
X143364314Y-87406876D01*
X143226428Y-87452838D01*
X143134504Y-87452838D01*
X142996619Y-87406876D01*
X142904695Y-87314952D01*
X142858733Y-87223028D01*
X142812771Y-87039180D01*
X142812771Y-86901295D01*
X142858733Y-86717447D01*
X142904695Y-86625523D01*
X142996619Y-86533600D01*
X143134504Y-86487638D01*
X143226428Y-86487638D01*
X143364314Y-86533600D01*
X143410276Y-86579561D01*
X144329514Y-87452838D02*
X143777971Y-87452838D01*
X144053742Y-87452838D02*
X144053742Y-86487638D01*
X143961819Y-86625523D01*
X143869895Y-86717447D01*
X143777971Y-86763409D01*
G04 #@! TO.C,C2*
X150155276Y-83323414D02*
X150109314Y-83369376D01*
X149971428Y-83415338D01*
X149879504Y-83415338D01*
X149741619Y-83369376D01*
X149649695Y-83277452D01*
X149603733Y-83185528D01*
X149557771Y-83001680D01*
X149557771Y-82863795D01*
X149603733Y-82679947D01*
X149649695Y-82588023D01*
X149741619Y-82496100D01*
X149879504Y-82450138D01*
X149971428Y-82450138D01*
X150109314Y-82496100D01*
X150155276Y-82542061D01*
X150522971Y-82542061D02*
X150568933Y-82496100D01*
X150660857Y-82450138D01*
X150890666Y-82450138D01*
X150982590Y-82496100D01*
X151028552Y-82542061D01*
X151074514Y-82633985D01*
X151074514Y-82725909D01*
X151028552Y-82863795D01*
X150477009Y-83415338D01*
X151074514Y-83415338D01*
G04 #@! TO.C,C3*
X138042776Y-85228414D02*
X137996814Y-85274376D01*
X137858928Y-85320338D01*
X137767004Y-85320338D01*
X137629119Y-85274376D01*
X137537195Y-85182452D01*
X137491233Y-85090528D01*
X137445271Y-84906680D01*
X137445271Y-84768795D01*
X137491233Y-84584947D01*
X137537195Y-84493023D01*
X137629119Y-84401100D01*
X137767004Y-84355138D01*
X137858928Y-84355138D01*
X137996814Y-84401100D01*
X138042776Y-84447061D01*
X138364509Y-84355138D02*
X138962014Y-84355138D01*
X138640281Y-84722833D01*
X138778166Y-84722833D01*
X138870090Y-84768795D01*
X138916052Y-84814757D01*
X138962014Y-84906680D01*
X138962014Y-85136490D01*
X138916052Y-85228414D01*
X138870090Y-85274376D01*
X138778166Y-85320338D01*
X138502395Y-85320338D01*
X138410471Y-85274376D01*
X138364509Y-85228414D01*
G04 #@! TO.C,C4*
X138042776Y-87768414D02*
X137996814Y-87814376D01*
X137858928Y-87860338D01*
X137767004Y-87860338D01*
X137629119Y-87814376D01*
X137537195Y-87722452D01*
X137491233Y-87630528D01*
X137445271Y-87446680D01*
X137445271Y-87308795D01*
X137491233Y-87124947D01*
X137537195Y-87033023D01*
X137629119Y-86941100D01*
X137767004Y-86895138D01*
X137858928Y-86895138D01*
X137996814Y-86941100D01*
X138042776Y-86987061D01*
X138870090Y-87216871D02*
X138870090Y-87860338D01*
X138640281Y-86849176D02*
X138410471Y-87538604D01*
X139007976Y-87538604D01*
G04 #@! TO.C,C5*
X147674176Y-98257314D02*
X147628214Y-98303276D01*
X147490328Y-98349238D01*
X147398404Y-98349238D01*
X147260519Y-98303276D01*
X147168595Y-98211352D01*
X147122633Y-98119428D01*
X147076671Y-97935580D01*
X147076671Y-97797695D01*
X147122633Y-97613847D01*
X147168595Y-97521923D01*
X147260519Y-97430000D01*
X147398404Y-97384038D01*
X147490328Y-97384038D01*
X147628214Y-97430000D01*
X147674176Y-97475961D01*
X148547452Y-97384038D02*
X148087833Y-97384038D01*
X148041871Y-97843657D01*
X148087833Y-97797695D01*
X148179757Y-97751733D01*
X148409566Y-97751733D01*
X148501490Y-97797695D01*
X148547452Y-97843657D01*
X148593414Y-97935580D01*
X148593414Y-98165390D01*
X148547452Y-98257314D01*
X148501490Y-98303276D01*
X148409566Y-98349238D01*
X148179757Y-98349238D01*
X148087833Y-98303276D01*
X148041871Y-98257314D01*
G04 #@! TO.C,C6*
X152770714Y-84192009D02*
X152816676Y-84237971D01*
X152862638Y-84375857D01*
X152862638Y-84467781D01*
X152816676Y-84605666D01*
X152724752Y-84697590D01*
X152632828Y-84743552D01*
X152448980Y-84789514D01*
X152311095Y-84789514D01*
X152127247Y-84743552D01*
X152035323Y-84697590D01*
X151943400Y-84605666D01*
X151897438Y-84467781D01*
X151897438Y-84375857D01*
X151943400Y-84237971D01*
X151989361Y-84192009D01*
X151897438Y-83364695D02*
X151897438Y-83548542D01*
X151943400Y-83640466D01*
X151989361Y-83686428D01*
X152127247Y-83778352D01*
X152311095Y-83824314D01*
X152678790Y-83824314D01*
X152770714Y-83778352D01*
X152816676Y-83732390D01*
X152862638Y-83640466D01*
X152862638Y-83456619D01*
X152816676Y-83364695D01*
X152770714Y-83318733D01*
X152678790Y-83272771D01*
X152448980Y-83272771D01*
X152357057Y-83318733D01*
X152311095Y-83364695D01*
X152265133Y-83456619D01*
X152265133Y-83640466D01*
X152311095Y-83732390D01*
X152357057Y-83778352D01*
X152448980Y-83824314D01*
G04 #@! TO.C,C7*
X140523214Y-89589509D02*
X140569176Y-89635471D01*
X140615138Y-89773357D01*
X140615138Y-89865281D01*
X140569176Y-90003166D01*
X140477252Y-90095090D01*
X140385328Y-90141052D01*
X140201480Y-90187014D01*
X140063595Y-90187014D01*
X139879747Y-90141052D01*
X139787823Y-90095090D01*
X139695900Y-90003166D01*
X139649938Y-89865281D01*
X139649938Y-89773357D01*
X139695900Y-89635471D01*
X139741861Y-89589509D01*
X139649938Y-89267776D02*
X139649938Y-88624309D01*
X140615138Y-89037966D01*
G04 #@! TO.C,C1*
X147297776Y-83640914D02*
X147251814Y-83686876D01*
X147113928Y-83732838D01*
X147022004Y-83732838D01*
X146884119Y-83686876D01*
X146792195Y-83594952D01*
X146746233Y-83503028D01*
X146700271Y-83319180D01*
X146700271Y-83181295D01*
X146746233Y-82997447D01*
X146792195Y-82905523D01*
X146884119Y-82813600D01*
X147022004Y-82767638D01*
X147113928Y-82767638D01*
X147251814Y-82813600D01*
X147297776Y-82859561D01*
X148217014Y-83732838D02*
X147665471Y-83732838D01*
X147941242Y-83732838D02*
X147941242Y-82767638D01*
X147849319Y-82905523D01*
X147757395Y-82997447D01*
X147665471Y-83043409D01*
G04 #@! TO.C,C8*
X147615276Y-82053414D02*
X147569314Y-82099376D01*
X147431428Y-82145338D01*
X147339504Y-82145338D01*
X147201619Y-82099376D01*
X147109695Y-82007452D01*
X147063733Y-81915528D01*
X147017771Y-81731680D01*
X147017771Y-81593795D01*
X147063733Y-81409947D01*
X147109695Y-81318023D01*
X147201619Y-81226100D01*
X147339504Y-81180138D01*
X147431428Y-81180138D01*
X147569314Y-81226100D01*
X147615276Y-81272061D01*
X148166819Y-81593795D02*
X148074895Y-81547833D01*
X148028933Y-81501871D01*
X147982971Y-81409947D01*
X147982971Y-81363985D01*
X148028933Y-81272061D01*
X148074895Y-81226100D01*
X148166819Y-81180138D01*
X148350666Y-81180138D01*
X148442590Y-81226100D01*
X148488552Y-81272061D01*
X148534514Y-81363985D01*
X148534514Y-81409947D01*
X148488552Y-81501871D01*
X148442590Y-81547833D01*
X148350666Y-81593795D01*
X148166819Y-81593795D01*
X148074895Y-81639757D01*
X148028933Y-81685719D01*
X147982971Y-81777642D01*
X147982971Y-81961490D01*
X148028933Y-82053414D01*
X148074895Y-82099376D01*
X148166819Y-82145338D01*
X148350666Y-82145338D01*
X148442590Y-82099376D01*
X148488552Y-82053414D01*
X148534514Y-81961490D01*
X148534514Y-81777642D01*
X148488552Y-81685719D01*
X148442590Y-81639757D01*
X148350666Y-81593795D01*
G04 #@! TO.C,L1*
X139159166Y-99732038D02*
X138699547Y-99732038D01*
X138699547Y-98766838D01*
X139986480Y-99732038D02*
X139434938Y-99732038D01*
X139710709Y-99732038D02*
X139710709Y-98766838D01*
X139618785Y-98904723D01*
X139526861Y-98996647D01*
X139434938Y-99042609D01*
G04 #@! TO.C,C9*
X137860914Y-91916923D02*
X137906876Y-91962885D01*
X137952838Y-92100771D01*
X137952838Y-92192695D01*
X137906876Y-92330580D01*
X137814952Y-92422504D01*
X137723028Y-92468466D01*
X137539180Y-92514428D01*
X137401295Y-92514428D01*
X137217447Y-92468466D01*
X137125523Y-92422504D01*
X137033600Y-92330580D01*
X136987638Y-92192695D01*
X136987638Y-92100771D01*
X137033600Y-91962885D01*
X137079561Y-91916923D01*
X137952838Y-91457304D02*
X137952838Y-91273457D01*
X137906876Y-91181533D01*
X137860914Y-91135571D01*
X137723028Y-91043647D01*
X137539180Y-90997685D01*
X137171485Y-90997685D01*
X137079561Y-91043647D01*
X137033600Y-91089609D01*
X136987638Y-91181533D01*
X136987638Y-91365380D01*
X137033600Y-91457304D01*
X137079561Y-91503266D01*
X137171485Y-91549228D01*
X137401295Y-91549228D01*
X137493219Y-91503266D01*
X137539180Y-91457304D01*
X137585142Y-91365380D01*
X137585142Y-91181533D01*
X137539180Y-91089609D01*
X137493219Y-91043647D01*
X137401295Y-90997685D01*
G04 #@! TO.C,C10*
X156221038Y-93705914D02*
X156175076Y-93751876D01*
X156037190Y-93797838D01*
X155945266Y-93797838D01*
X155807381Y-93751876D01*
X155715457Y-93659952D01*
X155669495Y-93568028D01*
X155623533Y-93384180D01*
X155623533Y-93246295D01*
X155669495Y-93062447D01*
X155715457Y-92970523D01*
X155807381Y-92878600D01*
X155945266Y-92832638D01*
X156037190Y-92832638D01*
X156175076Y-92878600D01*
X156221038Y-92924561D01*
X157140276Y-93797838D02*
X156588733Y-93797838D01*
X156864504Y-93797838D02*
X156864504Y-92832638D01*
X156772581Y-92970523D01*
X156680657Y-93062447D01*
X156588733Y-93108409D01*
X157737781Y-92832638D02*
X157829704Y-92832638D01*
X157921628Y-92878600D01*
X157967590Y-92924561D01*
X158013552Y-93016485D01*
X158059514Y-93200333D01*
X158059514Y-93430142D01*
X158013552Y-93613990D01*
X157967590Y-93705914D01*
X157921628Y-93751876D01*
X157829704Y-93797838D01*
X157737781Y-93797838D01*
X157645857Y-93751876D01*
X157599895Y-93705914D01*
X157553933Y-93613990D01*
X157507971Y-93430142D01*
X157507971Y-93200333D01*
X157553933Y-93016485D01*
X157599895Y-92924561D01*
X157645857Y-92878600D01*
X157737781Y-92832638D01*
G04 #@! TO.C,R1*
X155552776Y-89130338D02*
X155231042Y-88670719D01*
X155001233Y-89130338D02*
X155001233Y-88165138D01*
X155368928Y-88165138D01*
X155460852Y-88211100D01*
X155506814Y-88257061D01*
X155552776Y-88348985D01*
X155552776Y-88486871D01*
X155506814Y-88578795D01*
X155460852Y-88624757D01*
X155368928Y-88670719D01*
X155001233Y-88670719D01*
X156472014Y-89130338D02*
X155920471Y-89130338D01*
X156196242Y-89130338D02*
X156196242Y-88165138D01*
X156104319Y-88303023D01*
X156012395Y-88394947D01*
X155920471Y-88440909D01*
G04 #@! TO.C,R2*
X155552776Y-90717838D02*
X155231042Y-90258219D01*
X155001233Y-90717838D02*
X155001233Y-89752638D01*
X155368928Y-89752638D01*
X155460852Y-89798600D01*
X155506814Y-89844561D01*
X155552776Y-89936485D01*
X155552776Y-90074371D01*
X155506814Y-90166295D01*
X155460852Y-90212257D01*
X155368928Y-90258219D01*
X155001233Y-90258219D01*
X155920471Y-89844561D02*
X155966433Y-89798600D01*
X156058357Y-89752638D01*
X156288166Y-89752638D01*
X156380090Y-89798600D01*
X156426052Y-89844561D01*
X156472014Y-89936485D01*
X156472014Y-90028409D01*
X156426052Y-90166295D01*
X155874509Y-90717838D01*
X156472014Y-90717838D01*
G04 #@! TO.C,S1*
X158624376Y-97405966D02*
X158670338Y-97268080D01*
X158670338Y-97038271D01*
X158624376Y-96946347D01*
X158578414Y-96900385D01*
X158486490Y-96854423D01*
X158394566Y-96854423D01*
X158302642Y-96900385D01*
X158256680Y-96946347D01*
X158210719Y-97038271D01*
X158164757Y-97222118D01*
X158118795Y-97314042D01*
X158072833Y-97360004D01*
X157980909Y-97405966D01*
X157888985Y-97405966D01*
X157797061Y-97360004D01*
X157751100Y-97314042D01*
X157705138Y-97222118D01*
X157705138Y-96992309D01*
X157751100Y-96854423D01*
X158670338Y-95935185D02*
X158670338Y-96486728D01*
X158670338Y-96210957D02*
X157705138Y-96210957D01*
X157843023Y-96302880D01*
X157934947Y-96394804D01*
X157980909Y-96486728D01*
X165558647Y-100202385D02*
X166765147Y-99915123D01*
X165903361Y-99685314D01*
X166765147Y-99455504D01*
X165558647Y-99168242D01*
X165558647Y-98708623D02*
X166535338Y-98708623D01*
X166650242Y-98651171D01*
X166707695Y-98593718D01*
X166765147Y-98478814D01*
X166765147Y-98249004D01*
X166707695Y-98134099D01*
X166650242Y-98076647D01*
X166535338Y-98019195D01*
X165558647Y-98019195D01*
X166765147Y-96755242D02*
X166190623Y-97157409D01*
X166765147Y-97444671D02*
X165558647Y-97444671D01*
X165558647Y-96985052D01*
X165616100Y-96870147D01*
X165673552Y-96812695D01*
X165788457Y-96755242D01*
X165960814Y-96755242D01*
X166075719Y-96812695D01*
X166133171Y-96870147D01*
X166190623Y-96985052D01*
X166190623Y-97444671D01*
X165558647Y-96410528D02*
X165558647Y-95721099D01*
X166765147Y-96065814D02*
X165558647Y-96065814D01*
X166765147Y-95318933D02*
X165558647Y-95318933D01*
X166133171Y-95318933D02*
X166133171Y-94629504D01*
X166765147Y-94629504D02*
X165558647Y-94629504D01*
X166305528Y-94054980D02*
X166305528Y-93135742D01*
X165960814Y-92044147D02*
X166765147Y-92044147D01*
X165501195Y-92331409D02*
X166362980Y-92618671D01*
X166362980Y-91871790D01*
X165558647Y-91527076D02*
X165558647Y-90780195D01*
X166018266Y-91182361D01*
X166018266Y-91010004D01*
X166075719Y-90895099D01*
X166133171Y-90837647D01*
X166248076Y-90780195D01*
X166535338Y-90780195D01*
X166650242Y-90837647D01*
X166707695Y-90895099D01*
X166765147Y-91010004D01*
X166765147Y-91354718D01*
X166707695Y-91469623D01*
X166650242Y-91527076D01*
X165558647Y-90033314D02*
X165558647Y-89918409D01*
X165616100Y-89803504D01*
X165673552Y-89746052D01*
X165788457Y-89688599D01*
X166018266Y-89631147D01*
X166305528Y-89631147D01*
X166535338Y-89688599D01*
X166650242Y-89746052D01*
X166707695Y-89803504D01*
X166765147Y-89918409D01*
X166765147Y-90033314D01*
X166707695Y-90148218D01*
X166650242Y-90205671D01*
X166535338Y-90263123D01*
X166305528Y-90320576D01*
X166018266Y-90320576D01*
X165788457Y-90263123D01*
X165673552Y-90205671D01*
X165616100Y-90148218D01*
X165558647Y-90033314D01*
G04 #@! TO.C,X1*
X149370138Y-72765928D02*
X150335338Y-72122461D01*
X149370138Y-72122461D02*
X150335338Y-72765928D01*
X150335338Y-71249185D02*
X150335338Y-71800728D01*
X150335338Y-71524957D02*
X149370138Y-71524957D01*
X149508023Y-71616880D01*
X149599947Y-71708804D01*
X149645909Y-71800728D01*
G04 #@! TO.C,JP1*
X133379418Y-74867438D02*
X133379418Y-75556866D01*
X133333457Y-75694752D01*
X133241533Y-75786676D01*
X133103647Y-75832638D01*
X133011723Y-75832638D01*
X133839038Y-75832638D02*
X133839038Y-74867438D01*
X134206733Y-74867438D01*
X134298657Y-74913400D01*
X134344618Y-74959361D01*
X134390580Y-75051285D01*
X134390580Y-75189171D01*
X134344618Y-75281095D01*
X134298657Y-75327057D01*
X134206733Y-75373019D01*
X133839038Y-75373019D01*
X135309818Y-75832638D02*
X134758276Y-75832638D01*
X135034047Y-75832638D02*
X135034047Y-74867438D01*
X134942123Y-75005323D01*
X134850199Y-75097247D01*
X134758276Y-75143209D01*
G04 #@! TO.C,JP2*
X133211918Y-93014938D02*
X133211918Y-93704366D01*
X133165957Y-93842252D01*
X133074033Y-93934176D01*
X132936147Y-93980138D01*
X132844223Y-93980138D01*
X133671538Y-93980138D02*
X133671538Y-93014938D01*
X134039233Y-93014938D01*
X134131157Y-93060900D01*
X134177118Y-93106861D01*
X134223080Y-93198785D01*
X134223080Y-93336671D01*
X134177118Y-93428595D01*
X134131157Y-93474557D01*
X134039233Y-93520519D01*
X133671538Y-93520519D01*
X134590776Y-93106861D02*
X134636738Y-93060900D01*
X134728661Y-93014938D01*
X134958471Y-93014938D01*
X135050395Y-93060900D01*
X135096357Y-93106861D01*
X135142318Y-93198785D01*
X135142318Y-93290709D01*
X135096357Y-93428595D01*
X134544814Y-93980138D01*
X135142318Y-93980138D01*
G04 #@! TO.C,LED1*
X139210138Y-80021433D02*
X139210138Y-80481052D01*
X138244938Y-80481052D01*
X138704557Y-79699700D02*
X138704557Y-79377966D01*
X139210138Y-79240081D02*
X139210138Y-79699700D01*
X138244938Y-79699700D01*
X138244938Y-79240081D01*
X139210138Y-78826423D02*
X138244938Y-78826423D01*
X138244938Y-78596614D01*
X138290900Y-78458728D01*
X138382823Y-78366804D01*
X138474747Y-78320842D01*
X138658595Y-78274881D01*
X138796480Y-78274881D01*
X138980328Y-78320842D01*
X139072252Y-78366804D01*
X139164176Y-78458728D01*
X139210138Y-78596614D01*
X139210138Y-78826423D01*
X139210138Y-77355642D02*
X139210138Y-77907185D01*
X139210138Y-77631414D02*
X138244938Y-77631414D01*
X138382823Y-77723338D01*
X138474747Y-77815262D01*
X138520709Y-77907185D01*
G04 #@! TO.C,LED2*
X143000766Y-79910138D02*
X142541147Y-79910138D01*
X142541147Y-78944938D01*
X143322499Y-79404557D02*
X143644233Y-79404557D01*
X143782118Y-79910138D02*
X143322499Y-79910138D01*
X143322499Y-78944938D01*
X143782118Y-78944938D01*
X144195776Y-79910138D02*
X144195776Y-78944938D01*
X144425585Y-78944938D01*
X144563471Y-78990900D01*
X144655395Y-79082823D01*
X144701357Y-79174747D01*
X144747318Y-79358595D01*
X144747318Y-79496480D01*
X144701357Y-79680328D01*
X144655395Y-79772252D01*
X144563471Y-79864176D01*
X144425585Y-79910138D01*
X144195776Y-79910138D01*
X145115014Y-79036861D02*
X145160976Y-78990900D01*
X145252899Y-78944938D01*
X145482709Y-78944938D01*
X145574633Y-78990900D01*
X145620595Y-79036861D01*
X145666557Y-79128785D01*
X145666557Y-79220709D01*
X145620595Y-79358595D01*
X145069052Y-79910138D01*
X145666557Y-79910138D01*
G04 #@! TO.C,R6*
X140480138Y-74349509D02*
X140020519Y-74671242D01*
X140480138Y-74901052D02*
X139514938Y-74901052D01*
X139514938Y-74533357D01*
X139560900Y-74441433D01*
X139606861Y-74395471D01*
X139698785Y-74349509D01*
X139836671Y-74349509D01*
X139928595Y-74395471D01*
X139974557Y-74441433D01*
X140020519Y-74533357D01*
X140020519Y-74901052D01*
X139514938Y-73522195D02*
X139514938Y-73706042D01*
X139560900Y-73797966D01*
X139606861Y-73843928D01*
X139744747Y-73935852D01*
X139928595Y-73981814D01*
X140296290Y-73981814D01*
X140388214Y-73935852D01*
X140434176Y-73889890D01*
X140480138Y-73797966D01*
X140480138Y-73614119D01*
X140434176Y-73522195D01*
X140388214Y-73476233D01*
X140296290Y-73430271D01*
X140066480Y-73430271D01*
X139974557Y-73476233D01*
X139928595Y-73522195D01*
X139882633Y-73614119D01*
X139882633Y-73797966D01*
X139928595Y-73889890D01*
X139974557Y-73935852D01*
X140066480Y-73981814D01*
G04 #@! TO.C,R7*
X142067638Y-74349509D02*
X141608019Y-74671242D01*
X142067638Y-74901052D02*
X141102438Y-74901052D01*
X141102438Y-74533357D01*
X141148400Y-74441433D01*
X141194361Y-74395471D01*
X141286285Y-74349509D01*
X141424171Y-74349509D01*
X141516095Y-74395471D01*
X141562057Y-74441433D01*
X141608019Y-74533357D01*
X141608019Y-74901052D01*
X141102438Y-74027776D02*
X141102438Y-73384309D01*
X142067638Y-73797966D01*
G04 #@! TO.C,LED3*
X156385338Y-74085976D02*
X156385338Y-74545595D01*
X155420138Y-74545595D01*
X155879757Y-73764242D02*
X155879757Y-73442509D01*
X156385338Y-73304623D02*
X156385338Y-73764242D01*
X155420138Y-73764242D01*
X155420138Y-73304623D01*
X156385338Y-72890966D02*
X155420138Y-72890966D01*
X155420138Y-72661157D01*
X155466100Y-72523271D01*
X155558023Y-72431347D01*
X155649947Y-72385385D01*
X155833795Y-72339423D01*
X155971680Y-72339423D01*
X156155528Y-72385385D01*
X156247452Y-72431347D01*
X156339376Y-72523271D01*
X156385338Y-72661157D01*
X156385338Y-72890966D01*
X155420138Y-72017690D02*
X155420138Y-71420185D01*
X155787833Y-71741918D01*
X155787833Y-71604033D01*
X155833795Y-71512109D01*
X155879757Y-71466147D01*
X155971680Y-71420185D01*
X156201490Y-71420185D01*
X156293414Y-71466147D01*
X156339376Y-71512109D01*
X156385338Y-71604033D01*
X156385338Y-71879804D01*
X156339376Y-71971728D01*
X156293414Y-72017690D01*
D20*
X154477715Y-70898311D02*
X154477715Y-71118928D01*
X154477715Y-71008619D02*
X154091635Y-71008619D01*
X154146789Y-71045389D01*
X154183559Y-71082158D01*
X154201943Y-71118928D01*
G04 #@! TO.C,R8*
D19*
X156220338Y-76524423D02*
X155760719Y-76846157D01*
X156220338Y-77075966D02*
X155255138Y-77075966D01*
X155255138Y-76708271D01*
X155301100Y-76616347D01*
X155347061Y-76570385D01*
X155438985Y-76524423D01*
X155576871Y-76524423D01*
X155668795Y-76570385D01*
X155714757Y-76616347D01*
X155760719Y-76708271D01*
X155760719Y-77075966D01*
X155668795Y-75972880D02*
X155622833Y-76064804D01*
X155576871Y-76110766D01*
X155484947Y-76156728D01*
X155438985Y-76156728D01*
X155347061Y-76110766D01*
X155301100Y-76064804D01*
X155255138Y-75972880D01*
X155255138Y-75789033D01*
X155301100Y-75697109D01*
X155347061Y-75651147D01*
X155438985Y-75605185D01*
X155484947Y-75605185D01*
X155576871Y-75651147D01*
X155622833Y-75697109D01*
X155668795Y-75789033D01*
X155668795Y-75972880D01*
X155714757Y-76064804D01*
X155760719Y-76110766D01*
X155852642Y-76156728D01*
X156036490Y-76156728D01*
X156128414Y-76110766D01*
X156174376Y-76064804D01*
X156220338Y-75972880D01*
X156220338Y-75789033D01*
X156174376Y-75697109D01*
X156128414Y-75651147D01*
X156036490Y-75605185D01*
X155852642Y-75605185D01*
X155760719Y-75651147D01*
X155714757Y-75697109D01*
X155668795Y-75789033D01*
G04 #@! TO.C,R9*
X154950338Y-76524423D02*
X154490719Y-76846157D01*
X154950338Y-77075966D02*
X153985138Y-77075966D01*
X153985138Y-76708271D01*
X154031100Y-76616347D01*
X154077061Y-76570385D01*
X154168985Y-76524423D01*
X154306871Y-76524423D01*
X154398795Y-76570385D01*
X154444757Y-76616347D01*
X154490719Y-76708271D01*
X154490719Y-77075966D01*
X154950338Y-76064804D02*
X154950338Y-75880957D01*
X154904376Y-75789033D01*
X154858414Y-75743071D01*
X154720528Y-75651147D01*
X154536680Y-75605185D01*
X154168985Y-75605185D01*
X154077061Y-75651147D01*
X154031100Y-75697109D01*
X153985138Y-75789033D01*
X153985138Y-75972880D01*
X154031100Y-76064804D01*
X154077061Y-76110766D01*
X154168985Y-76156728D01*
X154398795Y-76156728D01*
X154490719Y-76110766D01*
X154536680Y-76064804D01*
X154582642Y-75972880D01*
X154582642Y-75789033D01*
X154536680Y-75697109D01*
X154490719Y-75651147D01*
X154398795Y-75605185D01*
G04 #@! TO.C,R10*
X153680338Y-77443661D02*
X153220719Y-77765395D01*
X153680338Y-77995204D02*
X152715138Y-77995204D01*
X152715138Y-77627509D01*
X152761100Y-77535585D01*
X152807061Y-77489623D01*
X152898985Y-77443661D01*
X153036871Y-77443661D01*
X153128795Y-77489623D01*
X153174757Y-77535585D01*
X153220719Y-77627509D01*
X153220719Y-77995204D01*
X153680338Y-76524423D02*
X153680338Y-77075966D01*
X153680338Y-76800195D02*
X152715138Y-76800195D01*
X152853023Y-76892118D01*
X152944947Y-76984042D01*
X152990909Y-77075966D01*
X152715138Y-75926918D02*
X152715138Y-75834995D01*
X152761100Y-75743071D01*
X152807061Y-75697109D01*
X152898985Y-75651147D01*
X153082833Y-75605185D01*
X153312642Y-75605185D01*
X153496490Y-75651147D01*
X153588414Y-75697109D01*
X153634376Y-75743071D01*
X153680338Y-75834995D01*
X153680338Y-75926918D01*
X153634376Y-76018842D01*
X153588414Y-76064804D01*
X153496490Y-76110766D01*
X153312642Y-76156728D01*
X153082833Y-76156728D01*
X152898985Y-76110766D01*
X152807061Y-76064804D01*
X152761100Y-76018842D01*
X152715138Y-75926918D01*
G04 #@! TO.C,K1*
X155186147Y-141410138D02*
X155186147Y-140444938D01*
X155737690Y-141410138D02*
X155324033Y-140858595D01*
X155737690Y-140444938D02*
X155186147Y-140996480D01*
X156656928Y-141410138D02*
X156105385Y-141410138D01*
X156381157Y-141410138D02*
X156381157Y-140444938D01*
X156289233Y-140582823D01*
X156197309Y-140674747D01*
X156105385Y-140720709D01*
G04 #@! TO.C,IC6*
X143508647Y-99907638D02*
X143508647Y-98942438D01*
X144519809Y-99815714D02*
X144473847Y-99861676D01*
X144335961Y-99907638D01*
X144244038Y-99907638D01*
X144106152Y-99861676D01*
X144014228Y-99769752D01*
X143968266Y-99677828D01*
X143922304Y-99493980D01*
X143922304Y-99356095D01*
X143968266Y-99172247D01*
X144014228Y-99080323D01*
X144106152Y-98988400D01*
X144244038Y-98942438D01*
X144335961Y-98942438D01*
X144473847Y-98988400D01*
X144519809Y-99034361D01*
X145347123Y-98942438D02*
X145163276Y-98942438D01*
X145071352Y-98988400D01*
X145025390Y-99034361D01*
X144933466Y-99172247D01*
X144887504Y-99356095D01*
X144887504Y-99723790D01*
X144933466Y-99815714D01*
X144979428Y-99861676D01*
X145071352Y-99907638D01*
X145255199Y-99907638D01*
X145347123Y-99861676D01*
X145393085Y-99815714D01*
X145439047Y-99723790D01*
X145439047Y-99493980D01*
X145393085Y-99402057D01*
X145347123Y-99356095D01*
X145255199Y-99310133D01*
X145071352Y-99310133D01*
X144979428Y-99356095D01*
X144933466Y-99402057D01*
X144887504Y-99493980D01*
G04 #@! TO.C,C18*
X139393538Y-129860914D02*
X139347576Y-129906876D01*
X139209690Y-129952838D01*
X139117766Y-129952838D01*
X138979881Y-129906876D01*
X138887957Y-129814952D01*
X138841995Y-129723028D01*
X138796033Y-129539180D01*
X138796033Y-129401295D01*
X138841995Y-129217447D01*
X138887957Y-129125523D01*
X138979881Y-129033600D01*
X139117766Y-128987638D01*
X139209690Y-128987638D01*
X139347576Y-129033600D01*
X139393538Y-129079561D01*
X140312776Y-129952838D02*
X139761233Y-129952838D01*
X140037004Y-129952838D02*
X140037004Y-128987638D01*
X139945081Y-129125523D01*
X139853157Y-129217447D01*
X139761233Y-129263409D01*
X140864319Y-129401295D02*
X140772395Y-129355333D01*
X140726433Y-129309371D01*
X140680471Y-129217447D01*
X140680471Y-129171485D01*
X140726433Y-129079561D01*
X140772395Y-129033600D01*
X140864319Y-128987638D01*
X141048166Y-128987638D01*
X141140090Y-129033600D01*
X141186052Y-129079561D01*
X141232014Y-129171485D01*
X141232014Y-129217447D01*
X141186052Y-129309371D01*
X141140090Y-129355333D01*
X141048166Y-129401295D01*
X140864319Y-129401295D01*
X140772395Y-129447257D01*
X140726433Y-129493219D01*
X140680471Y-129585142D01*
X140680471Y-129768990D01*
X140726433Y-129860914D01*
X140772395Y-129906876D01*
X140864319Y-129952838D01*
X141048166Y-129952838D01*
X141140090Y-129906876D01*
X141186052Y-129860914D01*
X141232014Y-129768990D01*
X141232014Y-129585142D01*
X141186052Y-129493219D01*
X141140090Y-129447257D01*
X141048166Y-129401295D01*
G04 #@! TO.C,C19*
X139393538Y-133805914D02*
X139347576Y-133851876D01*
X139209690Y-133897838D01*
X139117766Y-133897838D01*
X138979881Y-133851876D01*
X138887957Y-133759952D01*
X138841995Y-133668028D01*
X138796033Y-133484180D01*
X138796033Y-133346295D01*
X138841995Y-133162447D01*
X138887957Y-133070523D01*
X138979881Y-132978600D01*
X139117766Y-132932638D01*
X139209690Y-132932638D01*
X139347576Y-132978600D01*
X139393538Y-133024561D01*
X140312776Y-133897838D02*
X139761233Y-133897838D01*
X140037004Y-133897838D02*
X140037004Y-132932638D01*
X139945081Y-133070523D01*
X139853157Y-133162447D01*
X139761233Y-133208409D01*
X140772395Y-133897838D02*
X140956242Y-133897838D01*
X141048166Y-133851876D01*
X141094128Y-133805914D01*
X141186052Y-133668028D01*
X141232014Y-133484180D01*
X141232014Y-133116485D01*
X141186052Y-133024561D01*
X141140090Y-132978600D01*
X141048166Y-132932638D01*
X140864319Y-132932638D01*
X140772395Y-132978600D01*
X140726433Y-133024561D01*
X140680471Y-133116485D01*
X140680471Y-133346295D01*
X140726433Y-133438219D01*
X140772395Y-133484180D01*
X140864319Y-133530142D01*
X141048166Y-133530142D01*
X141140090Y-133484180D01*
X141186052Y-133438219D01*
X141232014Y-133346295D01*
G04 #@! TO.C,C20*
X139393538Y-137298414D02*
X139347576Y-137344376D01*
X139209690Y-137390338D01*
X139117766Y-137390338D01*
X138979881Y-137344376D01*
X138887957Y-137252452D01*
X138841995Y-137160528D01*
X138796033Y-136976680D01*
X138796033Y-136838795D01*
X138841995Y-136654947D01*
X138887957Y-136563023D01*
X138979881Y-136471100D01*
X139117766Y-136425138D01*
X139209690Y-136425138D01*
X139347576Y-136471100D01*
X139393538Y-136517061D01*
X139761233Y-136517061D02*
X139807195Y-136471100D01*
X139899119Y-136425138D01*
X140128928Y-136425138D01*
X140220852Y-136471100D01*
X140266814Y-136517061D01*
X140312776Y-136608985D01*
X140312776Y-136700909D01*
X140266814Y-136838795D01*
X139715271Y-137390338D01*
X140312776Y-137390338D01*
X140910281Y-136425138D02*
X141002204Y-136425138D01*
X141094128Y-136471100D01*
X141140090Y-136517061D01*
X141186052Y-136608985D01*
X141232014Y-136792833D01*
X141232014Y-137022642D01*
X141186052Y-137206490D01*
X141140090Y-137298414D01*
X141094128Y-137344376D01*
X141002204Y-137390338D01*
X140910281Y-137390338D01*
X140818357Y-137344376D01*
X140772395Y-137298414D01*
X140726433Y-137206490D01*
X140680471Y-137022642D01*
X140680471Y-136792833D01*
X140726433Y-136608985D01*
X140772395Y-136517061D01*
X140818357Y-136471100D01*
X140910281Y-136425138D01*
G04 #@! TO.C,C21*
X158197690Y-134110714D02*
X158151728Y-134156676D01*
X158013842Y-134202638D01*
X157921918Y-134202638D01*
X157784033Y-134156676D01*
X157692109Y-134064752D01*
X157646147Y-133972828D01*
X157600185Y-133788980D01*
X157600185Y-133651095D01*
X157646147Y-133467247D01*
X157692109Y-133375323D01*
X157784033Y-133283400D01*
X157921918Y-133237438D01*
X158013842Y-133237438D01*
X158151728Y-133283400D01*
X158197690Y-133329361D01*
X158565385Y-133329361D02*
X158611347Y-133283400D01*
X158703271Y-133237438D01*
X158933080Y-133237438D01*
X159025004Y-133283400D01*
X159070966Y-133329361D01*
X159116928Y-133421285D01*
X159116928Y-133513209D01*
X159070966Y-133651095D01*
X158519423Y-134202638D01*
X159116928Y-134202638D01*
X160036166Y-134202638D02*
X159484623Y-134202638D01*
X159760395Y-134202638D02*
X159760395Y-133237438D01*
X159668471Y-133375323D01*
X159576547Y-133467247D01*
X159484623Y-133513209D01*
G04 #@! TO.C,C22*
X158197690Y-135698214D02*
X158151728Y-135744176D01*
X158013842Y-135790138D01*
X157921918Y-135790138D01*
X157784033Y-135744176D01*
X157692109Y-135652252D01*
X157646147Y-135560328D01*
X157600185Y-135376480D01*
X157600185Y-135238595D01*
X157646147Y-135054747D01*
X157692109Y-134962823D01*
X157784033Y-134870900D01*
X157921918Y-134824938D01*
X158013842Y-134824938D01*
X158151728Y-134870900D01*
X158197690Y-134916861D01*
X158565385Y-134916861D02*
X158611347Y-134870900D01*
X158703271Y-134824938D01*
X158933080Y-134824938D01*
X159025004Y-134870900D01*
X159070966Y-134916861D01*
X159116928Y-135008785D01*
X159116928Y-135100709D01*
X159070966Y-135238595D01*
X158519423Y-135790138D01*
X159116928Y-135790138D01*
X159484623Y-134916861D02*
X159530585Y-134870900D01*
X159622509Y-134824938D01*
X159852318Y-134824938D01*
X159944242Y-134870900D01*
X159990204Y-134916861D01*
X160036166Y-135008785D01*
X160036166Y-135100709D01*
X159990204Y-135238595D01*
X159438661Y-135790138D01*
X160036166Y-135790138D01*
G04 #@! TO.C,D5*
X157816147Y-132650138D02*
X157816147Y-131684938D01*
X158045957Y-131684938D01*
X158183842Y-131730900D01*
X158275766Y-131822823D01*
X158321728Y-131914747D01*
X158367690Y-132098595D01*
X158367690Y-132236480D01*
X158321728Y-132420328D01*
X158275766Y-132512252D01*
X158183842Y-132604176D01*
X158045957Y-132650138D01*
X157816147Y-132650138D01*
X159240966Y-131684938D02*
X158781347Y-131684938D01*
X158735385Y-132144557D01*
X158781347Y-132098595D01*
X158873271Y-132052633D01*
X159103080Y-132052633D01*
X159195004Y-132098595D01*
X159240966Y-132144557D01*
X159286928Y-132236480D01*
X159286928Y-132466290D01*
X159240966Y-132558214D01*
X159195004Y-132604176D01*
X159103080Y-132650138D01*
X158873271Y-132650138D01*
X158781347Y-132604176D01*
X158735385Y-132558214D01*
G04 #@! TO.C,D4*
X139591233Y-135767838D02*
X139591233Y-134802638D01*
X139821042Y-134802638D01*
X139958928Y-134848600D01*
X140050852Y-134940523D01*
X140096814Y-135032447D01*
X140142776Y-135216295D01*
X140142776Y-135354180D01*
X140096814Y-135538028D01*
X140050852Y-135629952D01*
X139958928Y-135721876D01*
X139821042Y-135767838D01*
X139591233Y-135767838D01*
X140970090Y-135124371D02*
X140970090Y-135767838D01*
X140740281Y-134756676D02*
X140510471Y-135446104D01*
X141107976Y-135446104D01*
G04 #@! TO.C,D6*
X139591233Y-132275338D02*
X139591233Y-131310138D01*
X139821042Y-131310138D01*
X139958928Y-131356100D01*
X140050852Y-131448023D01*
X140096814Y-131539947D01*
X140142776Y-131723795D01*
X140142776Y-131861680D01*
X140096814Y-132045528D01*
X140050852Y-132137452D01*
X139958928Y-132229376D01*
X139821042Y-132275338D01*
X139591233Y-132275338D01*
X140970090Y-131310138D02*
X140786242Y-131310138D01*
X140694319Y-131356100D01*
X140648357Y-131402061D01*
X140556433Y-131539947D01*
X140510471Y-131723795D01*
X140510471Y-132091490D01*
X140556433Y-132183414D01*
X140602395Y-132229376D01*
X140694319Y-132275338D01*
X140878166Y-132275338D01*
X140970090Y-132229376D01*
X141016052Y-132183414D01*
X141062014Y-132091490D01*
X141062014Y-131861680D01*
X141016052Y-131769757D01*
X140970090Y-131723795D01*
X140878166Y-131677833D01*
X140694319Y-131677833D01*
X140602395Y-131723795D01*
X140556433Y-131769757D01*
X140510471Y-131861680D01*
G04 #@! TO.C,D7*
X139591233Y-127830338D02*
X139591233Y-126865138D01*
X139821042Y-126865138D01*
X139958928Y-126911100D01*
X140050852Y-127003023D01*
X140096814Y-127094947D01*
X140142776Y-127278795D01*
X140142776Y-127416680D01*
X140096814Y-127600528D01*
X140050852Y-127692452D01*
X139958928Y-127784376D01*
X139821042Y-127830338D01*
X139591233Y-127830338D01*
X140464509Y-126865138D02*
X141107976Y-126865138D01*
X140694319Y-127830338D01*
G04 #@! TO.C,C24*
X163595190Y-108393214D02*
X163549228Y-108439176D01*
X163411342Y-108485138D01*
X163319418Y-108485138D01*
X163181533Y-108439176D01*
X163089609Y-108347252D01*
X163043647Y-108255328D01*
X162997685Y-108071480D01*
X162997685Y-107933595D01*
X163043647Y-107749747D01*
X163089609Y-107657823D01*
X163181533Y-107565900D01*
X163319418Y-107519938D01*
X163411342Y-107519938D01*
X163549228Y-107565900D01*
X163595190Y-107611861D01*
X163962885Y-107611861D02*
X164008847Y-107565900D01*
X164100771Y-107519938D01*
X164330580Y-107519938D01*
X164422504Y-107565900D01*
X164468466Y-107611861D01*
X164514428Y-107703785D01*
X164514428Y-107795709D01*
X164468466Y-107933595D01*
X163916923Y-108485138D01*
X164514428Y-108485138D01*
X165341742Y-107841671D02*
X165341742Y-108485138D01*
X165111933Y-107473976D02*
X164882123Y-108163404D01*
X165479628Y-108163404D01*
G04 #@! TO.C,C25*
X163595190Y-104583214D02*
X163549228Y-104629176D01*
X163411342Y-104675138D01*
X163319418Y-104675138D01*
X163181533Y-104629176D01*
X163089609Y-104537252D01*
X163043647Y-104445328D01*
X162997685Y-104261480D01*
X162997685Y-104123595D01*
X163043647Y-103939747D01*
X163089609Y-103847823D01*
X163181533Y-103755900D01*
X163319418Y-103709938D01*
X163411342Y-103709938D01*
X163549228Y-103755900D01*
X163595190Y-103801861D01*
X163962885Y-103801861D02*
X164008847Y-103755900D01*
X164100771Y-103709938D01*
X164330580Y-103709938D01*
X164422504Y-103755900D01*
X164468466Y-103801861D01*
X164514428Y-103893785D01*
X164514428Y-103985709D01*
X164468466Y-104123595D01*
X163916923Y-104675138D01*
X164514428Y-104675138D01*
X165387704Y-103709938D02*
X164928085Y-103709938D01*
X164882123Y-104169557D01*
X164928085Y-104123595D01*
X165020009Y-104077633D01*
X165249818Y-104077633D01*
X165341742Y-104123595D01*
X165387704Y-104169557D01*
X165433666Y-104261480D01*
X165433666Y-104491290D01*
X165387704Y-104583214D01*
X165341742Y-104629176D01*
X165249818Y-104675138D01*
X165020009Y-104675138D01*
X164928085Y-104629176D01*
X164882123Y-104583214D01*
G04 #@! TO.C,C26*
X163595190Y-102678214D02*
X163549228Y-102724176D01*
X163411342Y-102770138D01*
X163319418Y-102770138D01*
X163181533Y-102724176D01*
X163089609Y-102632252D01*
X163043647Y-102540328D01*
X162997685Y-102356480D01*
X162997685Y-102218595D01*
X163043647Y-102034747D01*
X163089609Y-101942823D01*
X163181533Y-101850900D01*
X163319418Y-101804938D01*
X163411342Y-101804938D01*
X163549228Y-101850900D01*
X163595190Y-101896861D01*
X163962885Y-101896861D02*
X164008847Y-101850900D01*
X164100771Y-101804938D01*
X164330580Y-101804938D01*
X164422504Y-101850900D01*
X164468466Y-101896861D01*
X164514428Y-101988785D01*
X164514428Y-102080709D01*
X164468466Y-102218595D01*
X163916923Y-102770138D01*
X164514428Y-102770138D01*
X165341742Y-101804938D02*
X165157895Y-101804938D01*
X165065971Y-101850900D01*
X165020009Y-101896861D01*
X164928085Y-102034747D01*
X164882123Y-102218595D01*
X164882123Y-102586290D01*
X164928085Y-102678214D01*
X164974047Y-102724176D01*
X165065971Y-102770138D01*
X165249818Y-102770138D01*
X165341742Y-102724176D01*
X165387704Y-102678214D01*
X165433666Y-102586290D01*
X165433666Y-102356480D01*
X165387704Y-102264557D01*
X165341742Y-102218595D01*
X165249818Y-102172633D01*
X165065971Y-102172633D01*
X164974047Y-102218595D01*
X164928085Y-102264557D01*
X164882123Y-102356480D01*
G04 #@! TO.C,R11*
X138661038Y-112220338D02*
X138339304Y-111760719D01*
X138109495Y-112220338D02*
X138109495Y-111255138D01*
X138477190Y-111255138D01*
X138569114Y-111301100D01*
X138615076Y-111347061D01*
X138661038Y-111438985D01*
X138661038Y-111576871D01*
X138615076Y-111668795D01*
X138569114Y-111714757D01*
X138477190Y-111760719D01*
X138109495Y-111760719D01*
X139580276Y-112220338D02*
X139028733Y-112220338D01*
X139304504Y-112220338D02*
X139304504Y-111255138D01*
X139212581Y-111393023D01*
X139120657Y-111484947D01*
X139028733Y-111530909D01*
X140499514Y-112220338D02*
X139947971Y-112220338D01*
X140223742Y-112220338D02*
X140223742Y-111255138D01*
X140131819Y-111393023D01*
X140039895Y-111484947D01*
X139947971Y-111530909D01*
G04 #@! TO.C,R12*
X140600138Y-114257009D02*
X140140519Y-114578742D01*
X140600138Y-114808552D02*
X139634938Y-114808552D01*
X139634938Y-114440857D01*
X139680900Y-114348933D01*
X139726861Y-114302971D01*
X139818785Y-114257009D01*
X139956671Y-114257009D01*
X140048595Y-114302971D01*
X140094557Y-114348933D01*
X140140519Y-114440857D01*
X140140519Y-114808552D01*
X140600138Y-113337771D02*
X140600138Y-113889314D01*
X140600138Y-113613542D02*
X139634938Y-113613542D01*
X139772823Y-113705466D01*
X139864747Y-113797390D01*
X139910709Y-113889314D01*
X139726861Y-112970076D02*
X139680900Y-112924114D01*
X139634938Y-112832190D01*
X139634938Y-112602381D01*
X139680900Y-112510457D01*
X139726861Y-112464495D01*
X139818785Y-112418533D01*
X139910709Y-112418533D01*
X140048595Y-112464495D01*
X140600138Y-113016038D01*
X140600138Y-112418533D01*
G04 #@! TO.C,R13*
X138210138Y-108282009D02*
X137750519Y-108603742D01*
X138210138Y-108833552D02*
X137244938Y-108833552D01*
X137244938Y-108465857D01*
X137290900Y-108373933D01*
X137336861Y-108327971D01*
X137428785Y-108282009D01*
X137566671Y-108282009D01*
X137658595Y-108327971D01*
X137704557Y-108373933D01*
X137750519Y-108465857D01*
X137750519Y-108833552D01*
X138210138Y-107362771D02*
X138210138Y-107914314D01*
X138210138Y-107638542D02*
X137244938Y-107638542D01*
X137382823Y-107730466D01*
X137474747Y-107822390D01*
X137520709Y-107914314D01*
X137244938Y-107041038D02*
X137244938Y-106443533D01*
X137612633Y-106765266D01*
X137612633Y-106627381D01*
X137658595Y-106535457D01*
X137704557Y-106489495D01*
X137796480Y-106443533D01*
X138026290Y-106443533D01*
X138118214Y-106489495D01*
X138164176Y-106535457D01*
X138210138Y-106627381D01*
X138210138Y-106903152D01*
X138164176Y-106995076D01*
X138118214Y-107041038D01*
G04 #@! TO.C,R14*
X140115138Y-108282009D02*
X139655519Y-108603742D01*
X140115138Y-108833552D02*
X139149938Y-108833552D01*
X139149938Y-108465857D01*
X139195900Y-108373933D01*
X139241861Y-108327971D01*
X139333785Y-108282009D01*
X139471671Y-108282009D01*
X139563595Y-108327971D01*
X139609557Y-108373933D01*
X139655519Y-108465857D01*
X139655519Y-108833552D01*
X140115138Y-107362771D02*
X140115138Y-107914314D01*
X140115138Y-107638542D02*
X139149938Y-107638542D01*
X139287823Y-107730466D01*
X139379747Y-107822390D01*
X139425709Y-107914314D01*
X139471671Y-106535457D02*
X140115138Y-106535457D01*
X139103976Y-106765266D02*
X139793404Y-106995076D01*
X139793404Y-106397571D01*
G04 #@! TO.C,JP3*
X133318218Y-122981138D02*
X133318218Y-123670566D01*
X133272257Y-123808452D01*
X133180333Y-123900376D01*
X133042447Y-123946338D01*
X132950523Y-123946338D01*
X133777838Y-123946338D02*
X133777838Y-122981138D01*
X134145533Y-122981138D01*
X134237457Y-123027100D01*
X134283418Y-123073061D01*
X134329380Y-123164985D01*
X134329380Y-123302871D01*
X134283418Y-123394795D01*
X134237457Y-123440757D01*
X134145533Y-123486719D01*
X133777838Y-123486719D01*
X134651114Y-122981138D02*
X135248618Y-122981138D01*
X134926885Y-123348833D01*
X135064771Y-123348833D01*
X135156695Y-123394795D01*
X135202657Y-123440757D01*
X135248618Y-123532680D01*
X135248618Y-123762490D01*
X135202657Y-123854414D01*
X135156695Y-123900376D01*
X135064771Y-123946338D01*
X134788999Y-123946338D01*
X134697076Y-123900376D01*
X134651114Y-123854414D01*
G04 #@! TO.C,JP4*
X133268218Y-110901138D02*
X133268218Y-111590566D01*
X133222257Y-111728452D01*
X133130333Y-111820376D01*
X132992447Y-111866338D01*
X132900523Y-111866338D01*
X133727838Y-111866338D02*
X133727838Y-110901138D01*
X134095533Y-110901138D01*
X134187457Y-110947100D01*
X134233418Y-110993061D01*
X134279380Y-111084985D01*
X134279380Y-111222871D01*
X134233418Y-111314795D01*
X134187457Y-111360757D01*
X134095533Y-111406719D01*
X133727838Y-111406719D01*
X135106695Y-111222871D02*
X135106695Y-111866338D01*
X134876885Y-110855176D02*
X134647076Y-111544604D01*
X135244580Y-111544604D01*
G04 #@! TO.C,JP6*
X133379418Y-101022438D02*
X133379418Y-101711866D01*
X133333457Y-101849752D01*
X133241533Y-101941676D01*
X133103647Y-101987638D01*
X133011723Y-101987638D01*
X133839038Y-101987638D02*
X133839038Y-101022438D01*
X134206733Y-101022438D01*
X134298657Y-101068400D01*
X134344618Y-101114361D01*
X134390580Y-101206285D01*
X134390580Y-101344171D01*
X134344618Y-101436095D01*
X134298657Y-101482057D01*
X134206733Y-101528019D01*
X133839038Y-101528019D01*
X135217895Y-101022438D02*
X135034047Y-101022438D01*
X134942123Y-101068400D01*
X134896161Y-101114361D01*
X134804238Y-101252247D01*
X134758276Y-101436095D01*
X134758276Y-101803790D01*
X134804238Y-101895714D01*
X134850199Y-101941676D01*
X134942123Y-101987638D01*
X135125971Y-101987638D01*
X135217895Y-101941676D01*
X135263857Y-101895714D01*
X135309818Y-101803790D01*
X135309818Y-101573980D01*
X135263857Y-101482057D01*
X135217895Y-101436095D01*
X135125971Y-101390133D01*
X134942123Y-101390133D01*
X134850199Y-101436095D01*
X134804238Y-101482057D01*
X134758276Y-101573980D01*
G04 #@! TO.C,JP5*
X162359418Y-74884938D02*
X162359418Y-75574366D01*
X162313457Y-75712252D01*
X162221533Y-75804176D01*
X162083647Y-75850138D01*
X161991723Y-75850138D01*
X162819038Y-75850138D02*
X162819038Y-74884938D01*
X163186733Y-74884938D01*
X163278657Y-74930900D01*
X163324618Y-74976861D01*
X163370580Y-75068785D01*
X163370580Y-75206671D01*
X163324618Y-75298595D01*
X163278657Y-75344557D01*
X163186733Y-75390519D01*
X162819038Y-75390519D01*
X164243857Y-74884938D02*
X163784238Y-74884938D01*
X163738276Y-75344557D01*
X163784238Y-75298595D01*
X163876161Y-75252633D01*
X164105971Y-75252633D01*
X164197895Y-75298595D01*
X164243857Y-75344557D01*
X164289818Y-75436480D01*
X164289818Y-75666290D01*
X164243857Y-75758214D01*
X164197895Y-75804176D01*
X164105971Y-75850138D01*
X163876161Y-75850138D01*
X163784238Y-75804176D01*
X163738276Y-75758214D01*
G04 #@! TO.C,JP7*
X133379418Y-81032438D02*
X133379418Y-81721866D01*
X133333457Y-81859752D01*
X133241533Y-81951676D01*
X133103647Y-81997638D01*
X133011723Y-81997638D01*
X133839038Y-81997638D02*
X133839038Y-81032438D01*
X134206733Y-81032438D01*
X134298657Y-81078400D01*
X134344618Y-81124361D01*
X134390580Y-81216285D01*
X134390580Y-81354171D01*
X134344618Y-81446095D01*
X134298657Y-81492057D01*
X134206733Y-81538019D01*
X133839038Y-81538019D01*
X134712314Y-81032438D02*
X135355780Y-81032438D01*
X134942123Y-81997638D01*
G04 #@! TO.C,C27*
X163595190Y-106488214D02*
X163549228Y-106534176D01*
X163411342Y-106580138D01*
X163319418Y-106580138D01*
X163181533Y-106534176D01*
X163089609Y-106442252D01*
X163043647Y-106350328D01*
X162997685Y-106166480D01*
X162997685Y-106028595D01*
X163043647Y-105844747D01*
X163089609Y-105752823D01*
X163181533Y-105660900D01*
X163319418Y-105614938D01*
X163411342Y-105614938D01*
X163549228Y-105660900D01*
X163595190Y-105706861D01*
X163962885Y-105706861D02*
X164008847Y-105660900D01*
X164100771Y-105614938D01*
X164330580Y-105614938D01*
X164422504Y-105660900D01*
X164468466Y-105706861D01*
X164514428Y-105798785D01*
X164514428Y-105890709D01*
X164468466Y-106028595D01*
X163916923Y-106580138D01*
X164514428Y-106580138D01*
X164836161Y-105614938D02*
X165479628Y-105614938D01*
X165065971Y-106580138D01*
G04 #@! TO.C,TP1*
X141673938Y-104883938D02*
X141673938Y-104332395D01*
X142639138Y-104608166D02*
X141673938Y-104608166D01*
X142639138Y-104010662D02*
X141673938Y-104010662D01*
X141673938Y-103642966D01*
X141719900Y-103551042D01*
X141765861Y-103505081D01*
X141857785Y-103459119D01*
X141995671Y-103459119D01*
X142087595Y-103505081D01*
X142133557Y-103551042D01*
X142179519Y-103642966D01*
X142179519Y-104010662D01*
X142639138Y-102539881D02*
X142639138Y-103091423D01*
X142639138Y-102815652D02*
X141673938Y-102815652D01*
X141811823Y-102907576D01*
X141903747Y-102999500D01*
X141949709Y-103091423D01*
G04 #@! TO.C,TP2*
X141654838Y-118518938D02*
X141654838Y-117967395D01*
X142620038Y-118243166D02*
X141654838Y-118243166D01*
X142620038Y-117645662D02*
X141654838Y-117645662D01*
X141654838Y-117277966D01*
X141700800Y-117186042D01*
X141746761Y-117140081D01*
X141838685Y-117094119D01*
X141976571Y-117094119D01*
X142068495Y-117140081D01*
X142114457Y-117186042D01*
X142160419Y-117277966D01*
X142160419Y-117645662D01*
X141746761Y-116726423D02*
X141700800Y-116680462D01*
X141654838Y-116588538D01*
X141654838Y-116358728D01*
X141700800Y-116266804D01*
X141746761Y-116220842D01*
X141838685Y-116174881D01*
X141930609Y-116174881D01*
X142068495Y-116220842D01*
X142620038Y-116772385D01*
X142620038Y-116174881D01*
G04 #@! TO.C,TP3*
X148395457Y-127300238D02*
X148947000Y-127300238D01*
X148671228Y-128265438D02*
X148671228Y-127300238D01*
X149268733Y-128265438D02*
X149268733Y-127300238D01*
X149636428Y-127300238D01*
X149728352Y-127346200D01*
X149774314Y-127392161D01*
X149820276Y-127484085D01*
X149820276Y-127621971D01*
X149774314Y-127713895D01*
X149728352Y-127759857D01*
X149636428Y-127805819D01*
X149268733Y-127805819D01*
X150142009Y-127300238D02*
X150739514Y-127300238D01*
X150417781Y-127667933D01*
X150555666Y-127667933D01*
X150647590Y-127713895D01*
X150693552Y-127759857D01*
X150739514Y-127851780D01*
X150739514Y-128081590D01*
X150693552Y-128173514D01*
X150647590Y-128219476D01*
X150555666Y-128265438D01*
X150279895Y-128265438D01*
X150187971Y-128219476D01*
X150142009Y-128173514D01*
G04 #@! TO.C,TP4*
X153402338Y-89943938D02*
X153402338Y-89392395D01*
X154367538Y-89668166D02*
X153402338Y-89668166D01*
X154367538Y-89070662D02*
X153402338Y-89070662D01*
X153402338Y-88702966D01*
X153448300Y-88611042D01*
X153494261Y-88565081D01*
X153586185Y-88519119D01*
X153724071Y-88519119D01*
X153815995Y-88565081D01*
X153861957Y-88611042D01*
X153907919Y-88702966D01*
X153907919Y-89070662D01*
X153724071Y-87691804D02*
X154367538Y-87691804D01*
X153356376Y-87921614D02*
X154045804Y-88151423D01*
X154045804Y-87553919D01*
G04 #@! TO.C,TP6*
X141178588Y-91372688D02*
X141178588Y-90821145D01*
X142143788Y-91096916D02*
X141178588Y-91096916D01*
X142143788Y-90499412D02*
X141178588Y-90499412D01*
X141178588Y-90131716D01*
X141224550Y-90039792D01*
X141270511Y-89993831D01*
X141362435Y-89947869D01*
X141500321Y-89947869D01*
X141592245Y-89993831D01*
X141638207Y-90039792D01*
X141684169Y-90131716D01*
X141684169Y-90499412D01*
X141178588Y-89120554D02*
X141178588Y-89304402D01*
X141224550Y-89396326D01*
X141270511Y-89442288D01*
X141408397Y-89534212D01*
X141592245Y-89580173D01*
X141959940Y-89580173D01*
X142051864Y-89534212D01*
X142097826Y-89488250D01*
X142143788Y-89396326D01*
X142143788Y-89212478D01*
X142097826Y-89120554D01*
X142051864Y-89074592D01*
X141959940Y-89028631D01*
X141730130Y-89028631D01*
X141638207Y-89074592D01*
X141592245Y-89120554D01*
X141546283Y-89212478D01*
X141546283Y-89396326D01*
X141592245Y-89488250D01*
X141638207Y-89534212D01*
X141730130Y-89580173D01*
G04 #@! TO.C,TP8*
X146730761Y-84736088D02*
X147282304Y-84736088D01*
X147006533Y-85701288D02*
X147006533Y-84736088D01*
X147604038Y-85701288D02*
X147604038Y-84736088D01*
X147971733Y-84736088D01*
X148063657Y-84782050D01*
X148109618Y-84828011D01*
X148155580Y-84919935D01*
X148155580Y-85057821D01*
X148109618Y-85149745D01*
X148063657Y-85195707D01*
X147971733Y-85241669D01*
X147604038Y-85241669D01*
X148707123Y-85149745D02*
X148615199Y-85103783D01*
X148569238Y-85057821D01*
X148523276Y-84965897D01*
X148523276Y-84919935D01*
X148569238Y-84828011D01*
X148615199Y-84782050D01*
X148707123Y-84736088D01*
X148890971Y-84736088D01*
X148982895Y-84782050D01*
X149028857Y-84828011D01*
X149074818Y-84919935D01*
X149074818Y-84965897D01*
X149028857Y-85057821D01*
X148982895Y-85103783D01*
X148890971Y-85149745D01*
X148707123Y-85149745D01*
X148615199Y-85195707D01*
X148569238Y-85241669D01*
X148523276Y-85333592D01*
X148523276Y-85517440D01*
X148569238Y-85609364D01*
X148615199Y-85655326D01*
X148707123Y-85701288D01*
X148890971Y-85701288D01*
X148982895Y-85655326D01*
X149028857Y-85609364D01*
X149074818Y-85517440D01*
X149074818Y-85333592D01*
X149028857Y-85241669D01*
X148982895Y-85195707D01*
X148890971Y-85149745D01*
G04 #@! TO.C,TP9*
X141886707Y-84731488D02*
X142438250Y-84731488D01*
X142162478Y-85696688D02*
X142162478Y-84731488D01*
X142759983Y-85696688D02*
X142759983Y-84731488D01*
X143127678Y-84731488D01*
X143219602Y-84777450D01*
X143265564Y-84823411D01*
X143311526Y-84915335D01*
X143311526Y-85053221D01*
X143265564Y-85145145D01*
X143219602Y-85191107D01*
X143127678Y-85237069D01*
X142759983Y-85237069D01*
X143771145Y-85696688D02*
X143954992Y-85696688D01*
X144046916Y-85650726D01*
X144092878Y-85604764D01*
X144184802Y-85466878D01*
X144230764Y-85283030D01*
X144230764Y-84915335D01*
X144184802Y-84823411D01*
X144138840Y-84777450D01*
X144046916Y-84731488D01*
X143863069Y-84731488D01*
X143771145Y-84777450D01*
X143725183Y-84823411D01*
X143679221Y-84915335D01*
X143679221Y-85145145D01*
X143725183Y-85237069D01*
X143771145Y-85283030D01*
X143863069Y-85328992D01*
X144046916Y-85328992D01*
X144138840Y-85283030D01*
X144184802Y-85237069D01*
X144230764Y-85145145D01*
G04 #@! TO.C,JP8*
X162872814Y-100153938D02*
X162872814Y-100843366D01*
X162826852Y-100981252D01*
X162734928Y-101073176D01*
X162597042Y-101119138D01*
X162505119Y-101119138D01*
X163332433Y-101119138D02*
X163332433Y-100153938D01*
X163700128Y-100153938D01*
X163792052Y-100199900D01*
X163838014Y-100245861D01*
X163883976Y-100337785D01*
X163883976Y-100475671D01*
X163838014Y-100567595D01*
X163792052Y-100613557D01*
X163700128Y-100659519D01*
X163332433Y-100659519D01*
X164435519Y-100567595D02*
X164343595Y-100521633D01*
X164297633Y-100475671D01*
X164251671Y-100383747D01*
X164251671Y-100337785D01*
X164297633Y-100245861D01*
X164343595Y-100199900D01*
X164435519Y-100153938D01*
X164619366Y-100153938D01*
X164711290Y-100199900D01*
X164757252Y-100245861D01*
X164803214Y-100337785D01*
X164803214Y-100383747D01*
X164757252Y-100475671D01*
X164711290Y-100521633D01*
X164619366Y-100567595D01*
X164435519Y-100567595D01*
X164343595Y-100613557D01*
X164297633Y-100659519D01*
X164251671Y-100751442D01*
X164251671Y-100935290D01*
X164297633Y-101027214D01*
X164343595Y-101073176D01*
X164435519Y-101119138D01*
X164619366Y-101119138D01*
X164711290Y-101073176D01*
X164757252Y-101027214D01*
X164803214Y-100935290D01*
X164803214Y-100751442D01*
X164757252Y-100659519D01*
X164711290Y-100613557D01*
X164619366Y-100567595D01*
G04 #@! TO.C,TP7*
X144904661Y-95538738D02*
X145456204Y-95538738D01*
X145180433Y-96503938D02*
X145180433Y-95538738D01*
X145777938Y-96503938D02*
X145777938Y-95538738D01*
X146145633Y-95538738D01*
X146237557Y-95584700D01*
X146283518Y-95630661D01*
X146329480Y-95722585D01*
X146329480Y-95860471D01*
X146283518Y-95952395D01*
X146237557Y-95998357D01*
X146145633Y-96044319D01*
X145777938Y-96044319D01*
X146651214Y-95538738D02*
X147294680Y-95538738D01*
X146881023Y-96503938D01*
G04 #@! TD*
M02*
