G04 #@! TF.GenerationSoftware,KiCad,Pcbnew,5.0.2-bee76a0~70~ubuntu18.04.1*
G04 #@! TF.CreationDate,2019-10-21T17:09:24+02:00*
G04 #@! TF.ProjectId,easyhive_1_3,65617379-6869-4766-955f-315f332e6b69,rev?*
G04 #@! TF.SameCoordinates,Original*
G04 #@! TF.FileFunction,Legend,Bot*
G04 #@! TF.FilePolarity,Positive*
%FSLAX46Y46*%
G04 Gerber Fmt 4.6, Leading zero omitted, Abs format (unit mm)*
G04 Created by KiCad (PCBNEW 5.0.2-bee76a0~70~ubuntu18.04.1) date Mo 21 Okt 2019 17:09:24 CEST*
%MOMM*%
%LPD*%
G01*
G04 APERTURE LIST*
%ADD10C,0.127000*%
%ADD11C,0.152400*%
%ADD12C,0.100000*%
%ADD13C,0.203200*%
%ADD14C,0.150000*%
%ADD15C,0.096520*%
G04 APERTURE END LIST*
D10*
G04 #@! TO.C,IC3*
X144411100Y-125588600D02*
G75*
G03X144411100Y-125588600I-250000J0D01*
G01*
X144811100Y-126338600D02*
X144811100Y-121838600D01*
X136861100Y-126338600D02*
X144811100Y-126338600D01*
X136861100Y-121838600D02*
X136861100Y-126338600D01*
X144811100Y-121838600D02*
X136861100Y-121838600D01*
G04 #@! TO.C,C11*
X141450000Y-78050000D02*
X142050000Y-78050000D01*
X141450000Y-78650000D02*
X142050000Y-78650000D01*
X141450000Y-78050000D02*
X141450000Y-77800000D01*
X141450000Y-78650000D02*
X141450000Y-78050000D01*
X141450000Y-78900000D02*
X141450000Y-78650000D01*
X142050000Y-78050000D02*
X142050000Y-77800000D01*
X142050000Y-78650000D02*
X142050000Y-78050000D01*
X142050000Y-78900000D02*
X142050000Y-78650000D01*
X141450000Y-77800000D02*
X142050000Y-77800000D01*
X141450000Y-78900000D02*
X142050000Y-78900000D01*
G04 #@! TO.C,C12*
X145906100Y-83783600D02*
X145906100Y-84383600D01*
X145306100Y-83783600D02*
X145306100Y-84383600D01*
X145906100Y-83783600D02*
X146156100Y-83783600D01*
X145306100Y-83783600D02*
X145906100Y-83783600D01*
X145056100Y-83783600D02*
X145306100Y-83783600D01*
X145906100Y-84383600D02*
X146156100Y-84383600D01*
X145306100Y-84383600D02*
X145906100Y-84383600D01*
X145056100Y-84383600D02*
X145306100Y-84383600D01*
X146156100Y-83783600D02*
X146156100Y-84383600D01*
X145056100Y-83783600D02*
X145056100Y-84383600D01*
G04 #@! TO.C,C13*
X145906100Y-85053600D02*
X145906100Y-85653600D01*
X145306100Y-85053600D02*
X145306100Y-85653600D01*
X145906100Y-85053600D02*
X146156100Y-85053600D01*
X145306100Y-85053600D02*
X145906100Y-85053600D01*
X145056100Y-85053600D02*
X145306100Y-85053600D01*
X145906100Y-85653600D02*
X146156100Y-85653600D01*
X145306100Y-85653600D02*
X145906100Y-85653600D01*
X145056100Y-85653600D02*
X145306100Y-85653600D01*
X146156100Y-85053600D02*
X146156100Y-85653600D01*
X145056100Y-85053600D02*
X145056100Y-85653600D01*
D11*
G04 #@! TO.C,IC2*
X143931100Y-81313600D02*
X140931100Y-81313600D01*
X140931100Y-81313600D02*
X140931100Y-84313600D01*
X140931100Y-84313600D02*
X143931100Y-84313600D01*
X143931100Y-84313600D02*
X143931100Y-81313600D01*
X143681100Y-81688600D02*
G75*
G03X143681100Y-81688600I-125000J0D01*
G01*
D10*
G04 #@! TO.C,R3*
X144001100Y-78668600D02*
X143401100Y-78668600D01*
X144001100Y-78068600D02*
X143401100Y-78068600D01*
X144001100Y-78668600D02*
X144001100Y-78918600D01*
X144001100Y-78068600D02*
X144001100Y-78668600D01*
X144001100Y-77818600D02*
X144001100Y-78068600D01*
X143401100Y-78668600D02*
X143401100Y-78918600D01*
X143401100Y-78068600D02*
X143401100Y-78668600D01*
X143401100Y-77818600D02*
X143401100Y-78068600D01*
X144001100Y-78918600D02*
X143401100Y-78918600D01*
X144001100Y-77818600D02*
X143401100Y-77818600D01*
G04 #@! TO.C,R4*
X140191100Y-78668600D02*
X139591100Y-78668600D01*
X140191100Y-78068600D02*
X139591100Y-78068600D01*
X140191100Y-78668600D02*
X140191100Y-78918600D01*
X140191100Y-78068600D02*
X140191100Y-78668600D01*
X140191100Y-77818600D02*
X140191100Y-78068600D01*
X139591100Y-78668600D02*
X139591100Y-78918600D01*
X139591100Y-78068600D02*
X139591100Y-78668600D01*
X139591100Y-77818600D02*
X139591100Y-78068600D01*
X140191100Y-78918600D02*
X139591100Y-78918600D01*
X140191100Y-77818600D02*
X139591100Y-77818600D01*
G04 #@! TO.C,R5*
X145906100Y-78668600D02*
X145306100Y-78668600D01*
X145906100Y-78068600D02*
X145306100Y-78068600D01*
X145906100Y-78668600D02*
X145906100Y-78918600D01*
X145906100Y-78068600D02*
X145906100Y-78668600D01*
X145906100Y-77818600D02*
X145906100Y-78068600D01*
X145306100Y-78668600D02*
X145306100Y-78918600D01*
X145306100Y-78068600D02*
X145306100Y-78668600D01*
X145306100Y-77818600D02*
X145306100Y-78068600D01*
X145906100Y-78918600D02*
X145306100Y-78918600D01*
X145906100Y-77818600D02*
X145306100Y-77818600D01*
G04 #@! TO.C,C14*
X138321100Y-129468600D02*
X138321100Y-128868600D01*
X138921100Y-129468600D02*
X138921100Y-128868600D01*
X138321100Y-129468600D02*
X138071100Y-129468600D01*
X138921100Y-129468600D02*
X138321100Y-129468600D01*
X139171100Y-129468600D02*
X138921100Y-129468600D01*
X138321100Y-128868600D02*
X138071100Y-128868600D01*
X138921100Y-128868600D02*
X138321100Y-128868600D01*
X139171100Y-128868600D02*
X138921100Y-128868600D01*
X138071100Y-129468600D02*
X138071100Y-128868600D01*
X139171100Y-129468600D02*
X139171100Y-128868600D01*
G04 #@! TO.C,C15*
X139500000Y-118500000D02*
X140100000Y-118500000D01*
X139500000Y-119100000D02*
X140100000Y-119100000D01*
X139500000Y-118500000D02*
X139500000Y-118250000D01*
X139500000Y-119100000D02*
X139500000Y-118500000D01*
X139500000Y-119350000D02*
X139500000Y-119100000D01*
X140100000Y-118500000D02*
X140100000Y-118250000D01*
X140100000Y-119100000D02*
X140100000Y-118500000D01*
X140100000Y-119350000D02*
X140100000Y-119100000D01*
X139500000Y-118250000D02*
X140100000Y-118250000D01*
X139500000Y-119350000D02*
X140100000Y-119350000D01*
D12*
G04 #@! TO.C,IC4*
X161716100Y-90803600D02*
G75*
G03X161716100Y-90803600I-200000J0D01*
G01*
D13*
X161016100Y-93103600D02*
X161016100Y-90303600D01*
X163866100Y-90303600D02*
X163866100Y-93103600D01*
D10*
G04 #@! TO.C,IC5*
X155296100Y-81948600D02*
X153696100Y-81948600D01*
X153696100Y-84948600D02*
X155296100Y-84948600D01*
G04 #@! TO.C,C16*
X155466100Y-79973600D02*
X156066100Y-79973600D01*
X155466100Y-80573600D02*
X156066100Y-80573600D01*
X155466100Y-79973600D02*
X155466100Y-79723600D01*
X155466100Y-80573600D02*
X155466100Y-79973600D01*
X155466100Y-80823600D02*
X155466100Y-80573600D01*
X156066100Y-79973600D02*
X156066100Y-79723600D01*
X156066100Y-80573600D02*
X156066100Y-79973600D01*
X156066100Y-80823600D02*
X156066100Y-80573600D01*
X155466100Y-79723600D02*
X156066100Y-79723600D01*
X155466100Y-80823600D02*
X156066100Y-80823600D01*
G04 #@! TO.C,C17*
X152926100Y-79973600D02*
X153526100Y-79973600D01*
X152926100Y-80573600D02*
X153526100Y-80573600D01*
X152926100Y-79973600D02*
X152926100Y-79723600D01*
X152926100Y-80573600D02*
X152926100Y-79973600D01*
X152926100Y-80823600D02*
X152926100Y-80573600D01*
X153526100Y-79973600D02*
X153526100Y-79723600D01*
X153526100Y-80573600D02*
X153526100Y-79973600D01*
X153526100Y-80823600D02*
X153526100Y-80573600D01*
X152926100Y-79723600D02*
X153526100Y-79723600D01*
X152926100Y-80823600D02*
X153526100Y-80823600D01*
G04 #@! TO.C,D8*
X142966100Y-74258600D02*
X143166100Y-74258600D01*
X142966100Y-74858600D02*
X143166100Y-74858600D01*
G04 #@! TO.C,D9*
X142966100Y-72988600D02*
X143166100Y-72988600D01*
X142966100Y-73588600D02*
X143166100Y-73588600D01*
D13*
G04 #@! TO.C,L2*
X147546100Y-74823600D02*
X147546100Y-73023600D01*
X148746100Y-73023600D02*
X148746100Y-74823600D01*
D10*
G04 #@! TO.C,D10*
X142966100Y-71718600D02*
X143166100Y-71718600D01*
X142966100Y-72318600D02*
X143166100Y-72318600D01*
G04 #@! TO.C,C23*
X148446100Y-76798600D02*
X148446100Y-77398600D01*
X147846100Y-76798600D02*
X147846100Y-77398600D01*
X148446100Y-76798600D02*
X148696100Y-76798600D01*
X147846100Y-76798600D02*
X148446100Y-76798600D01*
X147596100Y-76798600D02*
X147846100Y-76798600D01*
X148446100Y-77398600D02*
X148696100Y-77398600D01*
X147846100Y-77398600D02*
X148446100Y-77398600D01*
X147596100Y-77398600D02*
X147846100Y-77398600D01*
X148696100Y-76798600D02*
X148696100Y-77398600D01*
X147596100Y-76798600D02*
X147596100Y-77398600D01*
G04 #@! TO.C,P1*
X145661100Y-104348600D02*
X136661100Y-104348600D01*
X145661100Y-113348600D02*
X145661100Y-104348600D01*
X136661100Y-113348600D02*
X145661100Y-113348600D01*
X136661100Y-104348600D02*
X136661100Y-113348600D01*
G04 #@! TO.C,R16*
X137051100Y-94543600D02*
X137051100Y-93943600D01*
X137651100Y-94543600D02*
X137651100Y-93943600D01*
X137051100Y-94543600D02*
X136801100Y-94543600D01*
X137651100Y-94543600D02*
X137051100Y-94543600D01*
X137901100Y-94543600D02*
X137651100Y-94543600D01*
X137051100Y-93943600D02*
X136801100Y-93943600D01*
X137651100Y-93943600D02*
X137051100Y-93943600D01*
X137901100Y-93943600D02*
X137651100Y-93943600D01*
X136801100Y-94543600D02*
X136801100Y-93943600D01*
X137901100Y-94543600D02*
X137901100Y-93943600D01*
G04 #@! TO.C,R17*
X137651100Y-92038600D02*
X137651100Y-92638600D01*
X137051100Y-92038600D02*
X137051100Y-92638600D01*
X137651100Y-92038600D02*
X137901100Y-92038600D01*
X137051100Y-92038600D02*
X137651100Y-92038600D01*
X136801100Y-92038600D02*
X137051100Y-92038600D01*
X137651100Y-92638600D02*
X137901100Y-92638600D01*
X137051100Y-92638600D02*
X137651100Y-92638600D01*
X136801100Y-92638600D02*
X137051100Y-92638600D01*
X137901100Y-92038600D02*
X137901100Y-92638600D01*
X136801100Y-92038600D02*
X136801100Y-92638600D01*
G04 #@! TO.C,C28*
X137051100Y-90733600D02*
X137051100Y-90133600D01*
X137651100Y-90733600D02*
X137651100Y-90133600D01*
X137051100Y-90733600D02*
X136801100Y-90733600D01*
X137651100Y-90733600D02*
X137051100Y-90733600D01*
X137901100Y-90733600D02*
X137651100Y-90733600D01*
X137051100Y-90133600D02*
X136801100Y-90133600D01*
X137651100Y-90133600D02*
X137051100Y-90133600D01*
X137901100Y-90133600D02*
X137651100Y-90133600D01*
X136801100Y-90733600D02*
X136801100Y-90133600D01*
X137901100Y-90733600D02*
X137901100Y-90133600D01*
G04 #@! TO.C,R18*
X159876100Y-90416100D02*
X159276100Y-90416100D01*
X159876100Y-89816100D02*
X159276100Y-89816100D01*
X159876100Y-90416100D02*
X159876100Y-90666100D01*
X159876100Y-89816100D02*
X159876100Y-90416100D01*
X159876100Y-89566100D02*
X159876100Y-89816100D01*
X159276100Y-90416100D02*
X159276100Y-90666100D01*
X159276100Y-89816100D02*
X159276100Y-90416100D01*
X159276100Y-89566100D02*
X159276100Y-89816100D01*
X159876100Y-90666100D02*
X159276100Y-90666100D01*
X159876100Y-89566100D02*
X159276100Y-89566100D01*
G04 #@! TO.C,D11*
X159241100Y-80808600D02*
X159241100Y-81008600D01*
X158641100Y-80808600D02*
X158641100Y-81008600D01*
G04 #@! TO.C,D12*
X160511100Y-80808600D02*
X160511100Y-81008600D01*
X159911100Y-80808600D02*
X159911100Y-81008600D01*
G04 #@! TO.C,D13*
X159911100Y-87358600D02*
X159911100Y-87158600D01*
X160511100Y-87358600D02*
X160511100Y-87158600D01*
G04 #@! TO.C,D14*
X161181100Y-87358600D02*
X161181100Y-87158600D01*
X161781100Y-87358600D02*
X161781100Y-87158600D01*
G04 #@! TO.C,R15*
X147211100Y-81526100D02*
X147211100Y-80926100D01*
X147811100Y-81526100D02*
X147811100Y-80926100D01*
X147211100Y-81526100D02*
X146961100Y-81526100D01*
X147811100Y-81526100D02*
X147211100Y-81526100D01*
X148061100Y-81526100D02*
X147811100Y-81526100D01*
X147211100Y-80926100D02*
X146961100Y-80926100D01*
X147811100Y-80926100D02*
X147211100Y-80926100D01*
X148061100Y-80926100D02*
X147811100Y-80926100D01*
X146961100Y-81526100D02*
X146961100Y-80926100D01*
X148061100Y-81526100D02*
X148061100Y-80926100D01*
D14*
G04 #@! TO.C,IC7*
X142449226Y-133020792D02*
X142449226Y-131020792D01*
X142449226Y-131020792D02*
X141149226Y-131020792D01*
X141149226Y-131020792D02*
X141149226Y-133020792D01*
X141149226Y-133020792D02*
X142449226Y-133020792D01*
D10*
G04 #@! TO.C,C30*
X143750000Y-129450000D02*
X143750000Y-128850000D01*
X144350000Y-129450000D02*
X144350000Y-128850000D01*
X143750000Y-129450000D02*
X143500000Y-129450000D01*
X144350000Y-129450000D02*
X143750000Y-129450000D01*
X144600000Y-129450000D02*
X144350000Y-129450000D01*
X143750000Y-128850000D02*
X143500000Y-128850000D01*
X144350000Y-128850000D02*
X143750000Y-128850000D01*
X144600000Y-128850000D02*
X144350000Y-128850000D01*
X143500000Y-129450000D02*
X143500000Y-128850000D01*
X144600000Y-129450000D02*
X144600000Y-128850000D01*
G04 #@! TO.C,IC3*
D15*
X147207838Y-118661614D02*
X146242638Y-118661614D01*
X147115914Y-119672776D02*
X147161876Y-119626814D01*
X147207838Y-119488928D01*
X147207838Y-119397004D01*
X147161876Y-119259119D01*
X147069952Y-119167195D01*
X146978028Y-119121233D01*
X146794180Y-119075271D01*
X146656295Y-119075271D01*
X146472447Y-119121233D01*
X146380523Y-119167195D01*
X146288600Y-119259119D01*
X146242638Y-119397004D01*
X146242638Y-119488928D01*
X146288600Y-119626814D01*
X146334561Y-119672776D01*
X146242638Y-119994509D02*
X146242638Y-120592014D01*
X146610333Y-120270281D01*
X146610333Y-120408166D01*
X146656295Y-120500090D01*
X146702257Y-120546052D01*
X146794180Y-120592014D01*
X147023990Y-120592014D01*
X147115914Y-120546052D01*
X147161876Y-120500090D01*
X147207838Y-120408166D01*
X147207838Y-120132395D01*
X147161876Y-120040471D01*
X147115914Y-119994509D01*
G04 #@! TO.C,D1*
X138305138Y-81348647D02*
X137339938Y-81348647D01*
X137339938Y-81578457D01*
X137385900Y-81716342D01*
X137477823Y-81808266D01*
X137569747Y-81854228D01*
X137753595Y-81900190D01*
X137891480Y-81900190D01*
X138075328Y-81854228D01*
X138167252Y-81808266D01*
X138259176Y-81716342D01*
X138305138Y-81578457D01*
X138305138Y-81348647D01*
X138305138Y-82819428D02*
X138305138Y-82267885D01*
X138305138Y-82543657D02*
X137339938Y-82543657D01*
X137477823Y-82451733D01*
X137569747Y-82359809D01*
X137615709Y-82267885D01*
G04 #@! TO.C,D2*
X151176052Y-70972638D02*
X151176052Y-70007438D01*
X150946242Y-70007438D01*
X150808357Y-70053400D01*
X150716433Y-70145323D01*
X150670471Y-70237247D01*
X150624509Y-70421095D01*
X150624509Y-70558980D01*
X150670471Y-70742828D01*
X150716433Y-70834752D01*
X150808357Y-70926676D01*
X150946242Y-70972638D01*
X151176052Y-70972638D01*
X150256814Y-70099361D02*
X150210852Y-70053400D01*
X150118928Y-70007438D01*
X149889119Y-70007438D01*
X149797195Y-70053400D01*
X149751233Y-70099361D01*
X149705271Y-70191285D01*
X149705271Y-70283209D01*
X149751233Y-70421095D01*
X150302776Y-70972638D01*
X149705271Y-70972638D01*
G04 #@! TO.C,C11*
X141570385Y-76553409D02*
X141524423Y-76599371D01*
X141478461Y-76737257D01*
X141478461Y-76829181D01*
X141524423Y-76967066D01*
X141616347Y-77058990D01*
X141708271Y-77104952D01*
X141892119Y-77150914D01*
X142030004Y-77150914D01*
X142213852Y-77104952D01*
X142305776Y-77058990D01*
X142397700Y-76967066D01*
X142443661Y-76829181D01*
X142443661Y-76737257D01*
X142397700Y-76599371D01*
X142351738Y-76553409D01*
X141478461Y-75634171D02*
X141478461Y-76185714D01*
X141478461Y-75909942D02*
X142443661Y-75909942D01*
X142305776Y-76001866D01*
X142213852Y-76093790D01*
X142167890Y-76185714D01*
X141478461Y-74714933D02*
X141478461Y-75266476D01*
X141478461Y-74990704D02*
X142443661Y-74990704D01*
X142305776Y-75082628D01*
X142213852Y-75174552D01*
X142167890Y-75266476D01*
G04 #@! TO.C,C12*
X148961161Y-84275914D02*
X149007123Y-84321876D01*
X149145009Y-84367838D01*
X149236933Y-84367838D01*
X149374818Y-84321876D01*
X149466742Y-84229952D01*
X149512704Y-84138028D01*
X149558666Y-83954180D01*
X149558666Y-83816295D01*
X149512704Y-83632447D01*
X149466742Y-83540523D01*
X149374818Y-83448600D01*
X149236933Y-83402638D01*
X149145009Y-83402638D01*
X149007123Y-83448600D01*
X148961161Y-83494561D01*
X148041923Y-84367838D02*
X148593466Y-84367838D01*
X148317695Y-84367838D02*
X148317695Y-83402638D01*
X148409618Y-83540523D01*
X148501542Y-83632447D01*
X148593466Y-83678409D01*
X147674228Y-83494561D02*
X147628266Y-83448600D01*
X147536342Y-83402638D01*
X147306533Y-83402638D01*
X147214609Y-83448600D01*
X147168647Y-83494561D01*
X147122685Y-83586485D01*
X147122685Y-83678409D01*
X147168647Y-83816295D01*
X147720190Y-84367838D01*
X147122685Y-84367838D01*
G04 #@! TO.C,C13*
X147056161Y-86815914D02*
X147102123Y-86861876D01*
X147240009Y-86907838D01*
X147331933Y-86907838D01*
X147469818Y-86861876D01*
X147561742Y-86769952D01*
X147607704Y-86678028D01*
X147653666Y-86494180D01*
X147653666Y-86356295D01*
X147607704Y-86172447D01*
X147561742Y-86080523D01*
X147469818Y-85988600D01*
X147331933Y-85942638D01*
X147240009Y-85942638D01*
X147102123Y-85988600D01*
X147056161Y-86034561D01*
X146136923Y-86907838D02*
X146688466Y-86907838D01*
X146412695Y-86907838D02*
X146412695Y-85942638D01*
X146504618Y-86080523D01*
X146596542Y-86172447D01*
X146688466Y-86218409D01*
X145815190Y-85942638D02*
X145217685Y-85942638D01*
X145539418Y-86310333D01*
X145401533Y-86310333D01*
X145309609Y-86356295D01*
X145263647Y-86402257D01*
X145217685Y-86494180D01*
X145217685Y-86723990D01*
X145263647Y-86815914D01*
X145309609Y-86861876D01*
X145401533Y-86907838D01*
X145677304Y-86907838D01*
X145769228Y-86861876D01*
X145815190Y-86815914D01*
G04 #@! TO.C,IC2*
X143726052Y-80862638D02*
X143726052Y-79897438D01*
X142714890Y-80770714D02*
X142760852Y-80816676D01*
X142898738Y-80862638D01*
X142990662Y-80862638D01*
X143128547Y-80816676D01*
X143220471Y-80724752D01*
X143266433Y-80632828D01*
X143312395Y-80448980D01*
X143312395Y-80311095D01*
X143266433Y-80127247D01*
X143220471Y-80035323D01*
X143128547Y-79943400D01*
X142990662Y-79897438D01*
X142898738Y-79897438D01*
X142760852Y-79943400D01*
X142714890Y-79989361D01*
X142347195Y-79989361D02*
X142301233Y-79943400D01*
X142209309Y-79897438D01*
X141979500Y-79897438D01*
X141887576Y-79943400D01*
X141841614Y-79989361D01*
X141795652Y-80081285D01*
X141795652Y-80173209D01*
X141841614Y-80311095D01*
X142393157Y-80862638D01*
X141795652Y-80862638D01*
G04 #@! TO.C,R3*
X143337638Y-77942690D02*
X142878019Y-77620957D01*
X143337638Y-77391147D02*
X142372438Y-77391147D01*
X142372438Y-77758842D01*
X142418400Y-77850766D01*
X142464361Y-77896728D01*
X142556285Y-77942690D01*
X142694171Y-77942690D01*
X142786095Y-77896728D01*
X142832057Y-77850766D01*
X142878019Y-77758842D01*
X142878019Y-77391147D01*
X142372438Y-78264423D02*
X142372438Y-78861928D01*
X142740133Y-78540195D01*
X142740133Y-78678080D01*
X142786095Y-78770004D01*
X142832057Y-78815966D01*
X142923980Y-78861928D01*
X143153790Y-78861928D01*
X143245714Y-78815966D01*
X143291676Y-78770004D01*
X143337638Y-78678080D01*
X143337638Y-78402309D01*
X143291676Y-78310385D01*
X143245714Y-78264423D01*
G04 #@! TO.C,R4*
X139527638Y-77942690D02*
X139068019Y-77620957D01*
X139527638Y-77391147D02*
X138562438Y-77391147D01*
X138562438Y-77758842D01*
X138608400Y-77850766D01*
X138654361Y-77896728D01*
X138746285Y-77942690D01*
X138884171Y-77942690D01*
X138976095Y-77896728D01*
X139022057Y-77850766D01*
X139068019Y-77758842D01*
X139068019Y-77391147D01*
X138884171Y-78770004D02*
X139527638Y-78770004D01*
X138516476Y-78540195D02*
X139205904Y-78310385D01*
X139205904Y-78907890D01*
G04 #@! TO.C,R5*
X145242638Y-77942690D02*
X144783019Y-77620957D01*
X145242638Y-77391147D02*
X144277438Y-77391147D01*
X144277438Y-77758842D01*
X144323400Y-77850766D01*
X144369361Y-77896728D01*
X144461285Y-77942690D01*
X144599171Y-77942690D01*
X144691095Y-77896728D01*
X144737057Y-77850766D01*
X144783019Y-77758842D01*
X144783019Y-77391147D01*
X144277438Y-78815966D02*
X144277438Y-78356347D01*
X144737057Y-78310385D01*
X144691095Y-78356347D01*
X144645133Y-78448271D01*
X144645133Y-78678080D01*
X144691095Y-78770004D01*
X144737057Y-78815966D01*
X144828980Y-78861928D01*
X145058790Y-78861928D01*
X145150714Y-78815966D01*
X145196676Y-78770004D01*
X145242638Y-78678080D01*
X145242638Y-78448271D01*
X145196676Y-78356347D01*
X145150714Y-78310385D01*
G04 #@! TO.C,C14*
X138877314Y-130214938D02*
X138923276Y-130168976D01*
X138969238Y-130031090D01*
X138969238Y-129939166D01*
X138923276Y-129801281D01*
X138831352Y-129709357D01*
X138739428Y-129663395D01*
X138555580Y-129617433D01*
X138417695Y-129617433D01*
X138233847Y-129663395D01*
X138141923Y-129709357D01*
X138050000Y-129801281D01*
X138004038Y-129939166D01*
X138004038Y-130031090D01*
X138050000Y-130168976D01*
X138095961Y-130214938D01*
X138969238Y-131134176D02*
X138969238Y-130582633D01*
X138969238Y-130858404D02*
X138004038Y-130858404D01*
X138141923Y-130766481D01*
X138233847Y-130674557D01*
X138279809Y-130582633D01*
X138325771Y-131961490D02*
X138969238Y-131961490D01*
X137958076Y-131731681D02*
X138647504Y-131501871D01*
X138647504Y-132099376D01*
G04 #@! TO.C,C15*
X140932561Y-120262314D02*
X140978523Y-120308276D01*
X141116409Y-120354238D01*
X141208333Y-120354238D01*
X141346218Y-120308276D01*
X141438142Y-120216352D01*
X141484104Y-120124428D01*
X141530066Y-119940580D01*
X141530066Y-119802695D01*
X141484104Y-119618847D01*
X141438142Y-119526923D01*
X141346218Y-119435000D01*
X141208333Y-119389038D01*
X141116409Y-119389038D01*
X140978523Y-119435000D01*
X140932561Y-119480961D01*
X140013323Y-120354238D02*
X140564866Y-120354238D01*
X140289095Y-120354238D02*
X140289095Y-119389038D01*
X140381018Y-119526923D01*
X140472942Y-119618847D01*
X140564866Y-119664809D01*
X139140047Y-119389038D02*
X139599666Y-119389038D01*
X139645628Y-119848657D01*
X139599666Y-119802695D01*
X139507742Y-119756733D01*
X139277933Y-119756733D01*
X139186009Y-119802695D01*
X139140047Y-119848657D01*
X139094085Y-119940580D01*
X139094085Y-120170390D01*
X139140047Y-120262314D01*
X139186009Y-120308276D01*
X139277933Y-120354238D01*
X139507742Y-120354238D01*
X139599666Y-120308276D01*
X139645628Y-120262314D01*
G04 #@! TO.C,IC4*
X159659561Y-94306052D02*
X160624761Y-94306052D01*
X159751485Y-93294890D02*
X159705523Y-93340852D01*
X159659561Y-93478738D01*
X159659561Y-93570662D01*
X159705523Y-93708547D01*
X159797447Y-93800471D01*
X159889371Y-93846433D01*
X160073219Y-93892395D01*
X160211104Y-93892395D01*
X160394952Y-93846433D01*
X160486876Y-93800471D01*
X160578800Y-93708547D01*
X160624761Y-93570662D01*
X160624761Y-93478738D01*
X160578800Y-93340852D01*
X160532838Y-93294890D01*
X160303028Y-92467576D02*
X159659561Y-92467576D01*
X160670723Y-92697385D02*
X159981295Y-92927195D01*
X159981295Y-92329690D01*
G04 #@! TO.C,IC5*
X155636052Y-86415138D02*
X155636052Y-85449938D01*
X154624890Y-86323214D02*
X154670852Y-86369176D01*
X154808738Y-86415138D01*
X154900662Y-86415138D01*
X155038547Y-86369176D01*
X155130471Y-86277252D01*
X155176433Y-86185328D01*
X155222395Y-86001480D01*
X155222395Y-85863595D01*
X155176433Y-85679747D01*
X155130471Y-85587823D01*
X155038547Y-85495900D01*
X154900662Y-85449938D01*
X154808738Y-85449938D01*
X154670852Y-85495900D01*
X154624890Y-85541861D01*
X153751614Y-85449938D02*
X154211233Y-85449938D01*
X154257195Y-85909557D01*
X154211233Y-85863595D01*
X154119309Y-85817633D01*
X153889500Y-85817633D01*
X153797576Y-85863595D01*
X153751614Y-85909557D01*
X153705652Y-86001480D01*
X153705652Y-86231290D01*
X153751614Y-86323214D01*
X153797576Y-86369176D01*
X153889500Y-86415138D01*
X154119309Y-86415138D01*
X154211233Y-86369176D01*
X154257195Y-86323214D01*
G04 #@! TO.C,C16*
X155268985Y-78159509D02*
X155223023Y-78205471D01*
X155177061Y-78343357D01*
X155177061Y-78435281D01*
X155223023Y-78573166D01*
X155314947Y-78665090D01*
X155406871Y-78711052D01*
X155590719Y-78757014D01*
X155728604Y-78757014D01*
X155912452Y-78711052D01*
X156004376Y-78665090D01*
X156096300Y-78573166D01*
X156142261Y-78435281D01*
X156142261Y-78343357D01*
X156096300Y-78205471D01*
X156050338Y-78159509D01*
X155177061Y-77240271D02*
X155177061Y-77791814D01*
X155177061Y-77516042D02*
X156142261Y-77516042D01*
X156004376Y-77607966D01*
X155912452Y-77699890D01*
X155866490Y-77791814D01*
X156142261Y-76412957D02*
X156142261Y-76596804D01*
X156096300Y-76688728D01*
X156050338Y-76734690D01*
X155912452Y-76826614D01*
X155728604Y-76872576D01*
X155360909Y-76872576D01*
X155268985Y-76826614D01*
X155223023Y-76780652D01*
X155177061Y-76688728D01*
X155177061Y-76504881D01*
X155223023Y-76412957D01*
X155268985Y-76366995D01*
X155360909Y-76321033D01*
X155590719Y-76321033D01*
X155682642Y-76366995D01*
X155728604Y-76412957D01*
X155774566Y-76504881D01*
X155774566Y-76688728D01*
X155728604Y-76780652D01*
X155682642Y-76826614D01*
X155590719Y-76872576D01*
G04 #@! TO.C,C17*
X152728985Y-78159509D02*
X152683023Y-78205471D01*
X152637061Y-78343357D01*
X152637061Y-78435281D01*
X152683023Y-78573166D01*
X152774947Y-78665090D01*
X152866871Y-78711052D01*
X153050719Y-78757014D01*
X153188604Y-78757014D01*
X153372452Y-78711052D01*
X153464376Y-78665090D01*
X153556300Y-78573166D01*
X153602261Y-78435281D01*
X153602261Y-78343357D01*
X153556300Y-78205471D01*
X153510338Y-78159509D01*
X152637061Y-77240271D02*
X152637061Y-77791814D01*
X152637061Y-77516042D02*
X153602261Y-77516042D01*
X153464376Y-77607966D01*
X153372452Y-77699890D01*
X153326490Y-77791814D01*
X153602261Y-76918538D02*
X153602261Y-76275071D01*
X152637061Y-76688728D01*
G04 #@! TO.C,D8*
X141333552Y-74547638D02*
X141333552Y-73582438D01*
X141103742Y-73582438D01*
X140965857Y-73628400D01*
X140873933Y-73720323D01*
X140827971Y-73812247D01*
X140782009Y-73996095D01*
X140782009Y-74133980D01*
X140827971Y-74317828D01*
X140873933Y-74409752D01*
X140965857Y-74501676D01*
X141103742Y-74547638D01*
X141333552Y-74547638D01*
X140230466Y-73996095D02*
X140322390Y-73950133D01*
X140368352Y-73904171D01*
X140414314Y-73812247D01*
X140414314Y-73766285D01*
X140368352Y-73674361D01*
X140322390Y-73628400D01*
X140230466Y-73582438D01*
X140046619Y-73582438D01*
X139954695Y-73628400D01*
X139908733Y-73674361D01*
X139862771Y-73766285D01*
X139862771Y-73812247D01*
X139908733Y-73904171D01*
X139954695Y-73950133D01*
X140046619Y-73996095D01*
X140230466Y-73996095D01*
X140322390Y-74042057D01*
X140368352Y-74088019D01*
X140414314Y-74179942D01*
X140414314Y-74363790D01*
X140368352Y-74455714D01*
X140322390Y-74501676D01*
X140230466Y-74547638D01*
X140046619Y-74547638D01*
X139954695Y-74501676D01*
X139908733Y-74455714D01*
X139862771Y-74363790D01*
X139862771Y-74179942D01*
X139908733Y-74088019D01*
X139954695Y-74042057D01*
X140046619Y-73996095D01*
G04 #@! TO.C,D9*
X141333552Y-73277638D02*
X141333552Y-72312438D01*
X141103742Y-72312438D01*
X140965857Y-72358400D01*
X140873933Y-72450323D01*
X140827971Y-72542247D01*
X140782009Y-72726095D01*
X140782009Y-72863980D01*
X140827971Y-73047828D01*
X140873933Y-73139752D01*
X140965857Y-73231676D01*
X141103742Y-73277638D01*
X141333552Y-73277638D01*
X140322390Y-73277638D02*
X140138542Y-73277638D01*
X140046619Y-73231676D01*
X140000657Y-73185714D01*
X139908733Y-73047828D01*
X139862771Y-72863980D01*
X139862771Y-72496285D01*
X139908733Y-72404361D01*
X139954695Y-72358400D01*
X140046619Y-72312438D01*
X140230466Y-72312438D01*
X140322390Y-72358400D01*
X140368352Y-72404361D01*
X140414314Y-72496285D01*
X140414314Y-72726095D01*
X140368352Y-72818019D01*
X140322390Y-72863980D01*
X140230466Y-72909942D01*
X140046619Y-72909942D01*
X139954695Y-72863980D01*
X139908733Y-72818019D01*
X139862771Y-72726095D01*
G04 #@! TO.C,L2*
X147949433Y-71293138D02*
X148409052Y-71293138D01*
X148409052Y-70327938D01*
X147673662Y-70419861D02*
X147627700Y-70373900D01*
X147535776Y-70327938D01*
X147305966Y-70327938D01*
X147214042Y-70373900D01*
X147168081Y-70419861D01*
X147122119Y-70511785D01*
X147122119Y-70603709D01*
X147168081Y-70741595D01*
X147719623Y-71293138D01*
X147122119Y-71293138D01*
G04 #@! TO.C,D10*
X141333552Y-72007638D02*
X141333552Y-71042438D01*
X141103742Y-71042438D01*
X140965857Y-71088400D01*
X140873933Y-71180323D01*
X140827971Y-71272247D01*
X140782009Y-71456095D01*
X140782009Y-71593980D01*
X140827971Y-71777828D01*
X140873933Y-71869752D01*
X140965857Y-71961676D01*
X141103742Y-72007638D01*
X141333552Y-72007638D01*
X139862771Y-72007638D02*
X140414314Y-72007638D01*
X140138542Y-72007638D02*
X140138542Y-71042438D01*
X140230466Y-71180323D01*
X140322390Y-71272247D01*
X140414314Y-71318209D01*
X139265266Y-71042438D02*
X139173342Y-71042438D01*
X139081419Y-71088400D01*
X139035457Y-71134361D01*
X138989495Y-71226285D01*
X138943533Y-71410133D01*
X138943533Y-71639942D01*
X138989495Y-71823790D01*
X139035457Y-71915714D01*
X139081419Y-71961676D01*
X139173342Y-72007638D01*
X139265266Y-72007638D01*
X139357190Y-71961676D01*
X139403152Y-71915714D01*
X139449114Y-71823790D01*
X139495076Y-71639942D01*
X139495076Y-71410133D01*
X139449114Y-71226285D01*
X139403152Y-71134361D01*
X139357190Y-71088400D01*
X139265266Y-71042438D01*
G04 #@! TO.C,C23*
X149278661Y-78560914D02*
X149324623Y-78606876D01*
X149462509Y-78652838D01*
X149554433Y-78652838D01*
X149692318Y-78606876D01*
X149784242Y-78514952D01*
X149830204Y-78423028D01*
X149876166Y-78239180D01*
X149876166Y-78101295D01*
X149830204Y-77917447D01*
X149784242Y-77825523D01*
X149692318Y-77733600D01*
X149554433Y-77687638D01*
X149462509Y-77687638D01*
X149324623Y-77733600D01*
X149278661Y-77779561D01*
X148910966Y-77779561D02*
X148865004Y-77733600D01*
X148773080Y-77687638D01*
X148543271Y-77687638D01*
X148451347Y-77733600D01*
X148405385Y-77779561D01*
X148359423Y-77871485D01*
X148359423Y-77963409D01*
X148405385Y-78101295D01*
X148956928Y-78652838D01*
X148359423Y-78652838D01*
X148037690Y-77687638D02*
X147440185Y-77687638D01*
X147761918Y-78055333D01*
X147624033Y-78055333D01*
X147532109Y-78101295D01*
X147486147Y-78147257D01*
X147440185Y-78239180D01*
X147440185Y-78468990D01*
X147486147Y-78560914D01*
X147532109Y-78606876D01*
X147624033Y-78652838D01*
X147899804Y-78652838D01*
X147991728Y-78606876D01*
X148037690Y-78560914D01*
G04 #@! TO.C,F1*
X137942557Y-85650380D02*
X137942557Y-85328647D01*
X138448138Y-85328647D02*
X137482938Y-85328647D01*
X137482938Y-85788266D01*
X138448138Y-86661542D02*
X138448138Y-86109999D01*
X138448138Y-86385771D02*
X137482938Y-86385771D01*
X137620823Y-86293847D01*
X137712747Y-86201923D01*
X137758709Y-86109999D01*
G04 #@! TO.C,P1*
X145233552Y-103802638D02*
X145233552Y-102837438D01*
X144865857Y-102837438D01*
X144773933Y-102883400D01*
X144727971Y-102929361D01*
X144682009Y-103021285D01*
X144682009Y-103159171D01*
X144727971Y-103251095D01*
X144773933Y-103297057D01*
X144865857Y-103343019D01*
X145233552Y-103343019D01*
X143762771Y-103802638D02*
X144314314Y-103802638D01*
X144038542Y-103802638D02*
X144038542Y-102837438D01*
X144130466Y-102975323D01*
X144222390Y-103067247D01*
X144314314Y-103113209D01*
G04 #@! TO.C,R16*
X135237009Y-94515138D02*
X135558742Y-94055519D01*
X135788552Y-94515138D02*
X135788552Y-93549938D01*
X135420857Y-93549938D01*
X135328933Y-93595900D01*
X135282971Y-93641861D01*
X135237009Y-93733785D01*
X135237009Y-93871671D01*
X135282971Y-93963595D01*
X135328933Y-94009557D01*
X135420857Y-94055519D01*
X135788552Y-94055519D01*
X134317771Y-94515138D02*
X134869314Y-94515138D01*
X134593542Y-94515138D02*
X134593542Y-93549938D01*
X134685466Y-93687823D01*
X134777390Y-93779747D01*
X134869314Y-93825709D01*
X133490457Y-93549938D02*
X133674304Y-93549938D01*
X133766228Y-93595900D01*
X133812190Y-93641861D01*
X133904114Y-93779747D01*
X133950076Y-93963595D01*
X133950076Y-94331290D01*
X133904114Y-94423214D01*
X133858152Y-94469176D01*
X133766228Y-94515138D01*
X133582381Y-94515138D01*
X133490457Y-94469176D01*
X133444495Y-94423214D01*
X133398533Y-94331290D01*
X133398533Y-94101480D01*
X133444495Y-94009557D01*
X133490457Y-93963595D01*
X133582381Y-93917633D01*
X133766228Y-93917633D01*
X133858152Y-93963595D01*
X133904114Y-94009557D01*
X133950076Y-94101480D01*
G04 #@! TO.C,R17*
X140706161Y-92622838D02*
X141027895Y-92163219D01*
X141257704Y-92622838D02*
X141257704Y-91657638D01*
X140890009Y-91657638D01*
X140798085Y-91703600D01*
X140752123Y-91749561D01*
X140706161Y-91841485D01*
X140706161Y-91979371D01*
X140752123Y-92071295D01*
X140798085Y-92117257D01*
X140890009Y-92163219D01*
X141257704Y-92163219D01*
X139786923Y-92622838D02*
X140338466Y-92622838D01*
X140062695Y-92622838D02*
X140062695Y-91657638D01*
X140154618Y-91795523D01*
X140246542Y-91887447D01*
X140338466Y-91933409D01*
X139465190Y-91657638D02*
X138821723Y-91657638D01*
X139235380Y-92622838D01*
G04 #@! TO.C,C28*
X138166161Y-89355914D02*
X138212123Y-89401876D01*
X138350009Y-89447838D01*
X138441933Y-89447838D01*
X138579818Y-89401876D01*
X138671742Y-89309952D01*
X138717704Y-89218028D01*
X138763666Y-89034180D01*
X138763666Y-88896295D01*
X138717704Y-88712447D01*
X138671742Y-88620523D01*
X138579818Y-88528600D01*
X138441933Y-88482638D01*
X138350009Y-88482638D01*
X138212123Y-88528600D01*
X138166161Y-88574561D01*
X137798466Y-88574561D02*
X137752504Y-88528600D01*
X137660580Y-88482638D01*
X137430771Y-88482638D01*
X137338847Y-88528600D01*
X137292885Y-88574561D01*
X137246923Y-88666485D01*
X137246923Y-88758409D01*
X137292885Y-88896295D01*
X137844428Y-89447838D01*
X137246923Y-89447838D01*
X136695380Y-88896295D02*
X136787304Y-88850333D01*
X136833266Y-88804371D01*
X136879228Y-88712447D01*
X136879228Y-88666485D01*
X136833266Y-88574561D01*
X136787304Y-88528600D01*
X136695380Y-88482638D01*
X136511533Y-88482638D01*
X136419609Y-88528600D01*
X136373647Y-88574561D01*
X136327685Y-88666485D01*
X136327685Y-88712447D01*
X136373647Y-88804371D01*
X136419609Y-88850333D01*
X136511533Y-88896295D01*
X136695380Y-88896295D01*
X136787304Y-88942257D01*
X136833266Y-88988219D01*
X136879228Y-89080142D01*
X136879228Y-89263990D01*
X136833266Y-89355914D01*
X136787304Y-89401876D01*
X136695380Y-89447838D01*
X136511533Y-89447838D01*
X136419609Y-89401876D01*
X136373647Y-89355914D01*
X136327685Y-89263990D01*
X136327685Y-89080142D01*
X136373647Y-88988219D01*
X136419609Y-88942257D01*
X136511533Y-88896295D01*
G04 #@! TO.C,R18*
X158486161Y-89765338D02*
X158807895Y-89305719D01*
X159037704Y-89765338D02*
X159037704Y-88800138D01*
X158670009Y-88800138D01*
X158578085Y-88846100D01*
X158532123Y-88892061D01*
X158486161Y-88983985D01*
X158486161Y-89121871D01*
X158532123Y-89213795D01*
X158578085Y-89259757D01*
X158670009Y-89305719D01*
X159037704Y-89305719D01*
X157566923Y-89765338D02*
X158118466Y-89765338D01*
X157842695Y-89765338D02*
X157842695Y-88800138D01*
X157934618Y-88938023D01*
X158026542Y-89029947D01*
X158118466Y-89075909D01*
X157015380Y-89213795D02*
X157107304Y-89167833D01*
X157153266Y-89121871D01*
X157199228Y-89029947D01*
X157199228Y-88983985D01*
X157153266Y-88892061D01*
X157107304Y-88846100D01*
X157015380Y-88800138D01*
X156831533Y-88800138D01*
X156739609Y-88846100D01*
X156693647Y-88892061D01*
X156647685Y-88983985D01*
X156647685Y-89029947D01*
X156693647Y-89121871D01*
X156739609Y-89167833D01*
X156831533Y-89213795D01*
X157015380Y-89213795D01*
X157107304Y-89259757D01*
X157153266Y-89305719D01*
X157199228Y-89397642D01*
X157199228Y-89581490D01*
X157153266Y-89673414D01*
X157107304Y-89719376D01*
X157015380Y-89765338D01*
X156831533Y-89765338D01*
X156739609Y-89719376D01*
X156693647Y-89673414D01*
X156647685Y-89581490D01*
X156647685Y-89397642D01*
X156693647Y-89305719D01*
X156739609Y-89259757D01*
X156831533Y-89213795D01*
G04 #@! TO.C,D11*
X158542638Y-79761147D02*
X157577438Y-79761147D01*
X157577438Y-79990957D01*
X157623400Y-80128842D01*
X157715323Y-80220766D01*
X157807247Y-80266728D01*
X157991095Y-80312690D01*
X158128980Y-80312690D01*
X158312828Y-80266728D01*
X158404752Y-80220766D01*
X158496676Y-80128842D01*
X158542638Y-79990957D01*
X158542638Y-79761147D01*
X158542638Y-81231928D02*
X158542638Y-80680385D01*
X158542638Y-80956157D02*
X157577438Y-80956157D01*
X157715323Y-80864233D01*
X157807247Y-80772309D01*
X157853209Y-80680385D01*
X158542638Y-82151166D02*
X158542638Y-81599623D01*
X158542638Y-81875395D02*
X157577438Y-81875395D01*
X157715323Y-81783471D01*
X157807247Y-81691547D01*
X157853209Y-81599623D01*
G04 #@! TO.C,D12*
X159812638Y-79761147D02*
X158847438Y-79761147D01*
X158847438Y-79990957D01*
X158893400Y-80128842D01*
X158985323Y-80220766D01*
X159077247Y-80266728D01*
X159261095Y-80312690D01*
X159398980Y-80312690D01*
X159582828Y-80266728D01*
X159674752Y-80220766D01*
X159766676Y-80128842D01*
X159812638Y-79990957D01*
X159812638Y-79761147D01*
X159812638Y-81231928D02*
X159812638Y-80680385D01*
X159812638Y-80956157D02*
X158847438Y-80956157D01*
X158985323Y-80864233D01*
X159077247Y-80772309D01*
X159123209Y-80680385D01*
X158939361Y-81599623D02*
X158893400Y-81645585D01*
X158847438Y-81737509D01*
X158847438Y-81967318D01*
X158893400Y-82059242D01*
X158939361Y-82105204D01*
X159031285Y-82151166D01*
X159123209Y-82151166D01*
X159261095Y-82105204D01*
X159812638Y-81553661D01*
X159812638Y-82151166D01*
G04 #@! TO.C,D13*
X158542638Y-87381147D02*
X157577438Y-87381147D01*
X157577438Y-87610957D01*
X157623400Y-87748842D01*
X157715323Y-87840766D01*
X157807247Y-87886728D01*
X157991095Y-87932690D01*
X158128980Y-87932690D01*
X158312828Y-87886728D01*
X158404752Y-87840766D01*
X158496676Y-87748842D01*
X158542638Y-87610957D01*
X158542638Y-87381147D01*
X158542638Y-88851928D02*
X158542638Y-88300385D01*
X158542638Y-88576157D02*
X157577438Y-88576157D01*
X157715323Y-88484233D01*
X157807247Y-88392309D01*
X157853209Y-88300385D01*
X157577438Y-89173661D02*
X157577438Y-89771166D01*
X157945133Y-89449433D01*
X157945133Y-89587318D01*
X157991095Y-89679242D01*
X158037057Y-89725204D01*
X158128980Y-89771166D01*
X158358790Y-89771166D01*
X158450714Y-89725204D01*
X158496676Y-89679242D01*
X158542638Y-89587318D01*
X158542638Y-89311547D01*
X158496676Y-89219623D01*
X158450714Y-89173661D01*
G04 #@! TO.C,D14*
X160765138Y-86111147D02*
X159799938Y-86111147D01*
X159799938Y-86340957D01*
X159845900Y-86478842D01*
X159937823Y-86570766D01*
X160029747Y-86616728D01*
X160213595Y-86662690D01*
X160351480Y-86662690D01*
X160535328Y-86616728D01*
X160627252Y-86570766D01*
X160719176Y-86478842D01*
X160765138Y-86340957D01*
X160765138Y-86111147D01*
X160765138Y-87581928D02*
X160765138Y-87030385D01*
X160765138Y-87306157D02*
X159799938Y-87306157D01*
X159937823Y-87214233D01*
X160029747Y-87122309D01*
X160075709Y-87030385D01*
X160121671Y-88409242D02*
X160765138Y-88409242D01*
X159753976Y-88179433D02*
X160443404Y-87949623D01*
X160443404Y-88547128D01*
G04 #@! TO.C,TP10*
X158451438Y-91879838D02*
X157899895Y-91879838D01*
X158175666Y-92845038D02*
X158175666Y-91879838D01*
X157578162Y-92845038D02*
X157578162Y-91879838D01*
X157210466Y-91879838D01*
X157118542Y-91925800D01*
X157072581Y-91971761D01*
X157026619Y-92063685D01*
X157026619Y-92201571D01*
X157072581Y-92293495D01*
X157118542Y-92339457D01*
X157210466Y-92385419D01*
X157578162Y-92385419D01*
X156107381Y-92845038D02*
X156658923Y-92845038D01*
X156383152Y-92845038D02*
X156383152Y-91879838D01*
X156475076Y-92017723D01*
X156567000Y-92109647D01*
X156658923Y-92155609D01*
X155509876Y-91879838D02*
X155417952Y-91879838D01*
X155326028Y-91925800D01*
X155280066Y-91971761D01*
X155234104Y-92063685D01*
X155188142Y-92247533D01*
X155188142Y-92477342D01*
X155234104Y-92661190D01*
X155280066Y-92753114D01*
X155326028Y-92799076D01*
X155417952Y-92845038D01*
X155509876Y-92845038D01*
X155601800Y-92799076D01*
X155647762Y-92753114D01*
X155693723Y-92661190D01*
X155739685Y-92477342D01*
X155739685Y-92247533D01*
X155693723Y-92063685D01*
X155647762Y-91971761D01*
X155601800Y-91925800D01*
X155509876Y-91879838D01*
G04 #@! TO.C,TP11*
X149561438Y-89974838D02*
X149009895Y-89974838D01*
X149285666Y-90940038D02*
X149285666Y-89974838D01*
X148688162Y-90940038D02*
X148688162Y-89974838D01*
X148320466Y-89974838D01*
X148228542Y-90020800D01*
X148182581Y-90066761D01*
X148136619Y-90158685D01*
X148136619Y-90296571D01*
X148182581Y-90388495D01*
X148228542Y-90434457D01*
X148320466Y-90480419D01*
X148688162Y-90480419D01*
X147217381Y-90940038D02*
X147768923Y-90940038D01*
X147493152Y-90940038D02*
X147493152Y-89974838D01*
X147585076Y-90112723D01*
X147677000Y-90204647D01*
X147768923Y-90250609D01*
X146298142Y-90940038D02*
X146849685Y-90940038D01*
X146573914Y-90940038D02*
X146573914Y-89974838D01*
X146665838Y-90112723D01*
X146757762Y-90204647D01*
X146849685Y-90250609D01*
G04 #@! TO.C,TP12*
X158133938Y-87117338D02*
X157582395Y-87117338D01*
X157858166Y-88082538D02*
X157858166Y-87117338D01*
X157260662Y-88082538D02*
X157260662Y-87117338D01*
X156892966Y-87117338D01*
X156801042Y-87163300D01*
X156755081Y-87209261D01*
X156709119Y-87301185D01*
X156709119Y-87439071D01*
X156755081Y-87530995D01*
X156801042Y-87576957D01*
X156892966Y-87622919D01*
X157260662Y-87622919D01*
X155789881Y-88082538D02*
X156341423Y-88082538D01*
X156065652Y-88082538D02*
X156065652Y-87117338D01*
X156157576Y-87255223D01*
X156249500Y-87347147D01*
X156341423Y-87393109D01*
X155422185Y-87209261D02*
X155376223Y-87163300D01*
X155284300Y-87117338D01*
X155054490Y-87117338D01*
X154962566Y-87163300D01*
X154916604Y-87209261D01*
X154870642Y-87301185D01*
X154870642Y-87393109D01*
X154916604Y-87530995D01*
X155468147Y-88082538D01*
X154870642Y-88082538D01*
G04 #@! TO.C,R15*
X148417638Y-82705190D02*
X147958019Y-82383457D01*
X148417638Y-82153647D02*
X147452438Y-82153647D01*
X147452438Y-82521342D01*
X147498400Y-82613266D01*
X147544361Y-82659228D01*
X147636285Y-82705190D01*
X147774171Y-82705190D01*
X147866095Y-82659228D01*
X147912057Y-82613266D01*
X147958019Y-82521342D01*
X147958019Y-82153647D01*
X148417638Y-83624428D02*
X148417638Y-83072885D01*
X148417638Y-83348657D02*
X147452438Y-83348657D01*
X147590323Y-83256733D01*
X147682247Y-83164809D01*
X147728209Y-83072885D01*
X147452438Y-84497704D02*
X147452438Y-84038085D01*
X147912057Y-83992123D01*
X147866095Y-84038085D01*
X147820133Y-84130009D01*
X147820133Y-84359818D01*
X147866095Y-84451742D01*
X147912057Y-84497704D01*
X148003980Y-84543666D01*
X148233790Y-84543666D01*
X148325714Y-84497704D01*
X148371676Y-84451742D01*
X148417638Y-84359818D01*
X148417638Y-84130009D01*
X148371676Y-84038085D01*
X148325714Y-83992123D01*
G04 #@! TO.C,IC7*
D14*
X142526190Y-130652380D02*
X142526190Y-129652380D01*
X141478571Y-130557142D02*
X141526190Y-130604761D01*
X141669047Y-130652380D01*
X141764285Y-130652380D01*
X141907142Y-130604761D01*
X142002380Y-130509523D01*
X142050000Y-130414285D01*
X142097619Y-130223809D01*
X142097619Y-130080952D01*
X142050000Y-129890476D01*
X142002380Y-129795238D01*
X141907142Y-129700000D01*
X141764285Y-129652380D01*
X141669047Y-129652380D01*
X141526190Y-129700000D01*
X141478571Y-129747619D01*
X141145238Y-129652380D02*
X140478571Y-129652380D01*
X140907142Y-130652380D01*
G04 #@! TO.C,C30*
D15*
X143912114Y-131264090D02*
X143958076Y-131218128D01*
X144004038Y-131080242D01*
X144004038Y-130988318D01*
X143958076Y-130850433D01*
X143866152Y-130758509D01*
X143774228Y-130712547D01*
X143590380Y-130666585D01*
X143452495Y-130666585D01*
X143268647Y-130712547D01*
X143176723Y-130758509D01*
X143084800Y-130850433D01*
X143038838Y-130988318D01*
X143038838Y-131080242D01*
X143084800Y-131218128D01*
X143130761Y-131264090D01*
X143038838Y-131585823D02*
X143038838Y-132183328D01*
X143406533Y-131861595D01*
X143406533Y-131999480D01*
X143452495Y-132091404D01*
X143498457Y-132137366D01*
X143590380Y-132183328D01*
X143820190Y-132183328D01*
X143912114Y-132137366D01*
X143958076Y-132091404D01*
X144004038Y-131999480D01*
X144004038Y-131723709D01*
X143958076Y-131631785D01*
X143912114Y-131585823D01*
X143038838Y-132780833D02*
X143038838Y-132872757D01*
X143084800Y-132964680D01*
X143130761Y-133010642D01*
X143222685Y-133056604D01*
X143406533Y-133102566D01*
X143636342Y-133102566D01*
X143820190Y-133056604D01*
X143912114Y-133010642D01*
X143958076Y-132964680D01*
X144004038Y-132872757D01*
X144004038Y-132780833D01*
X143958076Y-132688909D01*
X143912114Y-132642947D01*
X143820190Y-132596985D01*
X143636342Y-132551023D01*
X143406533Y-132551023D01*
X143222685Y-132596985D01*
X143130761Y-132642947D01*
X143084800Y-132688909D01*
X143038838Y-132780833D01*
G04 #@! TD*
M02*
