G04 #@! TF.GenerationSoftware,KiCad,Pcbnew,5.0.2-bee76a0~70~ubuntu18.04.1*
G04 #@! TF.CreationDate,2019-09-11T11:18:42+02:00*
G04 #@! TF.ProjectId,easyhive_1_3,65617379-6869-4766-955f-315f332e6b69,rev?*
G04 #@! TF.SameCoordinates,Original*
G04 #@! TF.FileFunction,Soldermask,Bot*
G04 #@! TF.FilePolarity,Negative*
%FSLAX46Y46*%
G04 Gerber Fmt 4.6, Leading zero omitted, Abs format (unit mm)*
G04 Created by KiCad (PCBNEW 5.0.2-bee76a0~70~ubuntu18.04.1) date Mi 11 Sep 2019 11:18:42 CEST*
%MOMM*%
%LPD*%
G01*
G04 APERTURE LIST*
%ADD10C,0.100000*%
G04 APERTURE END LIST*
D10*
G36*
X161531355Y-135837825D02*
X161793911Y-135890051D01*
X162288556Y-136094940D01*
X162727801Y-136388435D01*
X162733727Y-136392394D01*
X163112306Y-136770973D01*
X163409761Y-137216146D01*
X163614649Y-137710790D01*
X163719100Y-138235899D01*
X163719100Y-138771301D01*
X163614649Y-139296410D01*
X163409761Y-139791054D01*
X163112306Y-140236227D01*
X162733727Y-140614806D01*
X162733724Y-140614808D01*
X162288556Y-140912260D01*
X161793911Y-141117149D01*
X161531355Y-141169375D01*
X161268801Y-141221600D01*
X160733399Y-141221600D01*
X160470845Y-141169375D01*
X160208289Y-141117149D01*
X159713644Y-140912260D01*
X159268476Y-140614808D01*
X159268473Y-140614806D01*
X158889894Y-140236227D01*
X158592439Y-139791054D01*
X158387551Y-139296410D01*
X158283100Y-138771301D01*
X158283100Y-138235899D01*
X158387551Y-137710790D01*
X158592439Y-137216146D01*
X158889894Y-136770973D01*
X159268473Y-136392394D01*
X159274399Y-136388435D01*
X159713644Y-136094940D01*
X160208289Y-135890051D01*
X160470845Y-135837825D01*
X160733399Y-135785600D01*
X161268801Y-135785600D01*
X161531355Y-135837825D01*
X161531355Y-135837825D01*
G37*
G36*
X136531355Y-135837825D02*
X136793911Y-135890051D01*
X137288556Y-136094940D01*
X137727801Y-136388435D01*
X137733727Y-136392394D01*
X138112306Y-136770973D01*
X138409761Y-137216146D01*
X138614649Y-137710790D01*
X138719100Y-138235899D01*
X138719100Y-138771301D01*
X138614649Y-139296410D01*
X138409761Y-139791054D01*
X138112306Y-140236227D01*
X137733727Y-140614806D01*
X137733724Y-140614808D01*
X137288556Y-140912260D01*
X136793911Y-141117149D01*
X136531355Y-141169375D01*
X136268801Y-141221600D01*
X135733399Y-141221600D01*
X135470845Y-141169375D01*
X135208289Y-141117149D01*
X134713644Y-140912260D01*
X134268476Y-140614808D01*
X134268473Y-140614806D01*
X133889894Y-140236227D01*
X133592439Y-139791054D01*
X133387551Y-139296410D01*
X133283100Y-138771301D01*
X133283100Y-138235899D01*
X133387551Y-137710790D01*
X133592439Y-137216146D01*
X133889894Y-136770973D01*
X134268473Y-136392394D01*
X134274399Y-136388435D01*
X134713644Y-136094940D01*
X135208289Y-135890051D01*
X135470845Y-135837825D01*
X135733399Y-135785600D01*
X136268801Y-135785600D01*
X136531355Y-135837825D01*
X136531355Y-135837825D01*
G37*
G36*
X134260467Y-124648571D02*
X134260469Y-124648572D01*
X134260470Y-124648572D01*
X134320247Y-124673332D01*
X134422295Y-124715602D01*
X134567935Y-124812916D01*
X134691784Y-124936765D01*
X134789098Y-125082405D01*
X134856129Y-125244233D01*
X134890300Y-125416020D01*
X134890300Y-125591180D01*
X134856129Y-125762967D01*
X134789098Y-125924795D01*
X134691784Y-126070435D01*
X134567935Y-126194284D01*
X134422295Y-126291598D01*
X134320247Y-126333868D01*
X134260470Y-126358628D01*
X134260469Y-126358628D01*
X134260467Y-126358629D01*
X134147992Y-126381002D01*
X134124543Y-126388115D01*
X134102932Y-126399666D01*
X134083990Y-126415212D01*
X134068444Y-126434154D01*
X134056893Y-126455764D01*
X134049780Y-126479214D01*
X134047378Y-126503600D01*
X134049780Y-126527986D01*
X134056893Y-126551435D01*
X134068444Y-126573046D01*
X134083990Y-126591988D01*
X134102932Y-126607534D01*
X134124542Y-126619085D01*
X134147992Y-126626198D01*
X134260467Y-126648571D01*
X134260469Y-126648572D01*
X134260470Y-126648572D01*
X134320247Y-126673332D01*
X134422295Y-126715602D01*
X134567935Y-126812916D01*
X134691784Y-126936765D01*
X134789098Y-127082405D01*
X134856129Y-127244233D01*
X134890300Y-127416020D01*
X134890300Y-127591180D01*
X134861879Y-127734061D01*
X134856128Y-127762970D01*
X134845097Y-127789600D01*
X134789098Y-127924795D01*
X134691784Y-128070435D01*
X134567935Y-128194284D01*
X134422295Y-128291598D01*
X134320247Y-128333868D01*
X134260470Y-128358628D01*
X134260469Y-128358628D01*
X134260467Y-128358629D01*
X134147992Y-128381002D01*
X134124543Y-128388115D01*
X134102932Y-128399666D01*
X134083990Y-128415212D01*
X134068444Y-128434154D01*
X134056893Y-128455764D01*
X134049780Y-128479214D01*
X134047378Y-128503600D01*
X134049780Y-128527986D01*
X134056893Y-128551435D01*
X134068444Y-128573046D01*
X134083990Y-128591988D01*
X134102932Y-128607534D01*
X134124542Y-128619085D01*
X134147992Y-128626198D01*
X134260467Y-128648571D01*
X134260469Y-128648572D01*
X134260470Y-128648572D01*
X134320247Y-128673332D01*
X134422295Y-128715602D01*
X134567935Y-128812916D01*
X134691784Y-128936765D01*
X134789098Y-129082405D01*
X134856129Y-129244233D01*
X134890300Y-129416020D01*
X134890300Y-129591180D01*
X134856129Y-129762967D01*
X134789098Y-129924795D01*
X134691784Y-130070435D01*
X134567935Y-130194284D01*
X134422295Y-130291598D01*
X134320247Y-130333868D01*
X134260470Y-130358628D01*
X134260469Y-130358628D01*
X134260467Y-130358629D01*
X134147992Y-130381002D01*
X134124543Y-130388115D01*
X134102932Y-130399666D01*
X134083990Y-130415212D01*
X134068444Y-130434154D01*
X134056893Y-130455764D01*
X134049780Y-130479214D01*
X134047378Y-130503600D01*
X134049780Y-130527986D01*
X134056893Y-130551435D01*
X134068444Y-130573046D01*
X134083990Y-130591988D01*
X134102932Y-130607534D01*
X134124542Y-130619085D01*
X134147992Y-130626198D01*
X134260467Y-130648571D01*
X134260469Y-130648572D01*
X134260470Y-130648572D01*
X134320247Y-130673332D01*
X134422295Y-130715602D01*
X134567935Y-130812916D01*
X134691784Y-130936765D01*
X134789098Y-131082405D01*
X134856129Y-131244233D01*
X134890300Y-131416020D01*
X134890300Y-131591180D01*
X134856129Y-131762967D01*
X134789098Y-131924795D01*
X134691784Y-132070435D01*
X134567935Y-132194284D01*
X134422295Y-132291598D01*
X134320247Y-132333868D01*
X134260470Y-132358628D01*
X134260469Y-132358628D01*
X134260467Y-132358629D01*
X134147992Y-132381002D01*
X134124543Y-132388115D01*
X134102932Y-132399666D01*
X134083990Y-132415212D01*
X134068444Y-132434154D01*
X134056893Y-132455764D01*
X134049780Y-132479214D01*
X134047378Y-132503600D01*
X134049780Y-132527986D01*
X134056893Y-132551435D01*
X134068444Y-132573046D01*
X134083990Y-132591988D01*
X134102932Y-132607534D01*
X134124542Y-132619085D01*
X134147992Y-132626198D01*
X134260467Y-132648571D01*
X134260469Y-132648572D01*
X134260470Y-132648572D01*
X134320247Y-132673332D01*
X134422295Y-132715602D01*
X134567935Y-132812916D01*
X134691784Y-132936765D01*
X134789098Y-133082405D01*
X134856129Y-133244233D01*
X134890300Y-133416020D01*
X134890300Y-133591180D01*
X134856129Y-133762967D01*
X134789098Y-133924795D01*
X134691784Y-134070435D01*
X134567935Y-134194284D01*
X134422295Y-134291598D01*
X134320247Y-134333868D01*
X134260470Y-134358628D01*
X134260469Y-134358628D01*
X134260467Y-134358629D01*
X134088680Y-134392800D01*
X133913520Y-134392800D01*
X133741733Y-134358629D01*
X133741731Y-134358628D01*
X133741730Y-134358628D01*
X133681953Y-134333868D01*
X133579905Y-134291598D01*
X133434265Y-134194284D01*
X133310416Y-134070435D01*
X133213102Y-133924795D01*
X133146071Y-133762967D01*
X133111900Y-133591180D01*
X133111900Y-133416020D01*
X133146071Y-133244233D01*
X133213102Y-133082405D01*
X133310416Y-132936765D01*
X133434265Y-132812916D01*
X133579905Y-132715602D01*
X133681953Y-132673332D01*
X133741730Y-132648572D01*
X133741731Y-132648572D01*
X133741733Y-132648571D01*
X133854208Y-132626198D01*
X133877657Y-132619085D01*
X133899268Y-132607534D01*
X133918210Y-132591988D01*
X133933756Y-132573046D01*
X133945307Y-132551436D01*
X133952420Y-132527986D01*
X133954822Y-132503600D01*
X133952420Y-132479214D01*
X133945307Y-132455765D01*
X133933756Y-132434154D01*
X133918210Y-132415212D01*
X133899268Y-132399666D01*
X133877658Y-132388115D01*
X133854208Y-132381002D01*
X133741733Y-132358629D01*
X133741731Y-132358628D01*
X133741730Y-132358628D01*
X133681953Y-132333868D01*
X133579905Y-132291598D01*
X133434265Y-132194284D01*
X133310416Y-132070435D01*
X133213102Y-131924795D01*
X133146071Y-131762967D01*
X133111900Y-131591180D01*
X133111900Y-131416020D01*
X133146071Y-131244233D01*
X133213102Y-131082405D01*
X133310416Y-130936765D01*
X133434265Y-130812916D01*
X133579905Y-130715602D01*
X133681953Y-130673332D01*
X133741730Y-130648572D01*
X133741731Y-130648572D01*
X133741733Y-130648571D01*
X133854208Y-130626198D01*
X133877657Y-130619085D01*
X133899268Y-130607534D01*
X133918210Y-130591988D01*
X133933756Y-130573046D01*
X133945307Y-130551436D01*
X133952420Y-130527986D01*
X133954822Y-130503600D01*
X133952420Y-130479214D01*
X133945307Y-130455765D01*
X133933756Y-130434154D01*
X133918210Y-130415212D01*
X133899268Y-130399666D01*
X133877658Y-130388115D01*
X133854208Y-130381002D01*
X133741733Y-130358629D01*
X133741731Y-130358628D01*
X133741730Y-130358628D01*
X133681953Y-130333868D01*
X133579905Y-130291598D01*
X133434265Y-130194284D01*
X133310416Y-130070435D01*
X133213102Y-129924795D01*
X133146071Y-129762967D01*
X133111900Y-129591180D01*
X133111900Y-129416020D01*
X133146071Y-129244233D01*
X133213102Y-129082405D01*
X133310416Y-128936765D01*
X133434265Y-128812916D01*
X133579905Y-128715602D01*
X133681953Y-128673332D01*
X133741730Y-128648572D01*
X133741731Y-128648572D01*
X133741733Y-128648571D01*
X133854208Y-128626198D01*
X133877657Y-128619085D01*
X133899268Y-128607534D01*
X133918210Y-128591988D01*
X133933756Y-128573046D01*
X133945307Y-128551436D01*
X133952420Y-128527986D01*
X133954822Y-128503600D01*
X133952420Y-128479214D01*
X133945307Y-128455765D01*
X133933756Y-128434154D01*
X133918210Y-128415212D01*
X133899268Y-128399666D01*
X133877658Y-128388115D01*
X133854208Y-128381002D01*
X133741733Y-128358629D01*
X133741731Y-128358628D01*
X133741730Y-128358628D01*
X133681953Y-128333868D01*
X133579905Y-128291598D01*
X133434265Y-128194284D01*
X133310416Y-128070435D01*
X133213102Y-127924795D01*
X133157103Y-127789600D01*
X133146072Y-127762970D01*
X133140322Y-127734061D01*
X133111900Y-127591180D01*
X133111900Y-127416020D01*
X133146071Y-127244233D01*
X133213102Y-127082405D01*
X133310416Y-126936765D01*
X133434265Y-126812916D01*
X133579905Y-126715602D01*
X133681953Y-126673332D01*
X133741730Y-126648572D01*
X133741731Y-126648572D01*
X133741733Y-126648571D01*
X133854208Y-126626198D01*
X133877657Y-126619085D01*
X133899268Y-126607534D01*
X133918210Y-126591988D01*
X133933756Y-126573046D01*
X133945307Y-126551436D01*
X133952420Y-126527986D01*
X133954822Y-126503600D01*
X133952420Y-126479214D01*
X133945307Y-126455765D01*
X133933756Y-126434154D01*
X133918210Y-126415212D01*
X133899268Y-126399666D01*
X133877658Y-126388115D01*
X133854208Y-126381002D01*
X133741733Y-126358629D01*
X133741731Y-126358628D01*
X133741730Y-126358628D01*
X133681953Y-126333868D01*
X133579905Y-126291598D01*
X133434265Y-126194284D01*
X133310416Y-126070435D01*
X133213102Y-125924795D01*
X133146071Y-125762967D01*
X133111900Y-125591180D01*
X133111900Y-125416020D01*
X133146071Y-125244233D01*
X133213102Y-125082405D01*
X133310416Y-124936765D01*
X133434265Y-124812916D01*
X133579905Y-124715602D01*
X133681953Y-124673332D01*
X133741730Y-124648572D01*
X133741731Y-124648572D01*
X133741733Y-124648571D01*
X133913520Y-124614400D01*
X134088680Y-124614400D01*
X134260467Y-124648571D01*
X134260467Y-124648571D01*
G37*
G36*
X138541796Y-128750899D02*
X138562170Y-128764513D01*
X138584809Y-128773892D01*
X138608842Y-128778674D01*
X138633346Y-128778675D01*
X138657380Y-128773895D01*
X138680019Y-128764519D01*
X138700395Y-128750906D01*
X138708701Y-128742600D01*
X139522100Y-128742600D01*
X139522100Y-129594600D01*
X138708702Y-129594600D01*
X138700404Y-129586301D01*
X138680030Y-129572687D01*
X138657391Y-129563308D01*
X138633358Y-129558526D01*
X138608854Y-129558525D01*
X138584820Y-129563305D01*
X138562181Y-129572681D01*
X138541805Y-129586294D01*
X138533499Y-129594600D01*
X137720100Y-129594600D01*
X137720100Y-128742600D01*
X138533498Y-128742600D01*
X138541796Y-128750899D01*
X138541796Y-128750899D01*
G37*
G36*
X137564276Y-126188443D02*
X137573855Y-126190348D01*
X137598359Y-126190346D01*
X137607929Y-126188443D01*
X137616487Y-126187600D01*
X138205713Y-126187600D01*
X138214276Y-126188443D01*
X138223855Y-126190348D01*
X138248359Y-126190346D01*
X138257929Y-126188443D01*
X138266487Y-126187600D01*
X138855713Y-126187600D01*
X138864276Y-126188443D01*
X138873855Y-126190348D01*
X138898359Y-126190346D01*
X138907929Y-126188443D01*
X138916487Y-126187600D01*
X139505713Y-126187600D01*
X139514276Y-126188443D01*
X139523855Y-126190348D01*
X139548359Y-126190346D01*
X139557929Y-126188443D01*
X139566487Y-126187600D01*
X140155713Y-126187600D01*
X140164276Y-126188443D01*
X140173855Y-126190348D01*
X140198359Y-126190346D01*
X140207929Y-126188443D01*
X140216487Y-126187600D01*
X140805713Y-126187600D01*
X140814276Y-126188443D01*
X140823855Y-126190348D01*
X140848359Y-126190346D01*
X140857929Y-126188443D01*
X140866487Y-126187600D01*
X141455713Y-126187600D01*
X141464276Y-126188443D01*
X141473855Y-126190348D01*
X141498359Y-126190346D01*
X141507929Y-126188443D01*
X141516487Y-126187600D01*
X142105713Y-126187600D01*
X142114276Y-126188443D01*
X142123855Y-126190348D01*
X142148359Y-126190346D01*
X142157929Y-126188443D01*
X142166487Y-126187600D01*
X142755713Y-126187600D01*
X142764276Y-126188443D01*
X142773855Y-126190348D01*
X142798359Y-126190346D01*
X142807929Y-126188443D01*
X142816487Y-126187600D01*
X143405713Y-126187600D01*
X143414276Y-126188443D01*
X143423855Y-126190348D01*
X143448359Y-126190346D01*
X143457929Y-126188443D01*
X143466487Y-126187600D01*
X144055713Y-126187600D01*
X144064276Y-126188443D01*
X144073855Y-126190348D01*
X144098359Y-126190346D01*
X144107929Y-126188443D01*
X144116487Y-126187600D01*
X144687100Y-126187600D01*
X144687100Y-127789600D01*
X144116487Y-127789600D01*
X144107924Y-127788757D01*
X144098345Y-127786852D01*
X144073841Y-127786854D01*
X144064271Y-127788757D01*
X144055713Y-127789600D01*
X143466487Y-127789600D01*
X143457924Y-127788757D01*
X143448345Y-127786852D01*
X143423841Y-127786854D01*
X143414271Y-127788757D01*
X143405713Y-127789600D01*
X142816487Y-127789600D01*
X142807924Y-127788757D01*
X142798345Y-127786852D01*
X142773841Y-127786854D01*
X142764271Y-127788757D01*
X142755713Y-127789600D01*
X142166487Y-127789600D01*
X142157924Y-127788757D01*
X142148345Y-127786852D01*
X142123841Y-127786854D01*
X142114271Y-127788757D01*
X142105713Y-127789600D01*
X141516487Y-127789600D01*
X141507924Y-127788757D01*
X141498345Y-127786852D01*
X141473841Y-127786854D01*
X141464271Y-127788757D01*
X141455713Y-127789600D01*
X140866487Y-127789600D01*
X140857924Y-127788757D01*
X140848345Y-127786852D01*
X140823841Y-127786854D01*
X140814271Y-127788757D01*
X140805713Y-127789600D01*
X140216487Y-127789600D01*
X140207924Y-127788757D01*
X140198345Y-127786852D01*
X140173841Y-127786854D01*
X140164271Y-127788757D01*
X140155713Y-127789600D01*
X139566487Y-127789600D01*
X139557924Y-127788757D01*
X139548345Y-127786852D01*
X139523841Y-127786854D01*
X139514271Y-127788757D01*
X139505713Y-127789600D01*
X138916487Y-127789600D01*
X138907924Y-127788757D01*
X138898345Y-127786852D01*
X138873841Y-127786854D01*
X138864271Y-127788757D01*
X138855713Y-127789600D01*
X138266487Y-127789600D01*
X138257924Y-127788757D01*
X138248345Y-127786852D01*
X138223841Y-127786854D01*
X138214271Y-127788757D01*
X138205713Y-127789600D01*
X137616487Y-127789600D01*
X137607924Y-127788757D01*
X137598345Y-127786852D01*
X137573841Y-127786854D01*
X137564271Y-127788757D01*
X137555713Y-127789600D01*
X136985100Y-127789600D01*
X136985100Y-126187600D01*
X137555713Y-126187600D01*
X137564276Y-126188443D01*
X137564276Y-126188443D01*
G37*
G36*
X134260467Y-112648571D02*
X134260469Y-112648572D01*
X134260470Y-112648572D01*
X134320247Y-112673332D01*
X134422295Y-112715602D01*
X134567935Y-112812916D01*
X134691784Y-112936765D01*
X134789098Y-113082405D01*
X134856129Y-113244233D01*
X134890300Y-113416020D01*
X134890300Y-113591180D01*
X134856129Y-113762967D01*
X134789098Y-113924795D01*
X134691784Y-114070435D01*
X134567935Y-114194284D01*
X134422295Y-114291598D01*
X134320247Y-114333868D01*
X134260470Y-114358628D01*
X134260469Y-114358628D01*
X134260467Y-114358629D01*
X134147992Y-114381002D01*
X134124543Y-114388115D01*
X134102932Y-114399666D01*
X134083990Y-114415212D01*
X134068444Y-114434154D01*
X134056893Y-114455764D01*
X134049780Y-114479214D01*
X134047378Y-114503600D01*
X134049780Y-114527986D01*
X134056893Y-114551435D01*
X134068444Y-114573046D01*
X134083990Y-114591988D01*
X134102932Y-114607534D01*
X134124542Y-114619085D01*
X134147992Y-114626198D01*
X134260467Y-114648571D01*
X134260469Y-114648572D01*
X134260470Y-114648572D01*
X134320247Y-114673332D01*
X134422295Y-114715602D01*
X134567935Y-114812916D01*
X134691784Y-114936765D01*
X134789098Y-115082405D01*
X134856129Y-115244233D01*
X134890300Y-115416020D01*
X134890300Y-115591180D01*
X134856129Y-115762967D01*
X134789098Y-115924795D01*
X134691784Y-116070435D01*
X134567935Y-116194284D01*
X134422295Y-116291598D01*
X134320247Y-116333868D01*
X134260470Y-116358628D01*
X134260469Y-116358628D01*
X134260467Y-116358629D01*
X134147992Y-116381002D01*
X134124543Y-116388115D01*
X134102932Y-116399666D01*
X134083990Y-116415212D01*
X134068444Y-116434154D01*
X134056893Y-116455764D01*
X134049780Y-116479214D01*
X134047378Y-116503600D01*
X134049780Y-116527986D01*
X134056893Y-116551435D01*
X134068444Y-116573046D01*
X134083990Y-116591988D01*
X134102932Y-116607534D01*
X134124542Y-116619085D01*
X134147992Y-116626198D01*
X134260467Y-116648571D01*
X134260469Y-116648572D01*
X134260470Y-116648572D01*
X134320247Y-116673332D01*
X134422295Y-116715602D01*
X134567935Y-116812916D01*
X134691784Y-116936765D01*
X134789098Y-117082405D01*
X134856129Y-117244233D01*
X134890300Y-117416020D01*
X134890300Y-117591180D01*
X134856129Y-117762967D01*
X134789098Y-117924795D01*
X134691784Y-118070435D01*
X134567935Y-118194284D01*
X134422295Y-118291598D01*
X134320247Y-118333868D01*
X134260470Y-118358628D01*
X134260469Y-118358628D01*
X134260467Y-118358629D01*
X134147992Y-118381002D01*
X134124543Y-118388115D01*
X134102932Y-118399666D01*
X134083990Y-118415212D01*
X134068444Y-118434154D01*
X134056893Y-118455764D01*
X134049780Y-118479214D01*
X134047378Y-118503600D01*
X134049780Y-118527986D01*
X134056893Y-118551435D01*
X134068444Y-118573046D01*
X134083990Y-118591988D01*
X134102932Y-118607534D01*
X134124542Y-118619085D01*
X134147992Y-118626198D01*
X134260467Y-118648571D01*
X134260469Y-118648572D01*
X134260470Y-118648572D01*
X134320247Y-118673332D01*
X134422295Y-118715602D01*
X134567935Y-118812916D01*
X134691784Y-118936765D01*
X134789098Y-119082405D01*
X134856129Y-119244233D01*
X134890300Y-119416020D01*
X134890300Y-119591180D01*
X134856129Y-119762967D01*
X134789098Y-119924795D01*
X134691784Y-120070435D01*
X134567935Y-120194284D01*
X134422295Y-120291598D01*
X134320247Y-120333868D01*
X134260470Y-120358628D01*
X134260469Y-120358628D01*
X134260467Y-120358629D01*
X134147992Y-120381002D01*
X134124543Y-120388115D01*
X134102932Y-120399666D01*
X134083990Y-120415212D01*
X134068444Y-120434154D01*
X134056893Y-120455764D01*
X134049780Y-120479214D01*
X134047378Y-120503600D01*
X134049780Y-120527986D01*
X134056893Y-120551435D01*
X134068444Y-120573046D01*
X134083990Y-120591988D01*
X134102932Y-120607534D01*
X134124542Y-120619085D01*
X134147992Y-120626198D01*
X134260467Y-120648571D01*
X134260469Y-120648572D01*
X134260470Y-120648572D01*
X134320247Y-120673332D01*
X134422295Y-120715602D01*
X134567935Y-120812916D01*
X134691784Y-120936765D01*
X134789098Y-121082405D01*
X134856129Y-121244233D01*
X134890300Y-121416020D01*
X134890300Y-121591180D01*
X134856129Y-121762967D01*
X134789098Y-121924795D01*
X134691784Y-122070435D01*
X134567935Y-122194284D01*
X134422295Y-122291598D01*
X134320247Y-122333868D01*
X134260470Y-122358628D01*
X134260469Y-122358628D01*
X134260467Y-122358629D01*
X134088680Y-122392800D01*
X133913520Y-122392800D01*
X133741733Y-122358629D01*
X133741731Y-122358628D01*
X133741730Y-122358628D01*
X133681953Y-122333868D01*
X133579905Y-122291598D01*
X133434265Y-122194284D01*
X133310416Y-122070435D01*
X133213102Y-121924795D01*
X133146071Y-121762967D01*
X133111900Y-121591180D01*
X133111900Y-121416020D01*
X133146071Y-121244233D01*
X133213102Y-121082405D01*
X133310416Y-120936765D01*
X133434265Y-120812916D01*
X133579905Y-120715602D01*
X133681953Y-120673332D01*
X133741730Y-120648572D01*
X133741731Y-120648572D01*
X133741733Y-120648571D01*
X133854208Y-120626198D01*
X133877657Y-120619085D01*
X133899268Y-120607534D01*
X133918210Y-120591988D01*
X133933756Y-120573046D01*
X133945307Y-120551436D01*
X133952420Y-120527986D01*
X133954822Y-120503600D01*
X133952420Y-120479214D01*
X133945307Y-120455765D01*
X133933756Y-120434154D01*
X133918210Y-120415212D01*
X133899268Y-120399666D01*
X133877658Y-120388115D01*
X133854208Y-120381002D01*
X133741733Y-120358629D01*
X133741731Y-120358628D01*
X133741730Y-120358628D01*
X133681953Y-120333868D01*
X133579905Y-120291598D01*
X133434265Y-120194284D01*
X133310416Y-120070435D01*
X133213102Y-119924795D01*
X133146071Y-119762967D01*
X133111900Y-119591180D01*
X133111900Y-119416020D01*
X133146071Y-119244233D01*
X133213102Y-119082405D01*
X133310416Y-118936765D01*
X133434265Y-118812916D01*
X133579905Y-118715602D01*
X133681953Y-118673332D01*
X133741730Y-118648572D01*
X133741731Y-118648572D01*
X133741733Y-118648571D01*
X133854208Y-118626198D01*
X133877657Y-118619085D01*
X133899268Y-118607534D01*
X133918210Y-118591988D01*
X133933756Y-118573046D01*
X133945307Y-118551436D01*
X133952420Y-118527986D01*
X133954822Y-118503600D01*
X133952420Y-118479214D01*
X133945307Y-118455765D01*
X133933756Y-118434154D01*
X133918210Y-118415212D01*
X133899268Y-118399666D01*
X133877658Y-118388115D01*
X133854208Y-118381002D01*
X133741733Y-118358629D01*
X133741731Y-118358628D01*
X133741730Y-118358628D01*
X133681953Y-118333868D01*
X133579905Y-118291598D01*
X133434265Y-118194284D01*
X133310416Y-118070435D01*
X133213102Y-117924795D01*
X133146071Y-117762967D01*
X133111900Y-117591180D01*
X133111900Y-117416020D01*
X133146071Y-117244233D01*
X133213102Y-117082405D01*
X133310416Y-116936765D01*
X133434265Y-116812916D01*
X133579905Y-116715602D01*
X133681953Y-116673332D01*
X133741730Y-116648572D01*
X133741731Y-116648572D01*
X133741733Y-116648571D01*
X133854208Y-116626198D01*
X133877657Y-116619085D01*
X133899268Y-116607534D01*
X133918210Y-116591988D01*
X133933756Y-116573046D01*
X133945307Y-116551436D01*
X133952420Y-116527986D01*
X133954822Y-116503600D01*
X133952420Y-116479214D01*
X133945307Y-116455765D01*
X133933756Y-116434154D01*
X133918210Y-116415212D01*
X133899268Y-116399666D01*
X133877658Y-116388115D01*
X133854208Y-116381002D01*
X133741733Y-116358629D01*
X133741731Y-116358628D01*
X133741730Y-116358628D01*
X133681953Y-116333868D01*
X133579905Y-116291598D01*
X133434265Y-116194284D01*
X133310416Y-116070435D01*
X133213102Y-115924795D01*
X133146071Y-115762967D01*
X133111900Y-115591180D01*
X133111900Y-115416020D01*
X133146071Y-115244233D01*
X133213102Y-115082405D01*
X133310416Y-114936765D01*
X133434265Y-114812916D01*
X133579905Y-114715602D01*
X133681953Y-114673332D01*
X133741730Y-114648572D01*
X133741731Y-114648572D01*
X133741733Y-114648571D01*
X133854208Y-114626198D01*
X133877657Y-114619085D01*
X133899268Y-114607534D01*
X133918210Y-114591988D01*
X133933756Y-114573046D01*
X133945307Y-114551436D01*
X133952420Y-114527986D01*
X133954822Y-114503600D01*
X133952420Y-114479214D01*
X133945307Y-114455765D01*
X133933756Y-114434154D01*
X133918210Y-114415212D01*
X133899268Y-114399666D01*
X133877658Y-114388115D01*
X133854208Y-114381002D01*
X133741733Y-114358629D01*
X133741731Y-114358628D01*
X133741730Y-114358628D01*
X133681953Y-114333868D01*
X133579905Y-114291598D01*
X133434265Y-114194284D01*
X133310416Y-114070435D01*
X133213102Y-113924795D01*
X133146071Y-113762967D01*
X133111900Y-113591180D01*
X133111900Y-113416020D01*
X133146071Y-113244233D01*
X133213102Y-113082405D01*
X133310416Y-112936765D01*
X133434265Y-112812916D01*
X133579905Y-112715602D01*
X133681953Y-112673332D01*
X133741730Y-112648572D01*
X133741731Y-112648572D01*
X133741733Y-112648571D01*
X133913520Y-112614400D01*
X134088680Y-112614400D01*
X134260467Y-112648571D01*
X134260467Y-112648571D01*
G37*
G36*
X137564276Y-120388443D02*
X137573855Y-120390348D01*
X137598359Y-120390346D01*
X137607929Y-120388443D01*
X137616487Y-120387600D01*
X138205713Y-120387600D01*
X138214276Y-120388443D01*
X138223855Y-120390348D01*
X138248359Y-120390346D01*
X138257929Y-120388443D01*
X138266487Y-120387600D01*
X138855713Y-120387600D01*
X138864276Y-120388443D01*
X138873855Y-120390348D01*
X138898359Y-120390346D01*
X138907929Y-120388443D01*
X138916487Y-120387600D01*
X139505713Y-120387600D01*
X139514276Y-120388443D01*
X139523855Y-120390348D01*
X139548359Y-120390346D01*
X139557929Y-120388443D01*
X139566487Y-120387600D01*
X140155713Y-120387600D01*
X140164276Y-120388443D01*
X140173855Y-120390348D01*
X140198359Y-120390346D01*
X140207929Y-120388443D01*
X140216487Y-120387600D01*
X140805713Y-120387600D01*
X140814276Y-120388443D01*
X140823855Y-120390348D01*
X140848359Y-120390346D01*
X140857929Y-120388443D01*
X140866487Y-120387600D01*
X141455713Y-120387600D01*
X141464276Y-120388443D01*
X141473855Y-120390348D01*
X141498359Y-120390346D01*
X141507929Y-120388443D01*
X141516487Y-120387600D01*
X142105713Y-120387600D01*
X142114276Y-120388443D01*
X142123855Y-120390348D01*
X142148359Y-120390346D01*
X142157929Y-120388443D01*
X142166487Y-120387600D01*
X142755713Y-120387600D01*
X142764276Y-120388443D01*
X142773855Y-120390348D01*
X142798359Y-120390346D01*
X142807929Y-120388443D01*
X142816487Y-120387600D01*
X143405713Y-120387600D01*
X143414276Y-120388443D01*
X143423855Y-120390348D01*
X143448359Y-120390346D01*
X143457929Y-120388443D01*
X143466487Y-120387600D01*
X144055713Y-120387600D01*
X144064276Y-120388443D01*
X144073855Y-120390348D01*
X144098359Y-120390346D01*
X144107929Y-120388443D01*
X144116487Y-120387600D01*
X144687100Y-120387600D01*
X144687100Y-121989600D01*
X144116487Y-121989600D01*
X144107924Y-121988757D01*
X144098345Y-121986852D01*
X144073841Y-121986854D01*
X144064271Y-121988757D01*
X144055713Y-121989600D01*
X143466487Y-121989600D01*
X143457924Y-121988757D01*
X143448345Y-121986852D01*
X143423841Y-121986854D01*
X143414271Y-121988757D01*
X143405713Y-121989600D01*
X142816487Y-121989600D01*
X142807924Y-121988757D01*
X142798345Y-121986852D01*
X142773841Y-121986854D01*
X142764271Y-121988757D01*
X142755713Y-121989600D01*
X142166487Y-121989600D01*
X142157924Y-121988757D01*
X142148345Y-121986852D01*
X142123841Y-121986854D01*
X142114271Y-121988757D01*
X142105713Y-121989600D01*
X141516487Y-121989600D01*
X141507924Y-121988757D01*
X141498345Y-121986852D01*
X141473841Y-121986854D01*
X141464271Y-121988757D01*
X141455713Y-121989600D01*
X140866487Y-121989600D01*
X140857924Y-121988757D01*
X140848345Y-121986852D01*
X140823841Y-121986854D01*
X140814271Y-121988757D01*
X140805713Y-121989600D01*
X140216487Y-121989600D01*
X140207924Y-121988757D01*
X140198345Y-121986852D01*
X140173841Y-121986854D01*
X140164271Y-121988757D01*
X140155713Y-121989600D01*
X139566487Y-121989600D01*
X139557924Y-121988757D01*
X139548345Y-121986852D01*
X139523841Y-121986854D01*
X139514271Y-121988757D01*
X139505713Y-121989600D01*
X138916487Y-121989600D01*
X138907924Y-121988757D01*
X138898345Y-121986852D01*
X138873841Y-121986854D01*
X138864271Y-121988757D01*
X138855713Y-121989600D01*
X138266487Y-121989600D01*
X138257924Y-121988757D01*
X138248345Y-121986852D01*
X138223841Y-121986854D01*
X138214271Y-121988757D01*
X138205713Y-121989600D01*
X137616487Y-121989600D01*
X137607924Y-121988757D01*
X137598345Y-121986852D01*
X137573841Y-121986854D01*
X137564271Y-121988757D01*
X137555713Y-121989600D01*
X136985100Y-121989600D01*
X136985100Y-120387600D01*
X137555713Y-120387600D01*
X137564276Y-120388443D01*
X137564276Y-120388443D01*
G37*
G36*
X140317100Y-118920998D02*
X140308801Y-118929296D01*
X140295187Y-118949670D01*
X140285808Y-118972309D01*
X140281026Y-118996342D01*
X140281025Y-119020846D01*
X140285805Y-119044880D01*
X140295181Y-119067519D01*
X140308794Y-119087895D01*
X140317100Y-119096201D01*
X140317100Y-119909600D01*
X139465100Y-119909600D01*
X139465100Y-119096202D01*
X139473399Y-119087904D01*
X139487013Y-119067530D01*
X139496392Y-119044891D01*
X139501174Y-119020858D01*
X139501175Y-118996354D01*
X139496395Y-118972320D01*
X139487019Y-118949681D01*
X139473406Y-118929305D01*
X139465100Y-118920999D01*
X139465100Y-118107600D01*
X140317100Y-118107600D01*
X140317100Y-118920998D01*
X140317100Y-118920998D01*
G37*
G36*
X142912100Y-113899600D02*
X139410100Y-113899600D01*
X139410100Y-112497600D01*
X142912100Y-112497600D01*
X142912100Y-113899600D01*
X142912100Y-113899600D01*
G37*
G36*
X134260467Y-102648571D02*
X134260469Y-102648572D01*
X134260470Y-102648572D01*
X134320247Y-102673332D01*
X134422295Y-102715602D01*
X134567935Y-102812916D01*
X134691784Y-102936765D01*
X134789098Y-103082405D01*
X134856129Y-103244233D01*
X134890300Y-103416020D01*
X134890300Y-103591180D01*
X134856129Y-103762967D01*
X134789098Y-103924795D01*
X134691784Y-104070435D01*
X134567935Y-104194284D01*
X134422295Y-104291598D01*
X134320247Y-104333868D01*
X134260470Y-104358628D01*
X134260469Y-104358628D01*
X134260467Y-104358629D01*
X134147992Y-104381002D01*
X134124543Y-104388115D01*
X134102932Y-104399666D01*
X134083990Y-104415212D01*
X134068444Y-104434154D01*
X134056893Y-104455764D01*
X134049780Y-104479214D01*
X134047378Y-104503600D01*
X134049780Y-104527986D01*
X134056893Y-104551435D01*
X134068444Y-104573046D01*
X134083990Y-104591988D01*
X134102932Y-104607534D01*
X134124542Y-104619085D01*
X134147992Y-104626198D01*
X134260467Y-104648571D01*
X134260469Y-104648572D01*
X134260470Y-104648572D01*
X134320247Y-104673332D01*
X134422295Y-104715602D01*
X134567935Y-104812916D01*
X134691784Y-104936765D01*
X134789098Y-105082405D01*
X134856129Y-105244233D01*
X134890300Y-105416020D01*
X134890300Y-105591180D01*
X134856129Y-105762967D01*
X134789098Y-105924795D01*
X134691784Y-106070435D01*
X134567935Y-106194284D01*
X134422295Y-106291598D01*
X134320247Y-106333868D01*
X134260470Y-106358628D01*
X134260469Y-106358628D01*
X134260467Y-106358629D01*
X134147992Y-106381002D01*
X134124543Y-106388115D01*
X134102932Y-106399666D01*
X134083990Y-106415212D01*
X134068444Y-106434154D01*
X134056893Y-106455764D01*
X134049780Y-106479214D01*
X134047378Y-106503600D01*
X134049780Y-106527986D01*
X134056893Y-106551435D01*
X134068444Y-106573046D01*
X134083990Y-106591988D01*
X134102932Y-106607534D01*
X134124542Y-106619085D01*
X134147992Y-106626198D01*
X134260467Y-106648571D01*
X134260469Y-106648572D01*
X134260470Y-106648572D01*
X134320247Y-106673332D01*
X134422295Y-106715602D01*
X134567935Y-106812916D01*
X134691784Y-106936765D01*
X134789098Y-107082405D01*
X134856129Y-107244233D01*
X134890300Y-107416020D01*
X134890300Y-107591180D01*
X134856129Y-107762967D01*
X134789098Y-107924795D01*
X134691784Y-108070435D01*
X134567935Y-108194284D01*
X134422295Y-108291598D01*
X134320247Y-108333868D01*
X134260470Y-108358628D01*
X134260469Y-108358628D01*
X134260467Y-108358629D01*
X134147992Y-108381002D01*
X134124543Y-108388115D01*
X134102932Y-108399666D01*
X134083990Y-108415212D01*
X134068444Y-108434154D01*
X134056893Y-108455764D01*
X134049780Y-108479214D01*
X134047378Y-108503600D01*
X134049780Y-108527986D01*
X134056893Y-108551435D01*
X134068444Y-108573046D01*
X134083990Y-108591988D01*
X134102932Y-108607534D01*
X134124542Y-108619085D01*
X134147992Y-108626198D01*
X134260467Y-108648571D01*
X134260469Y-108648572D01*
X134260470Y-108648572D01*
X134320247Y-108673332D01*
X134422295Y-108715602D01*
X134567935Y-108812916D01*
X134691784Y-108936765D01*
X134789098Y-109082405D01*
X134856129Y-109244233D01*
X134890300Y-109416020D01*
X134890300Y-109591180D01*
X134856129Y-109762967D01*
X134789098Y-109924795D01*
X134691784Y-110070435D01*
X134567935Y-110194284D01*
X134422295Y-110291598D01*
X134320247Y-110333868D01*
X134260470Y-110358628D01*
X134260469Y-110358628D01*
X134260467Y-110358629D01*
X134088680Y-110392800D01*
X133913520Y-110392800D01*
X133741733Y-110358629D01*
X133741731Y-110358628D01*
X133741730Y-110358628D01*
X133681953Y-110333868D01*
X133579905Y-110291598D01*
X133434265Y-110194284D01*
X133310416Y-110070435D01*
X133213102Y-109924795D01*
X133146071Y-109762967D01*
X133111900Y-109591180D01*
X133111900Y-109416020D01*
X133146071Y-109244233D01*
X133213102Y-109082405D01*
X133310416Y-108936765D01*
X133434265Y-108812916D01*
X133579905Y-108715602D01*
X133681953Y-108673332D01*
X133741730Y-108648572D01*
X133741731Y-108648572D01*
X133741733Y-108648571D01*
X133854208Y-108626198D01*
X133877657Y-108619085D01*
X133899268Y-108607534D01*
X133918210Y-108591988D01*
X133933756Y-108573046D01*
X133945307Y-108551436D01*
X133952420Y-108527986D01*
X133954822Y-108503600D01*
X133952420Y-108479214D01*
X133945307Y-108455765D01*
X133933756Y-108434154D01*
X133918210Y-108415212D01*
X133899268Y-108399666D01*
X133877658Y-108388115D01*
X133854208Y-108381002D01*
X133741733Y-108358629D01*
X133741731Y-108358628D01*
X133741730Y-108358628D01*
X133681953Y-108333868D01*
X133579905Y-108291598D01*
X133434265Y-108194284D01*
X133310416Y-108070435D01*
X133213102Y-107924795D01*
X133146071Y-107762967D01*
X133111900Y-107591180D01*
X133111900Y-107416020D01*
X133146071Y-107244233D01*
X133213102Y-107082405D01*
X133310416Y-106936765D01*
X133434265Y-106812916D01*
X133579905Y-106715602D01*
X133681953Y-106673332D01*
X133741730Y-106648572D01*
X133741731Y-106648572D01*
X133741733Y-106648571D01*
X133854208Y-106626198D01*
X133877657Y-106619085D01*
X133899268Y-106607534D01*
X133918210Y-106591988D01*
X133933756Y-106573046D01*
X133945307Y-106551436D01*
X133952420Y-106527986D01*
X133954822Y-106503600D01*
X133952420Y-106479214D01*
X133945307Y-106455765D01*
X133933756Y-106434154D01*
X133918210Y-106415212D01*
X133899268Y-106399666D01*
X133877658Y-106388115D01*
X133854208Y-106381002D01*
X133741733Y-106358629D01*
X133741731Y-106358628D01*
X133741730Y-106358628D01*
X133681953Y-106333868D01*
X133579905Y-106291598D01*
X133434265Y-106194284D01*
X133310416Y-106070435D01*
X133213102Y-105924795D01*
X133146071Y-105762967D01*
X133111900Y-105591180D01*
X133111900Y-105416020D01*
X133146071Y-105244233D01*
X133213102Y-105082405D01*
X133310416Y-104936765D01*
X133434265Y-104812916D01*
X133579905Y-104715602D01*
X133681953Y-104673332D01*
X133741730Y-104648572D01*
X133741731Y-104648572D01*
X133741733Y-104648571D01*
X133854208Y-104626198D01*
X133877657Y-104619085D01*
X133899268Y-104607534D01*
X133918210Y-104591988D01*
X133933756Y-104573046D01*
X133945307Y-104551436D01*
X133952420Y-104527986D01*
X133954822Y-104503600D01*
X133952420Y-104479214D01*
X133945307Y-104455765D01*
X133933756Y-104434154D01*
X133918210Y-104415212D01*
X133899268Y-104399666D01*
X133877658Y-104388115D01*
X133854208Y-104381002D01*
X133741733Y-104358629D01*
X133741731Y-104358628D01*
X133741730Y-104358628D01*
X133681953Y-104333868D01*
X133579905Y-104291598D01*
X133434265Y-104194284D01*
X133310416Y-104070435D01*
X133213102Y-103924795D01*
X133146071Y-103762967D01*
X133111900Y-103591180D01*
X133111900Y-103416020D01*
X133146071Y-103244233D01*
X133213102Y-103082405D01*
X133310416Y-102936765D01*
X133434265Y-102812916D01*
X133579905Y-102715602D01*
X133681953Y-102673332D01*
X133741730Y-102648572D01*
X133741731Y-102648572D01*
X133741733Y-102648571D01*
X133913520Y-102614400D01*
X134088680Y-102614400D01*
X134260467Y-102648571D01*
X134260467Y-102648571D01*
G37*
G36*
X142912100Y-105199600D02*
X139410100Y-105199600D01*
X139410100Y-103797600D01*
X142912100Y-103797600D01*
X142912100Y-105199600D01*
X142912100Y-105199600D01*
G37*
G36*
X134260467Y-94648571D02*
X134260469Y-94648572D01*
X134260470Y-94648572D01*
X134311236Y-94669600D01*
X134422295Y-94715602D01*
X134567935Y-94812916D01*
X134691784Y-94936765D01*
X134789098Y-95082405D01*
X134856129Y-95244233D01*
X134890300Y-95416020D01*
X134890300Y-95591180D01*
X134856129Y-95762967D01*
X134789098Y-95924795D01*
X134691784Y-96070435D01*
X134567935Y-96194284D01*
X134422295Y-96291598D01*
X134320247Y-96333868D01*
X134260470Y-96358628D01*
X134260469Y-96358628D01*
X134260467Y-96358629D01*
X134147992Y-96381002D01*
X134124543Y-96388115D01*
X134102932Y-96399666D01*
X134083990Y-96415212D01*
X134068444Y-96434154D01*
X134056893Y-96455764D01*
X134049780Y-96479214D01*
X134047378Y-96503600D01*
X134049780Y-96527986D01*
X134056893Y-96551435D01*
X134068444Y-96573046D01*
X134083990Y-96591988D01*
X134102932Y-96607534D01*
X134124542Y-96619085D01*
X134147992Y-96626198D01*
X134260467Y-96648571D01*
X134260469Y-96648572D01*
X134260470Y-96648572D01*
X134320247Y-96673332D01*
X134422295Y-96715602D01*
X134567935Y-96812916D01*
X134691784Y-96936765D01*
X134789098Y-97082405D01*
X134856129Y-97244233D01*
X134890300Y-97416020D01*
X134890300Y-97591180D01*
X134856129Y-97762967D01*
X134789098Y-97924795D01*
X134691784Y-98070435D01*
X134567935Y-98194284D01*
X134422295Y-98291598D01*
X134320247Y-98333868D01*
X134260470Y-98358628D01*
X134260469Y-98358628D01*
X134260467Y-98358629D01*
X134147992Y-98381002D01*
X134124543Y-98388115D01*
X134102932Y-98399666D01*
X134083990Y-98415212D01*
X134068444Y-98434154D01*
X134056893Y-98455764D01*
X134049780Y-98479214D01*
X134047378Y-98503600D01*
X134049780Y-98527986D01*
X134056893Y-98551435D01*
X134068444Y-98573046D01*
X134083990Y-98591988D01*
X134102932Y-98607534D01*
X134124542Y-98619085D01*
X134147992Y-98626198D01*
X134260467Y-98648571D01*
X134260469Y-98648572D01*
X134260470Y-98648572D01*
X134320247Y-98673332D01*
X134422295Y-98715602D01*
X134567935Y-98812916D01*
X134691784Y-98936765D01*
X134789098Y-99082405D01*
X134856129Y-99244233D01*
X134890300Y-99416020D01*
X134890300Y-99591180D01*
X134856129Y-99762967D01*
X134789098Y-99924795D01*
X134691784Y-100070435D01*
X134567935Y-100194284D01*
X134422295Y-100291598D01*
X134320247Y-100333868D01*
X134260470Y-100358628D01*
X134260469Y-100358628D01*
X134260467Y-100358629D01*
X134088680Y-100392800D01*
X133913520Y-100392800D01*
X133741733Y-100358629D01*
X133741731Y-100358628D01*
X133741730Y-100358628D01*
X133681953Y-100333868D01*
X133579905Y-100291598D01*
X133434265Y-100194284D01*
X133310416Y-100070435D01*
X133213102Y-99924795D01*
X133146071Y-99762967D01*
X133111900Y-99591180D01*
X133111900Y-99416020D01*
X133146071Y-99244233D01*
X133213102Y-99082405D01*
X133310416Y-98936765D01*
X133434265Y-98812916D01*
X133579905Y-98715602D01*
X133681953Y-98673332D01*
X133741730Y-98648572D01*
X133741731Y-98648572D01*
X133741733Y-98648571D01*
X133854208Y-98626198D01*
X133877657Y-98619085D01*
X133899268Y-98607534D01*
X133918210Y-98591988D01*
X133933756Y-98573046D01*
X133945307Y-98551436D01*
X133952420Y-98527986D01*
X133954822Y-98503600D01*
X133952420Y-98479214D01*
X133945307Y-98455765D01*
X133933756Y-98434154D01*
X133918210Y-98415212D01*
X133899268Y-98399666D01*
X133877658Y-98388115D01*
X133854208Y-98381002D01*
X133741733Y-98358629D01*
X133741731Y-98358628D01*
X133741730Y-98358628D01*
X133681953Y-98333868D01*
X133579905Y-98291598D01*
X133434265Y-98194284D01*
X133310416Y-98070435D01*
X133213102Y-97924795D01*
X133146071Y-97762967D01*
X133111900Y-97591180D01*
X133111900Y-97416020D01*
X133146071Y-97244233D01*
X133213102Y-97082405D01*
X133310416Y-96936765D01*
X133434265Y-96812916D01*
X133579905Y-96715602D01*
X133681953Y-96673332D01*
X133741730Y-96648572D01*
X133741731Y-96648572D01*
X133741733Y-96648571D01*
X133854208Y-96626198D01*
X133877657Y-96619085D01*
X133899268Y-96607534D01*
X133918210Y-96591988D01*
X133933756Y-96573046D01*
X133945307Y-96551436D01*
X133952420Y-96527986D01*
X133954822Y-96503600D01*
X133952420Y-96479214D01*
X133945307Y-96455765D01*
X133933756Y-96434154D01*
X133918210Y-96415212D01*
X133899268Y-96399666D01*
X133877658Y-96388115D01*
X133854208Y-96381002D01*
X133741733Y-96358629D01*
X133741731Y-96358628D01*
X133741730Y-96358628D01*
X133681953Y-96333868D01*
X133579905Y-96291598D01*
X133434265Y-96194284D01*
X133310416Y-96070435D01*
X133213102Y-95924795D01*
X133146071Y-95762967D01*
X133111900Y-95591180D01*
X133111900Y-95416020D01*
X133146071Y-95244233D01*
X133213102Y-95082405D01*
X133310416Y-94936765D01*
X133434265Y-94812916D01*
X133579905Y-94715602D01*
X133690964Y-94669600D01*
X133741730Y-94648572D01*
X133741731Y-94648572D01*
X133741733Y-94648571D01*
X133913520Y-94614400D01*
X134088680Y-94614400D01*
X134260467Y-94648571D01*
X134260467Y-94648571D01*
G37*
G36*
X159962967Y-97833571D02*
X159962969Y-97833572D01*
X159962970Y-97833572D01*
X160022747Y-97858332D01*
X160124795Y-97900602D01*
X160270435Y-97997916D01*
X160394284Y-98121765D01*
X160491598Y-98267405D01*
X160491598Y-98267406D01*
X160552822Y-98415212D01*
X160558629Y-98429233D01*
X160581002Y-98541708D01*
X160588115Y-98565157D01*
X160599666Y-98586768D01*
X160615212Y-98605710D01*
X160634154Y-98621256D01*
X160655764Y-98632807D01*
X160679214Y-98639920D01*
X160703600Y-98642322D01*
X160727986Y-98639920D01*
X160751435Y-98632807D01*
X160773046Y-98621256D01*
X160791988Y-98605710D01*
X160807534Y-98586768D01*
X160819085Y-98565158D01*
X160826198Y-98541708D01*
X160848571Y-98429233D01*
X160854379Y-98415212D01*
X160915602Y-98267406D01*
X160915602Y-98267405D01*
X161012916Y-98121765D01*
X161136765Y-97997916D01*
X161282405Y-97900602D01*
X161384453Y-97858332D01*
X161444230Y-97833572D01*
X161444231Y-97833572D01*
X161444233Y-97833571D01*
X161616020Y-97799400D01*
X161791180Y-97799400D01*
X161962967Y-97833571D01*
X161962969Y-97833572D01*
X161962970Y-97833572D01*
X162022747Y-97858332D01*
X162124795Y-97900602D01*
X162270435Y-97997916D01*
X162394284Y-98121765D01*
X162491598Y-98267405D01*
X162491598Y-98267406D01*
X162552822Y-98415212D01*
X162558629Y-98429233D01*
X162581002Y-98541708D01*
X162588115Y-98565157D01*
X162599666Y-98586768D01*
X162615212Y-98605710D01*
X162634154Y-98621256D01*
X162655764Y-98632807D01*
X162679214Y-98639920D01*
X162703600Y-98642322D01*
X162727986Y-98639920D01*
X162751435Y-98632807D01*
X162773046Y-98621256D01*
X162791988Y-98605710D01*
X162807534Y-98586768D01*
X162819085Y-98565158D01*
X162826198Y-98541708D01*
X162848571Y-98429233D01*
X162854379Y-98415212D01*
X162915602Y-98267406D01*
X162915602Y-98267405D01*
X163012916Y-98121765D01*
X163136765Y-97997916D01*
X163282405Y-97900602D01*
X163384453Y-97858332D01*
X163444230Y-97833572D01*
X163444231Y-97833572D01*
X163444233Y-97833571D01*
X163616020Y-97799400D01*
X163791180Y-97799400D01*
X163962967Y-97833571D01*
X163962969Y-97833572D01*
X163962970Y-97833572D01*
X164022747Y-97858332D01*
X164124795Y-97900602D01*
X164270435Y-97997916D01*
X164394284Y-98121765D01*
X164491598Y-98267405D01*
X164491598Y-98267406D01*
X164552822Y-98415212D01*
X164558629Y-98429233D01*
X164592800Y-98601020D01*
X164592800Y-98776180D01*
X164558629Y-98947967D01*
X164491598Y-99109795D01*
X164394284Y-99255435D01*
X164270435Y-99379284D01*
X164124795Y-99476598D01*
X164022747Y-99518868D01*
X163962970Y-99543628D01*
X163962969Y-99543628D01*
X163962967Y-99543629D01*
X163791180Y-99577800D01*
X163616020Y-99577800D01*
X163444233Y-99543629D01*
X163444231Y-99543628D01*
X163444230Y-99543628D01*
X163384453Y-99518868D01*
X163282405Y-99476598D01*
X163136765Y-99379284D01*
X163012916Y-99255435D01*
X162915602Y-99109795D01*
X162848571Y-98947967D01*
X162826198Y-98835492D01*
X162819085Y-98812043D01*
X162807534Y-98790432D01*
X162791988Y-98771490D01*
X162773046Y-98755944D01*
X162751436Y-98744393D01*
X162727986Y-98737280D01*
X162703600Y-98734878D01*
X162679214Y-98737280D01*
X162655765Y-98744393D01*
X162634154Y-98755944D01*
X162615212Y-98771490D01*
X162599666Y-98790432D01*
X162588115Y-98812042D01*
X162581002Y-98835492D01*
X162558629Y-98947967D01*
X162491598Y-99109795D01*
X162394284Y-99255435D01*
X162270435Y-99379284D01*
X162124795Y-99476598D01*
X162022747Y-99518868D01*
X161962970Y-99543628D01*
X161962969Y-99543628D01*
X161962967Y-99543629D01*
X161791180Y-99577800D01*
X161616020Y-99577800D01*
X161444233Y-99543629D01*
X161444231Y-99543628D01*
X161444230Y-99543628D01*
X161384453Y-99518868D01*
X161282405Y-99476598D01*
X161136765Y-99379284D01*
X161012916Y-99255435D01*
X160915602Y-99109795D01*
X160848571Y-98947967D01*
X160826198Y-98835492D01*
X160819085Y-98812043D01*
X160807534Y-98790432D01*
X160791988Y-98771490D01*
X160773046Y-98755944D01*
X160751436Y-98744393D01*
X160727986Y-98737280D01*
X160703600Y-98734878D01*
X160679214Y-98737280D01*
X160655765Y-98744393D01*
X160634154Y-98755944D01*
X160615212Y-98771490D01*
X160599666Y-98790432D01*
X160588115Y-98812042D01*
X160581002Y-98835492D01*
X160558629Y-98947967D01*
X160491598Y-99109795D01*
X160394284Y-99255435D01*
X160270435Y-99379284D01*
X160124795Y-99476598D01*
X160022747Y-99518868D01*
X159962970Y-99543628D01*
X159962969Y-99543628D01*
X159962967Y-99543629D01*
X159791180Y-99577800D01*
X159616020Y-99577800D01*
X159444233Y-99543629D01*
X159444231Y-99543628D01*
X159444230Y-99543628D01*
X159384453Y-99518868D01*
X159282405Y-99476598D01*
X159136765Y-99379284D01*
X159012916Y-99255435D01*
X158915602Y-99109795D01*
X158848571Y-98947967D01*
X158814400Y-98776180D01*
X158814400Y-98601020D01*
X158848571Y-98429233D01*
X158854379Y-98415212D01*
X158915602Y-98267406D01*
X158915602Y-98267405D01*
X159012916Y-98121765D01*
X159136765Y-97997916D01*
X159282405Y-97900602D01*
X159384453Y-97858332D01*
X159444230Y-97833572D01*
X159444231Y-97833572D01*
X159444233Y-97833571D01*
X159616020Y-97799400D01*
X159791180Y-97799400D01*
X159962967Y-97833571D01*
X159962967Y-97833571D01*
G37*
G36*
X137271796Y-93825899D02*
X137292170Y-93839513D01*
X137314809Y-93848892D01*
X137338842Y-93853674D01*
X137363346Y-93853675D01*
X137387380Y-93848895D01*
X137410019Y-93839519D01*
X137430395Y-93825906D01*
X137438701Y-93817600D01*
X138252100Y-93817600D01*
X138252100Y-94669600D01*
X137438702Y-94669600D01*
X137430404Y-94661301D01*
X137410030Y-94647687D01*
X137387391Y-94638308D01*
X137363358Y-94633526D01*
X137338854Y-94633525D01*
X137314820Y-94638305D01*
X137292181Y-94647681D01*
X137271805Y-94661294D01*
X137263499Y-94669600D01*
X136450100Y-94669600D01*
X136450100Y-93817600D01*
X137263498Y-93817600D01*
X137271796Y-93825899D01*
X137271796Y-93825899D01*
G37*
G36*
X163667100Y-94579600D02*
X161215100Y-94579600D01*
X161215100Y-93127600D01*
X163667100Y-93127600D01*
X163667100Y-94579600D01*
X163667100Y-94579600D01*
G37*
G36*
X159346587Y-91896265D02*
X159431191Y-91921929D01*
X159509163Y-91963606D01*
X159577506Y-92019694D01*
X159633594Y-92088037D01*
X159675271Y-92166009D01*
X159700935Y-92250613D01*
X159709601Y-92338599D01*
X159709601Y-92338601D01*
X159700935Y-92426587D01*
X159675271Y-92511191D01*
X159633594Y-92589163D01*
X159577506Y-92657506D01*
X159509163Y-92713594D01*
X159431191Y-92755271D01*
X159346587Y-92780935D01*
X159258601Y-92789601D01*
X159258599Y-92789601D01*
X159170613Y-92780935D01*
X159086009Y-92755271D01*
X159008037Y-92713594D01*
X158939694Y-92657506D01*
X158883606Y-92589163D01*
X158841929Y-92511191D01*
X158816265Y-92426587D01*
X158807599Y-92338601D01*
X158807599Y-92338599D01*
X158816265Y-92250613D01*
X158841929Y-92166009D01*
X158883606Y-92088037D01*
X158939694Y-92019694D01*
X159008037Y-91963606D01*
X159086009Y-91921929D01*
X159170613Y-91896265D01*
X159258599Y-91887599D01*
X159258601Y-91887599D01*
X159346587Y-91896265D01*
X159346587Y-91896265D01*
G37*
G36*
X137271796Y-91920899D02*
X137292170Y-91934513D01*
X137314809Y-91943892D01*
X137338842Y-91948674D01*
X137363346Y-91948675D01*
X137387380Y-91943895D01*
X137410019Y-91934519D01*
X137430395Y-91920906D01*
X137438701Y-91912600D01*
X138252100Y-91912600D01*
X138252100Y-92764600D01*
X137438702Y-92764600D01*
X137430404Y-92756301D01*
X137410030Y-92742687D01*
X137387391Y-92733308D01*
X137363358Y-92728526D01*
X137338854Y-92728525D01*
X137314820Y-92733305D01*
X137292181Y-92742681D01*
X137271805Y-92756294D01*
X137263499Y-92764600D01*
X136450100Y-92764600D01*
X136450100Y-91912600D01*
X137263498Y-91912600D01*
X137271796Y-91920899D01*
X137271796Y-91920899D01*
G37*
G36*
X134260467Y-82648571D02*
X134260469Y-82648572D01*
X134260470Y-82648572D01*
X134310096Y-82669128D01*
X134422295Y-82715602D01*
X134567935Y-82812916D01*
X134691784Y-82936765D01*
X134789098Y-83082405D01*
X134789098Y-83082406D01*
X134839506Y-83204100D01*
X134856129Y-83244233D01*
X134890300Y-83416020D01*
X134890300Y-83591180D01*
X134856587Y-83760666D01*
X134856128Y-83762970D01*
X134850643Y-83776212D01*
X134789098Y-83924795D01*
X134691784Y-84070435D01*
X134567935Y-84194284D01*
X134422295Y-84291598D01*
X134320247Y-84333868D01*
X134260470Y-84358628D01*
X134260469Y-84358628D01*
X134260467Y-84358629D01*
X134147992Y-84381002D01*
X134124543Y-84388115D01*
X134102932Y-84399666D01*
X134083990Y-84415212D01*
X134068444Y-84434154D01*
X134056893Y-84455764D01*
X134049780Y-84479214D01*
X134047378Y-84503600D01*
X134049780Y-84527986D01*
X134056893Y-84551435D01*
X134068444Y-84573046D01*
X134083990Y-84591988D01*
X134102932Y-84607534D01*
X134124542Y-84619085D01*
X134147992Y-84626198D01*
X134260467Y-84648571D01*
X134260469Y-84648572D01*
X134260470Y-84648572D01*
X134285645Y-84659000D01*
X134422295Y-84715602D01*
X134567935Y-84812916D01*
X134691784Y-84936765D01*
X134789098Y-85082405D01*
X134856129Y-85244233D01*
X134890300Y-85416020D01*
X134890300Y-85591180D01*
X134862669Y-85730091D01*
X134856128Y-85762970D01*
X134831368Y-85822747D01*
X134789098Y-85924795D01*
X134691784Y-86070435D01*
X134567935Y-86194284D01*
X134422295Y-86291598D01*
X134320247Y-86333868D01*
X134260470Y-86358628D01*
X134260469Y-86358628D01*
X134260467Y-86358629D01*
X134147992Y-86381002D01*
X134124543Y-86388115D01*
X134102932Y-86399666D01*
X134083990Y-86415212D01*
X134068444Y-86434154D01*
X134056893Y-86455764D01*
X134049780Y-86479214D01*
X134047378Y-86503600D01*
X134049780Y-86527986D01*
X134056893Y-86551435D01*
X134068444Y-86573046D01*
X134083990Y-86591988D01*
X134102932Y-86607534D01*
X134124542Y-86619085D01*
X134147992Y-86626198D01*
X134260467Y-86648571D01*
X134260469Y-86648572D01*
X134260470Y-86648572D01*
X134320247Y-86673332D01*
X134422295Y-86715602D01*
X134567935Y-86812916D01*
X134691784Y-86936765D01*
X134789098Y-87082405D01*
X134856129Y-87244233D01*
X134890300Y-87416020D01*
X134890300Y-87591180D01*
X134856129Y-87762967D01*
X134789098Y-87924795D01*
X134691784Y-88070435D01*
X134567935Y-88194284D01*
X134422295Y-88291598D01*
X134377214Y-88310271D01*
X134260470Y-88358628D01*
X134260469Y-88358628D01*
X134260467Y-88358629D01*
X134147992Y-88381002D01*
X134124543Y-88388115D01*
X134102932Y-88399666D01*
X134083990Y-88415212D01*
X134068444Y-88434154D01*
X134056893Y-88455764D01*
X134049780Y-88479214D01*
X134047378Y-88503600D01*
X134049780Y-88527986D01*
X134056893Y-88551435D01*
X134068444Y-88573046D01*
X134083990Y-88591988D01*
X134102932Y-88607534D01*
X134124542Y-88619085D01*
X134147992Y-88626198D01*
X134260467Y-88648571D01*
X134260469Y-88648572D01*
X134260470Y-88648572D01*
X134320247Y-88673332D01*
X134422295Y-88715602D01*
X134567935Y-88812916D01*
X134691784Y-88936765D01*
X134789098Y-89082405D01*
X134856129Y-89244233D01*
X134890300Y-89416020D01*
X134890300Y-89591180D01*
X134856129Y-89762967D01*
X134789098Y-89924795D01*
X134691784Y-90070435D01*
X134567935Y-90194284D01*
X134422295Y-90291598D01*
X134320247Y-90333868D01*
X134260470Y-90358628D01*
X134260469Y-90358628D01*
X134260467Y-90358629D01*
X134147992Y-90381002D01*
X134124543Y-90388115D01*
X134102932Y-90399666D01*
X134083990Y-90415212D01*
X134068444Y-90434154D01*
X134056893Y-90455764D01*
X134049780Y-90479214D01*
X134047378Y-90503600D01*
X134049780Y-90527986D01*
X134056893Y-90551435D01*
X134068444Y-90573046D01*
X134083990Y-90591988D01*
X134102932Y-90607534D01*
X134124542Y-90619085D01*
X134147992Y-90626198D01*
X134260467Y-90648571D01*
X134260469Y-90648572D01*
X134260470Y-90648572D01*
X134320247Y-90673332D01*
X134422295Y-90715602D01*
X134567935Y-90812916D01*
X134691784Y-90936765D01*
X134789098Y-91082405D01*
X134856129Y-91244233D01*
X134890300Y-91416020D01*
X134890300Y-91591180D01*
X134856129Y-91762967D01*
X134789098Y-91924795D01*
X134691784Y-92070435D01*
X134567935Y-92194284D01*
X134422295Y-92291598D01*
X134320247Y-92333868D01*
X134260470Y-92358628D01*
X134260469Y-92358628D01*
X134260467Y-92358629D01*
X134088680Y-92392800D01*
X133913520Y-92392800D01*
X133741733Y-92358629D01*
X133741731Y-92358628D01*
X133741730Y-92358628D01*
X133681953Y-92333868D01*
X133579905Y-92291598D01*
X133434265Y-92194284D01*
X133310416Y-92070435D01*
X133213102Y-91924795D01*
X133146071Y-91762967D01*
X133111900Y-91591180D01*
X133111900Y-91416020D01*
X133146071Y-91244233D01*
X133213102Y-91082405D01*
X133310416Y-90936765D01*
X133434265Y-90812916D01*
X133579905Y-90715602D01*
X133681953Y-90673332D01*
X133741730Y-90648572D01*
X133741731Y-90648572D01*
X133741733Y-90648571D01*
X133854208Y-90626198D01*
X133877657Y-90619085D01*
X133899268Y-90607534D01*
X133918210Y-90591988D01*
X133933756Y-90573046D01*
X133945307Y-90551436D01*
X133952420Y-90527986D01*
X133954822Y-90503600D01*
X133952420Y-90479214D01*
X133945307Y-90455765D01*
X133933756Y-90434154D01*
X133918210Y-90415212D01*
X133899268Y-90399666D01*
X133877658Y-90388115D01*
X133854208Y-90381002D01*
X133741733Y-90358629D01*
X133741731Y-90358628D01*
X133741730Y-90358628D01*
X133681953Y-90333868D01*
X133579905Y-90291598D01*
X133434265Y-90194284D01*
X133310416Y-90070435D01*
X133213102Y-89924795D01*
X133146071Y-89762967D01*
X133111900Y-89591180D01*
X133111900Y-89416020D01*
X133146071Y-89244233D01*
X133213102Y-89082405D01*
X133310416Y-88936765D01*
X133434265Y-88812916D01*
X133579905Y-88715602D01*
X133681953Y-88673332D01*
X133741730Y-88648572D01*
X133741731Y-88648572D01*
X133741733Y-88648571D01*
X133854208Y-88626198D01*
X133877657Y-88619085D01*
X133899268Y-88607534D01*
X133918210Y-88591988D01*
X133933756Y-88573046D01*
X133945307Y-88551436D01*
X133952420Y-88527986D01*
X133954822Y-88503600D01*
X133952420Y-88479214D01*
X133945307Y-88455765D01*
X133933756Y-88434154D01*
X133918210Y-88415212D01*
X133899268Y-88399666D01*
X133877658Y-88388115D01*
X133854208Y-88381002D01*
X133741733Y-88358629D01*
X133741731Y-88358628D01*
X133741730Y-88358628D01*
X133624986Y-88310271D01*
X133579905Y-88291598D01*
X133434265Y-88194284D01*
X133310416Y-88070435D01*
X133213102Y-87924795D01*
X133146071Y-87762967D01*
X133111900Y-87591180D01*
X133111900Y-87416020D01*
X133146071Y-87244233D01*
X133213102Y-87082405D01*
X133310416Y-86936765D01*
X133434265Y-86812916D01*
X133579905Y-86715602D01*
X133681953Y-86673332D01*
X133741730Y-86648572D01*
X133741731Y-86648572D01*
X133741733Y-86648571D01*
X133854208Y-86626198D01*
X133877657Y-86619085D01*
X133899268Y-86607534D01*
X133918210Y-86591988D01*
X133933756Y-86573046D01*
X133945307Y-86551436D01*
X133952420Y-86527986D01*
X133954822Y-86503600D01*
X133952420Y-86479214D01*
X133945307Y-86455765D01*
X133933756Y-86434154D01*
X133918210Y-86415212D01*
X133899268Y-86399666D01*
X133877658Y-86388115D01*
X133854208Y-86381002D01*
X133741733Y-86358629D01*
X133741731Y-86358628D01*
X133741730Y-86358628D01*
X133681953Y-86333868D01*
X133579905Y-86291598D01*
X133434265Y-86194284D01*
X133310416Y-86070435D01*
X133213102Y-85924795D01*
X133170832Y-85822747D01*
X133146072Y-85762970D01*
X133139532Y-85730091D01*
X133111900Y-85591180D01*
X133111900Y-85416020D01*
X133146071Y-85244233D01*
X133213102Y-85082405D01*
X133310416Y-84936765D01*
X133434265Y-84812916D01*
X133579905Y-84715602D01*
X133716555Y-84659000D01*
X133741730Y-84648572D01*
X133741731Y-84648572D01*
X133741733Y-84648571D01*
X133854208Y-84626198D01*
X133877657Y-84619085D01*
X133899268Y-84607534D01*
X133918210Y-84591988D01*
X133933756Y-84573046D01*
X133945307Y-84551436D01*
X133952420Y-84527986D01*
X133954822Y-84503600D01*
X133952420Y-84479214D01*
X133945307Y-84455765D01*
X133933756Y-84434154D01*
X133918210Y-84415212D01*
X133899268Y-84399666D01*
X133877658Y-84388115D01*
X133854208Y-84381002D01*
X133741733Y-84358629D01*
X133741731Y-84358628D01*
X133741730Y-84358628D01*
X133681953Y-84333868D01*
X133579905Y-84291598D01*
X133434265Y-84194284D01*
X133310416Y-84070435D01*
X133213102Y-83924795D01*
X133151557Y-83776212D01*
X133146072Y-83762970D01*
X133145614Y-83760666D01*
X133111900Y-83591180D01*
X133111900Y-83416020D01*
X133146071Y-83244233D01*
X133162695Y-83204100D01*
X133213102Y-83082406D01*
X133213102Y-83082405D01*
X133310416Y-82936765D01*
X133434265Y-82812916D01*
X133579905Y-82715602D01*
X133692104Y-82669128D01*
X133741730Y-82648572D01*
X133741731Y-82648572D01*
X133741733Y-82648571D01*
X133913520Y-82614400D01*
X134088680Y-82614400D01*
X134260467Y-82648571D01*
X134260467Y-82648571D01*
G37*
G36*
X149186587Y-91261265D02*
X149271191Y-91286929D01*
X149349163Y-91328606D01*
X149417506Y-91384694D01*
X149473594Y-91453037D01*
X149515271Y-91531009D01*
X149540935Y-91615613D01*
X149549601Y-91703599D01*
X149549601Y-91703601D01*
X149540935Y-91791587D01*
X149515271Y-91876191D01*
X149473594Y-91954163D01*
X149417506Y-92022506D01*
X149349163Y-92078594D01*
X149271191Y-92120271D01*
X149186587Y-92145935D01*
X149098601Y-92154601D01*
X149098599Y-92154601D01*
X149010613Y-92145935D01*
X148926009Y-92120271D01*
X148848037Y-92078594D01*
X148779694Y-92022506D01*
X148723606Y-91954163D01*
X148681929Y-91876191D01*
X148656265Y-91791587D01*
X148647599Y-91703601D01*
X148647599Y-91703599D01*
X148656265Y-91615613D01*
X148681929Y-91531009D01*
X148723606Y-91453037D01*
X148779694Y-91384694D01*
X148848037Y-91328606D01*
X148926009Y-91286929D01*
X149010613Y-91261265D01*
X149098599Y-91252599D01*
X149098601Y-91252599D01*
X149186587Y-91261265D01*
X149186587Y-91261265D01*
G37*
G36*
X160002100Y-90028498D02*
X159993801Y-90036796D01*
X159980187Y-90057170D01*
X159970808Y-90079809D01*
X159966026Y-90103842D01*
X159966025Y-90128346D01*
X159970805Y-90152380D01*
X159980181Y-90175019D01*
X159993794Y-90195395D01*
X160002100Y-90203701D01*
X160002100Y-91017100D01*
X159150100Y-91017100D01*
X159150100Y-90203702D01*
X159158399Y-90195404D01*
X159172013Y-90175030D01*
X159181392Y-90152391D01*
X159186174Y-90128358D01*
X159186175Y-90103854D01*
X159181395Y-90079820D01*
X159172019Y-90057181D01*
X159158406Y-90036805D01*
X159150100Y-90028499D01*
X159150100Y-89215100D01*
X160002100Y-89215100D01*
X160002100Y-90028498D01*
X160002100Y-90028498D01*
G37*
G36*
X137271796Y-90015899D02*
X137292170Y-90029513D01*
X137314809Y-90038892D01*
X137338842Y-90043674D01*
X137363346Y-90043675D01*
X137387380Y-90038895D01*
X137410019Y-90029519D01*
X137430395Y-90015906D01*
X137438701Y-90007600D01*
X138252100Y-90007600D01*
X138252100Y-90859600D01*
X137438702Y-90859600D01*
X137430404Y-90851301D01*
X137410030Y-90837687D01*
X137387391Y-90828308D01*
X137363358Y-90823526D01*
X137338854Y-90823525D01*
X137314820Y-90828305D01*
X137292181Y-90837681D01*
X137271805Y-90851294D01*
X137263499Y-90859600D01*
X136450100Y-90859600D01*
X136450100Y-90007600D01*
X137263498Y-90007600D01*
X137271796Y-90015899D01*
X137271796Y-90015899D01*
G37*
G36*
X163667100Y-90279600D02*
X161215100Y-90279600D01*
X161215100Y-88827600D01*
X163667100Y-88827600D01*
X163667100Y-90279600D01*
X163667100Y-90279600D01*
G37*
G36*
X161882100Y-88409600D02*
X161080100Y-88409600D01*
X161080100Y-87407600D01*
X161882100Y-87407600D01*
X161882100Y-88409600D01*
X161882100Y-88409600D01*
G37*
G36*
X160612100Y-88409600D02*
X159810100Y-88409600D01*
X159810100Y-87407600D01*
X160612100Y-87407600D01*
X160612100Y-88409600D01*
X160612100Y-88409600D01*
G37*
G36*
X159029087Y-87451265D02*
X159113691Y-87476929D01*
X159191663Y-87518606D01*
X159260006Y-87574694D01*
X159316094Y-87643037D01*
X159357771Y-87721009D01*
X159383435Y-87805613D01*
X159392101Y-87893599D01*
X159392101Y-87893601D01*
X159383435Y-87981587D01*
X159357771Y-88066191D01*
X159316094Y-88144163D01*
X159260006Y-88212506D01*
X159191663Y-88268594D01*
X159113691Y-88310271D01*
X159029087Y-88335935D01*
X158941101Y-88344601D01*
X158941099Y-88344601D01*
X158853113Y-88335935D01*
X158768509Y-88310271D01*
X158690537Y-88268594D01*
X158622194Y-88212506D01*
X158566106Y-88144163D01*
X158524429Y-88066191D01*
X158498765Y-87981587D01*
X158490099Y-87893601D01*
X158490099Y-87893599D01*
X158498765Y-87805613D01*
X158524429Y-87721009D01*
X158566106Y-87643037D01*
X158622194Y-87574694D01*
X158690537Y-87518606D01*
X158768509Y-87476929D01*
X158853113Y-87451265D01*
X158941099Y-87442599D01*
X158941101Y-87442599D01*
X159029087Y-87451265D01*
X159029087Y-87451265D01*
G37*
G36*
X160612100Y-87109600D02*
X159810100Y-87109600D01*
X159810100Y-86107600D01*
X160612100Y-86107600D01*
X160612100Y-87109600D01*
X160612100Y-87109600D01*
G37*
G36*
X161882100Y-87109600D02*
X161080100Y-87109600D01*
X161080100Y-86107600D01*
X161882100Y-86107600D01*
X161882100Y-87109600D01*
X161882100Y-87109600D01*
G37*
G36*
X163260467Y-76648571D02*
X163260469Y-76648572D01*
X163260470Y-76648572D01*
X163318478Y-76672600D01*
X163422295Y-76715602D01*
X163567935Y-76812916D01*
X163691784Y-76936765D01*
X163789098Y-77082405D01*
X163856129Y-77244233D01*
X163890300Y-77416020D01*
X163890300Y-77591180D01*
X163856129Y-77762967D01*
X163789098Y-77924795D01*
X163691784Y-78070435D01*
X163567935Y-78194284D01*
X163422295Y-78291598D01*
X163324009Y-78332309D01*
X163260470Y-78358628D01*
X163260469Y-78358628D01*
X163260467Y-78358629D01*
X163147992Y-78381002D01*
X163124543Y-78388115D01*
X163102932Y-78399666D01*
X163083990Y-78415212D01*
X163068444Y-78434154D01*
X163056893Y-78455764D01*
X163049780Y-78479214D01*
X163047378Y-78503600D01*
X163049780Y-78527986D01*
X163056893Y-78551435D01*
X163068444Y-78573046D01*
X163083990Y-78591988D01*
X163102932Y-78607534D01*
X163124542Y-78619085D01*
X163147992Y-78626198D01*
X163260467Y-78648571D01*
X163260469Y-78648572D01*
X163260470Y-78648572D01*
X163320247Y-78673332D01*
X163422295Y-78715602D01*
X163567935Y-78812916D01*
X163691784Y-78936765D01*
X163789098Y-79082405D01*
X163856129Y-79244233D01*
X163890300Y-79416020D01*
X163890300Y-79591180D01*
X163856129Y-79762967D01*
X163789098Y-79924795D01*
X163691784Y-80070435D01*
X163567935Y-80194284D01*
X163422295Y-80291598D01*
X163323502Y-80332519D01*
X163260470Y-80358628D01*
X163260469Y-80358628D01*
X163260467Y-80358629D01*
X163147992Y-80381002D01*
X163124543Y-80388115D01*
X163102932Y-80399666D01*
X163083990Y-80415212D01*
X163068444Y-80434154D01*
X163056893Y-80455764D01*
X163049780Y-80479214D01*
X163047378Y-80503600D01*
X163049780Y-80527986D01*
X163056893Y-80551435D01*
X163068444Y-80573046D01*
X163083990Y-80591988D01*
X163102932Y-80607534D01*
X163124542Y-80619085D01*
X163147992Y-80626198D01*
X163260467Y-80648571D01*
X163260469Y-80648572D01*
X163260470Y-80648572D01*
X163320247Y-80673332D01*
X163422295Y-80715602D01*
X163567935Y-80812916D01*
X163691784Y-80936765D01*
X163789098Y-81082405D01*
X163856129Y-81244233D01*
X163890300Y-81416020D01*
X163890300Y-81591180D01*
X163856129Y-81762967D01*
X163789098Y-81924795D01*
X163691784Y-82070435D01*
X163567935Y-82194284D01*
X163422295Y-82291598D01*
X163339605Y-82325849D01*
X163260470Y-82358628D01*
X163260469Y-82358628D01*
X163260467Y-82358629D01*
X163147992Y-82381002D01*
X163124543Y-82388115D01*
X163102932Y-82399666D01*
X163083990Y-82415212D01*
X163068444Y-82434154D01*
X163056893Y-82455764D01*
X163049780Y-82479214D01*
X163047378Y-82503600D01*
X163049780Y-82527986D01*
X163056893Y-82551435D01*
X163068444Y-82573046D01*
X163083990Y-82591988D01*
X163102932Y-82607534D01*
X163124542Y-82619085D01*
X163147992Y-82626198D01*
X163260467Y-82648571D01*
X163260469Y-82648572D01*
X163260470Y-82648572D01*
X163310096Y-82669128D01*
X163422295Y-82715602D01*
X163567935Y-82812916D01*
X163691784Y-82936765D01*
X163789098Y-83082405D01*
X163789098Y-83082406D01*
X163839506Y-83204100D01*
X163856129Y-83244233D01*
X163890300Y-83416020D01*
X163890300Y-83591180D01*
X163856587Y-83760666D01*
X163856128Y-83762970D01*
X163850643Y-83776212D01*
X163789098Y-83924795D01*
X163691784Y-84070435D01*
X163567935Y-84194284D01*
X163422295Y-84291598D01*
X163320247Y-84333868D01*
X163260470Y-84358628D01*
X163260469Y-84358628D01*
X163260467Y-84358629D01*
X163147992Y-84381002D01*
X163124543Y-84388115D01*
X163102932Y-84399666D01*
X163083990Y-84415212D01*
X163068444Y-84434154D01*
X163056893Y-84455764D01*
X163049780Y-84479214D01*
X163047378Y-84503600D01*
X163049780Y-84527986D01*
X163056893Y-84551435D01*
X163068444Y-84573046D01*
X163083990Y-84591988D01*
X163102932Y-84607534D01*
X163124542Y-84619085D01*
X163147992Y-84626198D01*
X163260467Y-84648571D01*
X163260469Y-84648572D01*
X163260470Y-84648572D01*
X163285645Y-84659000D01*
X163422295Y-84715602D01*
X163567935Y-84812916D01*
X163691784Y-84936765D01*
X163789098Y-85082405D01*
X163856129Y-85244233D01*
X163890300Y-85416020D01*
X163890300Y-85591180D01*
X163862669Y-85730091D01*
X163856128Y-85762970D01*
X163831368Y-85822747D01*
X163789098Y-85924795D01*
X163691784Y-86070435D01*
X163567935Y-86194284D01*
X163422295Y-86291598D01*
X163320247Y-86333868D01*
X163260470Y-86358628D01*
X163260469Y-86358628D01*
X163260467Y-86358629D01*
X163088680Y-86392800D01*
X162913520Y-86392800D01*
X162741733Y-86358629D01*
X162741731Y-86358628D01*
X162741730Y-86358628D01*
X162681953Y-86333868D01*
X162579905Y-86291598D01*
X162434265Y-86194284D01*
X162310416Y-86070435D01*
X162213102Y-85924795D01*
X162170832Y-85822747D01*
X162146072Y-85762970D01*
X162139532Y-85730091D01*
X162111900Y-85591180D01*
X162111900Y-85416020D01*
X162146071Y-85244233D01*
X162213102Y-85082405D01*
X162310416Y-84936765D01*
X162434265Y-84812916D01*
X162579905Y-84715602D01*
X162716555Y-84659000D01*
X162741730Y-84648572D01*
X162741731Y-84648572D01*
X162741733Y-84648571D01*
X162854208Y-84626198D01*
X162877657Y-84619085D01*
X162899268Y-84607534D01*
X162918210Y-84591988D01*
X162933756Y-84573046D01*
X162945307Y-84551436D01*
X162952420Y-84527986D01*
X162954822Y-84503600D01*
X162952420Y-84479214D01*
X162945307Y-84455765D01*
X162933756Y-84434154D01*
X162918210Y-84415212D01*
X162899268Y-84399666D01*
X162877658Y-84388115D01*
X162854208Y-84381002D01*
X162741733Y-84358629D01*
X162741731Y-84358628D01*
X162741730Y-84358628D01*
X162681953Y-84333868D01*
X162579905Y-84291598D01*
X162434265Y-84194284D01*
X162310416Y-84070435D01*
X162213102Y-83924795D01*
X162151557Y-83776212D01*
X162146072Y-83762970D01*
X162145614Y-83760666D01*
X162111900Y-83591180D01*
X162111900Y-83416020D01*
X162146071Y-83244233D01*
X162162695Y-83204100D01*
X162213102Y-83082406D01*
X162213102Y-83082405D01*
X162310416Y-82936765D01*
X162434265Y-82812916D01*
X162579905Y-82715602D01*
X162692104Y-82669128D01*
X162741730Y-82648572D01*
X162741731Y-82648572D01*
X162741733Y-82648571D01*
X162854208Y-82626198D01*
X162877657Y-82619085D01*
X162899268Y-82607534D01*
X162918210Y-82591988D01*
X162933756Y-82573046D01*
X162945307Y-82551436D01*
X162952420Y-82527986D01*
X162954822Y-82503600D01*
X162952420Y-82479214D01*
X162945307Y-82455765D01*
X162933756Y-82434154D01*
X162918210Y-82415212D01*
X162899268Y-82399666D01*
X162877658Y-82388115D01*
X162854208Y-82381002D01*
X162741733Y-82358629D01*
X162741731Y-82358628D01*
X162741730Y-82358628D01*
X162662595Y-82325849D01*
X162579905Y-82291598D01*
X162434265Y-82194284D01*
X162310416Y-82070435D01*
X162213102Y-81924795D01*
X162146071Y-81762967D01*
X162111900Y-81591180D01*
X162111900Y-81416020D01*
X162146071Y-81244233D01*
X162213102Y-81082405D01*
X162310416Y-80936765D01*
X162434265Y-80812916D01*
X162579905Y-80715602D01*
X162681953Y-80673332D01*
X162741730Y-80648572D01*
X162741731Y-80648572D01*
X162741733Y-80648571D01*
X162854208Y-80626198D01*
X162877657Y-80619085D01*
X162899268Y-80607534D01*
X162918210Y-80591988D01*
X162933756Y-80573046D01*
X162945307Y-80551436D01*
X162952420Y-80527986D01*
X162954822Y-80503600D01*
X162952420Y-80479214D01*
X162945307Y-80455765D01*
X162933756Y-80434154D01*
X162918210Y-80415212D01*
X162899268Y-80399666D01*
X162877658Y-80388115D01*
X162854208Y-80381002D01*
X162741733Y-80358629D01*
X162741731Y-80358628D01*
X162741730Y-80358628D01*
X162678698Y-80332519D01*
X162579905Y-80291598D01*
X162434265Y-80194284D01*
X162310416Y-80070435D01*
X162213102Y-79924795D01*
X162146071Y-79762967D01*
X162111900Y-79591180D01*
X162111900Y-79416020D01*
X162146071Y-79244233D01*
X162213102Y-79082405D01*
X162310416Y-78936765D01*
X162434265Y-78812916D01*
X162579905Y-78715602D01*
X162681953Y-78673332D01*
X162741730Y-78648572D01*
X162741731Y-78648572D01*
X162741733Y-78648571D01*
X162854208Y-78626198D01*
X162877657Y-78619085D01*
X162899268Y-78607534D01*
X162918210Y-78591988D01*
X162933756Y-78573046D01*
X162945307Y-78551436D01*
X162952420Y-78527986D01*
X162954822Y-78503600D01*
X162952420Y-78479214D01*
X162945307Y-78455765D01*
X162933756Y-78434154D01*
X162918210Y-78415212D01*
X162899268Y-78399666D01*
X162877658Y-78388115D01*
X162854208Y-78381002D01*
X162741733Y-78358629D01*
X162741731Y-78358628D01*
X162741730Y-78358628D01*
X162678191Y-78332309D01*
X162579905Y-78291598D01*
X162434265Y-78194284D01*
X162310416Y-78070435D01*
X162213102Y-77924795D01*
X162146071Y-77762967D01*
X162111900Y-77591180D01*
X162111900Y-77416020D01*
X162146071Y-77244233D01*
X162213102Y-77082405D01*
X162310416Y-76936765D01*
X162434265Y-76812916D01*
X162579905Y-76715602D01*
X162683722Y-76672600D01*
X162741730Y-76648572D01*
X162741731Y-76648572D01*
X162741733Y-76648571D01*
X162913520Y-76614400D01*
X163088680Y-76614400D01*
X163260467Y-76648571D01*
X163260467Y-76648571D01*
G37*
G36*
X138302100Y-86334600D02*
X136400100Y-86334600D01*
X136400100Y-84632600D01*
X138302100Y-84632600D01*
X138302100Y-86334600D01*
X138302100Y-86334600D01*
G37*
G36*
X145526796Y-84935899D02*
X145547170Y-84949513D01*
X145569809Y-84958892D01*
X145593842Y-84963674D01*
X145618346Y-84963675D01*
X145642380Y-84958895D01*
X145665019Y-84949519D01*
X145685395Y-84935906D01*
X145693701Y-84927600D01*
X146507100Y-84927600D01*
X146507100Y-85779600D01*
X145693702Y-85779600D01*
X145685404Y-85771301D01*
X145665030Y-85757687D01*
X145642391Y-85748308D01*
X145618358Y-85743526D01*
X145593854Y-85743525D01*
X145569820Y-85748305D01*
X145547181Y-85757681D01*
X145526805Y-85771294D01*
X145518499Y-85779600D01*
X144705100Y-85779600D01*
X144705100Y-84927600D01*
X145518498Y-84927600D01*
X145526796Y-84935899D01*
X145526796Y-84935899D01*
G37*
G36*
X156147100Y-84724600D02*
X155245100Y-84724600D01*
X155245100Y-84072600D01*
X156147100Y-84072600D01*
X156147100Y-84724600D01*
X156147100Y-84724600D01*
G37*
G36*
X153747100Y-84724600D02*
X152845100Y-84724600D01*
X152845100Y-84072600D01*
X153747100Y-84072600D01*
X153747100Y-84724600D01*
X153747100Y-84724600D01*
G37*
G36*
X141918845Y-81066347D02*
X141943349Y-81066347D01*
X141962190Y-81062600D01*
X142400009Y-81062600D01*
X142418845Y-81066347D01*
X142443349Y-81066347D01*
X142462190Y-81062600D01*
X142900009Y-81062600D01*
X142918845Y-81066347D01*
X142943349Y-81066347D01*
X142962190Y-81062600D01*
X143357100Y-81062600D01*
X143357100Y-81762600D01*
X143359502Y-81786986D01*
X143366615Y-81810435D01*
X143378166Y-81832046D01*
X143393712Y-81850988D01*
X143412654Y-81866534D01*
X143434265Y-81878085D01*
X143457714Y-81885198D01*
X143482100Y-81887600D01*
X144182100Y-81887600D01*
X144182100Y-82282509D01*
X144178353Y-82301345D01*
X144178353Y-82325849D01*
X144182100Y-82344690D01*
X144182100Y-82782509D01*
X144178353Y-82801345D01*
X144178353Y-82825849D01*
X144182100Y-82844690D01*
X144182100Y-83282509D01*
X144178353Y-83301345D01*
X144178353Y-83325849D01*
X144182100Y-83344690D01*
X144182100Y-83739600D01*
X143482100Y-83739600D01*
X143457714Y-83742002D01*
X143434265Y-83749115D01*
X143412654Y-83760666D01*
X143393712Y-83776212D01*
X143378166Y-83795154D01*
X143366615Y-83816765D01*
X143359502Y-83840214D01*
X143357100Y-83864600D01*
X143357100Y-84564600D01*
X142962191Y-84564600D01*
X142943355Y-84560853D01*
X142918851Y-84560853D01*
X142900010Y-84564600D01*
X142462191Y-84564600D01*
X142443355Y-84560853D01*
X142418851Y-84560853D01*
X142400010Y-84564600D01*
X141962191Y-84564600D01*
X141943355Y-84560853D01*
X141918851Y-84560853D01*
X141900010Y-84564600D01*
X141505100Y-84564600D01*
X141505100Y-83864600D01*
X141502698Y-83840214D01*
X141495585Y-83816765D01*
X141484034Y-83795154D01*
X141468488Y-83776212D01*
X141449546Y-83760666D01*
X141427935Y-83749115D01*
X141404486Y-83742002D01*
X141380100Y-83739600D01*
X140680100Y-83739600D01*
X140680100Y-83344691D01*
X140683847Y-83325855D01*
X140683847Y-83301351D01*
X140680100Y-83282510D01*
X140680100Y-82844691D01*
X140683847Y-82825855D01*
X140683847Y-82801351D01*
X140680100Y-82782510D01*
X140680100Y-82344691D01*
X140683847Y-82325855D01*
X140683847Y-82301351D01*
X140680100Y-82282510D01*
X140680100Y-81887600D01*
X141380100Y-81887600D01*
X141404486Y-81885198D01*
X141427935Y-81878085D01*
X141449546Y-81866534D01*
X141468488Y-81850988D01*
X141484034Y-81832046D01*
X141495585Y-81810435D01*
X141502698Y-81786986D01*
X141505100Y-81762600D01*
X141505100Y-81062600D01*
X141900009Y-81062600D01*
X141918845Y-81066347D01*
X141918845Y-81066347D01*
G37*
G36*
X145526796Y-83665899D02*
X145547170Y-83679513D01*
X145569809Y-83688892D01*
X145593842Y-83693674D01*
X145618346Y-83693675D01*
X145642380Y-83688895D01*
X145665019Y-83679519D01*
X145685395Y-83665906D01*
X145693701Y-83657600D01*
X146507100Y-83657600D01*
X146507100Y-84509600D01*
X145693702Y-84509600D01*
X145685404Y-84501301D01*
X145665030Y-84487687D01*
X145642391Y-84478308D01*
X145618358Y-84473526D01*
X145593854Y-84473525D01*
X145569820Y-84478305D01*
X145547181Y-84487681D01*
X145526805Y-84501294D01*
X145518499Y-84509600D01*
X144705100Y-84509600D01*
X144705100Y-83657600D01*
X145518498Y-83657600D01*
X145526796Y-83665899D01*
X145526796Y-83665899D01*
G37*
G36*
X156147100Y-83774600D02*
X155245100Y-83774600D01*
X155245100Y-83122600D01*
X156147100Y-83122600D01*
X156147100Y-83774600D01*
X156147100Y-83774600D01*
G37*
G36*
X138302100Y-83534600D02*
X136400100Y-83534600D01*
X136400100Y-81832600D01*
X138302100Y-81832600D01*
X138302100Y-83534600D01*
X138302100Y-83534600D01*
G37*
G36*
X153747100Y-82824600D02*
X152845100Y-82824600D01*
X152845100Y-82172600D01*
X153747100Y-82172600D01*
X153747100Y-82824600D01*
X153747100Y-82824600D01*
G37*
G36*
X156147100Y-82824600D02*
X155245100Y-82824600D01*
X155245100Y-82172600D01*
X156147100Y-82172600D01*
X156147100Y-82824600D01*
X156147100Y-82824600D01*
G37*
G36*
X159342100Y-82059600D02*
X158540100Y-82059600D01*
X158540100Y-81057600D01*
X159342100Y-81057600D01*
X159342100Y-82059600D01*
X159342100Y-82059600D01*
G37*
G36*
X160612100Y-82059600D02*
X159810100Y-82059600D01*
X159810100Y-81057600D01*
X160612100Y-81057600D01*
X160612100Y-82059600D01*
X160612100Y-82059600D01*
G37*
G36*
X147431796Y-80808399D02*
X147452170Y-80822013D01*
X147474809Y-80831392D01*
X147498842Y-80836174D01*
X147523346Y-80836175D01*
X147547380Y-80831395D01*
X147570019Y-80822019D01*
X147590395Y-80808406D01*
X147598701Y-80800100D01*
X148412100Y-80800100D01*
X148412100Y-81652100D01*
X147598702Y-81652100D01*
X147590404Y-81643801D01*
X147570030Y-81630187D01*
X147547391Y-81620808D01*
X147523358Y-81616026D01*
X147498854Y-81616025D01*
X147474820Y-81620805D01*
X147452181Y-81630181D01*
X147431805Y-81643794D01*
X147423499Y-81652100D01*
X146610100Y-81652100D01*
X146610100Y-80800100D01*
X147423498Y-80800100D01*
X147431796Y-80808399D01*
X147431796Y-80808399D01*
G37*
G36*
X153652100Y-80185998D02*
X153643801Y-80194296D01*
X153630187Y-80214670D01*
X153620808Y-80237309D01*
X153616026Y-80261342D01*
X153616025Y-80285846D01*
X153620805Y-80309880D01*
X153630181Y-80332519D01*
X153643794Y-80352895D01*
X153652100Y-80361201D01*
X153652100Y-81174600D01*
X152800100Y-81174600D01*
X152800100Y-80361202D01*
X152808399Y-80352904D01*
X152822013Y-80332530D01*
X152831392Y-80309891D01*
X152836174Y-80285858D01*
X152836175Y-80261354D01*
X152831395Y-80237320D01*
X152822019Y-80214681D01*
X152808406Y-80194305D01*
X152800100Y-80185999D01*
X152800100Y-79372600D01*
X153652100Y-79372600D01*
X153652100Y-80185998D01*
X153652100Y-80185998D01*
G37*
G36*
X156192100Y-80185998D02*
X156183801Y-80194296D01*
X156170187Y-80214670D01*
X156160808Y-80237309D01*
X156156026Y-80261342D01*
X156156025Y-80285846D01*
X156160805Y-80309880D01*
X156170181Y-80332519D01*
X156183794Y-80352895D01*
X156192100Y-80361201D01*
X156192100Y-81174600D01*
X155340100Y-81174600D01*
X155340100Y-80361202D01*
X155348399Y-80352904D01*
X155362013Y-80332530D01*
X155371392Y-80309891D01*
X155376174Y-80285858D01*
X155376175Y-80261354D01*
X155371395Y-80237320D01*
X155362019Y-80214681D01*
X155348406Y-80194305D01*
X155340100Y-80185999D01*
X155340100Y-79372600D01*
X156192100Y-79372600D01*
X156192100Y-80185998D01*
X156192100Y-80185998D01*
G37*
G36*
X138102100Y-81019600D02*
X136600100Y-81019600D01*
X136600100Y-79517600D01*
X138102100Y-79517600D01*
X138102100Y-81019600D01*
X138102100Y-81019600D01*
G37*
G36*
X160612100Y-80759600D02*
X159810100Y-80759600D01*
X159810100Y-79757600D01*
X160612100Y-79757600D01*
X160612100Y-80759600D01*
X160612100Y-80759600D01*
G37*
G36*
X159342100Y-80759600D02*
X158540100Y-80759600D01*
X158540100Y-79757600D01*
X159342100Y-79757600D01*
X159342100Y-80759600D01*
X159342100Y-80759600D01*
G37*
G36*
X134260467Y-76648571D02*
X134260469Y-76648572D01*
X134260470Y-76648572D01*
X134318478Y-76672600D01*
X134422295Y-76715602D01*
X134567935Y-76812916D01*
X134691784Y-76936765D01*
X134789098Y-77082405D01*
X134856129Y-77244233D01*
X134890300Y-77416020D01*
X134890300Y-77591180D01*
X134856129Y-77762967D01*
X134789098Y-77924795D01*
X134691784Y-78070435D01*
X134567935Y-78194284D01*
X134422295Y-78291598D01*
X134324009Y-78332309D01*
X134260470Y-78358628D01*
X134260469Y-78358628D01*
X134260467Y-78358629D01*
X134147992Y-78381002D01*
X134124543Y-78388115D01*
X134102932Y-78399666D01*
X134083990Y-78415212D01*
X134068444Y-78434154D01*
X134056893Y-78455764D01*
X134049780Y-78479214D01*
X134047378Y-78503600D01*
X134049780Y-78527986D01*
X134056893Y-78551435D01*
X134068444Y-78573046D01*
X134083990Y-78591988D01*
X134102932Y-78607534D01*
X134124542Y-78619085D01*
X134147992Y-78626198D01*
X134260467Y-78648571D01*
X134260469Y-78648572D01*
X134260470Y-78648572D01*
X134320247Y-78673332D01*
X134422295Y-78715602D01*
X134567935Y-78812916D01*
X134691784Y-78936765D01*
X134789098Y-79082405D01*
X134856129Y-79244233D01*
X134890300Y-79416020D01*
X134890300Y-79591180D01*
X134856129Y-79762967D01*
X134789098Y-79924795D01*
X134691784Y-80070435D01*
X134567935Y-80194284D01*
X134422295Y-80291598D01*
X134323502Y-80332519D01*
X134260470Y-80358628D01*
X134260469Y-80358628D01*
X134260467Y-80358629D01*
X134088680Y-80392800D01*
X133913520Y-80392800D01*
X133741733Y-80358629D01*
X133741731Y-80358628D01*
X133741730Y-80358628D01*
X133678698Y-80332519D01*
X133579905Y-80291598D01*
X133434265Y-80194284D01*
X133310416Y-80070435D01*
X133213102Y-79924795D01*
X133146071Y-79762967D01*
X133111900Y-79591180D01*
X133111900Y-79416020D01*
X133146071Y-79244233D01*
X133213102Y-79082405D01*
X133310416Y-78936765D01*
X133434265Y-78812916D01*
X133579905Y-78715602D01*
X133681953Y-78673332D01*
X133741730Y-78648572D01*
X133741731Y-78648572D01*
X133741733Y-78648571D01*
X133854208Y-78626198D01*
X133877657Y-78619085D01*
X133899268Y-78607534D01*
X133918210Y-78591988D01*
X133933756Y-78573046D01*
X133945307Y-78551436D01*
X133952420Y-78527986D01*
X133954822Y-78503600D01*
X133952420Y-78479214D01*
X133945307Y-78455765D01*
X133933756Y-78434154D01*
X133918210Y-78415212D01*
X133899268Y-78399666D01*
X133877658Y-78388115D01*
X133854208Y-78381002D01*
X133741733Y-78358629D01*
X133741731Y-78358628D01*
X133741730Y-78358628D01*
X133678191Y-78332309D01*
X133579905Y-78291598D01*
X133434265Y-78194284D01*
X133310416Y-78070435D01*
X133213102Y-77924795D01*
X133146071Y-77762967D01*
X133111900Y-77591180D01*
X133111900Y-77416020D01*
X133146071Y-77244233D01*
X133213102Y-77082405D01*
X133310416Y-76936765D01*
X133434265Y-76812916D01*
X133579905Y-76715602D01*
X133683722Y-76672600D01*
X133741730Y-76648572D01*
X133741731Y-76648572D01*
X133741733Y-76648571D01*
X133913520Y-76614400D01*
X134088680Y-76614400D01*
X134260467Y-76648571D01*
X134260467Y-76648571D01*
G37*
G36*
X144127100Y-78280998D02*
X144118801Y-78289296D01*
X144105187Y-78309670D01*
X144095808Y-78332309D01*
X144091026Y-78356342D01*
X144091025Y-78380846D01*
X144095805Y-78404880D01*
X144105181Y-78427519D01*
X144118794Y-78447895D01*
X144127100Y-78456201D01*
X144127100Y-79269600D01*
X143275100Y-79269600D01*
X143275100Y-78456202D01*
X143283399Y-78447904D01*
X143297013Y-78427530D01*
X143306392Y-78404891D01*
X143311174Y-78380858D01*
X143311175Y-78356354D01*
X143306395Y-78332320D01*
X143297019Y-78309681D01*
X143283406Y-78289305D01*
X143275100Y-78280999D01*
X143275100Y-77467600D01*
X144127100Y-77467600D01*
X144127100Y-78280998D01*
X144127100Y-78280998D01*
G37*
G36*
X140317100Y-78280998D02*
X140308801Y-78289296D01*
X140295187Y-78309670D01*
X140285808Y-78332309D01*
X140281026Y-78356342D01*
X140281025Y-78380846D01*
X140285805Y-78404880D01*
X140295181Y-78427519D01*
X140308794Y-78447895D01*
X140317100Y-78456201D01*
X140317100Y-79269600D01*
X139465100Y-79269600D01*
X139465100Y-78456202D01*
X139473399Y-78447904D01*
X139487013Y-78427530D01*
X139496392Y-78404891D01*
X139501174Y-78380858D01*
X139501175Y-78356354D01*
X139496395Y-78332320D01*
X139487019Y-78309681D01*
X139473406Y-78289305D01*
X139465100Y-78280999D01*
X139465100Y-77467600D01*
X140317100Y-77467600D01*
X140317100Y-78280998D01*
X140317100Y-78280998D01*
G37*
G36*
X146032100Y-78280998D02*
X146023801Y-78289296D01*
X146010187Y-78309670D01*
X146000808Y-78332309D01*
X145996026Y-78356342D01*
X145996025Y-78380846D01*
X146000805Y-78404880D01*
X146010181Y-78427519D01*
X146023794Y-78447895D01*
X146032100Y-78456201D01*
X146032100Y-79269600D01*
X145180100Y-79269600D01*
X145180100Y-78456202D01*
X145188399Y-78447904D01*
X145202013Y-78427530D01*
X145211392Y-78404891D01*
X145216174Y-78380858D01*
X145216175Y-78356354D01*
X145211395Y-78332320D01*
X145202019Y-78309681D01*
X145188406Y-78289305D01*
X145180100Y-78280999D01*
X145180100Y-77467600D01*
X146032100Y-77467600D01*
X146032100Y-78280998D01*
X146032100Y-78280998D01*
G37*
G36*
X142222100Y-78280998D02*
X142213801Y-78289296D01*
X142200187Y-78309670D01*
X142190808Y-78332309D01*
X142186026Y-78356342D01*
X142186025Y-78380846D01*
X142190805Y-78404880D01*
X142200181Y-78427519D01*
X142213794Y-78447895D01*
X142222100Y-78456201D01*
X142222100Y-79269600D01*
X141370100Y-79269600D01*
X141370100Y-78456202D01*
X141378399Y-78447904D01*
X141392013Y-78427530D01*
X141401392Y-78404891D01*
X141406174Y-78380858D01*
X141406175Y-78356354D01*
X141401395Y-78332320D01*
X141392019Y-78309681D01*
X141378406Y-78289305D01*
X141370100Y-78280999D01*
X141370100Y-77467600D01*
X142222100Y-77467600D01*
X142222100Y-78280998D01*
X142222100Y-78280998D01*
G37*
G36*
X148066796Y-76680899D02*
X148087170Y-76694513D01*
X148109809Y-76703892D01*
X148133842Y-76708674D01*
X148158346Y-76708675D01*
X148182380Y-76703895D01*
X148205019Y-76694519D01*
X148225395Y-76680906D01*
X148233701Y-76672600D01*
X149047100Y-76672600D01*
X149047100Y-77524600D01*
X148233702Y-77524600D01*
X148225404Y-77516301D01*
X148205030Y-77502687D01*
X148182391Y-77493308D01*
X148158358Y-77488526D01*
X148133854Y-77488525D01*
X148109820Y-77493305D01*
X148087181Y-77502681D01*
X148066805Y-77516294D01*
X148058499Y-77524600D01*
X147245100Y-77524600D01*
X147245100Y-76672600D01*
X148058498Y-76672600D01*
X148066796Y-76680899D01*
X148066796Y-76680899D01*
G37*
G36*
X138102100Y-77219600D02*
X136600100Y-77219600D01*
X136600100Y-75717600D01*
X138102100Y-75717600D01*
X138102100Y-77219600D01*
X138102100Y-77219600D01*
G37*
G36*
X151437100Y-76574600D02*
X149935100Y-76574600D01*
X149935100Y-75072600D01*
X151437100Y-75072600D01*
X151437100Y-76574600D01*
X151437100Y-76574600D01*
G37*
G36*
X149097100Y-76224600D02*
X147195100Y-76224600D01*
X147195100Y-74922600D01*
X149097100Y-74922600D01*
X149097100Y-76224600D01*
X149097100Y-76224600D01*
G37*
G36*
X144217100Y-74959600D02*
X143215100Y-74959600D01*
X143215100Y-74157600D01*
X144217100Y-74157600D01*
X144217100Y-74959600D01*
X144217100Y-74959600D01*
G37*
G36*
X142917100Y-74959600D02*
X141915100Y-74959600D01*
X141915100Y-74157600D01*
X142917100Y-74157600D01*
X142917100Y-74959600D01*
X142917100Y-74959600D01*
G37*
G36*
X136531355Y-68837825D02*
X136793911Y-68890051D01*
X137288556Y-69094940D01*
X137727801Y-69388435D01*
X137733727Y-69392394D01*
X138112306Y-69770973D01*
X138112308Y-69770976D01*
X138409760Y-70216144D01*
X138614649Y-70710789D01*
X138719100Y-71235900D01*
X138719100Y-71771300D01*
X138614649Y-72296411D01*
X138409760Y-72791056D01*
X138318457Y-72927700D01*
X138112306Y-73236227D01*
X137733727Y-73614806D01*
X137733724Y-73614808D01*
X137288556Y-73912260D01*
X136793911Y-74117149D01*
X136590550Y-74157600D01*
X136268801Y-74221600D01*
X135733399Y-74221600D01*
X135411650Y-74157600D01*
X135208289Y-74117149D01*
X134713644Y-73912260D01*
X134268476Y-73614808D01*
X134268473Y-73614806D01*
X133889894Y-73236227D01*
X133683743Y-72927700D01*
X133592440Y-72791056D01*
X133387551Y-72296411D01*
X133283100Y-71771300D01*
X133283100Y-71235900D01*
X133387551Y-70710789D01*
X133592440Y-70216144D01*
X133889892Y-69770976D01*
X133889894Y-69770973D01*
X134268473Y-69392394D01*
X134274399Y-69388435D01*
X134713644Y-69094940D01*
X135208289Y-68890051D01*
X135470845Y-68837825D01*
X135733399Y-68785600D01*
X136268801Y-68785600D01*
X136531355Y-68837825D01*
X136531355Y-68837825D01*
G37*
G36*
X161531355Y-68837825D02*
X161793911Y-68890051D01*
X162288556Y-69094940D01*
X162727801Y-69388435D01*
X162733727Y-69392394D01*
X163112306Y-69770973D01*
X163112308Y-69770976D01*
X163409760Y-70216144D01*
X163614649Y-70710789D01*
X163719100Y-71235900D01*
X163719100Y-71771300D01*
X163614649Y-72296411D01*
X163409760Y-72791056D01*
X163318457Y-72927700D01*
X163112306Y-73236227D01*
X162733727Y-73614806D01*
X162733724Y-73614808D01*
X162288556Y-73912260D01*
X161793911Y-74117149D01*
X161590550Y-74157600D01*
X161268801Y-74221600D01*
X160733399Y-74221600D01*
X160411650Y-74157600D01*
X160208289Y-74117149D01*
X159713644Y-73912260D01*
X159268476Y-73614808D01*
X159268473Y-73614806D01*
X158889894Y-73236227D01*
X158683743Y-72927700D01*
X158592440Y-72791056D01*
X158387551Y-72296411D01*
X158283100Y-71771300D01*
X158283100Y-71235900D01*
X158387551Y-70710789D01*
X158592440Y-70216144D01*
X158889892Y-69770976D01*
X158889894Y-69770973D01*
X159268473Y-69392394D01*
X159274399Y-69388435D01*
X159713644Y-69094940D01*
X160208289Y-68890051D01*
X160470845Y-68837825D01*
X160733399Y-68785600D01*
X161268801Y-68785600D01*
X161531355Y-68837825D01*
X161531355Y-68837825D01*
G37*
G36*
X142917100Y-73689600D02*
X141915100Y-73689600D01*
X141915100Y-72887600D01*
X142917100Y-72887600D01*
X142917100Y-73689600D01*
X142917100Y-73689600D01*
G37*
G36*
X144217100Y-73689600D02*
X143215100Y-73689600D01*
X143215100Y-72887600D01*
X144217100Y-72887600D01*
X144217100Y-73689600D01*
X144217100Y-73689600D01*
G37*
G36*
X149097100Y-72924600D02*
X147195100Y-72924600D01*
X147195100Y-71622600D01*
X149097100Y-71622600D01*
X149097100Y-72924600D01*
X149097100Y-72924600D01*
G37*
G36*
X151437100Y-72774600D02*
X149935100Y-72774600D01*
X149935100Y-71272600D01*
X151437100Y-71272600D01*
X151437100Y-72774600D01*
X151437100Y-72774600D01*
G37*
G36*
X144217100Y-72419600D02*
X143215100Y-72419600D01*
X143215100Y-71617600D01*
X144217100Y-71617600D01*
X144217100Y-72419600D01*
X144217100Y-72419600D01*
G37*
G36*
X142917100Y-72419600D02*
X141915100Y-72419600D01*
X141915100Y-71617600D01*
X142917100Y-71617600D01*
X142917100Y-72419600D01*
X142917100Y-72419600D01*
G37*
G36*
X148369313Y-68018849D02*
X148463752Y-68047497D01*
X148550787Y-68094018D01*
X148627075Y-68156625D01*
X148689682Y-68232913D01*
X148736203Y-68319948D01*
X148764851Y-68414387D01*
X148772100Y-68487988D01*
X148772100Y-69437212D01*
X148764851Y-69510813D01*
X148736203Y-69605252D01*
X148689682Y-69692287D01*
X148627075Y-69768575D01*
X148550787Y-69831182D01*
X148463751Y-69877703D01*
X148369312Y-69906351D01*
X148271100Y-69916024D01*
X148172887Y-69906351D01*
X148078448Y-69877703D01*
X147991413Y-69831182D01*
X147915125Y-69768575D01*
X147852518Y-69692287D01*
X147805997Y-69605251D01*
X147777349Y-69510812D01*
X147770100Y-69437211D01*
X147770100Y-68488000D01*
X147770101Y-68487988D01*
X147777350Y-68414387D01*
X147805998Y-68319948D01*
X147852519Y-68232913D01*
X147915126Y-68156625D01*
X147991414Y-68094018D01*
X148078449Y-68047497D01*
X148172888Y-68018849D01*
X148271100Y-68009176D01*
X148369313Y-68018849D01*
X148369313Y-68018849D01*
G37*
G36*
X141769313Y-68018849D02*
X141863752Y-68047497D01*
X141950787Y-68094018D01*
X142027075Y-68156625D01*
X142089682Y-68232913D01*
X142136203Y-68319948D01*
X142164851Y-68414387D01*
X142172100Y-68487988D01*
X142172100Y-69437212D01*
X142164851Y-69510813D01*
X142136203Y-69605252D01*
X142089682Y-69692287D01*
X142027075Y-69768575D01*
X141950787Y-69831182D01*
X141863751Y-69877703D01*
X141769312Y-69906351D01*
X141671100Y-69916024D01*
X141572887Y-69906351D01*
X141478448Y-69877703D01*
X141391413Y-69831182D01*
X141315125Y-69768575D01*
X141252518Y-69692287D01*
X141205997Y-69605251D01*
X141177349Y-69510812D01*
X141170100Y-69437211D01*
X141170100Y-68488000D01*
X141170101Y-68487988D01*
X141177350Y-68414387D01*
X141205998Y-68319948D01*
X141252519Y-68232913D01*
X141315126Y-68156625D01*
X141391414Y-68094018D01*
X141478449Y-68047497D01*
X141572888Y-68018849D01*
X141671100Y-68009176D01*
X141769313Y-68018849D01*
X141769313Y-68018849D01*
G37*
M02*
