G04 #@! TF.GenerationSoftware,KiCad,Pcbnew,5.0.2-bee76a0~70~ubuntu18.04.1*
G04 #@! TF.CreationDate,2019-09-11T11:18:42+02:00*
G04 #@! TF.ProjectId,easyhive_1_3,65617379-6869-4766-955f-315f332e6b69,rev?*
G04 #@! TF.SameCoordinates,Original*
G04 #@! TF.FileFunction,Soldermask,Top*
G04 #@! TF.FilePolarity,Negative*
%FSLAX46Y46*%
G04 Gerber Fmt 4.6, Leading zero omitted, Abs format (unit mm)*
G04 Created by KiCad (PCBNEW 5.0.2-bee76a0~70~ubuntu18.04.1) date Mi 11 Sep 2019 11:18:42 CEST*
%MOMM*%
%LPD*%
G01*
G04 APERTURE LIST*
%ADD10C,0.100000*%
G04 APERTURE END LIST*
D10*
G36*
X154317100Y-141859600D02*
X153315100Y-141859600D01*
X153315100Y-140757600D01*
X154317100Y-140757600D01*
X154317100Y-141859600D01*
X154317100Y-141859600D01*
G37*
G36*
X145517100Y-141859600D02*
X144515100Y-141859600D01*
X144515100Y-140757600D01*
X145517100Y-140757600D01*
X145517100Y-141859600D01*
X145517100Y-141859600D01*
G37*
G36*
X136531355Y-135837825D02*
X136793911Y-135890051D01*
X137288556Y-136094940D01*
X137727801Y-136388435D01*
X137733727Y-136392394D01*
X138112306Y-136770973D01*
X138112308Y-136770976D01*
X138409760Y-137216144D01*
X138538105Y-137525995D01*
X138614649Y-137710790D01*
X138719100Y-138235899D01*
X138719100Y-138771301D01*
X138614649Y-139296410D01*
X138409761Y-139791054D01*
X138112306Y-140236227D01*
X137733727Y-140614806D01*
X137733724Y-140614808D01*
X137288556Y-140912260D01*
X136793911Y-141117149D01*
X136531355Y-141169375D01*
X136268801Y-141221600D01*
X135733399Y-141221600D01*
X135470845Y-141169375D01*
X135208289Y-141117149D01*
X134713644Y-140912260D01*
X134268476Y-140614808D01*
X134268473Y-140614806D01*
X133889894Y-140236227D01*
X133592439Y-139791054D01*
X133387551Y-139296410D01*
X133283100Y-138771301D01*
X133283100Y-138235899D01*
X133387551Y-137710790D01*
X133464096Y-137525995D01*
X133592440Y-137216144D01*
X133889892Y-136770976D01*
X133889894Y-136770973D01*
X134268473Y-136392394D01*
X134274399Y-136388435D01*
X134713644Y-136094940D01*
X135208289Y-135890051D01*
X135470845Y-135837825D01*
X135733399Y-135785600D01*
X136268801Y-135785600D01*
X136531355Y-135837825D01*
X136531355Y-135837825D01*
G37*
G36*
X161531355Y-135837825D02*
X161793911Y-135890051D01*
X162288556Y-136094940D01*
X162727801Y-136388435D01*
X162733727Y-136392394D01*
X163112306Y-136770973D01*
X163112308Y-136770976D01*
X163409760Y-137216144D01*
X163538105Y-137525995D01*
X163614649Y-137710790D01*
X163719100Y-138235899D01*
X163719100Y-138771301D01*
X163614649Y-139296410D01*
X163409761Y-139791054D01*
X163112306Y-140236227D01*
X162733727Y-140614806D01*
X162733724Y-140614808D01*
X162288556Y-140912260D01*
X161793911Y-141117149D01*
X161531355Y-141169375D01*
X161268801Y-141221600D01*
X160733399Y-141221600D01*
X160470845Y-141169375D01*
X160208289Y-141117149D01*
X159713644Y-140912260D01*
X159268476Y-140614808D01*
X159268473Y-140614806D01*
X158889894Y-140236227D01*
X158592439Y-139791054D01*
X158387551Y-139296410D01*
X158283100Y-138771301D01*
X158283100Y-138235899D01*
X158387551Y-137710790D01*
X158464096Y-137525995D01*
X158592440Y-137216144D01*
X158889892Y-136770976D01*
X158889894Y-136770973D01*
X159268473Y-136392394D01*
X159274399Y-136388435D01*
X159713644Y-136094940D01*
X160208289Y-135890051D01*
X160470845Y-135837825D01*
X160733399Y-135785600D01*
X161268801Y-135785600D01*
X161531355Y-135837825D01*
X161531355Y-135837825D01*
G37*
G36*
X142669296Y-136688399D02*
X142689670Y-136702013D01*
X142712309Y-136711392D01*
X142736342Y-136716174D01*
X142760846Y-136716175D01*
X142784880Y-136711395D01*
X142807519Y-136702019D01*
X142827895Y-136688406D01*
X142836201Y-136680100D01*
X143649600Y-136680100D01*
X143649600Y-137532100D01*
X142836202Y-137532100D01*
X142827904Y-137523801D01*
X142807530Y-137510187D01*
X142784891Y-137500808D01*
X142760858Y-137496026D01*
X142736354Y-137496025D01*
X142712320Y-137500805D01*
X142689681Y-137510181D01*
X142669305Y-137523794D01*
X142660999Y-137532100D01*
X141847600Y-137532100D01*
X141847600Y-136680100D01*
X142660998Y-136680100D01*
X142669296Y-136688399D01*
X142669296Y-136688399D01*
G37*
G36*
X154237100Y-136539600D02*
X153785100Y-136539600D01*
X153785100Y-134637600D01*
X154237100Y-134637600D01*
X154237100Y-136539600D01*
X154237100Y-136539600D01*
G37*
G36*
X145046100Y-136539600D02*
X144594100Y-136539600D01*
X144594100Y-134637600D01*
X145046100Y-134637600D01*
X145046100Y-136539600D01*
X145046100Y-136539600D01*
G37*
G36*
X156004296Y-135100899D02*
X156024670Y-135114513D01*
X156047309Y-135123892D01*
X156071342Y-135128674D01*
X156095846Y-135128675D01*
X156119880Y-135123895D01*
X156142519Y-135114519D01*
X156162895Y-135100906D01*
X156171201Y-135092600D01*
X156984600Y-135092600D01*
X156984600Y-135944600D01*
X156171202Y-135944600D01*
X156162904Y-135936301D01*
X156142530Y-135922687D01*
X156119891Y-135913308D01*
X156095858Y-135908526D01*
X156071354Y-135908525D01*
X156047320Y-135913305D01*
X156024681Y-135922681D01*
X156004305Y-135936294D01*
X155995999Y-135944600D01*
X155182600Y-135944600D01*
X155182600Y-135092600D01*
X155995998Y-135092600D01*
X156004296Y-135100899D01*
X156004296Y-135100899D01*
G37*
G36*
X142599600Y-135919600D02*
X141597600Y-135919600D01*
X141597600Y-135117600D01*
X142599600Y-135117600D01*
X142599600Y-135919600D01*
X142599600Y-135919600D01*
G37*
G36*
X143899600Y-135919600D02*
X142897600Y-135919600D01*
X142897600Y-135117600D01*
X143899600Y-135117600D01*
X143899600Y-135919600D01*
X143899600Y-135919600D01*
G37*
G36*
X134260467Y-124648571D02*
X134260469Y-124648572D01*
X134260470Y-124648572D01*
X134320247Y-124673332D01*
X134422295Y-124715602D01*
X134567935Y-124812916D01*
X134691784Y-124936765D01*
X134789098Y-125082405D01*
X134856129Y-125244233D01*
X134890300Y-125416020D01*
X134890300Y-125591180D01*
X134856129Y-125762967D01*
X134789098Y-125924795D01*
X134691784Y-126070435D01*
X134567935Y-126194284D01*
X134422295Y-126291598D01*
X134320247Y-126333868D01*
X134260470Y-126358628D01*
X134260469Y-126358628D01*
X134260467Y-126358629D01*
X134147992Y-126381002D01*
X134124543Y-126388115D01*
X134102932Y-126399666D01*
X134083990Y-126415212D01*
X134068444Y-126434154D01*
X134056893Y-126455764D01*
X134049780Y-126479214D01*
X134047378Y-126503600D01*
X134049780Y-126527986D01*
X134056893Y-126551435D01*
X134068444Y-126573046D01*
X134083990Y-126591988D01*
X134102932Y-126607534D01*
X134124542Y-126619085D01*
X134147992Y-126626198D01*
X134260467Y-126648571D01*
X134260469Y-126648572D01*
X134260470Y-126648572D01*
X134320247Y-126673332D01*
X134422295Y-126715602D01*
X134567935Y-126812916D01*
X134691784Y-126936765D01*
X134789098Y-127082405D01*
X134856129Y-127244233D01*
X134890300Y-127416020D01*
X134890300Y-127591180D01*
X134856129Y-127762967D01*
X134789098Y-127924795D01*
X134691784Y-128070435D01*
X134567935Y-128194284D01*
X134422295Y-128291598D01*
X134402976Y-128299600D01*
X134260470Y-128358628D01*
X134260469Y-128358628D01*
X134260467Y-128358629D01*
X134147992Y-128381002D01*
X134124543Y-128388115D01*
X134102932Y-128399666D01*
X134083990Y-128415212D01*
X134068444Y-128434154D01*
X134056893Y-128455764D01*
X134049780Y-128479214D01*
X134047378Y-128503600D01*
X134049780Y-128527986D01*
X134056893Y-128551435D01*
X134068444Y-128573046D01*
X134083990Y-128591988D01*
X134102932Y-128607534D01*
X134124542Y-128619085D01*
X134147992Y-128626198D01*
X134260467Y-128648571D01*
X134260469Y-128648572D01*
X134260470Y-128648572D01*
X134320247Y-128673332D01*
X134422295Y-128715602D01*
X134567935Y-128812916D01*
X134691784Y-128936765D01*
X134789098Y-129082405D01*
X134856129Y-129244233D01*
X134890300Y-129416020D01*
X134890300Y-129591180D01*
X134856129Y-129762967D01*
X134789098Y-129924795D01*
X134691784Y-130070435D01*
X134567935Y-130194284D01*
X134422295Y-130291598D01*
X134320247Y-130333868D01*
X134260470Y-130358628D01*
X134260469Y-130358628D01*
X134260467Y-130358629D01*
X134147992Y-130381002D01*
X134124543Y-130388115D01*
X134102932Y-130399666D01*
X134083990Y-130415212D01*
X134068444Y-130434154D01*
X134056893Y-130455764D01*
X134049780Y-130479214D01*
X134047378Y-130503600D01*
X134049780Y-130527986D01*
X134056893Y-130551435D01*
X134068444Y-130573046D01*
X134083990Y-130591988D01*
X134102932Y-130607534D01*
X134124542Y-130619085D01*
X134147992Y-130626198D01*
X134260467Y-130648571D01*
X134260469Y-130648572D01*
X134260470Y-130648572D01*
X134320247Y-130673332D01*
X134422295Y-130715602D01*
X134567935Y-130812916D01*
X134691784Y-130936765D01*
X134789098Y-131082405D01*
X134856129Y-131244233D01*
X134890300Y-131416020D01*
X134890300Y-131591180D01*
X134856129Y-131762967D01*
X134789098Y-131924795D01*
X134691784Y-132070435D01*
X134567935Y-132194284D01*
X134422295Y-132291598D01*
X134320247Y-132333868D01*
X134260470Y-132358628D01*
X134260469Y-132358628D01*
X134260467Y-132358629D01*
X134147992Y-132381002D01*
X134124543Y-132388115D01*
X134102932Y-132399666D01*
X134083990Y-132415212D01*
X134068444Y-132434154D01*
X134056893Y-132455764D01*
X134049780Y-132479214D01*
X134047378Y-132503600D01*
X134049780Y-132527986D01*
X134056893Y-132551435D01*
X134068444Y-132573046D01*
X134083990Y-132591988D01*
X134102932Y-132607534D01*
X134124542Y-132619085D01*
X134147992Y-132626198D01*
X134260467Y-132648571D01*
X134260469Y-132648572D01*
X134260470Y-132648572D01*
X134320247Y-132673332D01*
X134422295Y-132715602D01*
X134567935Y-132812916D01*
X134691784Y-132936765D01*
X134789098Y-133082405D01*
X134856129Y-133244233D01*
X134890300Y-133416020D01*
X134890300Y-133591180D01*
X134856129Y-133762967D01*
X134789098Y-133924795D01*
X134691784Y-134070435D01*
X134567935Y-134194284D01*
X134422295Y-134291598D01*
X134339704Y-134325808D01*
X134260470Y-134358628D01*
X134260469Y-134358628D01*
X134260467Y-134358629D01*
X134088680Y-134392800D01*
X133913520Y-134392800D01*
X133741733Y-134358629D01*
X133741731Y-134358628D01*
X133741730Y-134358628D01*
X133662496Y-134325808D01*
X133579905Y-134291598D01*
X133434265Y-134194284D01*
X133310416Y-134070435D01*
X133213102Y-133924795D01*
X133146071Y-133762967D01*
X133111900Y-133591180D01*
X133111900Y-133416020D01*
X133146071Y-133244233D01*
X133213102Y-133082405D01*
X133310416Y-132936765D01*
X133434265Y-132812916D01*
X133579905Y-132715602D01*
X133681953Y-132673332D01*
X133741730Y-132648572D01*
X133741731Y-132648572D01*
X133741733Y-132648571D01*
X133854208Y-132626198D01*
X133877657Y-132619085D01*
X133899268Y-132607534D01*
X133918210Y-132591988D01*
X133933756Y-132573046D01*
X133945307Y-132551436D01*
X133952420Y-132527986D01*
X133954822Y-132503600D01*
X133952420Y-132479214D01*
X133945307Y-132455765D01*
X133933756Y-132434154D01*
X133918210Y-132415212D01*
X133899268Y-132399666D01*
X133877658Y-132388115D01*
X133854208Y-132381002D01*
X133741733Y-132358629D01*
X133741731Y-132358628D01*
X133741730Y-132358628D01*
X133681953Y-132333868D01*
X133579905Y-132291598D01*
X133434265Y-132194284D01*
X133310416Y-132070435D01*
X133213102Y-131924795D01*
X133146071Y-131762967D01*
X133111900Y-131591180D01*
X133111900Y-131416020D01*
X133146071Y-131244233D01*
X133213102Y-131082405D01*
X133310416Y-130936765D01*
X133434265Y-130812916D01*
X133579905Y-130715602D01*
X133681953Y-130673332D01*
X133741730Y-130648572D01*
X133741731Y-130648572D01*
X133741733Y-130648571D01*
X133854208Y-130626198D01*
X133877657Y-130619085D01*
X133899268Y-130607534D01*
X133918210Y-130591988D01*
X133933756Y-130573046D01*
X133945307Y-130551436D01*
X133952420Y-130527986D01*
X133954822Y-130503600D01*
X133952420Y-130479214D01*
X133945307Y-130455765D01*
X133933756Y-130434154D01*
X133918210Y-130415212D01*
X133899268Y-130399666D01*
X133877658Y-130388115D01*
X133854208Y-130381002D01*
X133741733Y-130358629D01*
X133741731Y-130358628D01*
X133741730Y-130358628D01*
X133681953Y-130333868D01*
X133579905Y-130291598D01*
X133434265Y-130194284D01*
X133310416Y-130070435D01*
X133213102Y-129924795D01*
X133146071Y-129762967D01*
X133111900Y-129591180D01*
X133111900Y-129416020D01*
X133146071Y-129244233D01*
X133213102Y-129082405D01*
X133310416Y-128936765D01*
X133434265Y-128812916D01*
X133579905Y-128715602D01*
X133681953Y-128673332D01*
X133741730Y-128648572D01*
X133741731Y-128648572D01*
X133741733Y-128648571D01*
X133854208Y-128626198D01*
X133877657Y-128619085D01*
X133899268Y-128607534D01*
X133918210Y-128591988D01*
X133933756Y-128573046D01*
X133945307Y-128551436D01*
X133952420Y-128527986D01*
X133954822Y-128503600D01*
X133952420Y-128479214D01*
X133945307Y-128455765D01*
X133933756Y-128434154D01*
X133918210Y-128415212D01*
X133899268Y-128399666D01*
X133877658Y-128388115D01*
X133854208Y-128381002D01*
X133741733Y-128358629D01*
X133741731Y-128358628D01*
X133741730Y-128358628D01*
X133599224Y-128299600D01*
X133579905Y-128291598D01*
X133434265Y-128194284D01*
X133310416Y-128070435D01*
X133213102Y-127924795D01*
X133146071Y-127762967D01*
X133111900Y-127591180D01*
X133111900Y-127416020D01*
X133146071Y-127244233D01*
X133213102Y-127082405D01*
X133310416Y-126936765D01*
X133434265Y-126812916D01*
X133579905Y-126715602D01*
X133681953Y-126673332D01*
X133741730Y-126648572D01*
X133741731Y-126648572D01*
X133741733Y-126648571D01*
X133854208Y-126626198D01*
X133877657Y-126619085D01*
X133899268Y-126607534D01*
X133918210Y-126591988D01*
X133933756Y-126573046D01*
X133945307Y-126551436D01*
X133952420Y-126527986D01*
X133954822Y-126503600D01*
X133952420Y-126479214D01*
X133945307Y-126455765D01*
X133933756Y-126434154D01*
X133918210Y-126415212D01*
X133899268Y-126399666D01*
X133877658Y-126388115D01*
X133854208Y-126381002D01*
X133741733Y-126358629D01*
X133741731Y-126358628D01*
X133741730Y-126358628D01*
X133681953Y-126333868D01*
X133579905Y-126291598D01*
X133434265Y-126194284D01*
X133310416Y-126070435D01*
X133213102Y-125924795D01*
X133146071Y-125762967D01*
X133111900Y-125591180D01*
X133111900Y-125416020D01*
X133146071Y-125244233D01*
X133213102Y-125082405D01*
X133310416Y-124936765D01*
X133434265Y-124812916D01*
X133579905Y-124715602D01*
X133681953Y-124673332D01*
X133741730Y-124648572D01*
X133741731Y-124648572D01*
X133741733Y-124648571D01*
X133913520Y-124614400D01*
X134088680Y-124614400D01*
X134260467Y-124648571D01*
X134260467Y-124648571D01*
G37*
G36*
X156004296Y-133513399D02*
X156024670Y-133527013D01*
X156047309Y-133536392D01*
X156071342Y-133541174D01*
X156095846Y-133541175D01*
X156119880Y-133536395D01*
X156142519Y-133527019D01*
X156162895Y-133513406D01*
X156171201Y-133505100D01*
X156984600Y-133505100D01*
X156984600Y-134357100D01*
X156171202Y-134357100D01*
X156162904Y-134348801D01*
X156142530Y-134335187D01*
X156119891Y-134325808D01*
X156095858Y-134321026D01*
X156071354Y-134321025D01*
X156047320Y-134325805D01*
X156024681Y-134335181D01*
X156004305Y-134348794D01*
X155995999Y-134357100D01*
X155182600Y-134357100D01*
X155182600Y-133505100D01*
X155995998Y-133505100D01*
X156004296Y-133513399D01*
X156004296Y-133513399D01*
G37*
G36*
X142669296Y-132878399D02*
X142689670Y-132892013D01*
X142712309Y-132901392D01*
X142736342Y-132906174D01*
X142760846Y-132906175D01*
X142784880Y-132901395D01*
X142807519Y-132892019D01*
X142827895Y-132878406D01*
X142836201Y-132870100D01*
X143649600Y-132870100D01*
X143649600Y-133722100D01*
X142836202Y-133722100D01*
X142827904Y-133713801D01*
X142807530Y-133700187D01*
X142784891Y-133690808D01*
X142760858Y-133686026D01*
X142736354Y-133686025D01*
X142712320Y-133690805D01*
X142689681Y-133700181D01*
X142669305Y-133713794D01*
X142660999Y-133722100D01*
X141847600Y-133722100D01*
X141847600Y-132870100D01*
X142660998Y-132870100D01*
X142669296Y-132878399D01*
X142669296Y-132878399D01*
G37*
G36*
X155934600Y-132744600D02*
X154932600Y-132744600D01*
X154932600Y-131942600D01*
X155934600Y-131942600D01*
X155934600Y-132744600D01*
X155934600Y-132744600D01*
G37*
G36*
X157234600Y-132744600D02*
X156232600Y-132744600D01*
X156232600Y-131942600D01*
X157234600Y-131942600D01*
X157234600Y-132744600D01*
X157234600Y-132744600D01*
G37*
G36*
X142599600Y-132109600D02*
X141597600Y-132109600D01*
X141597600Y-131307600D01*
X142599600Y-131307600D01*
X142599600Y-132109600D01*
X142599600Y-132109600D01*
G37*
G36*
X143899600Y-132109600D02*
X142897600Y-132109600D01*
X142897600Y-131307600D01*
X143899600Y-131307600D01*
X143899600Y-132109600D01*
X143899600Y-132109600D01*
G37*
G36*
X145046100Y-130789600D02*
X144594100Y-130789600D01*
X144594100Y-128887600D01*
X145046100Y-128887600D01*
X145046100Y-130789600D01*
X145046100Y-130789600D01*
G37*
G36*
X154237100Y-130789600D02*
X153785100Y-130789600D01*
X153785100Y-128887600D01*
X154237100Y-128887600D01*
X154237100Y-130789600D01*
X154237100Y-130789600D01*
G37*
G36*
X142669296Y-129068399D02*
X142689670Y-129082013D01*
X142712309Y-129091392D01*
X142736342Y-129096174D01*
X142760846Y-129096175D01*
X142784880Y-129091395D01*
X142807519Y-129082019D01*
X142827895Y-129068406D01*
X142836201Y-129060100D01*
X143649600Y-129060100D01*
X143649600Y-129912100D01*
X142836202Y-129912100D01*
X142827904Y-129903801D01*
X142807530Y-129890187D01*
X142784891Y-129880808D01*
X142760858Y-129876026D01*
X142736354Y-129876025D01*
X142712320Y-129880805D01*
X142689681Y-129890181D01*
X142669305Y-129903794D01*
X142660999Y-129912100D01*
X141847600Y-129912100D01*
X141847600Y-129060100D01*
X142660998Y-129060100D01*
X142669296Y-129068399D01*
X142669296Y-129068399D01*
G37*
G36*
X150432100Y-129869600D02*
X149680100Y-129869600D01*
X149680100Y-128467600D01*
X150432100Y-128467600D01*
X150432100Y-129869600D01*
X150432100Y-129869600D01*
G37*
G36*
X149162100Y-129869600D02*
X148410100Y-129869600D01*
X148410100Y-128467600D01*
X149162100Y-128467600D01*
X149162100Y-129869600D01*
X149162100Y-129869600D01*
G37*
G36*
X147892100Y-129869600D02*
X147140100Y-129869600D01*
X147140100Y-128467600D01*
X147892100Y-128467600D01*
X147892100Y-129869600D01*
X147892100Y-129869600D01*
G37*
G36*
X146622100Y-129869600D02*
X145870100Y-129869600D01*
X145870100Y-128467600D01*
X146622100Y-128467600D01*
X146622100Y-129869600D01*
X146622100Y-129869600D01*
G37*
G36*
X151702100Y-129869600D02*
X150950100Y-129869600D01*
X150950100Y-128467600D01*
X151702100Y-128467600D01*
X151702100Y-129869600D01*
X151702100Y-129869600D01*
G37*
G36*
X152972100Y-129869600D02*
X152220100Y-129869600D01*
X152220100Y-128467600D01*
X152972100Y-128467600D01*
X152972100Y-129869600D01*
X152972100Y-129869600D01*
G37*
G36*
X143899600Y-128299600D02*
X142897600Y-128299600D01*
X142897600Y-127497600D01*
X143899600Y-127497600D01*
X143899600Y-128299600D01*
X143899600Y-128299600D01*
G37*
G36*
X142599600Y-128299600D02*
X141597600Y-128299600D01*
X141597600Y-127497600D01*
X142599600Y-127497600D01*
X142599600Y-128299600D01*
X142599600Y-128299600D01*
G37*
G36*
X148234087Y-126821265D02*
X148318691Y-126846929D01*
X148396663Y-126888606D01*
X148465006Y-126944694D01*
X148521094Y-127013037D01*
X148562771Y-127091009D01*
X148588435Y-127175613D01*
X148597101Y-127263599D01*
X148597101Y-127263601D01*
X148588435Y-127351587D01*
X148562771Y-127436191D01*
X148521094Y-127514163D01*
X148465006Y-127582506D01*
X148396663Y-127638594D01*
X148318691Y-127680271D01*
X148234087Y-127705935D01*
X148146101Y-127714601D01*
X148146099Y-127714601D01*
X148058113Y-127705935D01*
X147973509Y-127680271D01*
X147895537Y-127638594D01*
X147827194Y-127582506D01*
X147771106Y-127514163D01*
X147729429Y-127436191D01*
X147703765Y-127351587D01*
X147695099Y-127263601D01*
X147695099Y-127263599D01*
X147703765Y-127175613D01*
X147729429Y-127091009D01*
X147771106Y-127013037D01*
X147827194Y-126944694D01*
X147895537Y-126888606D01*
X147973509Y-126846929D01*
X148058113Y-126821265D01*
X148146099Y-126812599D01*
X148146101Y-126812599D01*
X148234087Y-126821265D01*
X148234087Y-126821265D01*
G37*
G36*
X157272100Y-101922600D02*
X157274502Y-101946986D01*
X157281615Y-101970435D01*
X157293166Y-101992046D01*
X157308712Y-102010988D01*
X157327654Y-102026534D01*
X157349265Y-102038085D01*
X157372714Y-102045198D01*
X157397100Y-102047600D01*
X159072100Y-102047600D01*
X159072100Y-124949600D01*
X157397100Y-124949600D01*
X157372714Y-124952002D01*
X157349265Y-124959115D01*
X157327654Y-124970666D01*
X157308712Y-124986212D01*
X157293166Y-125005154D01*
X157281615Y-125026765D01*
X157274502Y-125050214D01*
X157272100Y-125074600D01*
X157272100Y-126249600D01*
X145370100Y-126249600D01*
X145370100Y-125074600D01*
X145367698Y-125050214D01*
X145360585Y-125026765D01*
X145349034Y-125005154D01*
X145333488Y-124986212D01*
X145314546Y-124970666D01*
X145292935Y-124959115D01*
X145269486Y-124952002D01*
X145245100Y-124949600D01*
X143570100Y-124949600D01*
X143570100Y-102474600D01*
X145172100Y-102474600D01*
X145172100Y-124522600D01*
X145174502Y-124546986D01*
X145181615Y-124570435D01*
X145193166Y-124592046D01*
X145208712Y-124610988D01*
X145227654Y-124626534D01*
X145249265Y-124638085D01*
X145272714Y-124645198D01*
X145297100Y-124647600D01*
X157345100Y-124647600D01*
X157369486Y-124645198D01*
X157392935Y-124638085D01*
X157414546Y-124626534D01*
X157433488Y-124610988D01*
X157449034Y-124592046D01*
X157460585Y-124570435D01*
X157467698Y-124546986D01*
X157470100Y-124522600D01*
X157470100Y-102474600D01*
X157467698Y-102450214D01*
X157460585Y-102426765D01*
X157449034Y-102405154D01*
X157433488Y-102386212D01*
X157414546Y-102370666D01*
X157392935Y-102359115D01*
X157369486Y-102352002D01*
X157345100Y-102349600D01*
X145297100Y-102349600D01*
X145272714Y-102352002D01*
X145249265Y-102359115D01*
X145227654Y-102370666D01*
X145208712Y-102386212D01*
X145193166Y-102405154D01*
X145181615Y-102426765D01*
X145174502Y-102450214D01*
X145172100Y-102474600D01*
X143570100Y-102474600D01*
X143570100Y-102047600D01*
X145245100Y-102047600D01*
X145269486Y-102045198D01*
X145292935Y-102038085D01*
X145314546Y-102026534D01*
X145333488Y-102010988D01*
X145349034Y-101992046D01*
X145360585Y-101970435D01*
X145367698Y-101946986D01*
X145370100Y-101922600D01*
X145370100Y-100747600D01*
X157272100Y-100747600D01*
X157272100Y-101922600D01*
X157272100Y-101922600D01*
G37*
G36*
X148772100Y-124349600D02*
X147570100Y-124349600D01*
X147570100Y-123147600D01*
X148772100Y-123147600D01*
X148772100Y-124349600D01*
X148772100Y-124349600D01*
G37*
G36*
X155072100Y-124349600D02*
X153870100Y-124349600D01*
X153870100Y-123147600D01*
X155072100Y-123147600D01*
X155072100Y-124349600D01*
X155072100Y-124349600D01*
G37*
G36*
X152972100Y-124349600D02*
X151770100Y-124349600D01*
X151770100Y-123147600D01*
X152972100Y-123147600D01*
X152972100Y-124349600D01*
X152972100Y-124349600D01*
G37*
G36*
X150872100Y-124349600D02*
X149670100Y-124349600D01*
X149670100Y-123147600D01*
X150872100Y-123147600D01*
X150872100Y-124349600D01*
X150872100Y-124349600D01*
G37*
G36*
X146672100Y-124349600D02*
X145470100Y-124349600D01*
X145470100Y-123147600D01*
X146672100Y-123147600D01*
X146672100Y-124349600D01*
X146672100Y-124349600D01*
G37*
G36*
X157172100Y-124349600D02*
X155970100Y-124349600D01*
X155970100Y-123147600D01*
X157172100Y-123147600D01*
X157172100Y-124349600D01*
X157172100Y-124349600D01*
G37*
G36*
X150872100Y-122549600D02*
X149670100Y-122549600D01*
X149670100Y-121347600D01*
X150872100Y-121347600D01*
X150872100Y-122549600D01*
X150872100Y-122549600D01*
G37*
G36*
X155072100Y-122549600D02*
X153870100Y-122549600D01*
X153870100Y-121347600D01*
X155072100Y-121347600D01*
X155072100Y-122549600D01*
X155072100Y-122549600D01*
G37*
G36*
X152972100Y-122549600D02*
X151770100Y-122549600D01*
X151770100Y-121347600D01*
X152972100Y-121347600D01*
X152972100Y-122549600D01*
X152972100Y-122549600D01*
G37*
G36*
X148772100Y-122549600D02*
X147570100Y-122549600D01*
X147570100Y-121347600D01*
X148772100Y-121347600D01*
X148772100Y-122549600D01*
X148772100Y-122549600D01*
G37*
G36*
X146672100Y-122549600D02*
X145470100Y-122549600D01*
X145470100Y-121347600D01*
X146672100Y-121347600D01*
X146672100Y-122549600D01*
X146672100Y-122549600D01*
G37*
G36*
X157172100Y-122549600D02*
X155970100Y-122549600D01*
X155970100Y-121347600D01*
X157172100Y-121347600D01*
X157172100Y-122549600D01*
X157172100Y-122549600D01*
G37*
G36*
X157172100Y-120749600D02*
X155970100Y-120749600D01*
X155970100Y-119547600D01*
X157172100Y-119547600D01*
X157172100Y-120749600D01*
X157172100Y-120749600D01*
G37*
G36*
X146672100Y-120749600D02*
X145470100Y-120749600D01*
X145470100Y-119547600D01*
X146672100Y-119547600D01*
X146672100Y-120749600D01*
X146672100Y-120749600D01*
G37*
G36*
X157172100Y-117149600D02*
X155970100Y-117149600D01*
X155970100Y-115947600D01*
X157172100Y-115947600D01*
X157172100Y-117149600D01*
X157172100Y-117149600D01*
G37*
G36*
X146672100Y-117149600D02*
X145470100Y-117149600D01*
X145470100Y-115947600D01*
X146672100Y-115947600D01*
X146672100Y-117149600D01*
X146672100Y-117149600D01*
G37*
G36*
X157172100Y-111049600D02*
X155970100Y-111049600D01*
X155970100Y-109847600D01*
X157172100Y-109847600D01*
X157172100Y-111049600D01*
X157172100Y-111049600D01*
G37*
G36*
X146672100Y-111049600D02*
X145470100Y-111049600D01*
X145470100Y-109847600D01*
X146672100Y-109847600D01*
X146672100Y-111049600D01*
X146672100Y-111049600D01*
G37*
G36*
X146672100Y-107449600D02*
X145470100Y-107449600D01*
X145470100Y-106247600D01*
X146672100Y-106247600D01*
X146672100Y-107449600D01*
X146672100Y-107449600D01*
G37*
G36*
X157172100Y-107449600D02*
X155970100Y-107449600D01*
X155970100Y-106247600D01*
X157172100Y-106247600D01*
X157172100Y-107449600D01*
X157172100Y-107449600D01*
G37*
G36*
X148772100Y-105649600D02*
X147570100Y-105649600D01*
X147570100Y-104447600D01*
X148772100Y-104447600D01*
X148772100Y-105649600D01*
X148772100Y-105649600D01*
G37*
G36*
X146672100Y-105649600D02*
X145470100Y-105649600D01*
X145470100Y-104447600D01*
X146672100Y-104447600D01*
X146672100Y-105649600D01*
X146672100Y-105649600D01*
G37*
G36*
X150872100Y-105649600D02*
X149670100Y-105649600D01*
X149670100Y-104447600D01*
X150872100Y-104447600D01*
X150872100Y-105649600D01*
X150872100Y-105649600D01*
G37*
G36*
X155072100Y-105649600D02*
X153870100Y-105649600D01*
X153870100Y-104447600D01*
X155072100Y-104447600D01*
X155072100Y-105649600D01*
X155072100Y-105649600D01*
G37*
G36*
X157172100Y-105649600D02*
X155970100Y-105649600D01*
X155970100Y-104447600D01*
X157172100Y-104447600D01*
X157172100Y-105649600D01*
X157172100Y-105649600D01*
G37*
G36*
X152972100Y-105649600D02*
X151770100Y-105649600D01*
X151770100Y-104447600D01*
X152972100Y-104447600D01*
X152972100Y-105649600D01*
X152972100Y-105649600D01*
G37*
G36*
X155072100Y-103849600D02*
X153870100Y-103849600D01*
X153870100Y-102647600D01*
X155072100Y-102647600D01*
X155072100Y-103849600D01*
X155072100Y-103849600D01*
G37*
G36*
X150872100Y-103849600D02*
X149670100Y-103849600D01*
X149670100Y-102647600D01*
X150872100Y-102647600D01*
X150872100Y-103849600D01*
X150872100Y-103849600D01*
G37*
G36*
X146672100Y-103849600D02*
X145470100Y-103849600D01*
X145470100Y-102647600D01*
X146672100Y-102647600D01*
X146672100Y-103849600D01*
X146672100Y-103849600D01*
G37*
G36*
X152972100Y-103849600D02*
X151770100Y-103849600D01*
X151770100Y-102647600D01*
X152972100Y-102647600D01*
X152972100Y-103849600D01*
X152972100Y-103849600D01*
G37*
G36*
X157172100Y-103849600D02*
X155970100Y-103849600D01*
X155970100Y-102647600D01*
X157172100Y-102647600D01*
X157172100Y-103849600D01*
X157172100Y-103849600D01*
G37*
G36*
X148772100Y-103849600D02*
X147570100Y-103849600D01*
X147570100Y-102647600D01*
X148772100Y-102647600D01*
X148772100Y-103849600D01*
X148772100Y-103849600D01*
G37*
G36*
X134260467Y-112648571D02*
X134260469Y-112648572D01*
X134260470Y-112648572D01*
X134320247Y-112673332D01*
X134422295Y-112715602D01*
X134567935Y-112812916D01*
X134691784Y-112936765D01*
X134789098Y-113082405D01*
X134856129Y-113244233D01*
X134890300Y-113416020D01*
X134890300Y-113591180D01*
X134856129Y-113762967D01*
X134789098Y-113924795D01*
X134691784Y-114070435D01*
X134567935Y-114194284D01*
X134422295Y-114291598D01*
X134320247Y-114333868D01*
X134260470Y-114358628D01*
X134260469Y-114358628D01*
X134260467Y-114358629D01*
X134147992Y-114381002D01*
X134124543Y-114388115D01*
X134102932Y-114399666D01*
X134083990Y-114415212D01*
X134068444Y-114434154D01*
X134056893Y-114455764D01*
X134049780Y-114479214D01*
X134047378Y-114503600D01*
X134049780Y-114527986D01*
X134056893Y-114551435D01*
X134068444Y-114573046D01*
X134083990Y-114591988D01*
X134102932Y-114607534D01*
X134124542Y-114619085D01*
X134147992Y-114626198D01*
X134260467Y-114648571D01*
X134260469Y-114648572D01*
X134260470Y-114648572D01*
X134320247Y-114673332D01*
X134422295Y-114715602D01*
X134567935Y-114812916D01*
X134691784Y-114936765D01*
X134789098Y-115082405D01*
X134856129Y-115244233D01*
X134890300Y-115416020D01*
X134890300Y-115591180D01*
X134856129Y-115762967D01*
X134789098Y-115924795D01*
X134691784Y-116070435D01*
X134567935Y-116194284D01*
X134422295Y-116291598D01*
X134320247Y-116333868D01*
X134260470Y-116358628D01*
X134260469Y-116358628D01*
X134260467Y-116358629D01*
X134147992Y-116381002D01*
X134124543Y-116388115D01*
X134102932Y-116399666D01*
X134083990Y-116415212D01*
X134068444Y-116434154D01*
X134056893Y-116455764D01*
X134049780Y-116479214D01*
X134047378Y-116503600D01*
X134049780Y-116527986D01*
X134056893Y-116551435D01*
X134068444Y-116573046D01*
X134083990Y-116591988D01*
X134102932Y-116607534D01*
X134124542Y-116619085D01*
X134147992Y-116626198D01*
X134260467Y-116648571D01*
X134260469Y-116648572D01*
X134260470Y-116648572D01*
X134320247Y-116673332D01*
X134422295Y-116715602D01*
X134567935Y-116812916D01*
X134691784Y-116936765D01*
X134789098Y-117082405D01*
X134856129Y-117244233D01*
X134890300Y-117416020D01*
X134890300Y-117591180D01*
X134856129Y-117762967D01*
X134789098Y-117924795D01*
X134691784Y-118070435D01*
X134567935Y-118194284D01*
X134422295Y-118291598D01*
X134320247Y-118333868D01*
X134260470Y-118358628D01*
X134260469Y-118358628D01*
X134260467Y-118358629D01*
X134147992Y-118381002D01*
X134124543Y-118388115D01*
X134102932Y-118399666D01*
X134083990Y-118415212D01*
X134068444Y-118434154D01*
X134056893Y-118455764D01*
X134049780Y-118479214D01*
X134047378Y-118503600D01*
X134049780Y-118527986D01*
X134056893Y-118551435D01*
X134068444Y-118573046D01*
X134083990Y-118591988D01*
X134102932Y-118607534D01*
X134124542Y-118619085D01*
X134147992Y-118626198D01*
X134260467Y-118648571D01*
X134260469Y-118648572D01*
X134260470Y-118648572D01*
X134320247Y-118673332D01*
X134422295Y-118715602D01*
X134567935Y-118812916D01*
X134691784Y-118936765D01*
X134789098Y-119082405D01*
X134856129Y-119244233D01*
X134890300Y-119416020D01*
X134890300Y-119591180D01*
X134856129Y-119762967D01*
X134789098Y-119924795D01*
X134691784Y-120070435D01*
X134567935Y-120194284D01*
X134422295Y-120291598D01*
X134320247Y-120333868D01*
X134260470Y-120358628D01*
X134260469Y-120358628D01*
X134260467Y-120358629D01*
X134147992Y-120381002D01*
X134124543Y-120388115D01*
X134102932Y-120399666D01*
X134083990Y-120415212D01*
X134068444Y-120434154D01*
X134056893Y-120455764D01*
X134049780Y-120479214D01*
X134047378Y-120503600D01*
X134049780Y-120527986D01*
X134056893Y-120551435D01*
X134068444Y-120573046D01*
X134083990Y-120591988D01*
X134102932Y-120607534D01*
X134124542Y-120619085D01*
X134147992Y-120626198D01*
X134260467Y-120648571D01*
X134260469Y-120648572D01*
X134260470Y-120648572D01*
X134320247Y-120673332D01*
X134422295Y-120715602D01*
X134567935Y-120812916D01*
X134691784Y-120936765D01*
X134789098Y-121082405D01*
X134856129Y-121244233D01*
X134890300Y-121416020D01*
X134890300Y-121591180D01*
X134856129Y-121762967D01*
X134789098Y-121924795D01*
X134691784Y-122070435D01*
X134567935Y-122194284D01*
X134422295Y-122291598D01*
X134320247Y-122333868D01*
X134260470Y-122358628D01*
X134260469Y-122358628D01*
X134260467Y-122358629D01*
X134088680Y-122392800D01*
X133913520Y-122392800D01*
X133741733Y-122358629D01*
X133741731Y-122358628D01*
X133741730Y-122358628D01*
X133681953Y-122333868D01*
X133579905Y-122291598D01*
X133434265Y-122194284D01*
X133310416Y-122070435D01*
X133213102Y-121924795D01*
X133146071Y-121762967D01*
X133111900Y-121591180D01*
X133111900Y-121416020D01*
X133146071Y-121244233D01*
X133213102Y-121082405D01*
X133310416Y-120936765D01*
X133434265Y-120812916D01*
X133579905Y-120715602D01*
X133681953Y-120673332D01*
X133741730Y-120648572D01*
X133741731Y-120648572D01*
X133741733Y-120648571D01*
X133854208Y-120626198D01*
X133877657Y-120619085D01*
X133899268Y-120607534D01*
X133918210Y-120591988D01*
X133933756Y-120573046D01*
X133945307Y-120551436D01*
X133952420Y-120527986D01*
X133954822Y-120503600D01*
X133952420Y-120479214D01*
X133945307Y-120455765D01*
X133933756Y-120434154D01*
X133918210Y-120415212D01*
X133899268Y-120399666D01*
X133877658Y-120388115D01*
X133854208Y-120381002D01*
X133741733Y-120358629D01*
X133741731Y-120358628D01*
X133741730Y-120358628D01*
X133681953Y-120333868D01*
X133579905Y-120291598D01*
X133434265Y-120194284D01*
X133310416Y-120070435D01*
X133213102Y-119924795D01*
X133146071Y-119762967D01*
X133111900Y-119591180D01*
X133111900Y-119416020D01*
X133146071Y-119244233D01*
X133213102Y-119082405D01*
X133310416Y-118936765D01*
X133434265Y-118812916D01*
X133579905Y-118715602D01*
X133681953Y-118673332D01*
X133741730Y-118648572D01*
X133741731Y-118648572D01*
X133741733Y-118648571D01*
X133854208Y-118626198D01*
X133877657Y-118619085D01*
X133899268Y-118607534D01*
X133918210Y-118591988D01*
X133933756Y-118573046D01*
X133945307Y-118551436D01*
X133952420Y-118527986D01*
X133954822Y-118503600D01*
X133952420Y-118479214D01*
X133945307Y-118455765D01*
X133933756Y-118434154D01*
X133918210Y-118415212D01*
X133899268Y-118399666D01*
X133877658Y-118388115D01*
X133854208Y-118381002D01*
X133741733Y-118358629D01*
X133741731Y-118358628D01*
X133741730Y-118358628D01*
X133681953Y-118333868D01*
X133579905Y-118291598D01*
X133434265Y-118194284D01*
X133310416Y-118070435D01*
X133213102Y-117924795D01*
X133146071Y-117762967D01*
X133111900Y-117591180D01*
X133111900Y-117416020D01*
X133146071Y-117244233D01*
X133213102Y-117082405D01*
X133310416Y-116936765D01*
X133434265Y-116812916D01*
X133579905Y-116715602D01*
X133681953Y-116673332D01*
X133741730Y-116648572D01*
X133741731Y-116648572D01*
X133741733Y-116648571D01*
X133854208Y-116626198D01*
X133877657Y-116619085D01*
X133899268Y-116607534D01*
X133918210Y-116591988D01*
X133933756Y-116573046D01*
X133945307Y-116551436D01*
X133952420Y-116527986D01*
X133954822Y-116503600D01*
X133952420Y-116479214D01*
X133945307Y-116455765D01*
X133933756Y-116434154D01*
X133918210Y-116415212D01*
X133899268Y-116399666D01*
X133877658Y-116388115D01*
X133854208Y-116381002D01*
X133741733Y-116358629D01*
X133741731Y-116358628D01*
X133741730Y-116358628D01*
X133681953Y-116333868D01*
X133579905Y-116291598D01*
X133434265Y-116194284D01*
X133310416Y-116070435D01*
X133213102Y-115924795D01*
X133146071Y-115762967D01*
X133111900Y-115591180D01*
X133111900Y-115416020D01*
X133146071Y-115244233D01*
X133213102Y-115082405D01*
X133310416Y-114936765D01*
X133434265Y-114812916D01*
X133579905Y-114715602D01*
X133681953Y-114673332D01*
X133741730Y-114648572D01*
X133741731Y-114648572D01*
X133741733Y-114648571D01*
X133854208Y-114626198D01*
X133877657Y-114619085D01*
X133899268Y-114607534D01*
X133918210Y-114591988D01*
X133933756Y-114573046D01*
X133945307Y-114551436D01*
X133952420Y-114527986D01*
X133954822Y-114503600D01*
X133952420Y-114479214D01*
X133945307Y-114455765D01*
X133933756Y-114434154D01*
X133918210Y-114415212D01*
X133899268Y-114399666D01*
X133877658Y-114388115D01*
X133854208Y-114381002D01*
X133741733Y-114358629D01*
X133741731Y-114358628D01*
X133741730Y-114358628D01*
X133681953Y-114333868D01*
X133579905Y-114291598D01*
X133434265Y-114194284D01*
X133310416Y-114070435D01*
X133213102Y-113924795D01*
X133146071Y-113762967D01*
X133111900Y-113591180D01*
X133111900Y-113416020D01*
X133146071Y-113244233D01*
X133213102Y-113082405D01*
X133310416Y-112936765D01*
X133434265Y-112812916D01*
X133579905Y-112715602D01*
X133681953Y-112673332D01*
X133741730Y-112648572D01*
X133741731Y-112648572D01*
X133741733Y-112648571D01*
X133913520Y-112614400D01*
X134088680Y-112614400D01*
X134260467Y-112648571D01*
X134260467Y-112648571D01*
G37*
G36*
X142519087Y-118566265D02*
X142603691Y-118591929D01*
X142681663Y-118633606D01*
X142750006Y-118689694D01*
X142806094Y-118758037D01*
X142847771Y-118836009D01*
X142873435Y-118920613D01*
X142882101Y-119008599D01*
X142882101Y-119008601D01*
X142873435Y-119096587D01*
X142847771Y-119181191D01*
X142806094Y-119259163D01*
X142750006Y-119327506D01*
X142681663Y-119383594D01*
X142603691Y-119425271D01*
X142519087Y-119450935D01*
X142431101Y-119459601D01*
X142431099Y-119459601D01*
X142343113Y-119450935D01*
X142258509Y-119425271D01*
X142180537Y-119383594D01*
X142112194Y-119327506D01*
X142056106Y-119259163D01*
X142014429Y-119181191D01*
X141988765Y-119096587D01*
X141980099Y-119008601D01*
X141980099Y-119008599D01*
X141988765Y-118920613D01*
X142014429Y-118836009D01*
X142056106Y-118758037D01*
X142112194Y-118689694D01*
X142180537Y-118633606D01*
X142258509Y-118591929D01*
X142343113Y-118566265D01*
X142431099Y-118557599D01*
X142431101Y-118557599D01*
X142519087Y-118566265D01*
X142519087Y-118566265D01*
G37*
G36*
X141716796Y-113193399D02*
X141737170Y-113207013D01*
X141759809Y-113216392D01*
X141783842Y-113221174D01*
X141808346Y-113221175D01*
X141832380Y-113216395D01*
X141855019Y-113207019D01*
X141875395Y-113193406D01*
X141883701Y-113185100D01*
X142697100Y-113185100D01*
X142697100Y-114037100D01*
X141883702Y-114037100D01*
X141875404Y-114028801D01*
X141855030Y-114015187D01*
X141832391Y-114005808D01*
X141808358Y-114001026D01*
X141783854Y-114001025D01*
X141759820Y-114005805D01*
X141737181Y-114015181D01*
X141716805Y-114028794D01*
X141708499Y-114037100D01*
X140895100Y-114037100D01*
X140895100Y-113185100D01*
X141708498Y-113185100D01*
X141716796Y-113193399D01*
X141716796Y-113193399D01*
G37*
G36*
X141716796Y-111605899D02*
X141737170Y-111619513D01*
X141759809Y-111628892D01*
X141783842Y-111633674D01*
X141808346Y-111633675D01*
X141832380Y-111628895D01*
X141855019Y-111619519D01*
X141875395Y-111605906D01*
X141883701Y-111597600D01*
X142697100Y-111597600D01*
X142697100Y-112449600D01*
X141883702Y-112449600D01*
X141875404Y-112441301D01*
X141855030Y-112427687D01*
X141832391Y-112418308D01*
X141808358Y-112413526D01*
X141783854Y-112413525D01*
X141759820Y-112418305D01*
X141737181Y-112427681D01*
X141716805Y-112441294D01*
X141708499Y-112449600D01*
X140895100Y-112449600D01*
X140895100Y-111597600D01*
X141708498Y-111597600D01*
X141716796Y-111605899D01*
X141716796Y-111605899D01*
G37*
G36*
X134260467Y-102648571D02*
X134260469Y-102648572D01*
X134260470Y-102648572D01*
X134320247Y-102673332D01*
X134422295Y-102715602D01*
X134567935Y-102812916D01*
X134691784Y-102936765D01*
X134789098Y-103082405D01*
X134856129Y-103244233D01*
X134890300Y-103416020D01*
X134890300Y-103591180D01*
X134856129Y-103762967D01*
X134789098Y-103924795D01*
X134691784Y-104070435D01*
X134567935Y-104194284D01*
X134422295Y-104291598D01*
X134320247Y-104333868D01*
X134260470Y-104358628D01*
X134260469Y-104358628D01*
X134260467Y-104358629D01*
X134147992Y-104381002D01*
X134124543Y-104388115D01*
X134102932Y-104399666D01*
X134083990Y-104415212D01*
X134068444Y-104434154D01*
X134056893Y-104455764D01*
X134049780Y-104479214D01*
X134047378Y-104503600D01*
X134049780Y-104527986D01*
X134056893Y-104551435D01*
X134068444Y-104573046D01*
X134083990Y-104591988D01*
X134102932Y-104607534D01*
X134124542Y-104619085D01*
X134147992Y-104626198D01*
X134260467Y-104648571D01*
X134260469Y-104648572D01*
X134260470Y-104648572D01*
X134320247Y-104673332D01*
X134422295Y-104715602D01*
X134567935Y-104812916D01*
X134691784Y-104936765D01*
X134789098Y-105082405D01*
X134856129Y-105244233D01*
X134890300Y-105416020D01*
X134890300Y-105591180D01*
X134856129Y-105762967D01*
X134789098Y-105924795D01*
X134691784Y-106070435D01*
X134567935Y-106194284D01*
X134422295Y-106291598D01*
X134320247Y-106333868D01*
X134260470Y-106358628D01*
X134260469Y-106358628D01*
X134260467Y-106358629D01*
X134147992Y-106381002D01*
X134124543Y-106388115D01*
X134102932Y-106399666D01*
X134083990Y-106415212D01*
X134068444Y-106434154D01*
X134056893Y-106455764D01*
X134049780Y-106479214D01*
X134047378Y-106503600D01*
X134049780Y-106527986D01*
X134056893Y-106551435D01*
X134068444Y-106573046D01*
X134083990Y-106591988D01*
X134102932Y-106607534D01*
X134124542Y-106619085D01*
X134147992Y-106626198D01*
X134260467Y-106648571D01*
X134260469Y-106648572D01*
X134260470Y-106648572D01*
X134274540Y-106654400D01*
X134422295Y-106715602D01*
X134567935Y-106812916D01*
X134691784Y-106936765D01*
X134789098Y-107082405D01*
X134856129Y-107244233D01*
X134876818Y-107348243D01*
X134890300Y-107416021D01*
X134890300Y-107591179D01*
X134856128Y-107762970D01*
X134843397Y-107793705D01*
X134789098Y-107924795D01*
X134691784Y-108070435D01*
X134567935Y-108194284D01*
X134422295Y-108291598D01*
X134338961Y-108326116D01*
X134260470Y-108358628D01*
X134260469Y-108358628D01*
X134260467Y-108358629D01*
X134147992Y-108381002D01*
X134124543Y-108388115D01*
X134102932Y-108399666D01*
X134083990Y-108415212D01*
X134068444Y-108434154D01*
X134056893Y-108455764D01*
X134049780Y-108479214D01*
X134047378Y-108503600D01*
X134049780Y-108527986D01*
X134056893Y-108551435D01*
X134068444Y-108573046D01*
X134083990Y-108591988D01*
X134102932Y-108607534D01*
X134124542Y-108619085D01*
X134147992Y-108626198D01*
X134260467Y-108648571D01*
X134260469Y-108648572D01*
X134260470Y-108648572D01*
X134320247Y-108673332D01*
X134422295Y-108715602D01*
X134567935Y-108812916D01*
X134691784Y-108936765D01*
X134789098Y-109082405D01*
X134856129Y-109244233D01*
X134890300Y-109416020D01*
X134890300Y-109591180D01*
X134856129Y-109762967D01*
X134789098Y-109924795D01*
X134691784Y-110070435D01*
X134567935Y-110194284D01*
X134422295Y-110291598D01*
X134320247Y-110333868D01*
X134260470Y-110358628D01*
X134260469Y-110358628D01*
X134260467Y-110358629D01*
X134088680Y-110392800D01*
X133913520Y-110392800D01*
X133741733Y-110358629D01*
X133741731Y-110358628D01*
X133741730Y-110358628D01*
X133681953Y-110333868D01*
X133579905Y-110291598D01*
X133434265Y-110194284D01*
X133310416Y-110070435D01*
X133213102Y-109924795D01*
X133146071Y-109762967D01*
X133111900Y-109591180D01*
X133111900Y-109416020D01*
X133146071Y-109244233D01*
X133213102Y-109082405D01*
X133310416Y-108936765D01*
X133434265Y-108812916D01*
X133579905Y-108715602D01*
X133681953Y-108673332D01*
X133741730Y-108648572D01*
X133741731Y-108648572D01*
X133741733Y-108648571D01*
X133854208Y-108626198D01*
X133877657Y-108619085D01*
X133899268Y-108607534D01*
X133918210Y-108591988D01*
X133933756Y-108573046D01*
X133945307Y-108551436D01*
X133952420Y-108527986D01*
X133954822Y-108503600D01*
X133952420Y-108479214D01*
X133945307Y-108455765D01*
X133933756Y-108434154D01*
X133918210Y-108415212D01*
X133899268Y-108399666D01*
X133877658Y-108388115D01*
X133854208Y-108381002D01*
X133741733Y-108358629D01*
X133741731Y-108358628D01*
X133741730Y-108358628D01*
X133663239Y-108326116D01*
X133579905Y-108291598D01*
X133434265Y-108194284D01*
X133310416Y-108070435D01*
X133213102Y-107924795D01*
X133158803Y-107793705D01*
X133146072Y-107762970D01*
X133111900Y-107591179D01*
X133111900Y-107416021D01*
X133125382Y-107348243D01*
X133146071Y-107244233D01*
X133213102Y-107082405D01*
X133310416Y-106936765D01*
X133434265Y-106812916D01*
X133579905Y-106715602D01*
X133727660Y-106654400D01*
X133741730Y-106648572D01*
X133741731Y-106648572D01*
X133741733Y-106648571D01*
X133854208Y-106626198D01*
X133877657Y-106619085D01*
X133899268Y-106607534D01*
X133918210Y-106591988D01*
X133933756Y-106573046D01*
X133945307Y-106551436D01*
X133952420Y-106527986D01*
X133954822Y-106503600D01*
X133952420Y-106479214D01*
X133945307Y-106455765D01*
X133933756Y-106434154D01*
X133918210Y-106415212D01*
X133899268Y-106399666D01*
X133877658Y-106388115D01*
X133854208Y-106381002D01*
X133741733Y-106358629D01*
X133741731Y-106358628D01*
X133741730Y-106358628D01*
X133681953Y-106333868D01*
X133579905Y-106291598D01*
X133434265Y-106194284D01*
X133310416Y-106070435D01*
X133213102Y-105924795D01*
X133146071Y-105762967D01*
X133111900Y-105591180D01*
X133111900Y-105416020D01*
X133146071Y-105244233D01*
X133213102Y-105082405D01*
X133310416Y-104936765D01*
X133434265Y-104812916D01*
X133579905Y-104715602D01*
X133681953Y-104673332D01*
X133741730Y-104648572D01*
X133741731Y-104648572D01*
X133741733Y-104648571D01*
X133854208Y-104626198D01*
X133877657Y-104619085D01*
X133899268Y-104607534D01*
X133918210Y-104591988D01*
X133933756Y-104573046D01*
X133945307Y-104551436D01*
X133952420Y-104527986D01*
X133954822Y-104503600D01*
X133952420Y-104479214D01*
X133945307Y-104455765D01*
X133933756Y-104434154D01*
X133918210Y-104415212D01*
X133899268Y-104399666D01*
X133877658Y-104388115D01*
X133854208Y-104381002D01*
X133741733Y-104358629D01*
X133741731Y-104358628D01*
X133741730Y-104358628D01*
X133681953Y-104333868D01*
X133579905Y-104291598D01*
X133434265Y-104194284D01*
X133310416Y-104070435D01*
X133213102Y-103924795D01*
X133146071Y-103762967D01*
X133111900Y-103591180D01*
X133111900Y-103416020D01*
X133146071Y-103244233D01*
X133213102Y-103082405D01*
X133310416Y-102936765D01*
X133434265Y-102812916D01*
X133579905Y-102715602D01*
X133681953Y-102673332D01*
X133741730Y-102648572D01*
X133741731Y-102648572D01*
X133741733Y-102648571D01*
X133913520Y-102614400D01*
X134088680Y-102614400D01*
X134260467Y-102648571D01*
X134260467Y-102648571D01*
G37*
G36*
X139047100Y-108125998D02*
X139038801Y-108134296D01*
X139025187Y-108154670D01*
X139015808Y-108177309D01*
X139011026Y-108201342D01*
X139011025Y-108225846D01*
X139015805Y-108249880D01*
X139025181Y-108272519D01*
X139038794Y-108292895D01*
X139047100Y-108301201D01*
X139047100Y-109114600D01*
X138195100Y-109114600D01*
X138195100Y-108301202D01*
X138203399Y-108292904D01*
X138217013Y-108272530D01*
X138226392Y-108249891D01*
X138231174Y-108225858D01*
X138231175Y-108201354D01*
X138226395Y-108177320D01*
X138217019Y-108154681D01*
X138203406Y-108134305D01*
X138195100Y-108125999D01*
X138195100Y-107312600D01*
X139047100Y-107312600D01*
X139047100Y-108125998D01*
X139047100Y-108125998D01*
G37*
G36*
X137142100Y-108125998D02*
X137133801Y-108134296D01*
X137120187Y-108154670D01*
X137110808Y-108177309D01*
X137106026Y-108201342D01*
X137106025Y-108225846D01*
X137110805Y-108249880D01*
X137120181Y-108272519D01*
X137133794Y-108292895D01*
X137142100Y-108301201D01*
X137142100Y-109114600D01*
X136290100Y-109114600D01*
X136290100Y-108301202D01*
X136298399Y-108292904D01*
X136312013Y-108272530D01*
X136321392Y-108249891D01*
X136326174Y-108225858D01*
X136326175Y-108201354D01*
X136321395Y-108177320D01*
X136312019Y-108154681D01*
X136298406Y-108134305D01*
X136290100Y-108125999D01*
X136290100Y-107312600D01*
X137142100Y-107312600D01*
X137142100Y-108125998D01*
X137142100Y-108125998D01*
G37*
G36*
X161401796Y-107795899D02*
X161422170Y-107809513D01*
X161444809Y-107818892D01*
X161468842Y-107823674D01*
X161493346Y-107823675D01*
X161517380Y-107818895D01*
X161540019Y-107809519D01*
X161560395Y-107795906D01*
X161568701Y-107787600D01*
X162382100Y-107787600D01*
X162382100Y-108639600D01*
X161568702Y-108639600D01*
X161560404Y-108631301D01*
X161540030Y-108617687D01*
X161517391Y-108608308D01*
X161493358Y-108603526D01*
X161468854Y-108603525D01*
X161444820Y-108608305D01*
X161422181Y-108617681D01*
X161401805Y-108631294D01*
X161393499Y-108639600D01*
X160580100Y-108639600D01*
X160580100Y-107787600D01*
X161393498Y-107787600D01*
X161401796Y-107795899D01*
X161401796Y-107795899D01*
G37*
G36*
X161401796Y-105890899D02*
X161422170Y-105904513D01*
X161444809Y-105913892D01*
X161468842Y-105918674D01*
X161493346Y-105918675D01*
X161517380Y-105913895D01*
X161540019Y-105904519D01*
X161560395Y-105890906D01*
X161568701Y-105882600D01*
X162382100Y-105882600D01*
X162382100Y-106734600D01*
X161568702Y-106734600D01*
X161560404Y-106726301D01*
X161540030Y-106712687D01*
X161517391Y-106703308D01*
X161493358Y-106698526D01*
X161468854Y-106698525D01*
X161444820Y-106703305D01*
X161422181Y-106712681D01*
X161401805Y-106726294D01*
X161393499Y-106734600D01*
X160580100Y-106734600D01*
X160580100Y-105882600D01*
X161393498Y-105882600D01*
X161401796Y-105890899D01*
X161401796Y-105890899D01*
G37*
G36*
X142519087Y-105231265D02*
X142603691Y-105256929D01*
X142681663Y-105298606D01*
X142750006Y-105354694D01*
X142806094Y-105423037D01*
X142847771Y-105501009D01*
X142873435Y-105585613D01*
X142882101Y-105673599D01*
X142882101Y-105673601D01*
X142873435Y-105761587D01*
X142847771Y-105846191D01*
X142806094Y-105924163D01*
X142750006Y-105992506D01*
X142681663Y-106048594D01*
X142603691Y-106090271D01*
X142519087Y-106115935D01*
X142431101Y-106124601D01*
X142431099Y-106124601D01*
X142343113Y-106115935D01*
X142258509Y-106090271D01*
X142180537Y-106048594D01*
X142112194Y-105992506D01*
X142056106Y-105924163D01*
X142014429Y-105846191D01*
X141988765Y-105761587D01*
X141980099Y-105673601D01*
X141980099Y-105673599D01*
X141988765Y-105585613D01*
X142014429Y-105501009D01*
X142056106Y-105423037D01*
X142112194Y-105354694D01*
X142180537Y-105298606D01*
X142258509Y-105256929D01*
X142343113Y-105231265D01*
X142431099Y-105222599D01*
X142431101Y-105222599D01*
X142519087Y-105231265D01*
X142519087Y-105231265D01*
G37*
G36*
X161401796Y-103985899D02*
X161422170Y-103999513D01*
X161444809Y-104008892D01*
X161468842Y-104013674D01*
X161493346Y-104013675D01*
X161517380Y-104008895D01*
X161540019Y-103999519D01*
X161560395Y-103985906D01*
X161568701Y-103977600D01*
X162382100Y-103977600D01*
X162382100Y-104829600D01*
X161568702Y-104829600D01*
X161560404Y-104821301D01*
X161540030Y-104807687D01*
X161517391Y-104798308D01*
X161493358Y-104793526D01*
X161468854Y-104793525D01*
X161444820Y-104798305D01*
X161422181Y-104807681D01*
X161401805Y-104821294D01*
X161393499Y-104829600D01*
X160580100Y-104829600D01*
X160580100Y-103977600D01*
X161393498Y-103977600D01*
X161401796Y-103985899D01*
X161401796Y-103985899D01*
G37*
G36*
X161401796Y-102080899D02*
X161422170Y-102094513D01*
X161444809Y-102103892D01*
X161468842Y-102108674D01*
X161493346Y-102108675D01*
X161517380Y-102103895D01*
X161540019Y-102094519D01*
X161560395Y-102080906D01*
X161568701Y-102072600D01*
X162382100Y-102072600D01*
X162382100Y-102924600D01*
X161568702Y-102924600D01*
X161560404Y-102916301D01*
X161540030Y-102902687D01*
X161517391Y-102893308D01*
X161493358Y-102888526D01*
X161468854Y-102888525D01*
X161444820Y-102893305D01*
X161422181Y-102902681D01*
X161401805Y-102916294D01*
X161393499Y-102924600D01*
X160580100Y-102924600D01*
X160580100Y-102072600D01*
X161393498Y-102072600D01*
X161401796Y-102080899D01*
X161401796Y-102080899D01*
G37*
G36*
X134260467Y-94648571D02*
X134260469Y-94648572D01*
X134260470Y-94648572D01*
X134270146Y-94652580D01*
X134422295Y-94715602D01*
X134567935Y-94812916D01*
X134691784Y-94936765D01*
X134789098Y-95082405D01*
X134856129Y-95244233D01*
X134890300Y-95416020D01*
X134890300Y-95591180D01*
X134856129Y-95762967D01*
X134789098Y-95924795D01*
X134691784Y-96070435D01*
X134567935Y-96194284D01*
X134422295Y-96291598D01*
X134320247Y-96333868D01*
X134260470Y-96358628D01*
X134260469Y-96358628D01*
X134260467Y-96358629D01*
X134147992Y-96381002D01*
X134124543Y-96388115D01*
X134102932Y-96399666D01*
X134083990Y-96415212D01*
X134068444Y-96434154D01*
X134056893Y-96455764D01*
X134049780Y-96479214D01*
X134047378Y-96503600D01*
X134049780Y-96527986D01*
X134056893Y-96551435D01*
X134068444Y-96573046D01*
X134083990Y-96591988D01*
X134102932Y-96607534D01*
X134124542Y-96619085D01*
X134147992Y-96626198D01*
X134260467Y-96648571D01*
X134260469Y-96648572D01*
X134260470Y-96648572D01*
X134320247Y-96673332D01*
X134422295Y-96715602D01*
X134567935Y-96812916D01*
X134691784Y-96936765D01*
X134789098Y-97082405D01*
X134856129Y-97244233D01*
X134890300Y-97416020D01*
X134890300Y-97591180D01*
X134856129Y-97762967D01*
X134789098Y-97924795D01*
X134691784Y-98070435D01*
X134567935Y-98194284D01*
X134422295Y-98291598D01*
X134320247Y-98333868D01*
X134260470Y-98358628D01*
X134260469Y-98358628D01*
X134260467Y-98358629D01*
X134147992Y-98381002D01*
X134124543Y-98388115D01*
X134102932Y-98399666D01*
X134083990Y-98415212D01*
X134068444Y-98434154D01*
X134056893Y-98455764D01*
X134049780Y-98479214D01*
X134047378Y-98503600D01*
X134049780Y-98527986D01*
X134056893Y-98551435D01*
X134068444Y-98573046D01*
X134083990Y-98591988D01*
X134102932Y-98607534D01*
X134124542Y-98619085D01*
X134147992Y-98626198D01*
X134260467Y-98648571D01*
X134260469Y-98648572D01*
X134260470Y-98648572D01*
X134320247Y-98673332D01*
X134422295Y-98715602D01*
X134567935Y-98812916D01*
X134691784Y-98936765D01*
X134789098Y-99082405D01*
X134856129Y-99244233D01*
X134890300Y-99416020D01*
X134890300Y-99591180D01*
X134856129Y-99762967D01*
X134789098Y-99924795D01*
X134691784Y-100070435D01*
X134567935Y-100194284D01*
X134422295Y-100291598D01*
X134320247Y-100333868D01*
X134260470Y-100358628D01*
X134260469Y-100358628D01*
X134260467Y-100358629D01*
X134088680Y-100392800D01*
X133913520Y-100392800D01*
X133741733Y-100358629D01*
X133741731Y-100358628D01*
X133741730Y-100358628D01*
X133681953Y-100333868D01*
X133579905Y-100291598D01*
X133434265Y-100194284D01*
X133310416Y-100070435D01*
X133213102Y-99924795D01*
X133146071Y-99762967D01*
X133111900Y-99591180D01*
X133111900Y-99416020D01*
X133146071Y-99244233D01*
X133213102Y-99082405D01*
X133310416Y-98936765D01*
X133434265Y-98812916D01*
X133579905Y-98715602D01*
X133681953Y-98673332D01*
X133741730Y-98648572D01*
X133741731Y-98648572D01*
X133741733Y-98648571D01*
X133854208Y-98626198D01*
X133877657Y-98619085D01*
X133899268Y-98607534D01*
X133918210Y-98591988D01*
X133933756Y-98573046D01*
X133945307Y-98551436D01*
X133952420Y-98527986D01*
X133954822Y-98503600D01*
X133952420Y-98479214D01*
X133945307Y-98455765D01*
X133933756Y-98434154D01*
X133918210Y-98415212D01*
X133899268Y-98399666D01*
X133877658Y-98388115D01*
X133854208Y-98381002D01*
X133741733Y-98358629D01*
X133741731Y-98358628D01*
X133741730Y-98358628D01*
X133681953Y-98333868D01*
X133579905Y-98291598D01*
X133434265Y-98194284D01*
X133310416Y-98070435D01*
X133213102Y-97924795D01*
X133146071Y-97762967D01*
X133111900Y-97591180D01*
X133111900Y-97416020D01*
X133146071Y-97244233D01*
X133213102Y-97082405D01*
X133310416Y-96936765D01*
X133434265Y-96812916D01*
X133579905Y-96715602D01*
X133681953Y-96673332D01*
X133741730Y-96648572D01*
X133741731Y-96648572D01*
X133741733Y-96648571D01*
X133854208Y-96626198D01*
X133877657Y-96619085D01*
X133899268Y-96607534D01*
X133918210Y-96591988D01*
X133933756Y-96573046D01*
X133945307Y-96551436D01*
X133952420Y-96527986D01*
X133954822Y-96503600D01*
X133952420Y-96479214D01*
X133945307Y-96455765D01*
X133933756Y-96434154D01*
X133918210Y-96415212D01*
X133899268Y-96399666D01*
X133877658Y-96388115D01*
X133854208Y-96381002D01*
X133741733Y-96358629D01*
X133741731Y-96358628D01*
X133741730Y-96358628D01*
X133681953Y-96333868D01*
X133579905Y-96291598D01*
X133434265Y-96194284D01*
X133310416Y-96070435D01*
X133213102Y-95924795D01*
X133146071Y-95762967D01*
X133111900Y-95591180D01*
X133111900Y-95416020D01*
X133146071Y-95244233D01*
X133213102Y-95082405D01*
X133310416Y-94936765D01*
X133434265Y-94812916D01*
X133579905Y-94715602D01*
X133732054Y-94652580D01*
X133741730Y-94648572D01*
X133741731Y-94648572D01*
X133741733Y-94648571D01*
X133913520Y-94614400D01*
X134088680Y-94614400D01*
X134260467Y-94648571D01*
X134260467Y-94648571D01*
G37*
G36*
X155364600Y-100154600D02*
X154262600Y-100154600D01*
X154262600Y-99002600D01*
X155364600Y-99002600D01*
X155364600Y-100154600D01*
X155364600Y-100154600D01*
G37*
G36*
X159962967Y-97833571D02*
X159962969Y-97833572D01*
X159962970Y-97833572D01*
X160022747Y-97858332D01*
X160124795Y-97900602D01*
X160270435Y-97997916D01*
X160394284Y-98121765D01*
X160491598Y-98267405D01*
X160491598Y-98267406D01*
X160552822Y-98415212D01*
X160558629Y-98429233D01*
X160581002Y-98541708D01*
X160588115Y-98565157D01*
X160599666Y-98586768D01*
X160615212Y-98605710D01*
X160634154Y-98621256D01*
X160655764Y-98632807D01*
X160679214Y-98639920D01*
X160703600Y-98642322D01*
X160727986Y-98639920D01*
X160751435Y-98632807D01*
X160773046Y-98621256D01*
X160791988Y-98605710D01*
X160807534Y-98586768D01*
X160819085Y-98565158D01*
X160826198Y-98541708D01*
X160848571Y-98429233D01*
X160854379Y-98415212D01*
X160915602Y-98267406D01*
X160915602Y-98267405D01*
X161012916Y-98121765D01*
X161136765Y-97997916D01*
X161282405Y-97900602D01*
X161384453Y-97858332D01*
X161444230Y-97833572D01*
X161444231Y-97833572D01*
X161444233Y-97833571D01*
X161616020Y-97799400D01*
X161791180Y-97799400D01*
X161962967Y-97833571D01*
X161962969Y-97833572D01*
X161962970Y-97833572D01*
X162022747Y-97858332D01*
X162124795Y-97900602D01*
X162270435Y-97997916D01*
X162394284Y-98121765D01*
X162491598Y-98267405D01*
X162491598Y-98267406D01*
X162552822Y-98415212D01*
X162558629Y-98429233D01*
X162581002Y-98541708D01*
X162588115Y-98565157D01*
X162599666Y-98586768D01*
X162615212Y-98605710D01*
X162634154Y-98621256D01*
X162655764Y-98632807D01*
X162679214Y-98639920D01*
X162703600Y-98642322D01*
X162727986Y-98639920D01*
X162751435Y-98632807D01*
X162773046Y-98621256D01*
X162791988Y-98605710D01*
X162807534Y-98586768D01*
X162819085Y-98565158D01*
X162826198Y-98541708D01*
X162848571Y-98429233D01*
X162854379Y-98415212D01*
X162915602Y-98267406D01*
X162915602Y-98267405D01*
X163012916Y-98121765D01*
X163136765Y-97997916D01*
X163282405Y-97900602D01*
X163384453Y-97858332D01*
X163444230Y-97833572D01*
X163444231Y-97833572D01*
X163444233Y-97833571D01*
X163616020Y-97799400D01*
X163791180Y-97799400D01*
X163962967Y-97833571D01*
X163962969Y-97833572D01*
X163962970Y-97833572D01*
X164022747Y-97858332D01*
X164124795Y-97900602D01*
X164270435Y-97997916D01*
X164394284Y-98121765D01*
X164491598Y-98267405D01*
X164491598Y-98267406D01*
X164552822Y-98415212D01*
X164558629Y-98429233D01*
X164592800Y-98601020D01*
X164592800Y-98776180D01*
X164558629Y-98947967D01*
X164491598Y-99109795D01*
X164394284Y-99255435D01*
X164270435Y-99379284D01*
X164124795Y-99476598D01*
X164022747Y-99518868D01*
X163962970Y-99543628D01*
X163962969Y-99543628D01*
X163962967Y-99543629D01*
X163791180Y-99577800D01*
X163616020Y-99577800D01*
X163444233Y-99543629D01*
X163444231Y-99543628D01*
X163444230Y-99543628D01*
X163384453Y-99518868D01*
X163282405Y-99476598D01*
X163136765Y-99379284D01*
X163012916Y-99255435D01*
X162915602Y-99109795D01*
X162848571Y-98947967D01*
X162826198Y-98835492D01*
X162819085Y-98812043D01*
X162807534Y-98790432D01*
X162791988Y-98771490D01*
X162773046Y-98755944D01*
X162751436Y-98744393D01*
X162727986Y-98737280D01*
X162703600Y-98734878D01*
X162679214Y-98737280D01*
X162655765Y-98744393D01*
X162634154Y-98755944D01*
X162615212Y-98771490D01*
X162599666Y-98790432D01*
X162588115Y-98812042D01*
X162581002Y-98835492D01*
X162558629Y-98947967D01*
X162491598Y-99109795D01*
X162394284Y-99255435D01*
X162270435Y-99379284D01*
X162124795Y-99476598D01*
X162022747Y-99518868D01*
X161962970Y-99543628D01*
X161962969Y-99543628D01*
X161962967Y-99543629D01*
X161791180Y-99577800D01*
X161616020Y-99577800D01*
X161444233Y-99543629D01*
X161444231Y-99543628D01*
X161444230Y-99543628D01*
X161384453Y-99518868D01*
X161282405Y-99476598D01*
X161136765Y-99379284D01*
X161012916Y-99255435D01*
X160915602Y-99109795D01*
X160848571Y-98947967D01*
X160826198Y-98835492D01*
X160819085Y-98812043D01*
X160807534Y-98790432D01*
X160791988Y-98771490D01*
X160773046Y-98755944D01*
X160751436Y-98744393D01*
X160727986Y-98737280D01*
X160703600Y-98734878D01*
X160679214Y-98737280D01*
X160655765Y-98744393D01*
X160634154Y-98755944D01*
X160615212Y-98771490D01*
X160599666Y-98790432D01*
X160588115Y-98812042D01*
X160581002Y-98835492D01*
X160558629Y-98947967D01*
X160491598Y-99109795D01*
X160394284Y-99255435D01*
X160270435Y-99379284D01*
X160124795Y-99476598D01*
X160022747Y-99518868D01*
X159962970Y-99543628D01*
X159962969Y-99543628D01*
X159962967Y-99543629D01*
X159791180Y-99577800D01*
X159616020Y-99577800D01*
X159444233Y-99543629D01*
X159444231Y-99543628D01*
X159444230Y-99543628D01*
X159384453Y-99518868D01*
X159282405Y-99476598D01*
X159136765Y-99379284D01*
X159012916Y-99255435D01*
X158915602Y-99109795D01*
X158848571Y-98947967D01*
X158814400Y-98776180D01*
X158814400Y-98601020D01*
X158848571Y-98429233D01*
X158854379Y-98415212D01*
X158915602Y-98267406D01*
X158915602Y-98267405D01*
X159012916Y-98121765D01*
X159136765Y-97997916D01*
X159282405Y-97900602D01*
X159384453Y-97858332D01*
X159444230Y-97833572D01*
X159444231Y-97833572D01*
X159444233Y-97833571D01*
X159616020Y-97799400D01*
X159791180Y-97799400D01*
X159962967Y-97833571D01*
X159962967Y-97833571D01*
G37*
G36*
X153914600Y-99204600D02*
X152962600Y-99204600D01*
X152962600Y-96902600D01*
X153914600Y-96902600D01*
X153914600Y-99204600D01*
X153914600Y-99204600D01*
G37*
G36*
X156664600Y-99204600D02*
X155712600Y-99204600D01*
X155712600Y-96902600D01*
X156664600Y-96902600D01*
X156664600Y-99204600D01*
X156664600Y-99204600D01*
G37*
G36*
X146161796Y-97635899D02*
X146182170Y-97649513D01*
X146204809Y-97658892D01*
X146228842Y-97663674D01*
X146253346Y-97663675D01*
X146277380Y-97658895D01*
X146300019Y-97649519D01*
X146320395Y-97635906D01*
X146328701Y-97627600D01*
X147142100Y-97627600D01*
X147142100Y-98479600D01*
X146328702Y-98479600D01*
X146320404Y-98471301D01*
X146300030Y-98457687D01*
X146277391Y-98448308D01*
X146253358Y-98443526D01*
X146228854Y-98443525D01*
X146204820Y-98448305D01*
X146182181Y-98457681D01*
X146161805Y-98471294D01*
X146153499Y-98479600D01*
X145340100Y-98479600D01*
X145340100Y-97627600D01*
X146153498Y-97627600D01*
X146161796Y-97635899D01*
X146161796Y-97635899D01*
G37*
G36*
X139527100Y-98369600D02*
X138225100Y-98369600D01*
X138225100Y-96467600D01*
X139527100Y-96467600D01*
X139527100Y-98369600D01*
X139527100Y-98369600D01*
G37*
G36*
X142827100Y-98369600D02*
X141525100Y-98369600D01*
X141525100Y-96467600D01*
X142827100Y-96467600D01*
X142827100Y-98369600D01*
X142827100Y-98369600D01*
G37*
G36*
X165067100Y-97134600D02*
X163665100Y-97134600D01*
X163665100Y-95482600D01*
X165067100Y-95482600D01*
X165067100Y-97134600D01*
X165067100Y-97134600D01*
G37*
G36*
X160567100Y-97134600D02*
X159165100Y-97134600D01*
X159165100Y-95482600D01*
X160567100Y-95482600D01*
X160567100Y-97134600D01*
X160567100Y-97134600D01*
G37*
G36*
X155364600Y-97104600D02*
X154262600Y-97104600D01*
X154262600Y-95952600D01*
X155364600Y-95952600D01*
X155364600Y-97104600D01*
X155364600Y-97104600D01*
G37*
G36*
X150697100Y-96419600D02*
X144795100Y-96419600D01*
X144795100Y-94717600D01*
X150697100Y-94717600D01*
X150697100Y-96419600D01*
X150697100Y-96419600D01*
G37*
G36*
X144347100Y-94269600D02*
X142688838Y-94269600D01*
X142664452Y-94272002D01*
X142641003Y-94279115D01*
X142619392Y-94290666D01*
X142600450Y-94306212D01*
X142584904Y-94325154D01*
X142573353Y-94346765D01*
X142566240Y-94370214D01*
X142565263Y-94390105D01*
X142565203Y-94390099D01*
X142564299Y-94399280D01*
X142564601Y-94402349D01*
X142564601Y-94402351D01*
X142555935Y-94490337D01*
X142530271Y-94574941D01*
X142488594Y-94652913D01*
X142432506Y-94721256D01*
X142364163Y-94777344D01*
X142286191Y-94819021D01*
X142201587Y-94844685D01*
X142113601Y-94853351D01*
X142113599Y-94853351D01*
X142025613Y-94844685D01*
X141941009Y-94819021D01*
X141863037Y-94777344D01*
X141794694Y-94721256D01*
X141738606Y-94652913D01*
X141696929Y-94574941D01*
X141671265Y-94490337D01*
X141662599Y-94402351D01*
X141662599Y-94402349D01*
X141671265Y-94314363D01*
X141696929Y-94229759D01*
X141738606Y-94151787D01*
X141794694Y-94083444D01*
X141863037Y-94027356D01*
X141941009Y-93985679D01*
X142025613Y-93960015D01*
X142113599Y-93951349D01*
X142113601Y-93951349D01*
X142201587Y-93960015D01*
X142286191Y-93985679D01*
X142364163Y-94027356D01*
X142432506Y-94083444D01*
X142434461Y-94085826D01*
X142440802Y-94091030D01*
X142461176Y-94104644D01*
X142483816Y-94114021D01*
X142507849Y-94118801D01*
X142532353Y-94118801D01*
X142556387Y-94114020D01*
X142579026Y-94104643D01*
X142599400Y-94091029D01*
X142616727Y-94073701D01*
X142630341Y-94053327D01*
X142639718Y-94030687D01*
X142645100Y-93994403D01*
X142645100Y-88367600D01*
X144347100Y-88367600D01*
X144347100Y-94269600D01*
X144347100Y-94269600D01*
G37*
G36*
X152847100Y-94269600D02*
X151145100Y-94269600D01*
X151145100Y-88367600D01*
X152847100Y-88367600D01*
X152847100Y-94269600D01*
X152847100Y-94269600D01*
G37*
G36*
X157591796Y-91920899D02*
X157612170Y-91934513D01*
X157634809Y-91943892D01*
X157658842Y-91948674D01*
X157683346Y-91948675D01*
X157707380Y-91943895D01*
X157730019Y-91934519D01*
X157750395Y-91920906D01*
X157758701Y-91912600D01*
X158572100Y-91912600D01*
X158572100Y-92764600D01*
X157758702Y-92764600D01*
X157750404Y-92756301D01*
X157730030Y-92742687D01*
X157707391Y-92733308D01*
X157683358Y-92728526D01*
X157658854Y-92728525D01*
X157634820Y-92733305D01*
X157612181Y-92742681D01*
X157591805Y-92756294D01*
X157583499Y-92764600D01*
X156770100Y-92764600D01*
X156770100Y-91912600D01*
X157583498Y-91912600D01*
X157591796Y-91920899D01*
X157591796Y-91920899D01*
G37*
G36*
X140952100Y-91615998D02*
X140943801Y-91624296D01*
X140930187Y-91644670D01*
X140920808Y-91667309D01*
X140916026Y-91691342D01*
X140916025Y-91715846D01*
X140920805Y-91739880D01*
X140930181Y-91762519D01*
X140943794Y-91782895D01*
X140954457Y-91793558D01*
X140961917Y-91811567D01*
X140975532Y-91831941D01*
X140992859Y-91849267D01*
X141013235Y-91862880D01*
X141035874Y-91872257D01*
X141036416Y-91872365D01*
X141018176Y-91879920D01*
X140997802Y-91893534D01*
X140980474Y-91910861D01*
X140966860Y-91931236D01*
X140957483Y-91953875D01*
X140952702Y-91977908D01*
X140952100Y-91990161D01*
X140952100Y-92604600D01*
X140100100Y-92604600D01*
X140100100Y-91791202D01*
X140108399Y-91782904D01*
X140122013Y-91762530D01*
X140131392Y-91739891D01*
X140136174Y-91715858D01*
X140136175Y-91691354D01*
X140131395Y-91667320D01*
X140122019Y-91644681D01*
X140108406Y-91624305D01*
X140100100Y-91615999D01*
X140100100Y-90802600D01*
X140952100Y-90802600D01*
X140952100Y-91615998D01*
X140952100Y-91615998D01*
G37*
G36*
X139047100Y-91615998D02*
X139038801Y-91624296D01*
X139025187Y-91644670D01*
X139015808Y-91667309D01*
X139011026Y-91691342D01*
X139011025Y-91715846D01*
X139015805Y-91739880D01*
X139025181Y-91762519D01*
X139038794Y-91782895D01*
X139047100Y-91791201D01*
X139047100Y-92604600D01*
X138195100Y-92604600D01*
X138195100Y-91791202D01*
X138203399Y-91782904D01*
X138217013Y-91762530D01*
X138226392Y-91739891D01*
X138231174Y-91715858D01*
X138231175Y-91691354D01*
X138226395Y-91667320D01*
X138217019Y-91644681D01*
X138203406Y-91624305D01*
X138195100Y-91615999D01*
X138195100Y-90802600D01*
X139047100Y-90802600D01*
X139047100Y-91615998D01*
X139047100Y-91615998D01*
G37*
G36*
X134260467Y-82648571D02*
X134260469Y-82648572D01*
X134260470Y-82648572D01*
X134310096Y-82669128D01*
X134422295Y-82715602D01*
X134567935Y-82812916D01*
X134691784Y-82936765D01*
X134789098Y-83082405D01*
X134856129Y-83244233D01*
X134890300Y-83416020D01*
X134890300Y-83591180D01*
X134856129Y-83762967D01*
X134789098Y-83924795D01*
X134691784Y-84070435D01*
X134567935Y-84194284D01*
X134422295Y-84291598D01*
X134320247Y-84333868D01*
X134260470Y-84358628D01*
X134260469Y-84358628D01*
X134260467Y-84358629D01*
X134147992Y-84381002D01*
X134124543Y-84388115D01*
X134102932Y-84399666D01*
X134083990Y-84415212D01*
X134068444Y-84434154D01*
X134056893Y-84455764D01*
X134049780Y-84479214D01*
X134047378Y-84503600D01*
X134049780Y-84527986D01*
X134056893Y-84551435D01*
X134068444Y-84573046D01*
X134083990Y-84591988D01*
X134102932Y-84607534D01*
X134124542Y-84619085D01*
X134147992Y-84626198D01*
X134260467Y-84648571D01*
X134260469Y-84648572D01*
X134260470Y-84648572D01*
X134320247Y-84673332D01*
X134422295Y-84715602D01*
X134567935Y-84812916D01*
X134691784Y-84936765D01*
X134789098Y-85082405D01*
X134811859Y-85137356D01*
X134835269Y-85193871D01*
X134856129Y-85244233D01*
X134890300Y-85416020D01*
X134890300Y-85591180D01*
X134856129Y-85762967D01*
X134789098Y-85924795D01*
X134691784Y-86070435D01*
X134567935Y-86194284D01*
X134422295Y-86291598D01*
X134357719Y-86318346D01*
X134260470Y-86358628D01*
X134260469Y-86358628D01*
X134260467Y-86358629D01*
X134147992Y-86381002D01*
X134124543Y-86388115D01*
X134102932Y-86399666D01*
X134083990Y-86415212D01*
X134068444Y-86434154D01*
X134056893Y-86455764D01*
X134049780Y-86479214D01*
X134047378Y-86503600D01*
X134049780Y-86527986D01*
X134056893Y-86551435D01*
X134068444Y-86573046D01*
X134083990Y-86591988D01*
X134102932Y-86607534D01*
X134124542Y-86619085D01*
X134147992Y-86626198D01*
X134260467Y-86648571D01*
X134260469Y-86648572D01*
X134260470Y-86648572D01*
X134320247Y-86673332D01*
X134422295Y-86715602D01*
X134567935Y-86812916D01*
X134691784Y-86936765D01*
X134789098Y-87082405D01*
X134856129Y-87244233D01*
X134890300Y-87416020D01*
X134890300Y-87591180D01*
X134856129Y-87762967D01*
X134789098Y-87924795D01*
X134691784Y-88070435D01*
X134567935Y-88194284D01*
X134422295Y-88291598D01*
X134320247Y-88333868D01*
X134260470Y-88358628D01*
X134260469Y-88358628D01*
X134260467Y-88358629D01*
X134147992Y-88381002D01*
X134124543Y-88388115D01*
X134102932Y-88399666D01*
X134083990Y-88415212D01*
X134068444Y-88434154D01*
X134056893Y-88455764D01*
X134049780Y-88479214D01*
X134047378Y-88503600D01*
X134049780Y-88527986D01*
X134056893Y-88551435D01*
X134068444Y-88573046D01*
X134083990Y-88591988D01*
X134102932Y-88607534D01*
X134124542Y-88619085D01*
X134147992Y-88626198D01*
X134260467Y-88648571D01*
X134260469Y-88648572D01*
X134260470Y-88648572D01*
X134320247Y-88673332D01*
X134422295Y-88715602D01*
X134567935Y-88812916D01*
X134691784Y-88936765D01*
X134789098Y-89082405D01*
X134856129Y-89244233D01*
X134890300Y-89416020D01*
X134890300Y-89591180D01*
X134856129Y-89762967D01*
X134789098Y-89924795D01*
X134691784Y-90070435D01*
X134567935Y-90194284D01*
X134422295Y-90291598D01*
X134379418Y-90309358D01*
X134260470Y-90358628D01*
X134260469Y-90358628D01*
X134260467Y-90358629D01*
X134147992Y-90381002D01*
X134124543Y-90388115D01*
X134102932Y-90399666D01*
X134083990Y-90415212D01*
X134068444Y-90434154D01*
X134056893Y-90455764D01*
X134049780Y-90479214D01*
X134047378Y-90503600D01*
X134049780Y-90527986D01*
X134056893Y-90551435D01*
X134068444Y-90573046D01*
X134083990Y-90591988D01*
X134102932Y-90607534D01*
X134124542Y-90619085D01*
X134147992Y-90626198D01*
X134260467Y-90648571D01*
X134260469Y-90648572D01*
X134260470Y-90648572D01*
X134320247Y-90673332D01*
X134422295Y-90715602D01*
X134567935Y-90812916D01*
X134691784Y-90936765D01*
X134789098Y-91082405D01*
X134789098Y-91082406D01*
X134854211Y-91239601D01*
X134856129Y-91244233D01*
X134890300Y-91416020D01*
X134890300Y-91591180D01*
X134865500Y-91715858D01*
X134856128Y-91762970D01*
X134844434Y-91791201D01*
X134789098Y-91924795D01*
X134691784Y-92070435D01*
X134567935Y-92194284D01*
X134422295Y-92291598D01*
X134369778Y-92313351D01*
X134260470Y-92358628D01*
X134260469Y-92358628D01*
X134260467Y-92358629D01*
X134088680Y-92392800D01*
X133913520Y-92392800D01*
X133741733Y-92358629D01*
X133741731Y-92358628D01*
X133741730Y-92358628D01*
X133632422Y-92313351D01*
X133579905Y-92291598D01*
X133434265Y-92194284D01*
X133310416Y-92070435D01*
X133213102Y-91924795D01*
X133157766Y-91791201D01*
X133146072Y-91762970D01*
X133136701Y-91715858D01*
X133111900Y-91591180D01*
X133111900Y-91416020D01*
X133146071Y-91244233D01*
X133147990Y-91239601D01*
X133213102Y-91082406D01*
X133213102Y-91082405D01*
X133310416Y-90936765D01*
X133434265Y-90812916D01*
X133579905Y-90715602D01*
X133681953Y-90673332D01*
X133741730Y-90648572D01*
X133741731Y-90648572D01*
X133741733Y-90648571D01*
X133854208Y-90626198D01*
X133877657Y-90619085D01*
X133899268Y-90607534D01*
X133918210Y-90591988D01*
X133933756Y-90573046D01*
X133945307Y-90551436D01*
X133952420Y-90527986D01*
X133954822Y-90503600D01*
X133952420Y-90479214D01*
X133945307Y-90455765D01*
X133933756Y-90434154D01*
X133918210Y-90415212D01*
X133899268Y-90399666D01*
X133877658Y-90388115D01*
X133854208Y-90381002D01*
X133741733Y-90358629D01*
X133741731Y-90358628D01*
X133741730Y-90358628D01*
X133622782Y-90309358D01*
X133579905Y-90291598D01*
X133434265Y-90194284D01*
X133310416Y-90070435D01*
X133213102Y-89924795D01*
X133146071Y-89762967D01*
X133111900Y-89591180D01*
X133111900Y-89416020D01*
X133146071Y-89244233D01*
X133213102Y-89082405D01*
X133310416Y-88936765D01*
X133434265Y-88812916D01*
X133579905Y-88715602D01*
X133681953Y-88673332D01*
X133741730Y-88648572D01*
X133741731Y-88648572D01*
X133741733Y-88648571D01*
X133854208Y-88626198D01*
X133877657Y-88619085D01*
X133899268Y-88607534D01*
X133918210Y-88591988D01*
X133933756Y-88573046D01*
X133945307Y-88551436D01*
X133952420Y-88527986D01*
X133954822Y-88503600D01*
X133952420Y-88479214D01*
X133945307Y-88455765D01*
X133933756Y-88434154D01*
X133918210Y-88415212D01*
X133899268Y-88399666D01*
X133877658Y-88388115D01*
X133854208Y-88381002D01*
X133741733Y-88358629D01*
X133741731Y-88358628D01*
X133741730Y-88358628D01*
X133681953Y-88333868D01*
X133579905Y-88291598D01*
X133434265Y-88194284D01*
X133310416Y-88070435D01*
X133213102Y-87924795D01*
X133146071Y-87762967D01*
X133111900Y-87591180D01*
X133111900Y-87416020D01*
X133146071Y-87244233D01*
X133213102Y-87082405D01*
X133310416Y-86936765D01*
X133434265Y-86812916D01*
X133579905Y-86715602D01*
X133681953Y-86673332D01*
X133741730Y-86648572D01*
X133741731Y-86648572D01*
X133741733Y-86648571D01*
X133854208Y-86626198D01*
X133877657Y-86619085D01*
X133899268Y-86607534D01*
X133918210Y-86591988D01*
X133933756Y-86573046D01*
X133945307Y-86551436D01*
X133952420Y-86527986D01*
X133954822Y-86503600D01*
X133952420Y-86479214D01*
X133945307Y-86455765D01*
X133933756Y-86434154D01*
X133918210Y-86415212D01*
X133899268Y-86399666D01*
X133877658Y-86388115D01*
X133854208Y-86381002D01*
X133741733Y-86358629D01*
X133741731Y-86358628D01*
X133741730Y-86358628D01*
X133644481Y-86318346D01*
X133579905Y-86291598D01*
X133434265Y-86194284D01*
X133310416Y-86070435D01*
X133213102Y-85924795D01*
X133146071Y-85762967D01*
X133111900Y-85591180D01*
X133111900Y-85416020D01*
X133146071Y-85244233D01*
X133166932Y-85193871D01*
X133190341Y-85137356D01*
X133213102Y-85082405D01*
X133310416Y-84936765D01*
X133434265Y-84812916D01*
X133579905Y-84715602D01*
X133681953Y-84673332D01*
X133741730Y-84648572D01*
X133741731Y-84648572D01*
X133741733Y-84648571D01*
X133854208Y-84626198D01*
X133877657Y-84619085D01*
X133899268Y-84607534D01*
X133918210Y-84591988D01*
X133933756Y-84573046D01*
X133945307Y-84551436D01*
X133952420Y-84527986D01*
X133954822Y-84503600D01*
X133952420Y-84479214D01*
X133945307Y-84455765D01*
X133933756Y-84434154D01*
X133918210Y-84415212D01*
X133899268Y-84399666D01*
X133877658Y-84388115D01*
X133854208Y-84381002D01*
X133741733Y-84358629D01*
X133741731Y-84358628D01*
X133741730Y-84358628D01*
X133681953Y-84333868D01*
X133579905Y-84291598D01*
X133434265Y-84194284D01*
X133310416Y-84070435D01*
X133213102Y-83924795D01*
X133146071Y-83762967D01*
X133111900Y-83591180D01*
X133111900Y-83416020D01*
X133146071Y-83244233D01*
X133213102Y-83082405D01*
X133310416Y-82936765D01*
X133434265Y-82812916D01*
X133579905Y-82715602D01*
X133692104Y-82669128D01*
X133741730Y-82648572D01*
X133741731Y-82648572D01*
X133741733Y-82648571D01*
X133913520Y-82614400D01*
X134088680Y-82614400D01*
X134260467Y-82648571D01*
X134260467Y-82648571D01*
G37*
G36*
X141725337Y-91420015D02*
X141809941Y-91445679D01*
X141887913Y-91487356D01*
X141956256Y-91543444D01*
X142012344Y-91611787D01*
X142054021Y-91689759D01*
X142079685Y-91774363D01*
X142088351Y-91862349D01*
X142088351Y-91862351D01*
X142079685Y-91950337D01*
X142054021Y-92034941D01*
X142012344Y-92112913D01*
X141956256Y-92181256D01*
X141887913Y-92237344D01*
X141809941Y-92279021D01*
X141725337Y-92304685D01*
X141637351Y-92313351D01*
X141637349Y-92313351D01*
X141549363Y-92304685D01*
X141464759Y-92279021D01*
X141386787Y-92237344D01*
X141318444Y-92181256D01*
X141262356Y-92112913D01*
X141220679Y-92034941D01*
X141195015Y-91950337D01*
X141194941Y-91949586D01*
X141187341Y-91931237D01*
X141173727Y-91910863D01*
X141156400Y-91893535D01*
X141136025Y-91879921D01*
X141113386Y-91870544D01*
X141112837Y-91870435D01*
X141131084Y-91862876D01*
X141151458Y-91849261D01*
X141168784Y-91831934D01*
X141182397Y-91811558D01*
X141191774Y-91788919D01*
X141192811Y-91783703D01*
X141194712Y-91777435D01*
X141195015Y-91774363D01*
X141220679Y-91689759D01*
X141262356Y-91611787D01*
X141318444Y-91543444D01*
X141386787Y-91487356D01*
X141464759Y-91445679D01*
X141549363Y-91420015D01*
X141637349Y-91411349D01*
X141637351Y-91411349D01*
X141725337Y-91420015D01*
X141725337Y-91420015D01*
G37*
G36*
X153949087Y-90308765D02*
X154033691Y-90334429D01*
X154111663Y-90376106D01*
X154180006Y-90432194D01*
X154236094Y-90500537D01*
X154277771Y-90578509D01*
X154303435Y-90663113D01*
X154312101Y-90751099D01*
X154312101Y-90751101D01*
X154303435Y-90839087D01*
X154277771Y-90923691D01*
X154236094Y-91001663D01*
X154180006Y-91070006D01*
X154111663Y-91126094D01*
X154108940Y-91127549D01*
X154105073Y-91130723D01*
X154087746Y-91148050D01*
X154074132Y-91168424D01*
X154064754Y-91191063D01*
X154059973Y-91215096D01*
X154059973Y-91239601D01*
X154064753Y-91263634D01*
X154074130Y-91286273D01*
X154087744Y-91306648D01*
X154105073Y-91323977D01*
X154108940Y-91327151D01*
X154111663Y-91328606D01*
X154180006Y-91384694D01*
X154236094Y-91453037D01*
X154277771Y-91531009D01*
X154303435Y-91615613D01*
X154312101Y-91703599D01*
X154312101Y-91703601D01*
X154303435Y-91791587D01*
X154277771Y-91876191D01*
X154236094Y-91954163D01*
X154180006Y-92022506D01*
X154111663Y-92078594D01*
X154033691Y-92120271D01*
X153949087Y-92145935D01*
X153861101Y-92154601D01*
X153861099Y-92154601D01*
X153773113Y-92145935D01*
X153688509Y-92120271D01*
X153610537Y-92078594D01*
X153542194Y-92022506D01*
X153486106Y-91954163D01*
X153444429Y-91876191D01*
X153418765Y-91791587D01*
X153410099Y-91703601D01*
X153410099Y-91703599D01*
X153418765Y-91615613D01*
X153444429Y-91531009D01*
X153486106Y-91453037D01*
X153542194Y-91384694D01*
X153610537Y-91328606D01*
X153613260Y-91327151D01*
X153617127Y-91323977D01*
X153634454Y-91306650D01*
X153648068Y-91286276D01*
X153657446Y-91263637D01*
X153662227Y-91239604D01*
X153662227Y-91215099D01*
X153657447Y-91191066D01*
X153648070Y-91168427D01*
X153634456Y-91148052D01*
X153617127Y-91130723D01*
X153613260Y-91127549D01*
X153610537Y-91126094D01*
X153542194Y-91070006D01*
X153486106Y-91001663D01*
X153444429Y-90923691D01*
X153418765Y-90839087D01*
X153410099Y-90751101D01*
X153410099Y-90751099D01*
X153418765Y-90663113D01*
X153444429Y-90578509D01*
X153486106Y-90500537D01*
X153542194Y-90432194D01*
X153610537Y-90376106D01*
X153688509Y-90334429D01*
X153773113Y-90308765D01*
X153861099Y-90300099D01*
X153861101Y-90300099D01*
X153949087Y-90308765D01*
X153949087Y-90308765D01*
G37*
G36*
X157591796Y-90015899D02*
X157612170Y-90029513D01*
X157634809Y-90038892D01*
X157658842Y-90043674D01*
X157683346Y-90043675D01*
X157707380Y-90038895D01*
X157730019Y-90029519D01*
X157750395Y-90015906D01*
X157758701Y-90007600D01*
X158572100Y-90007600D01*
X158572100Y-90859600D01*
X157758702Y-90859600D01*
X157750404Y-90851301D01*
X157730030Y-90837687D01*
X157707391Y-90828308D01*
X157683358Y-90823526D01*
X157658854Y-90823525D01*
X157634820Y-90828305D01*
X157612181Y-90837681D01*
X157591805Y-90851294D01*
X157583499Y-90859600D01*
X156770100Y-90859600D01*
X156770100Y-90007600D01*
X157583498Y-90007600D01*
X157591796Y-90015899D01*
X157591796Y-90015899D01*
G37*
G36*
X165067100Y-89194600D02*
X163665100Y-89194600D01*
X163665100Y-87542600D01*
X165067100Y-87542600D01*
X165067100Y-89194600D01*
X165067100Y-89194600D01*
G37*
G36*
X160567100Y-89194600D02*
X159165100Y-89194600D01*
X159165100Y-87542600D01*
X160567100Y-87542600D01*
X160567100Y-89194600D01*
X160567100Y-89194600D01*
G37*
G36*
X142076564Y-87959038D02*
X142084708Y-87961508D01*
X142092208Y-87965517D01*
X142098785Y-87970915D01*
X142104183Y-87977492D01*
X142108192Y-87984992D01*
X142110662Y-87993136D01*
X142112100Y-88007738D01*
X142112100Y-89009462D01*
X142110662Y-89024064D01*
X142108192Y-89032208D01*
X142104183Y-89039708D01*
X142098785Y-89046285D01*
X142092208Y-89051683D01*
X142084708Y-89055692D01*
X142076564Y-89058162D01*
X142061962Y-89059600D01*
X140260238Y-89059600D01*
X140245636Y-89058162D01*
X140237492Y-89055692D01*
X140229992Y-89051683D01*
X140223415Y-89046285D01*
X140218017Y-89039708D01*
X140214008Y-89032208D01*
X140211538Y-89024064D01*
X140210100Y-89009462D01*
X140210100Y-88007738D01*
X140211538Y-87993136D01*
X140214008Y-87984992D01*
X140218017Y-87977492D01*
X140223415Y-87970915D01*
X140229992Y-87965517D01*
X140237492Y-87961508D01*
X140245636Y-87959038D01*
X140260238Y-87957600D01*
X142061962Y-87957600D01*
X142076564Y-87959038D01*
X142076564Y-87959038D01*
G37*
G36*
X138541796Y-88110899D02*
X138562170Y-88124513D01*
X138584809Y-88133892D01*
X138608842Y-88138674D01*
X138633346Y-88138675D01*
X138657380Y-88133895D01*
X138680019Y-88124519D01*
X138700395Y-88110906D01*
X138708701Y-88102600D01*
X139522100Y-88102600D01*
X139522100Y-88954600D01*
X138708702Y-88954600D01*
X138700404Y-88946301D01*
X138680030Y-88932687D01*
X138657391Y-88923308D01*
X138633358Y-88918526D01*
X138608854Y-88918525D01*
X138584820Y-88923305D01*
X138562181Y-88932681D01*
X138541805Y-88946294D01*
X138533499Y-88954600D01*
X137720100Y-88954600D01*
X137720100Y-88102600D01*
X138533498Y-88102600D01*
X138541796Y-88110899D01*
X138541796Y-88110899D01*
G37*
G36*
X157591796Y-88110899D02*
X157612170Y-88124513D01*
X157634809Y-88133892D01*
X157658842Y-88138674D01*
X157683346Y-88138675D01*
X157707380Y-88133895D01*
X157730019Y-88124519D01*
X157750395Y-88110906D01*
X157758701Y-88102600D01*
X158572100Y-88102600D01*
X158572100Y-88954600D01*
X157758702Y-88954600D01*
X157750404Y-88946301D01*
X157730030Y-88932687D01*
X157707391Y-88923308D01*
X157683358Y-88918526D01*
X157658854Y-88918525D01*
X157634820Y-88923305D01*
X157612181Y-88932681D01*
X157591805Y-88946294D01*
X157583499Y-88954600D01*
X156770100Y-88954600D01*
X156770100Y-88102600D01*
X157583498Y-88102600D01*
X157591796Y-88110899D01*
X157591796Y-88110899D01*
G37*
G36*
X150697100Y-87919600D02*
X144795100Y-87919600D01*
X144795100Y-86217600D01*
X150697100Y-86217600D01*
X150697100Y-87919600D01*
X150697100Y-87919600D01*
G37*
G36*
X153017100Y-86218498D02*
X153008801Y-86226796D01*
X152995187Y-86247170D01*
X152985808Y-86269809D01*
X152981026Y-86293842D01*
X152981025Y-86318346D01*
X152985805Y-86342380D01*
X152995181Y-86365019D01*
X153008794Y-86385395D01*
X153017100Y-86393701D01*
X153017100Y-87207100D01*
X152165100Y-87207100D01*
X152165100Y-86393702D01*
X152173399Y-86385404D01*
X152187013Y-86365030D01*
X152196392Y-86342391D01*
X152201174Y-86318358D01*
X152201175Y-86293854D01*
X152196395Y-86269820D01*
X152187019Y-86247181D01*
X152173406Y-86226805D01*
X152165100Y-86218499D01*
X152165100Y-85405100D01*
X153017100Y-85405100D01*
X153017100Y-86218498D01*
X153017100Y-86218498D01*
G37*
G36*
X142076564Y-85459038D02*
X142084708Y-85461508D01*
X142092208Y-85465517D01*
X142098785Y-85470915D01*
X142104183Y-85477492D01*
X142108192Y-85484992D01*
X142110662Y-85493136D01*
X142112100Y-85507738D01*
X142112100Y-86509462D01*
X142110662Y-86524064D01*
X142108192Y-86532208D01*
X142104183Y-86539708D01*
X142098785Y-86546285D01*
X142092208Y-86551683D01*
X142084708Y-86555692D01*
X142076564Y-86558162D01*
X142061962Y-86559600D01*
X140260238Y-86559600D01*
X140245636Y-86558162D01*
X140237492Y-86555692D01*
X140229992Y-86551683D01*
X140223415Y-86546285D01*
X140218017Y-86539708D01*
X140214008Y-86532208D01*
X140211538Y-86524064D01*
X140210100Y-86509462D01*
X140210100Y-85507738D01*
X140211538Y-85493136D01*
X140214008Y-85484992D01*
X140218017Y-85477492D01*
X140223415Y-85470915D01*
X140229992Y-85465517D01*
X140237492Y-85461508D01*
X140245636Y-85459038D01*
X140260238Y-85457600D01*
X142061962Y-85457600D01*
X142076564Y-85459038D01*
X142076564Y-85459038D01*
G37*
G36*
X138541796Y-85570899D02*
X138562170Y-85584513D01*
X138584809Y-85593892D01*
X138608842Y-85598674D01*
X138633346Y-85598675D01*
X138657380Y-85593895D01*
X138680019Y-85584519D01*
X138700395Y-85570906D01*
X138708701Y-85562600D01*
X139522100Y-85562600D01*
X139522100Y-86414600D01*
X138708702Y-86414600D01*
X138700404Y-86406301D01*
X138680030Y-86392687D01*
X138657391Y-86383308D01*
X138633358Y-86378526D01*
X138608854Y-86378525D01*
X138584820Y-86383305D01*
X138562181Y-86392681D01*
X138541805Y-86406294D01*
X138533499Y-86414600D01*
X137720100Y-86414600D01*
X137720100Y-85562600D01*
X138533498Y-85562600D01*
X138541796Y-85570899D01*
X138541796Y-85570899D01*
G37*
G36*
X163260467Y-76648571D02*
X163260469Y-76648572D01*
X163260470Y-76648572D01*
X163320247Y-76673332D01*
X163422295Y-76715602D01*
X163567935Y-76812916D01*
X163691784Y-76936765D01*
X163789098Y-77082405D01*
X163856129Y-77244233D01*
X163890300Y-77416020D01*
X163890300Y-77591180D01*
X163856129Y-77762967D01*
X163789098Y-77924795D01*
X163691784Y-78070435D01*
X163567935Y-78194284D01*
X163422295Y-78291598D01*
X163320247Y-78333868D01*
X163260470Y-78358628D01*
X163260469Y-78358628D01*
X163260467Y-78358629D01*
X163147992Y-78381002D01*
X163124543Y-78388115D01*
X163102932Y-78399666D01*
X163083990Y-78415212D01*
X163068444Y-78434154D01*
X163056893Y-78455764D01*
X163049780Y-78479214D01*
X163047378Y-78503600D01*
X163049780Y-78527986D01*
X163056893Y-78551435D01*
X163068444Y-78573046D01*
X163083990Y-78591988D01*
X163102932Y-78607534D01*
X163124542Y-78619085D01*
X163147992Y-78626198D01*
X163260467Y-78648571D01*
X163260469Y-78648572D01*
X163260470Y-78648572D01*
X163320247Y-78673332D01*
X163422295Y-78715602D01*
X163567935Y-78812916D01*
X163691784Y-78936765D01*
X163789098Y-79082405D01*
X163856129Y-79244233D01*
X163890300Y-79416020D01*
X163890300Y-79591180D01*
X163856129Y-79762967D01*
X163789098Y-79924795D01*
X163691784Y-80070435D01*
X163567935Y-80194284D01*
X163422295Y-80291598D01*
X163320247Y-80333868D01*
X163260470Y-80358628D01*
X163260469Y-80358628D01*
X163260467Y-80358629D01*
X163147992Y-80381002D01*
X163124543Y-80388115D01*
X163102932Y-80399666D01*
X163083990Y-80415212D01*
X163068444Y-80434154D01*
X163056893Y-80455764D01*
X163049780Y-80479214D01*
X163047378Y-80503600D01*
X163049780Y-80527986D01*
X163056893Y-80551435D01*
X163068444Y-80573046D01*
X163083990Y-80591988D01*
X163102932Y-80607534D01*
X163124542Y-80619085D01*
X163147992Y-80626198D01*
X163260467Y-80648571D01*
X163260469Y-80648572D01*
X163260470Y-80648572D01*
X163320247Y-80673332D01*
X163422295Y-80715602D01*
X163567935Y-80812916D01*
X163691784Y-80936765D01*
X163789098Y-81082405D01*
X163856129Y-81244233D01*
X163890300Y-81416020D01*
X163890300Y-81591180D01*
X163856977Y-81758705D01*
X163856128Y-81762970D01*
X163839916Y-81802109D01*
X163789098Y-81924795D01*
X163691784Y-82070435D01*
X163567935Y-82194284D01*
X163422295Y-82291598D01*
X163320247Y-82333868D01*
X163260470Y-82358628D01*
X163260469Y-82358628D01*
X163260467Y-82358629D01*
X163147992Y-82381002D01*
X163124543Y-82388115D01*
X163102932Y-82399666D01*
X163083990Y-82415212D01*
X163068444Y-82434154D01*
X163056893Y-82455764D01*
X163049780Y-82479214D01*
X163047378Y-82503600D01*
X163049780Y-82527986D01*
X163056893Y-82551435D01*
X163068444Y-82573046D01*
X163083990Y-82591988D01*
X163102932Y-82607534D01*
X163124542Y-82619085D01*
X163147992Y-82626198D01*
X163260467Y-82648571D01*
X163260469Y-82648572D01*
X163260470Y-82648572D01*
X163310096Y-82669128D01*
X163422295Y-82715602D01*
X163567935Y-82812916D01*
X163691784Y-82936765D01*
X163789098Y-83082405D01*
X163856129Y-83244233D01*
X163890300Y-83416020D01*
X163890300Y-83591180D01*
X163856129Y-83762967D01*
X163789098Y-83924795D01*
X163691784Y-84070435D01*
X163567935Y-84194284D01*
X163422295Y-84291598D01*
X163320247Y-84333868D01*
X163260470Y-84358628D01*
X163260469Y-84358628D01*
X163260467Y-84358629D01*
X163147992Y-84381002D01*
X163124543Y-84388115D01*
X163102932Y-84399666D01*
X163083990Y-84415212D01*
X163068444Y-84434154D01*
X163056893Y-84455764D01*
X163049780Y-84479214D01*
X163047378Y-84503600D01*
X163049780Y-84527986D01*
X163056893Y-84551435D01*
X163068444Y-84573046D01*
X163083990Y-84591988D01*
X163102932Y-84607534D01*
X163124542Y-84619085D01*
X163147992Y-84626198D01*
X163260467Y-84648571D01*
X163260469Y-84648572D01*
X163260470Y-84648572D01*
X163320247Y-84673332D01*
X163422295Y-84715602D01*
X163567935Y-84812916D01*
X163691784Y-84936765D01*
X163789098Y-85082405D01*
X163811859Y-85137356D01*
X163835269Y-85193871D01*
X163856129Y-85244233D01*
X163890300Y-85416020D01*
X163890300Y-85591180D01*
X163856129Y-85762967D01*
X163789098Y-85924795D01*
X163691784Y-86070435D01*
X163567935Y-86194284D01*
X163422295Y-86291598D01*
X163357719Y-86318346D01*
X163260470Y-86358628D01*
X163260469Y-86358628D01*
X163260467Y-86358629D01*
X163088680Y-86392800D01*
X162913520Y-86392800D01*
X162741733Y-86358629D01*
X162741731Y-86358628D01*
X162741730Y-86358628D01*
X162644481Y-86318346D01*
X162579905Y-86291598D01*
X162434265Y-86194284D01*
X162310416Y-86070435D01*
X162213102Y-85924795D01*
X162146071Y-85762967D01*
X162111900Y-85591180D01*
X162111900Y-85416020D01*
X162146071Y-85244233D01*
X162166932Y-85193871D01*
X162190341Y-85137356D01*
X162213102Y-85082405D01*
X162310416Y-84936765D01*
X162434265Y-84812916D01*
X162579905Y-84715602D01*
X162681953Y-84673332D01*
X162741730Y-84648572D01*
X162741731Y-84648572D01*
X162741733Y-84648571D01*
X162854208Y-84626198D01*
X162877657Y-84619085D01*
X162899268Y-84607534D01*
X162918210Y-84591988D01*
X162933756Y-84573046D01*
X162945307Y-84551436D01*
X162952420Y-84527986D01*
X162954822Y-84503600D01*
X162952420Y-84479214D01*
X162945307Y-84455765D01*
X162933756Y-84434154D01*
X162918210Y-84415212D01*
X162899268Y-84399666D01*
X162877658Y-84388115D01*
X162854208Y-84381002D01*
X162741733Y-84358629D01*
X162741731Y-84358628D01*
X162741730Y-84358628D01*
X162681953Y-84333868D01*
X162579905Y-84291598D01*
X162434265Y-84194284D01*
X162310416Y-84070435D01*
X162213102Y-83924795D01*
X162146071Y-83762967D01*
X162111900Y-83591180D01*
X162111900Y-83416020D01*
X162146071Y-83244233D01*
X162213102Y-83082405D01*
X162310416Y-82936765D01*
X162434265Y-82812916D01*
X162579905Y-82715602D01*
X162692104Y-82669128D01*
X162741730Y-82648572D01*
X162741731Y-82648572D01*
X162741733Y-82648571D01*
X162854208Y-82626198D01*
X162877657Y-82619085D01*
X162899268Y-82607534D01*
X162918210Y-82591988D01*
X162933756Y-82573046D01*
X162945307Y-82551436D01*
X162952420Y-82527986D01*
X162954822Y-82503600D01*
X162952420Y-82479214D01*
X162945307Y-82455765D01*
X162933756Y-82434154D01*
X162918210Y-82415212D01*
X162899268Y-82399666D01*
X162877658Y-82388115D01*
X162854208Y-82381002D01*
X162741733Y-82358629D01*
X162741731Y-82358628D01*
X162741730Y-82358628D01*
X162681953Y-82333868D01*
X162579905Y-82291598D01*
X162434265Y-82194284D01*
X162310416Y-82070435D01*
X162213102Y-81924795D01*
X162162284Y-81802109D01*
X162146072Y-81762970D01*
X162145224Y-81758705D01*
X162111900Y-81591180D01*
X162111900Y-81416020D01*
X162146071Y-81244233D01*
X162213102Y-81082405D01*
X162310416Y-80936765D01*
X162434265Y-80812916D01*
X162579905Y-80715602D01*
X162681953Y-80673332D01*
X162741730Y-80648572D01*
X162741731Y-80648572D01*
X162741733Y-80648571D01*
X162854208Y-80626198D01*
X162877657Y-80619085D01*
X162899268Y-80607534D01*
X162918210Y-80591988D01*
X162933756Y-80573046D01*
X162945307Y-80551436D01*
X162952420Y-80527986D01*
X162954822Y-80503600D01*
X162952420Y-80479214D01*
X162945307Y-80455765D01*
X162933756Y-80434154D01*
X162918210Y-80415212D01*
X162899268Y-80399666D01*
X162877658Y-80388115D01*
X162854208Y-80381002D01*
X162741733Y-80358629D01*
X162741731Y-80358628D01*
X162741730Y-80358628D01*
X162681953Y-80333868D01*
X162579905Y-80291598D01*
X162434265Y-80194284D01*
X162310416Y-80070435D01*
X162213102Y-79924795D01*
X162146071Y-79762967D01*
X162111900Y-79591180D01*
X162111900Y-79416020D01*
X162146071Y-79244233D01*
X162213102Y-79082405D01*
X162310416Y-78936765D01*
X162434265Y-78812916D01*
X162579905Y-78715602D01*
X162681953Y-78673332D01*
X162741730Y-78648572D01*
X162741731Y-78648572D01*
X162741733Y-78648571D01*
X162854208Y-78626198D01*
X162877657Y-78619085D01*
X162899268Y-78607534D01*
X162918210Y-78591988D01*
X162933756Y-78573046D01*
X162945307Y-78551436D01*
X162952420Y-78527986D01*
X162954822Y-78503600D01*
X162952420Y-78479214D01*
X162945307Y-78455765D01*
X162933756Y-78434154D01*
X162918210Y-78415212D01*
X162899268Y-78399666D01*
X162877658Y-78388115D01*
X162854208Y-78381002D01*
X162741733Y-78358629D01*
X162741731Y-78358628D01*
X162741730Y-78358628D01*
X162681953Y-78333868D01*
X162579905Y-78291598D01*
X162434265Y-78194284D01*
X162310416Y-78070435D01*
X162213102Y-77924795D01*
X162146071Y-77762967D01*
X162111900Y-77591180D01*
X162111900Y-77416020D01*
X162146071Y-77244233D01*
X162213102Y-77082405D01*
X162310416Y-76936765D01*
X162434265Y-76812916D01*
X162579905Y-76715602D01*
X162681953Y-76673332D01*
X162741730Y-76648572D01*
X162741731Y-76648572D01*
X162741733Y-76648571D01*
X162913520Y-76614400D01*
X163088680Y-76614400D01*
X163260467Y-76648571D01*
X163260467Y-76648571D01*
G37*
G36*
X145217837Y-85070015D02*
X145302441Y-85095679D01*
X145380413Y-85137356D01*
X145448756Y-85193444D01*
X145504844Y-85261787D01*
X145546521Y-85339759D01*
X145568209Y-85411255D01*
X145575234Y-85428216D01*
X145588848Y-85448590D01*
X145606175Y-85465918D01*
X145626550Y-85479532D01*
X145649189Y-85488909D01*
X145673222Y-85493690D01*
X145697726Y-85493690D01*
X145721760Y-85488910D01*
X145744399Y-85479533D01*
X145764773Y-85465919D01*
X145782101Y-85448592D01*
X145795715Y-85428217D01*
X145802742Y-85411253D01*
X145824429Y-85339759D01*
X145866106Y-85261787D01*
X145922194Y-85193444D01*
X145990537Y-85137356D01*
X146068509Y-85095679D01*
X146153113Y-85070015D01*
X146241099Y-85061349D01*
X146241101Y-85061349D01*
X146329087Y-85070015D01*
X146413691Y-85095679D01*
X146491663Y-85137356D01*
X146560006Y-85193444D01*
X146616094Y-85261787D01*
X146657771Y-85339759D01*
X146683435Y-85424363D01*
X146692101Y-85512349D01*
X146692101Y-85512351D01*
X146683435Y-85600337D01*
X146657771Y-85684941D01*
X146616094Y-85762913D01*
X146560006Y-85831256D01*
X146491663Y-85887344D01*
X146413691Y-85929021D01*
X146329087Y-85954685D01*
X146241101Y-85963351D01*
X146241099Y-85963351D01*
X146153113Y-85954685D01*
X146068509Y-85929021D01*
X145990537Y-85887344D01*
X145922194Y-85831256D01*
X145866106Y-85762913D01*
X145824429Y-85684941D01*
X145802741Y-85613445D01*
X145795716Y-85596484D01*
X145782102Y-85576110D01*
X145764775Y-85558782D01*
X145744400Y-85545168D01*
X145721761Y-85535791D01*
X145697728Y-85531010D01*
X145673224Y-85531010D01*
X145649190Y-85535790D01*
X145626551Y-85545167D01*
X145606177Y-85558781D01*
X145588849Y-85576108D01*
X145575235Y-85596483D01*
X145568208Y-85613447D01*
X145546521Y-85684941D01*
X145504844Y-85762913D01*
X145448756Y-85831256D01*
X145380413Y-85887344D01*
X145302441Y-85929021D01*
X145217837Y-85954685D01*
X145129851Y-85963351D01*
X145129849Y-85963351D01*
X145041863Y-85954685D01*
X144957259Y-85929021D01*
X144879287Y-85887344D01*
X144810944Y-85831256D01*
X144754856Y-85762913D01*
X144713179Y-85684941D01*
X144687515Y-85600337D01*
X144678849Y-85512351D01*
X144678849Y-85512349D01*
X144687515Y-85424363D01*
X144713179Y-85339759D01*
X144754856Y-85261787D01*
X144810944Y-85193444D01*
X144879287Y-85137356D01*
X144957259Y-85095679D01*
X145041863Y-85070015D01*
X145129849Y-85061349D01*
X145129851Y-85061349D01*
X145217837Y-85070015D01*
X145217837Y-85070015D01*
G37*
G36*
X149336796Y-83665899D02*
X149357170Y-83679513D01*
X149379809Y-83688892D01*
X149403842Y-83693674D01*
X149428346Y-83693675D01*
X149452380Y-83688895D01*
X149475019Y-83679519D01*
X149495395Y-83665906D01*
X149503701Y-83657600D01*
X150317100Y-83657600D01*
X150317100Y-84509600D01*
X149503702Y-84509600D01*
X149495404Y-84501301D01*
X149475030Y-84487687D01*
X149452391Y-84478308D01*
X149428358Y-84473526D01*
X149403854Y-84473525D01*
X149379820Y-84478305D01*
X149357181Y-84487681D01*
X149336805Y-84501294D01*
X149328499Y-84509600D01*
X148515100Y-84509600D01*
X148515100Y-83657600D01*
X149328498Y-83657600D01*
X149336796Y-83665899D01*
X149336796Y-83665899D01*
G37*
G36*
X146161796Y-83665899D02*
X146182170Y-83679513D01*
X146204809Y-83688892D01*
X146228842Y-83693674D01*
X146253346Y-83693675D01*
X146277380Y-83688895D01*
X146300019Y-83679519D01*
X146320395Y-83665906D01*
X146328701Y-83657600D01*
X147142100Y-83657600D01*
X147142100Y-84509600D01*
X146328702Y-84509600D01*
X146320404Y-84501301D01*
X146300030Y-84487687D01*
X146277391Y-84478308D01*
X146253358Y-84473526D01*
X146228854Y-84473525D01*
X146204820Y-84478305D01*
X146182181Y-84487681D01*
X146161805Y-84501294D01*
X146153499Y-84509600D01*
X145340100Y-84509600D01*
X145340100Y-83657600D01*
X146153498Y-83657600D01*
X146161796Y-83665899D01*
X146161796Y-83665899D01*
G37*
G36*
X141919175Y-81960198D02*
X141943561Y-81962600D01*
X142918639Y-81962600D01*
X142943025Y-81960198D01*
X142951059Y-81958600D01*
X143011141Y-81958600D01*
X143019175Y-81960198D01*
X143043561Y-81962600D01*
X143282100Y-81962600D01*
X143282100Y-82201139D01*
X143284502Y-82225525D01*
X143286100Y-82233559D01*
X143286100Y-82293641D01*
X143284502Y-82301675D01*
X143282100Y-82326061D01*
X143282100Y-83664600D01*
X141580100Y-83664600D01*
X141580100Y-82326061D01*
X141577698Y-82301675D01*
X141576100Y-82293641D01*
X141576100Y-82233559D01*
X141577698Y-82225525D01*
X141580100Y-82201139D01*
X141580100Y-81962600D01*
X141818639Y-81962600D01*
X141843025Y-81960198D01*
X141851059Y-81958600D01*
X141911141Y-81958600D01*
X141919175Y-81960198D01*
X141919175Y-81960198D01*
G37*
G36*
X146161796Y-81760899D02*
X146182170Y-81774513D01*
X146204809Y-81783892D01*
X146228842Y-81788674D01*
X146253346Y-81788675D01*
X146277380Y-81783895D01*
X146300019Y-81774519D01*
X146320395Y-81760906D01*
X146328701Y-81752600D01*
X147142100Y-81752600D01*
X147142100Y-82604600D01*
X146328702Y-82604600D01*
X146320404Y-82596301D01*
X146300030Y-82582687D01*
X146277391Y-82573308D01*
X146253358Y-82568526D01*
X146228854Y-82568525D01*
X146204820Y-82573305D01*
X146182181Y-82582681D01*
X146161805Y-82596294D01*
X146153499Y-82604600D01*
X145340100Y-82604600D01*
X145340100Y-81752600D01*
X146153498Y-81752600D01*
X146161796Y-81760899D01*
X146161796Y-81760899D01*
G37*
G36*
X140342100Y-80839600D02*
X139440100Y-80839600D01*
X139440100Y-79937600D01*
X140342100Y-79937600D01*
X140342100Y-80839600D01*
X140342100Y-80839600D01*
G37*
G36*
X141929600Y-80839600D02*
X141027600Y-80839600D01*
X141027600Y-79937600D01*
X141929600Y-79937600D01*
X141929600Y-80839600D01*
X141929600Y-80839600D01*
G37*
G36*
X134260467Y-76648571D02*
X134260469Y-76648572D01*
X134260470Y-76648572D01*
X134320247Y-76673332D01*
X134422295Y-76715602D01*
X134567935Y-76812916D01*
X134691784Y-76936765D01*
X134789098Y-77082405D01*
X134856129Y-77244233D01*
X134890300Y-77416020D01*
X134890300Y-77591180D01*
X134856129Y-77762967D01*
X134789098Y-77924795D01*
X134691784Y-78070435D01*
X134567935Y-78194284D01*
X134422295Y-78291598D01*
X134320247Y-78333868D01*
X134260470Y-78358628D01*
X134260469Y-78358628D01*
X134260467Y-78358629D01*
X134147992Y-78381002D01*
X134124543Y-78388115D01*
X134102932Y-78399666D01*
X134083990Y-78415212D01*
X134068444Y-78434154D01*
X134056893Y-78455764D01*
X134049780Y-78479214D01*
X134047378Y-78503600D01*
X134049780Y-78527986D01*
X134056893Y-78551435D01*
X134068444Y-78573046D01*
X134083990Y-78591988D01*
X134102932Y-78607534D01*
X134124542Y-78619085D01*
X134147992Y-78626198D01*
X134260467Y-78648571D01*
X134260469Y-78648572D01*
X134260470Y-78648572D01*
X134320247Y-78673332D01*
X134422295Y-78715602D01*
X134567935Y-78812916D01*
X134691784Y-78936765D01*
X134789098Y-79082405D01*
X134856129Y-79244233D01*
X134890300Y-79416020D01*
X134890300Y-79591180D01*
X134856129Y-79762967D01*
X134789098Y-79924795D01*
X134691784Y-80070435D01*
X134567935Y-80194284D01*
X134422295Y-80291598D01*
X134320247Y-80333868D01*
X134260470Y-80358628D01*
X134260469Y-80358628D01*
X134260467Y-80358629D01*
X134088680Y-80392800D01*
X133913520Y-80392800D01*
X133741733Y-80358629D01*
X133741731Y-80358628D01*
X133741730Y-80358628D01*
X133681953Y-80333868D01*
X133579905Y-80291598D01*
X133434265Y-80194284D01*
X133310416Y-80070435D01*
X133213102Y-79924795D01*
X133146071Y-79762967D01*
X133111900Y-79591180D01*
X133111900Y-79416020D01*
X133146071Y-79244233D01*
X133213102Y-79082405D01*
X133310416Y-78936765D01*
X133434265Y-78812916D01*
X133579905Y-78715602D01*
X133681953Y-78673332D01*
X133741730Y-78648572D01*
X133741731Y-78648572D01*
X133741733Y-78648571D01*
X133854208Y-78626198D01*
X133877657Y-78619085D01*
X133899268Y-78607534D01*
X133918210Y-78591988D01*
X133933756Y-78573046D01*
X133945307Y-78551436D01*
X133952420Y-78527986D01*
X133954822Y-78503600D01*
X133952420Y-78479214D01*
X133945307Y-78455765D01*
X133933756Y-78434154D01*
X133918210Y-78415212D01*
X133899268Y-78399666D01*
X133877658Y-78388115D01*
X133854208Y-78381002D01*
X133741733Y-78358629D01*
X133741731Y-78358628D01*
X133741730Y-78358628D01*
X133681953Y-78333868D01*
X133579905Y-78291598D01*
X133434265Y-78194284D01*
X133310416Y-78070435D01*
X133213102Y-77924795D01*
X133146071Y-77762967D01*
X133111900Y-77591180D01*
X133111900Y-77416020D01*
X133146071Y-77244233D01*
X133213102Y-77082405D01*
X133310416Y-76936765D01*
X133434265Y-76812916D01*
X133579905Y-76715602D01*
X133681953Y-76673332D01*
X133741730Y-76648572D01*
X133741731Y-76648572D01*
X133741733Y-76648571D01*
X133913520Y-76614400D01*
X134088680Y-76614400D01*
X134260467Y-76648571D01*
X134260467Y-76648571D01*
G37*
G36*
X140342100Y-79339600D02*
X139440100Y-79339600D01*
X139440100Y-78437600D01*
X140342100Y-78437600D01*
X140342100Y-79339600D01*
X140342100Y-79339600D01*
G37*
G36*
X141929600Y-79339600D02*
X141027600Y-79339600D01*
X141027600Y-78437600D01*
X141929600Y-78437600D01*
X141929600Y-79339600D01*
X141929600Y-79339600D01*
G37*
G36*
X140317100Y-76375998D02*
X140308801Y-76384296D01*
X140295187Y-76404670D01*
X140285808Y-76427309D01*
X140281026Y-76451342D01*
X140281025Y-76475846D01*
X140285805Y-76499880D01*
X140295181Y-76522519D01*
X140308794Y-76542895D01*
X140317100Y-76551201D01*
X140317100Y-77364600D01*
X139465100Y-77364600D01*
X139465100Y-76551202D01*
X139473399Y-76542904D01*
X139487013Y-76522530D01*
X139496392Y-76499891D01*
X139501174Y-76475858D01*
X139501175Y-76451354D01*
X139496395Y-76427320D01*
X139487019Y-76404681D01*
X139473406Y-76384305D01*
X139465100Y-76375999D01*
X139465100Y-75562600D01*
X140317100Y-75562600D01*
X140317100Y-76375998D01*
X140317100Y-76375998D01*
G37*
G36*
X141904600Y-76375998D02*
X141896301Y-76384296D01*
X141882687Y-76404670D01*
X141873308Y-76427309D01*
X141868526Y-76451342D01*
X141868525Y-76475846D01*
X141873305Y-76499880D01*
X141882681Y-76522519D01*
X141896294Y-76542895D01*
X141904600Y-76551201D01*
X141904600Y-77364600D01*
X141052600Y-77364600D01*
X141052600Y-76551202D01*
X141060899Y-76542904D01*
X141074513Y-76522530D01*
X141083892Y-76499891D01*
X141088674Y-76475858D01*
X141088675Y-76451354D01*
X141083895Y-76427320D01*
X141074519Y-76404681D01*
X141060906Y-76384305D01*
X141052600Y-76375999D01*
X141052600Y-75562600D01*
X141904600Y-75562600D01*
X141904600Y-76375998D01*
X141904600Y-76375998D01*
G37*
G36*
X153817100Y-74300998D02*
X153808801Y-74309296D01*
X153795187Y-74329670D01*
X153785808Y-74352309D01*
X153781026Y-74376342D01*
X153781025Y-74400846D01*
X153785805Y-74424880D01*
X153795181Y-74447519D01*
X153808794Y-74467895D01*
X153817100Y-74476201D01*
X153817100Y-75289600D01*
X152965100Y-75289600D01*
X152965100Y-74476202D01*
X152973399Y-74467904D01*
X152987013Y-74447530D01*
X152996392Y-74424891D01*
X153001174Y-74400858D01*
X153001175Y-74376354D01*
X152996395Y-74352320D01*
X152987019Y-74329681D01*
X152973406Y-74309305D01*
X152965100Y-74300999D01*
X152965100Y-73487600D01*
X153817100Y-73487600D01*
X153817100Y-74300998D01*
X153817100Y-74300998D01*
G37*
G36*
X156357100Y-74300998D02*
X156348801Y-74309296D01*
X156335187Y-74329670D01*
X156325808Y-74352309D01*
X156321026Y-74376342D01*
X156321025Y-74400846D01*
X156325805Y-74424880D01*
X156335181Y-74447519D01*
X156348794Y-74467895D01*
X156357100Y-74476201D01*
X156357100Y-75289600D01*
X155505100Y-75289600D01*
X155505100Y-74476202D01*
X155513399Y-74467904D01*
X155527013Y-74447530D01*
X155536392Y-74424891D01*
X155541174Y-74400858D01*
X155541175Y-74376354D01*
X155536395Y-74352320D01*
X155527019Y-74329681D01*
X155513406Y-74309305D01*
X155505100Y-74300999D01*
X155505100Y-73487600D01*
X156357100Y-73487600D01*
X156357100Y-74300998D01*
X156357100Y-74300998D01*
G37*
G36*
X155087100Y-74300998D02*
X155078801Y-74309296D01*
X155065187Y-74329670D01*
X155055808Y-74352309D01*
X155051026Y-74376342D01*
X155051025Y-74400846D01*
X155055805Y-74424880D01*
X155065181Y-74447519D01*
X155078794Y-74467895D01*
X155087100Y-74476201D01*
X155087100Y-75289600D01*
X154235100Y-75289600D01*
X154235100Y-74476202D01*
X154243399Y-74467904D01*
X154257013Y-74447530D01*
X154266392Y-74424891D01*
X154271174Y-74400858D01*
X154271175Y-74376354D01*
X154266395Y-74352320D01*
X154257019Y-74329681D01*
X154243406Y-74309305D01*
X154235100Y-74300999D01*
X154235100Y-73487600D01*
X155087100Y-73487600D01*
X155087100Y-74300998D01*
X155087100Y-74300998D01*
G37*
G36*
X161531355Y-68837825D02*
X161793911Y-68890051D01*
X162288556Y-69094940D01*
X162727801Y-69388435D01*
X162733727Y-69392394D01*
X163112306Y-69770973D01*
X163112308Y-69770976D01*
X163409760Y-70216144D01*
X163614649Y-70710789D01*
X163719100Y-71235900D01*
X163719100Y-71771300D01*
X163621176Y-72263600D01*
X163614649Y-72296410D01*
X163409761Y-72791054D01*
X163112306Y-73236227D01*
X162733727Y-73614806D01*
X162733724Y-73614808D01*
X162288556Y-73912260D01*
X161793911Y-74117149D01*
X161531356Y-74169374D01*
X161268801Y-74221600D01*
X160733399Y-74221600D01*
X160470844Y-74169374D01*
X160208289Y-74117149D01*
X159713644Y-73912260D01*
X159268476Y-73614808D01*
X159268473Y-73614806D01*
X158889894Y-73236227D01*
X158592439Y-72791054D01*
X158387551Y-72296410D01*
X158381025Y-72263600D01*
X158283100Y-71771300D01*
X158283100Y-71235900D01*
X158387551Y-70710789D01*
X158592440Y-70216144D01*
X158889892Y-69770976D01*
X158889894Y-69770973D01*
X159268473Y-69392394D01*
X159274399Y-69388435D01*
X159713644Y-69094940D01*
X160208289Y-68890051D01*
X160470845Y-68837825D01*
X160733399Y-68785600D01*
X161268801Y-68785600D01*
X161531355Y-68837825D01*
X161531355Y-68837825D01*
G37*
G36*
X136531355Y-68837825D02*
X136793911Y-68890051D01*
X137288556Y-69094940D01*
X137727801Y-69388435D01*
X137733727Y-69392394D01*
X138112306Y-69770973D01*
X138112308Y-69770976D01*
X138409760Y-70216144D01*
X138614649Y-70710789D01*
X138719100Y-71235900D01*
X138719100Y-71771300D01*
X138621176Y-72263600D01*
X138614649Y-72296410D01*
X138409761Y-72791054D01*
X138112306Y-73236227D01*
X137733727Y-73614806D01*
X137733724Y-73614808D01*
X137288556Y-73912260D01*
X136793911Y-74117149D01*
X136531356Y-74169374D01*
X136268801Y-74221600D01*
X135733399Y-74221600D01*
X135470844Y-74169374D01*
X135208289Y-74117149D01*
X134713644Y-73912260D01*
X134268476Y-73614808D01*
X134268473Y-73614806D01*
X133889894Y-73236227D01*
X133592439Y-72791054D01*
X133387551Y-72296410D01*
X133381025Y-72263600D01*
X133283100Y-71771300D01*
X133283100Y-71235900D01*
X133387551Y-70710789D01*
X133592440Y-70216144D01*
X133889892Y-69770976D01*
X133889894Y-69770973D01*
X134268473Y-69392394D01*
X134274399Y-69388435D01*
X134713644Y-69094940D01*
X135208289Y-68890051D01*
X135470845Y-68837825D01*
X135733399Y-68785600D01*
X136268801Y-68785600D01*
X136531355Y-68837825D01*
X136531355Y-68837825D01*
G37*
G36*
X155047100Y-72464600D02*
X154445100Y-72464600D01*
X154445100Y-71562600D01*
X155047100Y-71562600D01*
X155047100Y-72464600D01*
X155047100Y-72464600D01*
G37*
G36*
X154147100Y-72464600D02*
X153545100Y-72464600D01*
X153545100Y-71562600D01*
X154147100Y-71562600D01*
X154147100Y-72464600D01*
X154147100Y-72464600D01*
G37*
G36*
X146522100Y-72363600D02*
X143420100Y-72363600D01*
X143420100Y-70911600D01*
X146522100Y-70911600D01*
X146522100Y-72363600D01*
X146522100Y-72363600D01*
G37*
G36*
X149072100Y-72263600D02*
X147370100Y-72263600D01*
X147370100Y-70761600D01*
X149072100Y-70761600D01*
X149072100Y-72263600D01*
X149072100Y-72263600D01*
G37*
G36*
X142572100Y-72263600D02*
X140870100Y-72263600D01*
X140870100Y-70761600D01*
X142572100Y-70761600D01*
X142572100Y-72263600D01*
X142572100Y-72263600D01*
G37*
G36*
X154147100Y-70864600D02*
X153545100Y-70864600D01*
X153545100Y-69962600D01*
X154147100Y-69962600D01*
X154147100Y-70864600D01*
X154147100Y-70864600D01*
G37*
G36*
X155047100Y-70864600D02*
X154445100Y-70864600D01*
X154445100Y-69962600D01*
X155047100Y-69962600D01*
X155047100Y-70864600D01*
X155047100Y-70864600D01*
G37*
G36*
X144772100Y-69963600D02*
X142770100Y-69963600D01*
X142770100Y-67961600D01*
X144772100Y-67961600D01*
X144772100Y-69963600D01*
X144772100Y-69963600D01*
G37*
G36*
X147172100Y-69963600D02*
X145170100Y-69963600D01*
X145170100Y-67961600D01*
X147172100Y-67961600D01*
X147172100Y-69963600D01*
X147172100Y-69963600D01*
G37*
G36*
X148369313Y-68018849D02*
X148463752Y-68047497D01*
X148550787Y-68094018D01*
X148627075Y-68156625D01*
X148689682Y-68232913D01*
X148736203Y-68319948D01*
X148764851Y-68414387D01*
X148772100Y-68487988D01*
X148772100Y-69437212D01*
X148764851Y-69510813D01*
X148736203Y-69605252D01*
X148689682Y-69692287D01*
X148627075Y-69768575D01*
X148550787Y-69831182D01*
X148463751Y-69877703D01*
X148369312Y-69906351D01*
X148271100Y-69916024D01*
X148172887Y-69906351D01*
X148078448Y-69877703D01*
X147991413Y-69831182D01*
X147915125Y-69768575D01*
X147852518Y-69692287D01*
X147805997Y-69605251D01*
X147777349Y-69510812D01*
X147770100Y-69437211D01*
X147770100Y-68488000D01*
X147770101Y-68487988D01*
X147777350Y-68414387D01*
X147805998Y-68319948D01*
X147852519Y-68232913D01*
X147915126Y-68156625D01*
X147991414Y-68094018D01*
X148078449Y-68047497D01*
X148172888Y-68018849D01*
X148271100Y-68009176D01*
X148369313Y-68018849D01*
X148369313Y-68018849D01*
G37*
G36*
X141769313Y-68018849D02*
X141863752Y-68047497D01*
X141950787Y-68094018D01*
X142027075Y-68156625D01*
X142089682Y-68232913D01*
X142136203Y-68319948D01*
X142164851Y-68414387D01*
X142172100Y-68487988D01*
X142172100Y-69437212D01*
X142164851Y-69510813D01*
X142136203Y-69605252D01*
X142089682Y-69692287D01*
X142027075Y-69768575D01*
X141950787Y-69831182D01*
X141863751Y-69877703D01*
X141769312Y-69906351D01*
X141671100Y-69916024D01*
X141572887Y-69906351D01*
X141478448Y-69877703D01*
X141391413Y-69831182D01*
X141315125Y-69768575D01*
X141252518Y-69692287D01*
X141205997Y-69605251D01*
X141177349Y-69510812D01*
X141170100Y-69437211D01*
X141170100Y-68488000D01*
X141170101Y-68487988D01*
X141177350Y-68414387D01*
X141205998Y-68319948D01*
X141252519Y-68232913D01*
X141315126Y-68156625D01*
X141391414Y-68094018D01*
X141478449Y-68047497D01*
X141572888Y-68018849D01*
X141671100Y-68009176D01*
X141769313Y-68018849D01*
X141769313Y-68018849D01*
G37*
M02*
