M48
;DRILL file {KiCad 5.0.2-bee76a0~70~ubuntu18.04.1} date Mo 21 Okt 2019 17:09:43 CEST
;FORMAT={-:-/ absolute / metric / decimal}
FMAT,2
METRIC,TZ
T1C0.305
T2C0.350
T3C0.400
T4C0.500
T5C1.016
T6C2.800
%
G90
G05
T1
X135.446Y-90.592
X136.716Y-106.626
X136.716Y-123.136
X136.716Y-131.391
X137.034Y-105.504
X137.351Y-87.259
X138.75Y-95.037
X138.939Y-81.544
X138.939Y-90.116
X139.574Y-93.291
X139.891Y-83.449
X139.891Y-84.401
X140.Y-96.5
X140.209Y-93.926
X140.526Y-125.676
X140.844Y-84.719
X140.844Y-94.561
X140.85Y-98.3
X141.161Y-110.754
X141.479Y-115.834
X141.796Y-101.229
X142.15Y-117.75
X142.431Y-101.864
X142.431Y-110.754
X142.749Y-78.369
X142.749Y-115.516
X142.749Y-125.359
X143.066Y-101.229
X143.384Y-130.439
X143.701Y-87.894
X144.019Y-84.56
X144.2Y-98.3
X144.336Y-81.226
X144.336Y-101.229
X144.586Y-83.064
X144.654Y-74.559
X145.5Y-92.5
X145.606Y-80.591
X145.606Y-91.545
X145.924Y-74.241
X145.924Y-88.846
X145.924Y-112.976
X145.924Y-118.691
X146.241Y-73.289
X146.241Y-108.531
X146.241Y-126.946
X146.55Y-91.95
X146.876Y-88.846
X147.45Y-92.15
X147.511Y-119.009
X147.829Y-97.736
X147.829Y-106.626
X148.146Y-98.689
X148.464Y-88.529
X148.781Y-99.324
X149.099Y-85.671
X149.099Y-120.279
X149.416Y-83.131
X149.416Y-99.959
X149.416Y-126.946
X149.734Y-77.099
X149.734Y-88.846
X150.051Y-92.974
X150.051Y-93.926
X150.369Y-97.736
X150.369Y-99.959
X150.686Y-131.074
X151.321Y-84.401
X151.639Y-82.814
X151.956Y-95.514
X152.274Y-80.591
X152.591Y-87.815
X152.909Y-130.756
X153.544Y-92.974
X153.544Y-99.959
X153.861Y-91.704
X154.814Y-106.626
X154.814Y-120.279
X155.131Y-128.851
X156.719Y-77.416
X156.719Y-82.496
X156.719Y-108.531
X156.719Y-112.976
X156.719Y-118.691
X157.036Y-83.766
X157.989Y-83.766
X158.306Y-100.911
X158.306Y-125.676
X158.306Y-129.486
X158.321Y-91.386
X158.941Y-130.121
X159.894Y-103.769
X160.211Y-83.449
X160.529Y-91.069
X141.881Y-82.264
X142.431Y-82.814
X142.931Y-83.314
X142.981Y-82.264
T2
X136.716Y-97.101
X139.891Y-128.534
X142.749Y-122.819
X146.241Y-130.756
X147.511Y-130.439
X148.786Y-130.444
X150.686Y-92.339
X151.639Y-130.756
X151.797Y-128.057
X154.814Y-130.756
X160.846Y-109.484
X161.481Y-80.909
X161.481Y-82.179
X161.481Y-91.069
T3
X143.25Y-94.85
T4
X141.671Y-68.963
X148.271Y-68.963
T5
X134.001Y-77.504
X134.001Y-79.504
X134.001Y-113.504
X134.001Y-115.504
X134.001Y-117.504
X134.001Y-119.504
X134.001Y-121.504
X134.001Y-83.504
X134.001Y-85.504
X134.001Y-87.504
X134.001Y-89.504
X134.001Y-91.504
X163.001Y-77.504
X163.001Y-79.504
X163.001Y-81.504
X163.001Y-83.504
X163.001Y-85.504
X159.704Y-98.689
X161.704Y-98.689
X163.704Y-98.689
X134.001Y-103.504
X134.001Y-105.504
X134.001Y-107.504
X134.001Y-109.504
X134.001Y-95.504
X134.001Y-97.504
X134.001Y-99.504
X134.001Y-125.504
X134.001Y-127.504
X134.001Y-129.504
X134.001Y-131.504
X134.001Y-133.504
T6
X161.001Y-71.504
X161.001Y-138.504
X136.001Y-138.504
X136.001Y-71.504
T0
M30
